G04 #@! TF.GenerationSoftware,KiCad,Pcbnew,no-vcs-found-7592~57~ubuntu16.04.1*
G04 #@! TF.CreationDate,2017-02-12T17:12:26+02:00*
G04 #@! TF.ProjectId,lora_sensor,6C6F72615F73656E736F722E6B696361,rev?*
G04 #@! TF.FileFunction,Legend,Bot*
G04 #@! TF.FilePolarity,Positive*
%FSLAX46Y46*%
G04 Gerber Fmt 4.6, Leading zero omitted, Abs format (unit mm)*
G04 Created by KiCad (PCBNEW no-vcs-found-7592~57~ubuntu16.04.1) date Sun Feb 12 17:12:26 2017*
%MOMM*%
%LPD*%
G01*
G04 APERTURE LIST*
%ADD10C,0.100000*%
%ADD11C,0.150000*%
%ADD12C,0.120000*%
%ADD13C,0.050000*%
G04 APERTURE END LIST*
D10*
D11*
X112635000Y-108550000D02*
X112635000Y-107350000D01*
X110885000Y-107350000D02*
X110885000Y-108550000D01*
D12*
X92472000Y-112005000D02*
X94472000Y-112005000D01*
X94472000Y-114055000D02*
X92472000Y-114055000D01*
X107022000Y-92464000D02*
X107022000Y-93464000D01*
X105322000Y-93464000D02*
X105322000Y-92464000D01*
X74430000Y-79922000D02*
X75430000Y-79922000D01*
X75430000Y-81622000D02*
X74430000Y-81622000D01*
X97036000Y-107862000D02*
X98036000Y-107862000D01*
X98036000Y-109562000D02*
X97036000Y-109562000D01*
X100164000Y-105164000D02*
X100164000Y-106164000D01*
X98464000Y-106164000D02*
X98464000Y-105164000D01*
X103894000Y-103544000D02*
X104894000Y-103544000D01*
X104894000Y-105244000D02*
X103894000Y-105244000D01*
X102450000Y-105164000D02*
X102450000Y-106164000D01*
X100750000Y-106164000D02*
X100750000Y-105164000D01*
X86114000Y-96940000D02*
X87114000Y-96940000D01*
X87114000Y-98640000D02*
X86114000Y-98640000D01*
X87114000Y-107784000D02*
X86114000Y-107784000D01*
X86114000Y-106084000D02*
X87114000Y-106084000D01*
X76717000Y-99076000D02*
X76717000Y-101076000D01*
X74667000Y-101076000D02*
X74667000Y-99076000D01*
X80098000Y-105418000D02*
X80098000Y-106418000D01*
X78398000Y-106418000D02*
X78398000Y-105418000D01*
D11*
X76821000Y-83658000D02*
X76821000Y-82458000D01*
X75071000Y-82458000D02*
X75071000Y-83658000D01*
X76821000Y-86960000D02*
X76821000Y-85760000D01*
X75071000Y-85760000D02*
X75071000Y-86960000D01*
X74789000Y-83658000D02*
X74789000Y-82458000D01*
X73039000Y-82458000D02*
X73039000Y-83658000D01*
X74789000Y-86960000D02*
X74789000Y-85760000D01*
X73039000Y-85760000D02*
X73039000Y-86960000D01*
X112635000Y-113630000D02*
X112635000Y-112430000D01*
X110885000Y-112430000D02*
X110885000Y-113630000D01*
X94904000Y-111619000D02*
X96104000Y-111619000D01*
X96104000Y-109869000D02*
X94904000Y-109869000D01*
X112635000Y-103470000D02*
X112635000Y-102270000D01*
X110885000Y-102270000D02*
X110885000Y-103470000D01*
X112635000Y-98390000D02*
X112635000Y-97190000D01*
X110885000Y-97190000D02*
X110885000Y-98390000D01*
X79023981Y-75285600D02*
G75*
G03X79023981Y-75285600I-283981J0D01*
G01*
X77470000Y-91440000D02*
X77901800Y-91440000D01*
X77470000Y-73660000D02*
X77901800Y-73660000D01*
X104140000Y-73660000D02*
X103708200Y-73660000D01*
X104140000Y-77470000D02*
X104140000Y-77901800D01*
X104140000Y-91440000D02*
X103581200Y-91440000D01*
X104140000Y-87630000D02*
X104140000Y-87198200D01*
X104140000Y-77470000D02*
X104140000Y-73660000D01*
X104140000Y-91440000D02*
X104140000Y-87630000D01*
X77470000Y-91440000D02*
X77470000Y-73660000D01*
D12*
X100956000Y-112812000D02*
X99196000Y-112812000D01*
X99196000Y-109742000D02*
X101626000Y-109742000D01*
X105548000Y-109306000D02*
X103748000Y-109306000D01*
X103748000Y-106086000D02*
X106198000Y-106086000D01*
D13*
X113510190Y-107628571D02*
X113272095Y-107461904D01*
X113510190Y-107342857D02*
X113010190Y-107342857D01*
X113010190Y-107533333D01*
X113034000Y-107580952D01*
X113057809Y-107604761D01*
X113105428Y-107628571D01*
X113176857Y-107628571D01*
X113224476Y-107604761D01*
X113248285Y-107580952D01*
X113272095Y-107533333D01*
X113272095Y-107342857D01*
X113510190Y-108104761D02*
X113510190Y-107819047D01*
X113510190Y-107961904D02*
X113010190Y-107961904D01*
X113081619Y-107914285D01*
X113129238Y-107866666D01*
X113153047Y-107819047D01*
X113510190Y-108580952D02*
X113510190Y-108295238D01*
X113510190Y-108438095D02*
X113010190Y-108438095D01*
X113081619Y-108390476D01*
X113129238Y-108342857D01*
X113153047Y-108295238D01*
X95333333Y-115494571D02*
X95357142Y-115518380D01*
X95428571Y-115542190D01*
X95476190Y-115542190D01*
X95547619Y-115518380D01*
X95595238Y-115470761D01*
X95619047Y-115423142D01*
X95642857Y-115327904D01*
X95642857Y-115256476D01*
X95619047Y-115161238D01*
X95595238Y-115113619D01*
X95547619Y-115066000D01*
X95476190Y-115042190D01*
X95428571Y-115042190D01*
X95357142Y-115066000D01*
X95333333Y-115089809D01*
X94880952Y-115042190D02*
X95119047Y-115042190D01*
X95142857Y-115280285D01*
X95119047Y-115256476D01*
X95071428Y-115232666D01*
X94952380Y-115232666D01*
X94904761Y-115256476D01*
X94880952Y-115280285D01*
X94857142Y-115327904D01*
X94857142Y-115446952D01*
X94880952Y-115494571D01*
X94904761Y-115518380D01*
X94952380Y-115542190D01*
X95071428Y-115542190D01*
X95119047Y-115518380D01*
X95142857Y-115494571D01*
X93412380Y-115208857D02*
X93412380Y-115542190D01*
X93531428Y-115018380D02*
X93650476Y-115375523D01*
X93340952Y-115375523D01*
X93150476Y-115494571D02*
X93126666Y-115518380D01*
X93150476Y-115542190D01*
X93174285Y-115518380D01*
X93150476Y-115494571D01*
X93150476Y-115542190D01*
X92960000Y-115042190D02*
X92626666Y-115042190D01*
X92840952Y-115542190D01*
X92221904Y-115208857D02*
X92221904Y-115542190D01*
X92436190Y-115208857D02*
X92436190Y-115470761D01*
X92412380Y-115518380D01*
X92364761Y-115542190D01*
X92293333Y-115542190D01*
X92245714Y-115518380D01*
X92221904Y-115494571D01*
X91817142Y-115280285D02*
X91983809Y-115280285D01*
X91983809Y-115542190D02*
X91983809Y-115042190D01*
X91745714Y-115042190D01*
X105842571Y-95166666D02*
X105866380Y-95142857D01*
X105890190Y-95071428D01*
X105890190Y-95023809D01*
X105866380Y-94952380D01*
X105818761Y-94904761D01*
X105771142Y-94880952D01*
X105675904Y-94857142D01*
X105604476Y-94857142D01*
X105509238Y-94880952D01*
X105461619Y-94904761D01*
X105414000Y-94952380D01*
X105390190Y-95023809D01*
X105390190Y-95071428D01*
X105414000Y-95142857D01*
X105437809Y-95166666D01*
X105890190Y-95642857D02*
X105890190Y-95357142D01*
X105890190Y-95500000D02*
X105390190Y-95500000D01*
X105461619Y-95452380D01*
X105509238Y-95404761D01*
X105533047Y-95357142D01*
X105128190Y-94984190D02*
X105128190Y-94698476D01*
X105128190Y-94841333D02*
X104628190Y-94841333D01*
X104699619Y-94793714D01*
X104747238Y-94746095D01*
X104771047Y-94698476D01*
X104628190Y-95293714D02*
X104628190Y-95341333D01*
X104652000Y-95388952D01*
X104675809Y-95412761D01*
X104723428Y-95436571D01*
X104818666Y-95460380D01*
X104937714Y-95460380D01*
X105032952Y-95436571D01*
X105080571Y-95412761D01*
X105104380Y-95388952D01*
X105128190Y-95341333D01*
X105128190Y-95293714D01*
X105104380Y-95246095D01*
X105080571Y-95222285D01*
X105032952Y-95198476D01*
X104937714Y-95174666D01*
X104818666Y-95174666D01*
X104723428Y-95198476D01*
X104675809Y-95222285D01*
X104652000Y-95246095D01*
X104628190Y-95293714D01*
X104628190Y-95769904D02*
X104628190Y-95817523D01*
X104652000Y-95865142D01*
X104675809Y-95888952D01*
X104723428Y-95912761D01*
X104818666Y-95936571D01*
X104937714Y-95936571D01*
X105032952Y-95912761D01*
X105080571Y-95888952D01*
X105104380Y-95865142D01*
X105128190Y-95817523D01*
X105128190Y-95769904D01*
X105104380Y-95722285D01*
X105080571Y-95698476D01*
X105032952Y-95674666D01*
X104937714Y-95650857D01*
X104818666Y-95650857D01*
X104723428Y-95674666D01*
X104675809Y-95698476D01*
X104652000Y-95722285D01*
X104628190Y-95769904D01*
X104794857Y-96150857D02*
X105128190Y-96150857D01*
X104842476Y-96150857D02*
X104818666Y-96174666D01*
X104794857Y-96222285D01*
X104794857Y-96293714D01*
X104818666Y-96341333D01*
X104866285Y-96365142D01*
X105128190Y-96365142D01*
X104866285Y-96769904D02*
X104866285Y-96603238D01*
X105128190Y-96603238D02*
X104628190Y-96603238D01*
X104628190Y-96841333D01*
X76283333Y-79680571D02*
X76307142Y-79704380D01*
X76378571Y-79728190D01*
X76426190Y-79728190D01*
X76497619Y-79704380D01*
X76545238Y-79656761D01*
X76569047Y-79609142D01*
X76592857Y-79513904D01*
X76592857Y-79442476D01*
X76569047Y-79347238D01*
X76545238Y-79299619D01*
X76497619Y-79252000D01*
X76426190Y-79228190D01*
X76378571Y-79228190D01*
X76307142Y-79252000D01*
X76283333Y-79275809D01*
X76092857Y-79275809D02*
X76069047Y-79252000D01*
X76021428Y-79228190D01*
X75902380Y-79228190D01*
X75854761Y-79252000D01*
X75830952Y-79275809D01*
X75807142Y-79323428D01*
X75807142Y-79371047D01*
X75830952Y-79442476D01*
X76116666Y-79728190D01*
X75807142Y-79728190D01*
X74433809Y-79728190D02*
X74719523Y-79728190D01*
X74576666Y-79728190D02*
X74576666Y-79228190D01*
X74624285Y-79299619D01*
X74671904Y-79347238D01*
X74719523Y-79371047D01*
X74124285Y-79228190D02*
X74076666Y-79228190D01*
X74029047Y-79252000D01*
X74005238Y-79275809D01*
X73981428Y-79323428D01*
X73957619Y-79418666D01*
X73957619Y-79537714D01*
X73981428Y-79632952D01*
X74005238Y-79680571D01*
X74029047Y-79704380D01*
X74076666Y-79728190D01*
X74124285Y-79728190D01*
X74171904Y-79704380D01*
X74195714Y-79680571D01*
X74219523Y-79632952D01*
X74243333Y-79537714D01*
X74243333Y-79418666D01*
X74219523Y-79323428D01*
X74195714Y-79275809D01*
X74171904Y-79252000D01*
X74124285Y-79228190D01*
X73648095Y-79228190D02*
X73600476Y-79228190D01*
X73552857Y-79252000D01*
X73529047Y-79275809D01*
X73505238Y-79323428D01*
X73481428Y-79418666D01*
X73481428Y-79537714D01*
X73505238Y-79632952D01*
X73529047Y-79680571D01*
X73552857Y-79704380D01*
X73600476Y-79728190D01*
X73648095Y-79728190D01*
X73695714Y-79704380D01*
X73719523Y-79680571D01*
X73743333Y-79632952D01*
X73767142Y-79537714D01*
X73767142Y-79418666D01*
X73743333Y-79323428D01*
X73719523Y-79275809D01*
X73695714Y-79252000D01*
X73648095Y-79228190D01*
X73267142Y-79394857D02*
X73267142Y-79728190D01*
X73267142Y-79442476D02*
X73243333Y-79418666D01*
X73195714Y-79394857D01*
X73124285Y-79394857D01*
X73076666Y-79418666D01*
X73052857Y-79466285D01*
X73052857Y-79728190D01*
X72648095Y-79466285D02*
X72814761Y-79466285D01*
X72814761Y-79728190D02*
X72814761Y-79228190D01*
X72576666Y-79228190D01*
X95333333Y-108382571D02*
X95357142Y-108406380D01*
X95428571Y-108430190D01*
X95476190Y-108430190D01*
X95547619Y-108406380D01*
X95595238Y-108358761D01*
X95619047Y-108311142D01*
X95642857Y-108215904D01*
X95642857Y-108144476D01*
X95619047Y-108049238D01*
X95595238Y-108001619D01*
X95547619Y-107954000D01*
X95476190Y-107930190D01*
X95428571Y-107930190D01*
X95357142Y-107954000D01*
X95333333Y-107977809D01*
X94904761Y-107930190D02*
X95000000Y-107930190D01*
X95047619Y-107954000D01*
X95071428Y-107977809D01*
X95119047Y-108049238D01*
X95142857Y-108144476D01*
X95142857Y-108334952D01*
X95119047Y-108382571D01*
X95095238Y-108406380D01*
X95047619Y-108430190D01*
X94952380Y-108430190D01*
X94904761Y-108406380D01*
X94880952Y-108382571D01*
X94857142Y-108334952D01*
X94857142Y-108215904D01*
X94880952Y-108168285D01*
X94904761Y-108144476D01*
X94952380Y-108120666D01*
X95047619Y-108120666D01*
X95095238Y-108144476D01*
X95119047Y-108168285D01*
X95142857Y-108215904D01*
X98222571Y-104310666D02*
X98246380Y-104286857D01*
X98270190Y-104215428D01*
X98270190Y-104167809D01*
X98246380Y-104096380D01*
X98198761Y-104048761D01*
X98151142Y-104024952D01*
X98055904Y-104001142D01*
X97984476Y-104001142D01*
X97889238Y-104024952D01*
X97841619Y-104048761D01*
X97794000Y-104096380D01*
X97770190Y-104167809D01*
X97770190Y-104215428D01*
X97794000Y-104286857D01*
X97817809Y-104310666D01*
X97770190Y-104477333D02*
X97770190Y-104810666D01*
X98270190Y-104596380D01*
X105747333Y-103302571D02*
X105771142Y-103326380D01*
X105842571Y-103350190D01*
X105890190Y-103350190D01*
X105961619Y-103326380D01*
X106009238Y-103278761D01*
X106033047Y-103231142D01*
X106056857Y-103135904D01*
X106056857Y-103064476D01*
X106033047Y-102969238D01*
X106009238Y-102921619D01*
X105961619Y-102874000D01*
X105890190Y-102850190D01*
X105842571Y-102850190D01*
X105771142Y-102874000D01*
X105747333Y-102897809D01*
X105461619Y-103064476D02*
X105509238Y-103040666D01*
X105533047Y-103016857D01*
X105556857Y-102969238D01*
X105556857Y-102945428D01*
X105533047Y-102897809D01*
X105509238Y-102874000D01*
X105461619Y-102850190D01*
X105366380Y-102850190D01*
X105318761Y-102874000D01*
X105294952Y-102897809D01*
X105271142Y-102945428D01*
X105271142Y-102969238D01*
X105294952Y-103016857D01*
X105318761Y-103040666D01*
X105366380Y-103064476D01*
X105461619Y-103064476D01*
X105509238Y-103088285D01*
X105533047Y-103112095D01*
X105556857Y-103159714D01*
X105556857Y-103254952D01*
X105533047Y-103302571D01*
X105509238Y-103326380D01*
X105461619Y-103350190D01*
X105366380Y-103350190D01*
X105318761Y-103326380D01*
X105294952Y-103302571D01*
X105271142Y-103254952D01*
X105271142Y-103159714D01*
X105294952Y-103112095D01*
X105318761Y-103088285D01*
X105366380Y-103064476D01*
X101270571Y-107612666D02*
X101294380Y-107588857D01*
X101318190Y-107517428D01*
X101318190Y-107469809D01*
X101294380Y-107398380D01*
X101246761Y-107350761D01*
X101199142Y-107326952D01*
X101103904Y-107303142D01*
X101032476Y-107303142D01*
X100937238Y-107326952D01*
X100889619Y-107350761D01*
X100842000Y-107398380D01*
X100818190Y-107469809D01*
X100818190Y-107517428D01*
X100842000Y-107588857D01*
X100865809Y-107612666D01*
X101318190Y-107850761D02*
X101318190Y-107946000D01*
X101294380Y-107993619D01*
X101270571Y-108017428D01*
X101199142Y-108065047D01*
X101103904Y-108088857D01*
X100913428Y-108088857D01*
X100865809Y-108065047D01*
X100842000Y-108041238D01*
X100818190Y-107993619D01*
X100818190Y-107898380D01*
X100842000Y-107850761D01*
X100865809Y-107826952D01*
X100913428Y-107803142D01*
X101032476Y-107803142D01*
X101080095Y-107826952D01*
X101103904Y-107850761D01*
X101127714Y-107898380D01*
X101127714Y-107993619D01*
X101103904Y-108041238D01*
X101080095Y-108065047D01*
X101032476Y-108088857D01*
X88459428Y-96444571D02*
X88483238Y-96468380D01*
X88554666Y-96492190D01*
X88602285Y-96492190D01*
X88673714Y-96468380D01*
X88721333Y-96420761D01*
X88745142Y-96373142D01*
X88768952Y-96277904D01*
X88768952Y-96206476D01*
X88745142Y-96111238D01*
X88721333Y-96063619D01*
X88673714Y-96016000D01*
X88602285Y-95992190D01*
X88554666Y-95992190D01*
X88483238Y-96016000D01*
X88459428Y-96039809D01*
X87983238Y-96492190D02*
X88268952Y-96492190D01*
X88126095Y-96492190D02*
X88126095Y-95992190D01*
X88173714Y-96063619D01*
X88221333Y-96111238D01*
X88268952Y-96135047D01*
X87673714Y-95992190D02*
X87626095Y-95992190D01*
X87578476Y-96016000D01*
X87554666Y-96039809D01*
X87530857Y-96087428D01*
X87507047Y-96182666D01*
X87507047Y-96301714D01*
X87530857Y-96396952D01*
X87554666Y-96444571D01*
X87578476Y-96468380D01*
X87626095Y-96492190D01*
X87673714Y-96492190D01*
X87721333Y-96468380D01*
X87745142Y-96444571D01*
X87768952Y-96396952D01*
X87792761Y-96301714D01*
X87792761Y-96182666D01*
X87768952Y-96087428D01*
X87745142Y-96039809D01*
X87721333Y-96016000D01*
X87673714Y-95992190D01*
X85911428Y-96039809D02*
X85887619Y-96016000D01*
X85840000Y-95992190D01*
X85720952Y-95992190D01*
X85673333Y-96016000D01*
X85649523Y-96039809D01*
X85625714Y-96087428D01*
X85625714Y-96135047D01*
X85649523Y-96206476D01*
X85935238Y-96492190D01*
X85625714Y-96492190D01*
X85435238Y-96039809D02*
X85411428Y-96016000D01*
X85363809Y-95992190D01*
X85244761Y-95992190D01*
X85197142Y-96016000D01*
X85173333Y-96039809D01*
X85149523Y-96087428D01*
X85149523Y-96135047D01*
X85173333Y-96206476D01*
X85459047Y-96492190D01*
X85149523Y-96492190D01*
X84935238Y-96158857D02*
X84935238Y-96658857D01*
X84935238Y-96182666D02*
X84887619Y-96158857D01*
X84792380Y-96158857D01*
X84744761Y-96182666D01*
X84720952Y-96206476D01*
X84697142Y-96254095D01*
X84697142Y-96396952D01*
X84720952Y-96444571D01*
X84744761Y-96468380D01*
X84792380Y-96492190D01*
X84887619Y-96492190D01*
X84935238Y-96468380D01*
X84316190Y-96230285D02*
X84482857Y-96230285D01*
X84482857Y-96492190D02*
X84482857Y-95992190D01*
X84244761Y-95992190D01*
X88205428Y-108382571D02*
X88229238Y-108406380D01*
X88300666Y-108430190D01*
X88348285Y-108430190D01*
X88419714Y-108406380D01*
X88467333Y-108358761D01*
X88491142Y-108311142D01*
X88514952Y-108215904D01*
X88514952Y-108144476D01*
X88491142Y-108049238D01*
X88467333Y-108001619D01*
X88419714Y-107954000D01*
X88348285Y-107930190D01*
X88300666Y-107930190D01*
X88229238Y-107954000D01*
X88205428Y-107977809D01*
X87729238Y-108430190D02*
X88014952Y-108430190D01*
X87872095Y-108430190D02*
X87872095Y-107930190D01*
X87919714Y-108001619D01*
X87967333Y-108049238D01*
X88014952Y-108073047D01*
X87253047Y-108430190D02*
X87538761Y-108430190D01*
X87395904Y-108430190D02*
X87395904Y-107930190D01*
X87443523Y-108001619D01*
X87491142Y-108049238D01*
X87538761Y-108073047D01*
X86419428Y-107977809D02*
X86395619Y-107954000D01*
X86348000Y-107930190D01*
X86228952Y-107930190D01*
X86181333Y-107954000D01*
X86157523Y-107977809D01*
X86133714Y-108025428D01*
X86133714Y-108073047D01*
X86157523Y-108144476D01*
X86443238Y-108430190D01*
X86133714Y-108430190D01*
X85943238Y-107977809D02*
X85919428Y-107954000D01*
X85871809Y-107930190D01*
X85752761Y-107930190D01*
X85705142Y-107954000D01*
X85681333Y-107977809D01*
X85657523Y-108025428D01*
X85657523Y-108073047D01*
X85681333Y-108144476D01*
X85967047Y-108430190D01*
X85657523Y-108430190D01*
X85443238Y-108096857D02*
X85443238Y-108596857D01*
X85443238Y-108120666D02*
X85395619Y-108096857D01*
X85300380Y-108096857D01*
X85252761Y-108120666D01*
X85228952Y-108144476D01*
X85205142Y-108192095D01*
X85205142Y-108334952D01*
X85228952Y-108382571D01*
X85252761Y-108406380D01*
X85300380Y-108430190D01*
X85395619Y-108430190D01*
X85443238Y-108406380D01*
X84824190Y-108168285D02*
X84990857Y-108168285D01*
X84990857Y-108430190D02*
X84990857Y-107930190D01*
X84752761Y-107930190D01*
X74092571Y-98230571D02*
X74116380Y-98206761D01*
X74140190Y-98135333D01*
X74140190Y-98087714D01*
X74116380Y-98016285D01*
X74068761Y-97968666D01*
X74021142Y-97944857D01*
X73925904Y-97921047D01*
X73854476Y-97921047D01*
X73759238Y-97944857D01*
X73711619Y-97968666D01*
X73664000Y-98016285D01*
X73640190Y-98087714D01*
X73640190Y-98135333D01*
X73664000Y-98206761D01*
X73687809Y-98230571D01*
X74140190Y-98706761D02*
X74140190Y-98421047D01*
X74140190Y-98563904D02*
X73640190Y-98563904D01*
X73711619Y-98516285D01*
X73759238Y-98468666D01*
X73783047Y-98421047D01*
X73640190Y-98873428D02*
X73640190Y-99182952D01*
X73830666Y-99016285D01*
X73830666Y-99087714D01*
X73854476Y-99135333D01*
X73878285Y-99159142D01*
X73925904Y-99182952D01*
X74044952Y-99182952D01*
X74092571Y-99159142D01*
X74116380Y-99135333D01*
X74140190Y-99087714D01*
X74140190Y-98944857D01*
X74116380Y-98897238D01*
X74092571Y-98873428D01*
X74140190Y-100810285D02*
X74140190Y-100524571D01*
X74140190Y-100667428D02*
X73640190Y-100667428D01*
X73711619Y-100619809D01*
X73759238Y-100572190D01*
X73783047Y-100524571D01*
X73640190Y-101119809D02*
X73640190Y-101167428D01*
X73664000Y-101215047D01*
X73687809Y-101238857D01*
X73735428Y-101262666D01*
X73830666Y-101286476D01*
X73949714Y-101286476D01*
X74044952Y-101262666D01*
X74092571Y-101238857D01*
X74116380Y-101215047D01*
X74140190Y-101167428D01*
X74140190Y-101119809D01*
X74116380Y-101072190D01*
X74092571Y-101048380D01*
X74044952Y-101024571D01*
X73949714Y-101000761D01*
X73830666Y-101000761D01*
X73735428Y-101024571D01*
X73687809Y-101048380D01*
X73664000Y-101072190D01*
X73640190Y-101119809D01*
X73806857Y-101715047D02*
X74140190Y-101715047D01*
X73806857Y-101500761D02*
X74068761Y-101500761D01*
X74116380Y-101524571D01*
X74140190Y-101572190D01*
X74140190Y-101643619D01*
X74116380Y-101691238D01*
X74092571Y-101715047D01*
X73878285Y-102119809D02*
X73878285Y-101953142D01*
X74140190Y-101953142D02*
X73640190Y-101953142D01*
X73640190Y-102191238D01*
X77902571Y-104326571D02*
X77926380Y-104302761D01*
X77950190Y-104231333D01*
X77950190Y-104183714D01*
X77926380Y-104112285D01*
X77878761Y-104064666D01*
X77831142Y-104040857D01*
X77735904Y-104017047D01*
X77664476Y-104017047D01*
X77569238Y-104040857D01*
X77521619Y-104064666D01*
X77474000Y-104112285D01*
X77450190Y-104183714D01*
X77450190Y-104231333D01*
X77474000Y-104302761D01*
X77497809Y-104326571D01*
X77950190Y-104802761D02*
X77950190Y-104517047D01*
X77950190Y-104659904D02*
X77450190Y-104659904D01*
X77521619Y-104612285D01*
X77569238Y-104564666D01*
X77593047Y-104517047D01*
X77450190Y-105231333D02*
X77450190Y-105136095D01*
X77474000Y-105088476D01*
X77497809Y-105064666D01*
X77569238Y-105017047D01*
X77664476Y-104993238D01*
X77854952Y-104993238D01*
X77902571Y-105017047D01*
X77926380Y-105040857D01*
X77950190Y-105088476D01*
X77950190Y-105183714D01*
X77926380Y-105231333D01*
X77902571Y-105255142D01*
X77854952Y-105278952D01*
X77735904Y-105278952D01*
X77688285Y-105255142D01*
X77664476Y-105231333D01*
X77640666Y-105183714D01*
X77640666Y-105088476D01*
X77664476Y-105040857D01*
X77688285Y-105017047D01*
X77735904Y-104993238D01*
X77950190Y-106160190D02*
X77950190Y-105874476D01*
X77950190Y-106017333D02*
X77450190Y-106017333D01*
X77521619Y-105969714D01*
X77569238Y-105922095D01*
X77593047Y-105874476D01*
X77450190Y-106469714D02*
X77450190Y-106517333D01*
X77474000Y-106564952D01*
X77497809Y-106588761D01*
X77545428Y-106612571D01*
X77640666Y-106636380D01*
X77759714Y-106636380D01*
X77854952Y-106612571D01*
X77902571Y-106588761D01*
X77926380Y-106564952D01*
X77950190Y-106517333D01*
X77950190Y-106469714D01*
X77926380Y-106422095D01*
X77902571Y-106398285D01*
X77854952Y-106374476D01*
X77759714Y-106350666D01*
X77640666Y-106350666D01*
X77545428Y-106374476D01*
X77497809Y-106398285D01*
X77474000Y-106422095D01*
X77450190Y-106469714D01*
X77450190Y-106945904D02*
X77450190Y-106993523D01*
X77474000Y-107041142D01*
X77497809Y-107064952D01*
X77545428Y-107088761D01*
X77640666Y-107112571D01*
X77759714Y-107112571D01*
X77854952Y-107088761D01*
X77902571Y-107064952D01*
X77926380Y-107041142D01*
X77950190Y-106993523D01*
X77950190Y-106945904D01*
X77926380Y-106898285D01*
X77902571Y-106874476D01*
X77854952Y-106850666D01*
X77759714Y-106826857D01*
X77640666Y-106826857D01*
X77545428Y-106850666D01*
X77497809Y-106874476D01*
X77474000Y-106898285D01*
X77450190Y-106945904D01*
X77616857Y-107326857D02*
X77950190Y-107326857D01*
X77664476Y-107326857D02*
X77640666Y-107350666D01*
X77616857Y-107398285D01*
X77616857Y-107469714D01*
X77640666Y-107517333D01*
X77688285Y-107541142D01*
X77950190Y-107541142D01*
X77688285Y-107945904D02*
X77688285Y-107779238D01*
X77950190Y-107779238D02*
X77450190Y-107779238D01*
X77450190Y-108017333D01*
X72362190Y-82974666D02*
X72124095Y-82808000D01*
X72362190Y-82688952D02*
X71862190Y-82688952D01*
X71862190Y-82879428D01*
X71886000Y-82927047D01*
X71909809Y-82950857D01*
X71957428Y-82974666D01*
X72028857Y-82974666D01*
X72076476Y-82950857D01*
X72100285Y-82927047D01*
X72124095Y-82879428D01*
X72124095Y-82688952D01*
X72362190Y-83450857D02*
X72362190Y-83165142D01*
X72362190Y-83308000D02*
X71862190Y-83308000D01*
X71933619Y-83260380D01*
X71981238Y-83212761D01*
X72005047Y-83165142D01*
X72616190Y-86276666D02*
X72378095Y-86110000D01*
X72616190Y-85990952D02*
X72116190Y-85990952D01*
X72116190Y-86181428D01*
X72140000Y-86229047D01*
X72163809Y-86252857D01*
X72211428Y-86276666D01*
X72282857Y-86276666D01*
X72330476Y-86252857D01*
X72354285Y-86229047D01*
X72378095Y-86181428D01*
X72378095Y-85990952D01*
X72163809Y-86467142D02*
X72140000Y-86490952D01*
X72116190Y-86538571D01*
X72116190Y-86657619D01*
X72140000Y-86705238D01*
X72163809Y-86729047D01*
X72211428Y-86752857D01*
X72259047Y-86752857D01*
X72330476Y-86729047D01*
X72616190Y-86443333D01*
X72616190Y-86752857D01*
X71346190Y-82974666D02*
X71108095Y-82808000D01*
X71346190Y-82688952D02*
X70846190Y-82688952D01*
X70846190Y-82879428D01*
X70870000Y-82927047D01*
X70893809Y-82950857D01*
X70941428Y-82974666D01*
X71012857Y-82974666D01*
X71060476Y-82950857D01*
X71084285Y-82927047D01*
X71108095Y-82879428D01*
X71108095Y-82688952D01*
X70846190Y-83427047D02*
X70846190Y-83188952D01*
X71084285Y-83165142D01*
X71060476Y-83188952D01*
X71036666Y-83236571D01*
X71036666Y-83355619D01*
X71060476Y-83403238D01*
X71084285Y-83427047D01*
X71131904Y-83450857D01*
X71250952Y-83450857D01*
X71298571Y-83427047D01*
X71322380Y-83403238D01*
X71346190Y-83355619D01*
X71346190Y-83236571D01*
X71322380Y-83188952D01*
X71298571Y-83165142D01*
X71346190Y-86276666D02*
X71108095Y-86110000D01*
X71346190Y-85990952D02*
X70846190Y-85990952D01*
X70846190Y-86181428D01*
X70870000Y-86229047D01*
X70893809Y-86252857D01*
X70941428Y-86276666D01*
X71012857Y-86276666D01*
X71060476Y-86252857D01*
X71084285Y-86229047D01*
X71108095Y-86181428D01*
X71108095Y-85990952D01*
X70846190Y-86705238D02*
X70846190Y-86610000D01*
X70870000Y-86562380D01*
X70893809Y-86538571D01*
X70965238Y-86490952D01*
X71060476Y-86467142D01*
X71250952Y-86467142D01*
X71298571Y-86490952D01*
X71322380Y-86514761D01*
X71346190Y-86562380D01*
X71346190Y-86657619D01*
X71322380Y-86705238D01*
X71298571Y-86729047D01*
X71250952Y-86752857D01*
X71131904Y-86752857D01*
X71084285Y-86729047D01*
X71060476Y-86705238D01*
X71036666Y-86657619D01*
X71036666Y-86562380D01*
X71060476Y-86514761D01*
X71084285Y-86490952D01*
X71131904Y-86467142D01*
X113510190Y-112946666D02*
X113272095Y-112780000D01*
X113510190Y-112660952D02*
X113010190Y-112660952D01*
X113010190Y-112851428D01*
X113034000Y-112899047D01*
X113057809Y-112922857D01*
X113105428Y-112946666D01*
X113176857Y-112946666D01*
X113224476Y-112922857D01*
X113248285Y-112899047D01*
X113272095Y-112851428D01*
X113272095Y-112660952D01*
X113224476Y-113232380D02*
X113200666Y-113184761D01*
X113176857Y-113160952D01*
X113129238Y-113137142D01*
X113105428Y-113137142D01*
X113057809Y-113160952D01*
X113034000Y-113184761D01*
X113010190Y-113232380D01*
X113010190Y-113327619D01*
X113034000Y-113375238D01*
X113057809Y-113399047D01*
X113105428Y-113422857D01*
X113129238Y-113422857D01*
X113176857Y-113399047D01*
X113200666Y-113375238D01*
X113224476Y-113327619D01*
X113224476Y-113232380D01*
X113248285Y-113184761D01*
X113272095Y-113160952D01*
X113319714Y-113137142D01*
X113414952Y-113137142D01*
X113462571Y-113160952D01*
X113486380Y-113184761D01*
X113510190Y-113232380D01*
X113510190Y-113327619D01*
X113486380Y-113375238D01*
X113462571Y-113399047D01*
X113414952Y-113422857D01*
X113319714Y-113422857D01*
X113272095Y-113399047D01*
X113248285Y-113375238D01*
X113224476Y-113327619D01*
X93539428Y-110462190D02*
X93706095Y-110224095D01*
X93825142Y-110462190D02*
X93825142Y-109962190D01*
X93634666Y-109962190D01*
X93587047Y-109986000D01*
X93563238Y-110009809D01*
X93539428Y-110057428D01*
X93539428Y-110128857D01*
X93563238Y-110176476D01*
X93587047Y-110200285D01*
X93634666Y-110224095D01*
X93825142Y-110224095D01*
X93063238Y-110462190D02*
X93348952Y-110462190D01*
X93206095Y-110462190D02*
X93206095Y-109962190D01*
X93253714Y-110033619D01*
X93301333Y-110081238D01*
X93348952Y-110105047D01*
X92753714Y-109962190D02*
X92706095Y-109962190D01*
X92658476Y-109986000D01*
X92634666Y-110009809D01*
X92610857Y-110057428D01*
X92587047Y-110152666D01*
X92587047Y-110271714D01*
X92610857Y-110366952D01*
X92634666Y-110414571D01*
X92658476Y-110438380D01*
X92706095Y-110462190D01*
X92753714Y-110462190D01*
X92801333Y-110438380D01*
X92825142Y-110414571D01*
X92848952Y-110366952D01*
X92872761Y-110271714D01*
X92872761Y-110152666D01*
X92848952Y-110057428D01*
X92825142Y-110009809D01*
X92801333Y-109986000D01*
X92753714Y-109962190D01*
X113510190Y-102548571D02*
X113272095Y-102381904D01*
X113510190Y-102262857D02*
X113010190Y-102262857D01*
X113010190Y-102453333D01*
X113034000Y-102500952D01*
X113057809Y-102524761D01*
X113105428Y-102548571D01*
X113176857Y-102548571D01*
X113224476Y-102524761D01*
X113248285Y-102500952D01*
X113272095Y-102453333D01*
X113272095Y-102262857D01*
X113510190Y-103024761D02*
X113510190Y-102739047D01*
X113510190Y-102881904D02*
X113010190Y-102881904D01*
X113081619Y-102834285D01*
X113129238Y-102786666D01*
X113153047Y-102739047D01*
X113057809Y-103215238D02*
X113034000Y-103239047D01*
X113010190Y-103286666D01*
X113010190Y-103405714D01*
X113034000Y-103453333D01*
X113057809Y-103477142D01*
X113105428Y-103500952D01*
X113153047Y-103500952D01*
X113224476Y-103477142D01*
X113510190Y-103191428D01*
X113510190Y-103500952D01*
X113510190Y-97468571D02*
X113272095Y-97301904D01*
X113510190Y-97182857D02*
X113010190Y-97182857D01*
X113010190Y-97373333D01*
X113034000Y-97420952D01*
X113057809Y-97444761D01*
X113105428Y-97468571D01*
X113176857Y-97468571D01*
X113224476Y-97444761D01*
X113248285Y-97420952D01*
X113272095Y-97373333D01*
X113272095Y-97182857D01*
X113510190Y-97944761D02*
X113510190Y-97659047D01*
X113510190Y-97801904D02*
X113010190Y-97801904D01*
X113081619Y-97754285D01*
X113129238Y-97706666D01*
X113153047Y-97659047D01*
X113010190Y-98111428D02*
X113010190Y-98420952D01*
X113200666Y-98254285D01*
X113200666Y-98325714D01*
X113224476Y-98373333D01*
X113248285Y-98397142D01*
X113295904Y-98420952D01*
X113414952Y-98420952D01*
X113462571Y-98397142D01*
X113486380Y-98373333D01*
X113510190Y-98325714D01*
X113510190Y-98182857D01*
X113486380Y-98135238D01*
X113462571Y-98111428D01*
X75672190Y-90297047D02*
X76076952Y-90297047D01*
X76124571Y-90320857D01*
X76148380Y-90344666D01*
X76172190Y-90392285D01*
X76172190Y-90487523D01*
X76148380Y-90535142D01*
X76124571Y-90558952D01*
X76076952Y-90582761D01*
X75672190Y-90582761D01*
X76172190Y-91082761D02*
X76172190Y-90797047D01*
X76172190Y-90939904D02*
X75672190Y-90939904D01*
X75743619Y-90892285D01*
X75791238Y-90844666D01*
X75815047Y-90797047D01*
X77188190Y-88602476D02*
X76950095Y-88435809D01*
X77188190Y-88316761D02*
X76688190Y-88316761D01*
X76688190Y-88507238D01*
X76712000Y-88554857D01*
X76735809Y-88578666D01*
X76783428Y-88602476D01*
X76854857Y-88602476D01*
X76902476Y-88578666D01*
X76926285Y-88554857D01*
X76950095Y-88507238D01*
X76950095Y-88316761D01*
X77188190Y-88816761D02*
X76688190Y-88816761D01*
X77188190Y-89102476D01*
X76688190Y-89102476D01*
X76735809Y-89316761D02*
X76712000Y-89340571D01*
X76688190Y-89388190D01*
X76688190Y-89507238D01*
X76712000Y-89554857D01*
X76735809Y-89578666D01*
X76783428Y-89602476D01*
X76831047Y-89602476D01*
X76902476Y-89578666D01*
X77188190Y-89292952D01*
X77188190Y-89602476D01*
X76854857Y-90031047D02*
X77188190Y-90031047D01*
X76664380Y-89912000D02*
X77021523Y-89792952D01*
X77021523Y-90102476D01*
X76902476Y-90364380D02*
X76878666Y-90316761D01*
X76854857Y-90292952D01*
X76807238Y-90269142D01*
X76783428Y-90269142D01*
X76735809Y-90292952D01*
X76712000Y-90316761D01*
X76688190Y-90364380D01*
X76688190Y-90459619D01*
X76712000Y-90507238D01*
X76735809Y-90531047D01*
X76783428Y-90554857D01*
X76807238Y-90554857D01*
X76854857Y-90531047D01*
X76878666Y-90507238D01*
X76902476Y-90459619D01*
X76902476Y-90364380D01*
X76926285Y-90316761D01*
X76950095Y-90292952D01*
X76997714Y-90269142D01*
X77092952Y-90269142D01*
X77140571Y-90292952D01*
X77164380Y-90316761D01*
X77188190Y-90364380D01*
X77188190Y-90459619D01*
X77164380Y-90507238D01*
X77140571Y-90531047D01*
X77092952Y-90554857D01*
X76997714Y-90554857D01*
X76950095Y-90531047D01*
X76926285Y-90507238D01*
X76902476Y-90459619D01*
X76688190Y-90721523D02*
X76688190Y-91031047D01*
X76878666Y-90864380D01*
X76878666Y-90935809D01*
X76902476Y-90983428D01*
X76926285Y-91007238D01*
X76973904Y-91031047D01*
X77092952Y-91031047D01*
X77140571Y-91007238D01*
X77164380Y-90983428D01*
X77188190Y-90935809D01*
X77188190Y-90792952D01*
X77164380Y-90745333D01*
X77140571Y-90721523D01*
X103250952Y-111486190D02*
X103250952Y-111890952D01*
X103227142Y-111938571D01*
X103203333Y-111962380D01*
X103155714Y-111986190D01*
X103060476Y-111986190D01*
X103012857Y-111962380D01*
X102989047Y-111938571D01*
X102965238Y-111890952D01*
X102965238Y-111486190D01*
X102750952Y-111533809D02*
X102727142Y-111510000D01*
X102679523Y-111486190D01*
X102560476Y-111486190D01*
X102512857Y-111510000D01*
X102489047Y-111533809D01*
X102465238Y-111581428D01*
X102465238Y-111629047D01*
X102489047Y-111700476D01*
X102774761Y-111986190D01*
X102465238Y-111986190D01*
X107259142Y-112748190D02*
X107259142Y-112248190D01*
X107092476Y-112605333D01*
X106925809Y-112248190D01*
X106925809Y-112748190D01*
X106402000Y-112700571D02*
X106425809Y-112724380D01*
X106497238Y-112748190D01*
X106544857Y-112748190D01*
X106616285Y-112724380D01*
X106663904Y-112676761D01*
X106687714Y-112629142D01*
X106711523Y-112533904D01*
X106711523Y-112462476D01*
X106687714Y-112367238D01*
X106663904Y-112319619D01*
X106616285Y-112272000D01*
X106544857Y-112248190D01*
X106497238Y-112248190D01*
X106425809Y-112272000D01*
X106402000Y-112295809D01*
X106187714Y-112748190D02*
X106187714Y-112248190D01*
X105997238Y-112248190D01*
X105949619Y-112272000D01*
X105925809Y-112295809D01*
X105902000Y-112343428D01*
X105902000Y-112414857D01*
X105925809Y-112462476D01*
X105949619Y-112486285D01*
X105997238Y-112510095D01*
X106187714Y-112510095D01*
X105735333Y-112248190D02*
X105402000Y-112248190D01*
X105616285Y-112748190D01*
X105259142Y-112248190D02*
X104949619Y-112248190D01*
X105116285Y-112438666D01*
X105044857Y-112438666D01*
X104997238Y-112462476D01*
X104973428Y-112486285D01*
X104949619Y-112533904D01*
X104949619Y-112652952D01*
X104973428Y-112700571D01*
X104997238Y-112724380D01*
X105044857Y-112748190D01*
X105187714Y-112748190D01*
X105235333Y-112724380D01*
X105259142Y-112700571D01*
X104663904Y-112462476D02*
X104711523Y-112438666D01*
X104735333Y-112414857D01*
X104759142Y-112367238D01*
X104759142Y-112343428D01*
X104735333Y-112295809D01*
X104711523Y-112272000D01*
X104663904Y-112248190D01*
X104568666Y-112248190D01*
X104521047Y-112272000D01*
X104497238Y-112295809D01*
X104473428Y-112343428D01*
X104473428Y-112367238D01*
X104497238Y-112414857D01*
X104521047Y-112438666D01*
X104568666Y-112462476D01*
X104663904Y-112462476D01*
X104711523Y-112486285D01*
X104735333Y-112510095D01*
X104759142Y-112557714D01*
X104759142Y-112652952D01*
X104735333Y-112700571D01*
X104711523Y-112724380D01*
X104663904Y-112748190D01*
X104568666Y-112748190D01*
X104521047Y-112724380D01*
X104497238Y-112700571D01*
X104473428Y-112652952D01*
X104473428Y-112557714D01*
X104497238Y-112510095D01*
X104521047Y-112486285D01*
X104568666Y-112462476D01*
X104306761Y-112248190D02*
X103997238Y-112248190D01*
X104163904Y-112438666D01*
X104092476Y-112438666D01*
X104044857Y-112462476D01*
X104021047Y-112486285D01*
X103997238Y-112533904D01*
X103997238Y-112652952D01*
X104021047Y-112700571D01*
X104044857Y-112724380D01*
X104092476Y-112748190D01*
X104235333Y-112748190D01*
X104282952Y-112724380D01*
X104306761Y-112700571D01*
X103521047Y-112748190D02*
X103806761Y-112748190D01*
X103663904Y-112748190D02*
X103663904Y-112248190D01*
X103711523Y-112319619D01*
X103759142Y-112367238D01*
X103806761Y-112391047D01*
X102949619Y-112224380D02*
X103378190Y-112867238D01*
X102806761Y-112295809D02*
X102782952Y-112272000D01*
X102735333Y-112248190D01*
X102616285Y-112248190D01*
X102568666Y-112272000D01*
X102544857Y-112295809D01*
X102521047Y-112343428D01*
X102521047Y-112391047D01*
X102544857Y-112462476D01*
X102830571Y-112748190D01*
X102521047Y-112748190D01*
X107314952Y-108692190D02*
X107314952Y-109096952D01*
X107291142Y-109144571D01*
X107267333Y-109168380D01*
X107219714Y-109192190D01*
X107124476Y-109192190D01*
X107076857Y-109168380D01*
X107053047Y-109144571D01*
X107029238Y-109096952D01*
X107029238Y-108692190D01*
X106838761Y-108692190D02*
X106529238Y-108692190D01*
X106695904Y-108882666D01*
X106624476Y-108882666D01*
X106576857Y-108906476D01*
X106553047Y-108930285D01*
X106529238Y-108977904D01*
X106529238Y-109096952D01*
X106553047Y-109144571D01*
X106576857Y-109168380D01*
X106624476Y-109192190D01*
X106767333Y-109192190D01*
X106814952Y-109168380D01*
X106838761Y-109144571D01*
X107517238Y-109708190D02*
X107231523Y-109708190D01*
X107374380Y-110208190D02*
X107374380Y-109708190D01*
X107064857Y-110208190D02*
X107064857Y-109708190D01*
X106874380Y-109708190D01*
X106826761Y-109732000D01*
X106802952Y-109755809D01*
X106779142Y-109803428D01*
X106779142Y-109874857D01*
X106802952Y-109922476D01*
X106826761Y-109946285D01*
X106874380Y-109970095D01*
X107064857Y-109970095D01*
X106588666Y-110184380D02*
X106517238Y-110208190D01*
X106398190Y-110208190D01*
X106350571Y-110184380D01*
X106326761Y-110160571D01*
X106302952Y-110112952D01*
X106302952Y-110065333D01*
X106326761Y-110017714D01*
X106350571Y-109993904D01*
X106398190Y-109970095D01*
X106493428Y-109946285D01*
X106541047Y-109922476D01*
X106564857Y-109898666D01*
X106588666Y-109851047D01*
X106588666Y-109803428D01*
X106564857Y-109755809D01*
X106541047Y-109732000D01*
X106493428Y-109708190D01*
X106374380Y-109708190D01*
X106302952Y-109732000D01*
X106136285Y-109708190D02*
X105802952Y-109708190D01*
X106017238Y-110208190D01*
X105660095Y-109708190D02*
X105350571Y-109708190D01*
X105517238Y-109898666D01*
X105445809Y-109898666D01*
X105398190Y-109922476D01*
X105374380Y-109946285D01*
X105350571Y-109993904D01*
X105350571Y-110112952D01*
X105374380Y-110160571D01*
X105398190Y-110184380D01*
X105445809Y-110208190D01*
X105588666Y-110208190D01*
X105636285Y-110184380D01*
X105660095Y-110160571D01*
X104922000Y-109708190D02*
X105017238Y-109708190D01*
X105064857Y-109732000D01*
X105088666Y-109755809D01*
X105136285Y-109827238D01*
X105160095Y-109922476D01*
X105160095Y-110112952D01*
X105136285Y-110160571D01*
X105112476Y-110184380D01*
X105064857Y-110208190D01*
X104969619Y-110208190D01*
X104922000Y-110184380D01*
X104898190Y-110160571D01*
X104874380Y-110112952D01*
X104874380Y-109993904D01*
X104898190Y-109946285D01*
X104922000Y-109922476D01*
X104969619Y-109898666D01*
X105064857Y-109898666D01*
X105112476Y-109922476D01*
X105136285Y-109946285D01*
X105160095Y-109993904D01*
X82792095Y-99075904D02*
X83030190Y-99075904D01*
X82530190Y-98909238D02*
X82792095Y-99075904D01*
X82530190Y-99242571D01*
X83030190Y-99671142D02*
X83030190Y-99385428D01*
X83030190Y-99528285D02*
X82530190Y-99528285D01*
X82601619Y-99480666D01*
X82649238Y-99433047D01*
X82673047Y-99385428D01*
X82768285Y-100913714D02*
X82768285Y-100747047D01*
X83030190Y-100747047D02*
X82530190Y-100747047D01*
X82530190Y-100985142D01*
X82887333Y-101151809D02*
X82887333Y-101389904D01*
X83030190Y-101104190D02*
X82530190Y-101270857D01*
X83030190Y-101437523D01*
X83077809Y-101485142D02*
X83077809Y-101866095D01*
X82577809Y-101961333D02*
X82554000Y-101985142D01*
X82530190Y-102032761D01*
X82530190Y-102151809D01*
X82554000Y-102199428D01*
X82577809Y-102223238D01*
X82625428Y-102247047D01*
X82673047Y-102247047D01*
X82744476Y-102223238D01*
X83030190Y-101937523D01*
X83030190Y-102247047D01*
X82530190Y-102413714D02*
X82530190Y-102723238D01*
X82720666Y-102556571D01*
X82720666Y-102628000D01*
X82744476Y-102675619D01*
X82768285Y-102699428D01*
X82815904Y-102723238D01*
X82934952Y-102723238D01*
X82982571Y-102699428D01*
X83006380Y-102675619D01*
X83030190Y-102628000D01*
X83030190Y-102485142D01*
X83006380Y-102437523D01*
X82982571Y-102413714D01*
X82744476Y-103008952D02*
X82720666Y-102961333D01*
X82696857Y-102937523D01*
X82649238Y-102913714D01*
X82625428Y-102913714D01*
X82577809Y-102937523D01*
X82554000Y-102961333D01*
X82530190Y-103008952D01*
X82530190Y-103104190D01*
X82554000Y-103151809D01*
X82577809Y-103175619D01*
X82625428Y-103199428D01*
X82649238Y-103199428D01*
X82696857Y-103175619D01*
X82720666Y-103151809D01*
X82744476Y-103104190D01*
X82744476Y-103008952D01*
X82768285Y-102961333D01*
X82792095Y-102937523D01*
X82839714Y-102913714D01*
X82934952Y-102913714D01*
X82982571Y-102937523D01*
X83006380Y-102961333D01*
X83030190Y-103008952D01*
X83030190Y-103104190D01*
X83006380Y-103151809D01*
X82982571Y-103175619D01*
X82934952Y-103199428D01*
X82839714Y-103199428D01*
X82792095Y-103175619D01*
X82768285Y-103151809D01*
X82744476Y-103104190D01*
X83030190Y-104056571D02*
X83030190Y-103770857D01*
X83030190Y-103913714D02*
X82530190Y-103913714D01*
X82601619Y-103866095D01*
X82649238Y-103818476D01*
X82673047Y-103770857D01*
X82530190Y-104366095D02*
X82530190Y-104413714D01*
X82554000Y-104461333D01*
X82577809Y-104485142D01*
X82625428Y-104508952D01*
X82720666Y-104532761D01*
X82839714Y-104532761D01*
X82934952Y-104508952D01*
X82982571Y-104485142D01*
X83006380Y-104461333D01*
X83030190Y-104413714D01*
X83030190Y-104366095D01*
X83006380Y-104318476D01*
X82982571Y-104294666D01*
X82934952Y-104270857D01*
X82839714Y-104247047D01*
X82720666Y-104247047D01*
X82625428Y-104270857D01*
X82577809Y-104294666D01*
X82554000Y-104318476D01*
X82530190Y-104366095D01*
X83030190Y-104747047D02*
X82530190Y-104747047D01*
X82887333Y-104913714D01*
X82530190Y-105080380D01*
X83030190Y-105080380D01*
X83030190Y-105318476D02*
X82530190Y-105318476D01*
X82768285Y-105318476D02*
X82768285Y-105604190D01*
X83030190Y-105604190D02*
X82530190Y-105604190D01*
X82696857Y-105794666D02*
X82696857Y-106056571D01*
X83030190Y-105794666D01*
X83030190Y-106056571D01*
X105636190Y-75390571D02*
X105398095Y-75223904D01*
X105636190Y-75104857D02*
X105136190Y-75104857D01*
X105136190Y-75295333D01*
X105160000Y-75342952D01*
X105183809Y-75366761D01*
X105231428Y-75390571D01*
X105302857Y-75390571D01*
X105350476Y-75366761D01*
X105374285Y-75342952D01*
X105398095Y-75295333D01*
X105398095Y-75104857D01*
X105374285Y-75771523D02*
X105374285Y-75604857D01*
X105636190Y-75604857D02*
X105136190Y-75604857D01*
X105136190Y-75842952D01*
X105683809Y-75914380D02*
X105683809Y-76295333D01*
X105636190Y-76414380D02*
X105136190Y-76414380D01*
X105374285Y-76414380D02*
X105374285Y-76700095D01*
X105636190Y-76700095D02*
X105136190Y-76700095D01*
X105636190Y-76938190D02*
X105136190Y-76938190D01*
X105160000Y-77438190D02*
X105136190Y-77390571D01*
X105136190Y-77319142D01*
X105160000Y-77247714D01*
X105207619Y-77200095D01*
X105255238Y-77176285D01*
X105350476Y-77152476D01*
X105421904Y-77152476D01*
X105517142Y-77176285D01*
X105564761Y-77200095D01*
X105612380Y-77247714D01*
X105636190Y-77319142D01*
X105636190Y-77366761D01*
X105612380Y-77438190D01*
X105588571Y-77462000D01*
X105421904Y-77462000D01*
X105421904Y-77366761D01*
X105636190Y-77676285D02*
X105136190Y-77676285D01*
X105374285Y-77676285D02*
X105374285Y-77962000D01*
X105636190Y-77962000D02*
X105136190Y-77962000D01*
X105683809Y-78081047D02*
X105683809Y-78462000D01*
X105636190Y-78842952D02*
X105636190Y-78557238D01*
X105636190Y-78700095D02*
X105136190Y-78700095D01*
X105207619Y-78652476D01*
X105255238Y-78604857D01*
X105279047Y-78557238D01*
X105890190Y-86709428D02*
X105652095Y-86542761D01*
X105890190Y-86423714D02*
X105390190Y-86423714D01*
X105390190Y-86614190D01*
X105414000Y-86661809D01*
X105437809Y-86685619D01*
X105485428Y-86709428D01*
X105556857Y-86709428D01*
X105604476Y-86685619D01*
X105628285Y-86661809D01*
X105652095Y-86614190D01*
X105652095Y-86423714D01*
X105628285Y-87090380D02*
X105628285Y-86923714D01*
X105890190Y-86923714D02*
X105390190Y-86923714D01*
X105390190Y-87161809D01*
X105937809Y-87233238D02*
X105937809Y-87614190D01*
X105890190Y-87971333D02*
X105890190Y-87733238D01*
X105390190Y-87733238D01*
X105390190Y-88233238D02*
X105390190Y-88328476D01*
X105414000Y-88376095D01*
X105461619Y-88423714D01*
X105556857Y-88447523D01*
X105723523Y-88447523D01*
X105818761Y-88423714D01*
X105866380Y-88376095D01*
X105890190Y-88328476D01*
X105890190Y-88233238D01*
X105866380Y-88185619D01*
X105818761Y-88138000D01*
X105723523Y-88114190D01*
X105556857Y-88114190D01*
X105461619Y-88138000D01*
X105414000Y-88185619D01*
X105390190Y-88233238D01*
X105390190Y-88614190D02*
X105890190Y-88733238D01*
X105533047Y-88828476D01*
X105890190Y-88923714D01*
X105390190Y-89042761D01*
X105937809Y-89114190D02*
X105937809Y-89495142D01*
X105890190Y-89876095D02*
X105890190Y-89590380D01*
X105890190Y-89733238D02*
X105390190Y-89733238D01*
X105461619Y-89685619D01*
X105509238Y-89638000D01*
X105533047Y-89590380D01*
M02*
