G04 #@! TF.GenerationSoftware,KiCad,Pcbnew,no-vcs-found-7592~57~ubuntu16.04.1*
G04 #@! TF.CreationDate,2017-02-12T17:12:26+02:00*
G04 #@! TF.ProjectId,lora_sensor,6C6F72615F73656E736F722E6B696361,rev?*
G04 #@! TF.FileFunction,Legend,Top*
G04 #@! TF.FilePolarity,Positive*
%FSLAX46Y46*%
G04 Gerber Fmt 4.6, Leading zero omitted, Abs format (unit mm)*
G04 Created by KiCad (PCBNEW no-vcs-found-7592~57~ubuntu16.04.1) date Sun Feb 12 17:12:26 2017*
%MOMM*%
%LPD*%
G01*
G04 APERTURE LIST*
%ADD10C,0.100000*%
%ADD11C,0.120000*%
%ADD12C,0.150000*%
%ADD13C,0.050000*%
G04 APERTURE END LIST*
D10*
D11*
X105530000Y-112910000D02*
X105530000Y-114300000D01*
X104140000Y-112910000D02*
X105530000Y-112910000D01*
X102870000Y-115690000D02*
X102870000Y-112910000D01*
X100210000Y-115690000D02*
X102870000Y-115690000D01*
X100210000Y-112910000D02*
X100210000Y-115690000D01*
X102870000Y-112910000D02*
X100210000Y-112910000D01*
D12*
X83485000Y-96275000D02*
X83485000Y-96850000D01*
X89235000Y-96275000D02*
X89235000Y-96925000D01*
X89235000Y-106925000D02*
X89235000Y-106275000D01*
X83485000Y-106925000D02*
X83485000Y-106275000D01*
X83485000Y-96275000D02*
X89235000Y-96275000D01*
X83485000Y-106925000D02*
X89235000Y-106925000D01*
X83485000Y-96850000D02*
X81885000Y-96850000D01*
X69140000Y-104922000D02*
X69140000Y-104422000D01*
X69140000Y-104422000D02*
X75640000Y-104422000D01*
X75640000Y-104422000D02*
X75640000Y-104922000D01*
X75640000Y-107422000D02*
X75640000Y-107922000D01*
X75640000Y-107922000D02*
X69140000Y-107922000D01*
X69140000Y-107922000D02*
X69140000Y-107422000D01*
X69140000Y-108732000D02*
X69140000Y-108232000D01*
X69140000Y-108232000D02*
X75640000Y-108232000D01*
X75640000Y-108232000D02*
X75640000Y-108732000D01*
X75640000Y-111232000D02*
X75640000Y-111732000D01*
X75640000Y-111732000D02*
X69140000Y-111732000D01*
X69140000Y-111732000D02*
X69140000Y-111232000D01*
D11*
X91448000Y-77050000D02*
X92448000Y-77050000D01*
X92448000Y-75350000D02*
X91448000Y-75350000D01*
X104124000Y-109973000D02*
X102124000Y-109973000D01*
X102124000Y-112023000D02*
X104124000Y-112023000D01*
X79494000Y-74334000D02*
X78494000Y-74334000D01*
X78494000Y-76034000D02*
X79494000Y-76034000D01*
X95592000Y-103878000D02*
X95592000Y-102878000D01*
X93892000Y-102878000D02*
X93892000Y-103878000D01*
X97624000Y-103878000D02*
X97624000Y-102878000D01*
X95924000Y-102878000D02*
X95924000Y-103878000D01*
X101180000Y-80002000D02*
X101180000Y-79002000D01*
X99480000Y-79002000D02*
X99480000Y-80002000D01*
X103206000Y-108330000D02*
X103206000Y-105030000D01*
X103206000Y-105030000D02*
X96306000Y-105030000D01*
X103206000Y-108330000D02*
X96306000Y-108330000D01*
X67034000Y-96074000D02*
X67034000Y-97474000D01*
X67034000Y-97474000D02*
X69834000Y-97474000D01*
X67034000Y-96074000D02*
X69834000Y-96074000D01*
X67034000Y-98106000D02*
X67034000Y-99506000D01*
X67034000Y-99506000D02*
X69834000Y-99506000D01*
X67034000Y-98106000D02*
X69834000Y-98106000D01*
X67034000Y-100138000D02*
X67034000Y-101538000D01*
X67034000Y-101538000D02*
X69834000Y-101538000D01*
X67034000Y-100138000D02*
X69834000Y-100138000D01*
X67034000Y-102170000D02*
X67034000Y-103570000D01*
X67034000Y-103570000D02*
X69834000Y-103570000D01*
X67034000Y-102170000D02*
X69834000Y-102170000D01*
D12*
X90170000Y-115062000D02*
X83058000Y-115062000D01*
X83058000Y-115062000D02*
X83058000Y-119316000D01*
X83058000Y-119316000D02*
X90170000Y-119316000D01*
X90170000Y-119316000D02*
X90170000Y-115062000D01*
D11*
X95950000Y-114024000D02*
X94550000Y-114024000D01*
X94550000Y-114024000D02*
X94550000Y-116824000D01*
X95950000Y-114024000D02*
X95950000Y-116824000D01*
X100640000Y-109222000D02*
X99710000Y-109222000D01*
X97480000Y-109222000D02*
X98410000Y-109222000D01*
X97480000Y-109222000D02*
X97480000Y-111382000D01*
X100640000Y-109222000D02*
X100640000Y-110682000D01*
X85400000Y-86108000D02*
X84470000Y-86108000D01*
X82240000Y-86108000D02*
X83170000Y-86108000D01*
X82240000Y-86108000D02*
X82240000Y-88268000D01*
X85400000Y-86108000D02*
X85400000Y-87568000D01*
X95560000Y-87124000D02*
X94630000Y-87124000D01*
X92400000Y-87124000D02*
X93330000Y-87124000D01*
X92400000Y-87124000D02*
X92400000Y-89284000D01*
X95560000Y-87124000D02*
X95560000Y-88584000D01*
D12*
X71790000Y-92597000D02*
X72990000Y-92597000D01*
X72990000Y-94347000D02*
X71790000Y-94347000D01*
X71790000Y-90565000D02*
X72990000Y-90565000D01*
X72990000Y-92315000D02*
X71790000Y-92315000D01*
X96866000Y-113651000D02*
X95666000Y-113651000D01*
X95666000Y-111901000D02*
X96866000Y-111901000D01*
X94375000Y-110582000D02*
X94375000Y-109382000D01*
X96125000Y-109382000D02*
X96125000Y-110582000D01*
X78394000Y-78373000D02*
X79594000Y-78373000D01*
X79594000Y-80123000D02*
X78394000Y-80123000D01*
X78394000Y-76341000D02*
X79594000Y-76341000D01*
X79594000Y-78091000D02*
X78394000Y-78091000D01*
X80123000Y-107096000D02*
X80123000Y-108296000D01*
X78373000Y-108296000D02*
X78373000Y-107096000D01*
X78373000Y-111344000D02*
X78373000Y-110144000D01*
X80123000Y-110144000D02*
X80123000Y-111344000D01*
X73314000Y-95899000D02*
X74514000Y-95899000D01*
X74514000Y-97649000D02*
X73314000Y-97649000D01*
X73314000Y-97931000D02*
X74514000Y-97931000D01*
X74514000Y-99681000D02*
X73314000Y-99681000D01*
X73314000Y-99963000D02*
X74514000Y-99963000D01*
X74514000Y-101713000D02*
X73314000Y-101713000D01*
X73314000Y-101995000D02*
X74514000Y-101995000D01*
X74514000Y-103745000D02*
X73314000Y-103745000D01*
X86776000Y-84469000D02*
X87976000Y-84469000D01*
X87976000Y-86219000D02*
X86776000Y-86219000D01*
X85485000Y-91278000D02*
X85485000Y-90078000D01*
X87235000Y-90078000D02*
X87235000Y-91278000D01*
X97169000Y-80102000D02*
X97169000Y-78902000D01*
X98919000Y-78902000D02*
X98919000Y-80102000D01*
X98185000Y-92040000D02*
X98185000Y-90840000D01*
X99935000Y-90840000D02*
X99935000Y-92040000D01*
D11*
X97380000Y-96520000D02*
G75*
G03X97380000Y-96520000I-860000J0D01*
G01*
X96520000Y-97380000D02*
X96520000Y-98060000D01*
X67034000Y-92772000D02*
X67034000Y-94172000D01*
X67034000Y-94172000D02*
X69834000Y-94172000D01*
X67034000Y-92772000D02*
X69834000Y-92772000D01*
X67034000Y-90740000D02*
X67034000Y-92140000D01*
X67034000Y-92140000D02*
X69834000Y-92140000D01*
X67034000Y-90740000D02*
X69834000Y-90740000D01*
D12*
X94742000Y-83058000D02*
X94488000Y-83058000D01*
X94488000Y-83058000D02*
X94488000Y-80010000D01*
X94488000Y-80010000D02*
X94742000Y-80010000D01*
X96266000Y-80010000D02*
X96520000Y-80010000D01*
X96520000Y-80010000D02*
X96520000Y-83058000D01*
X96520000Y-83058000D02*
X96266000Y-83058000D01*
D11*
X88254000Y-83398000D02*
X90054000Y-83398000D01*
X90054000Y-80178000D02*
X87604000Y-80178000D01*
X110610000Y-110610000D02*
X109220000Y-110610000D01*
X110610000Y-109220000D02*
X110610000Y-110610000D01*
X107830000Y-107950000D02*
X110610000Y-107950000D01*
X107830000Y-105290000D02*
X107830000Y-107950000D01*
X110610000Y-105290000D02*
X107830000Y-105290000D01*
X110610000Y-107950000D02*
X110610000Y-105290000D01*
X107830000Y-110370000D02*
X109220000Y-110370000D01*
X107830000Y-111760000D02*
X107830000Y-110370000D01*
X110610000Y-113030000D02*
X107830000Y-113030000D01*
X110610000Y-115690000D02*
X110610000Y-113030000D01*
X107830000Y-115690000D02*
X110610000Y-115690000D01*
X107830000Y-113030000D02*
X107830000Y-115690000D01*
X110610000Y-102870000D02*
X110610000Y-100210000D01*
X110610000Y-100210000D02*
X107830000Y-100210000D01*
X107830000Y-100210000D02*
X107830000Y-102870000D01*
X107830000Y-102870000D02*
X110610000Y-102870000D01*
X110610000Y-104140000D02*
X110610000Y-105530000D01*
X110610000Y-105530000D02*
X109220000Y-105530000D01*
X67190000Y-73540000D02*
X68580000Y-73540000D01*
X67190000Y-74930000D02*
X67190000Y-73540000D01*
X69970000Y-76200000D02*
X67190000Y-76200000D01*
X69970000Y-89020000D02*
X69970000Y-76200000D01*
X67190000Y-89020000D02*
X69970000Y-89020000D01*
X67190000Y-76200000D02*
X67190000Y-89020000D01*
X110610000Y-97790000D02*
X110610000Y-95130000D01*
X110610000Y-95130000D02*
X107830000Y-95130000D01*
X107830000Y-95130000D02*
X107830000Y-97790000D01*
X107830000Y-97790000D02*
X110610000Y-97790000D01*
X110610000Y-99060000D02*
X110610000Y-100450000D01*
X110610000Y-100450000D02*
X109220000Y-100450000D01*
X105290000Y-95130000D02*
X106680000Y-95130000D01*
X105290000Y-96520000D02*
X105290000Y-95130000D01*
X108070000Y-97790000D02*
X105290000Y-97790000D01*
X108070000Y-102990000D02*
X108070000Y-97790000D01*
X105290000Y-102990000D02*
X108070000Y-102990000D01*
X105290000Y-97790000D02*
X105290000Y-102990000D01*
D12*
X98822476Y-116260571D02*
X98965333Y-116308190D01*
X99012952Y-116355809D01*
X99060571Y-116451047D01*
X99060571Y-116593904D01*
X99012952Y-116689142D01*
X98965333Y-116736761D01*
X98870095Y-116784380D01*
X98489142Y-116784380D01*
X98489142Y-115784380D01*
X98822476Y-115784380D01*
X98917714Y-115832000D01*
X98965333Y-115879619D01*
X99012952Y-115974857D01*
X99012952Y-116070095D01*
X98965333Y-116165333D01*
X98917714Y-116212952D01*
X98822476Y-116260571D01*
X98489142Y-116260571D01*
X99917714Y-116784380D02*
X99917714Y-116260571D01*
X99870095Y-116165333D01*
X99774857Y-116117714D01*
X99584380Y-116117714D01*
X99489142Y-116165333D01*
X99917714Y-116736761D02*
X99822476Y-116784380D01*
X99584380Y-116784380D01*
X99489142Y-116736761D01*
X99441523Y-116641523D01*
X99441523Y-116546285D01*
X99489142Y-116451047D01*
X99584380Y-116403428D01*
X99822476Y-116403428D01*
X99917714Y-116355809D01*
X100251047Y-116117714D02*
X100632000Y-116117714D01*
X100393904Y-115784380D02*
X100393904Y-116641523D01*
X100441523Y-116736761D01*
X100536761Y-116784380D01*
X100632000Y-116784380D01*
X100822476Y-116117714D02*
X101203428Y-116117714D01*
X100965333Y-115784380D02*
X100965333Y-116641523D01*
X101012952Y-116736761D01*
X101108190Y-116784380D01*
X101203428Y-116784380D01*
X101917714Y-116736761D02*
X101822476Y-116784380D01*
X101632000Y-116784380D01*
X101536761Y-116736761D01*
X101489142Y-116641523D01*
X101489142Y-116260571D01*
X101536761Y-116165333D01*
X101632000Y-116117714D01*
X101822476Y-116117714D01*
X101917714Y-116165333D01*
X101965333Y-116260571D01*
X101965333Y-116355809D01*
X101489142Y-116451047D01*
X102393904Y-116784380D02*
X102393904Y-116117714D01*
X102393904Y-116308190D02*
X102441523Y-116212952D01*
X102489142Y-116165333D01*
X102584380Y-116117714D01*
X102679619Y-116117714D01*
X102917714Y-116117714D02*
X103155809Y-116784380D01*
X103393904Y-116117714D02*
X103155809Y-116784380D01*
X103060571Y-117022476D01*
X103012952Y-117070095D01*
X102917714Y-117117714D01*
X103536761Y-116879619D02*
X104298666Y-116879619D01*
X104536761Y-116784380D02*
X104536761Y-115784380D01*
X105012952Y-116117714D02*
X105012952Y-116784380D01*
X105012952Y-116212952D02*
X105060571Y-116165333D01*
X105155809Y-116117714D01*
X105298666Y-116117714D01*
X105393904Y-116165333D01*
X105441523Y-116260571D01*
X105441523Y-116784380D01*
X105917714Y-116117714D02*
X105917714Y-117117714D01*
X105917714Y-116165333D02*
X106012952Y-116117714D01*
X106203428Y-116117714D01*
X106298666Y-116165333D01*
X106346285Y-116212952D01*
X106393904Y-116308190D01*
X106393904Y-116593904D01*
X106346285Y-116689142D01*
X106298666Y-116736761D01*
X106203428Y-116784380D01*
X106012952Y-116784380D01*
X105917714Y-116736761D01*
X107251047Y-116117714D02*
X107251047Y-116784380D01*
X106822476Y-116117714D02*
X106822476Y-116641523D01*
X106870095Y-116736761D01*
X106965333Y-116784380D01*
X107108190Y-116784380D01*
X107203428Y-116736761D01*
X107251047Y-116689142D01*
X107584380Y-116117714D02*
X107965333Y-116117714D01*
X107727238Y-115784380D02*
X107727238Y-116641523D01*
X107774857Y-116736761D01*
X107870095Y-116784380D01*
X107965333Y-116784380D01*
X108822476Y-116784380D02*
X108251047Y-116784380D01*
X108536761Y-116784380D02*
X108536761Y-115784380D01*
X108441523Y-115927238D01*
X108346285Y-116022476D01*
X108251047Y-116070095D01*
X73326666Y-70182380D02*
X73326666Y-70896666D01*
X73279047Y-71039523D01*
X73183809Y-71134761D01*
X73040952Y-71182380D01*
X72945714Y-71182380D01*
X73755238Y-70277619D02*
X73802857Y-70230000D01*
X73898095Y-70182380D01*
X74136190Y-70182380D01*
X74231428Y-70230000D01*
X74279047Y-70277619D01*
X74326666Y-70372857D01*
X74326666Y-70468095D01*
X74279047Y-70610952D01*
X73707619Y-71182380D01*
X74326666Y-71182380D01*
D13*
X85979047Y-95738190D02*
X85979047Y-96142952D01*
X86002857Y-96190571D01*
X86026666Y-96214380D01*
X86074285Y-96238190D01*
X86169523Y-96238190D01*
X86217142Y-96214380D01*
X86240952Y-96190571D01*
X86264761Y-96142952D01*
X86264761Y-95738190D01*
X86717142Y-95904857D02*
X86717142Y-96238190D01*
X86598095Y-95714380D02*
X86479047Y-96071523D01*
X86788571Y-96071523D01*
X84788666Y-107668190D02*
X84788666Y-107168190D01*
X84979142Y-107168190D01*
X85026761Y-107192000D01*
X85050571Y-107215809D01*
X85074380Y-107263428D01*
X85074380Y-107334857D01*
X85050571Y-107382476D01*
X85026761Y-107406285D01*
X84979142Y-107430095D01*
X84788666Y-107430095D01*
X85288666Y-107668190D02*
X85288666Y-107168190D01*
X85812476Y-107620571D02*
X85788666Y-107644380D01*
X85717238Y-107668190D01*
X85669619Y-107668190D01*
X85598190Y-107644380D01*
X85550571Y-107596761D01*
X85526761Y-107549142D01*
X85502952Y-107453904D01*
X85502952Y-107382476D01*
X85526761Y-107287238D01*
X85550571Y-107239619D01*
X85598190Y-107192000D01*
X85669619Y-107168190D01*
X85717238Y-107168190D01*
X85788666Y-107192000D01*
X85812476Y-107215809D01*
X86288666Y-107668190D02*
X86002952Y-107668190D01*
X86145809Y-107668190D02*
X86145809Y-107168190D01*
X86098190Y-107239619D01*
X86050571Y-107287238D01*
X86002952Y-107311047D01*
X86574380Y-107382476D02*
X86526761Y-107358666D01*
X86502952Y-107334857D01*
X86479142Y-107287238D01*
X86479142Y-107263428D01*
X86502952Y-107215809D01*
X86526761Y-107192000D01*
X86574380Y-107168190D01*
X86669619Y-107168190D01*
X86717238Y-107192000D01*
X86741047Y-107215809D01*
X86764857Y-107263428D01*
X86764857Y-107287238D01*
X86741047Y-107334857D01*
X86717238Y-107358666D01*
X86669619Y-107382476D01*
X86574380Y-107382476D01*
X86526761Y-107406285D01*
X86502952Y-107430095D01*
X86479142Y-107477714D01*
X86479142Y-107572952D01*
X86502952Y-107620571D01*
X86526761Y-107644380D01*
X86574380Y-107668190D01*
X86669619Y-107668190D01*
X86717238Y-107644380D01*
X86741047Y-107620571D01*
X86764857Y-107572952D01*
X86764857Y-107477714D01*
X86741047Y-107430095D01*
X86717238Y-107406285D01*
X86669619Y-107382476D01*
X87145809Y-107406285D02*
X86979142Y-107406285D01*
X86979142Y-107668190D02*
X86979142Y-107168190D01*
X87217238Y-107168190D01*
X87383904Y-107215809D02*
X87407714Y-107192000D01*
X87455333Y-107168190D01*
X87574380Y-107168190D01*
X87622000Y-107192000D01*
X87645809Y-107215809D01*
X87669619Y-107263428D01*
X87669619Y-107311047D01*
X87645809Y-107382476D01*
X87360095Y-107668190D01*
X87669619Y-107668190D01*
X87836285Y-107168190D02*
X88169619Y-107668190D01*
X88169619Y-107168190D02*
X87836285Y-107668190D01*
X88502952Y-107168190D02*
X88502952Y-107525333D01*
X88479142Y-107596761D01*
X88431523Y-107644380D01*
X88360095Y-107668190D01*
X88312476Y-107668190D01*
X88979142Y-107168190D02*
X88741047Y-107168190D01*
X88717238Y-107406285D01*
X88741047Y-107382476D01*
X88788666Y-107358666D01*
X88907714Y-107358666D01*
X88955333Y-107382476D01*
X88979142Y-107406285D01*
X89002952Y-107453904D01*
X89002952Y-107572952D01*
X88979142Y-107620571D01*
X88955333Y-107644380D01*
X88907714Y-107668190D01*
X88788666Y-107668190D01*
X88741047Y-107644380D01*
X88717238Y-107620571D01*
X89312476Y-107168190D02*
X89360095Y-107168190D01*
X89407714Y-107192000D01*
X89431523Y-107215809D01*
X89455333Y-107263428D01*
X89479142Y-107358666D01*
X89479142Y-107477714D01*
X89455333Y-107572952D01*
X89431523Y-107620571D01*
X89407714Y-107644380D01*
X89360095Y-107668190D01*
X89312476Y-107668190D01*
X89264857Y-107644380D01*
X89241047Y-107620571D01*
X89217238Y-107572952D01*
X89193428Y-107477714D01*
X89193428Y-107358666D01*
X89217238Y-107263428D01*
X89241047Y-107215809D01*
X89264857Y-107192000D01*
X89312476Y-107168190D01*
X67216571Y-104097142D02*
X67302285Y-104125714D01*
X67330857Y-104154285D01*
X67359428Y-104211428D01*
X67359428Y-104297142D01*
X67330857Y-104354285D01*
X67302285Y-104382857D01*
X67245142Y-104411428D01*
X67016571Y-104411428D01*
X67016571Y-103811428D01*
X67216571Y-103811428D01*
X67273714Y-103840000D01*
X67302285Y-103868571D01*
X67330857Y-103925714D01*
X67330857Y-103982857D01*
X67302285Y-104040000D01*
X67273714Y-104068571D01*
X67216571Y-104097142D01*
X67016571Y-104097142D01*
X67616571Y-103811428D02*
X67616571Y-104297142D01*
X67645142Y-104354285D01*
X67673714Y-104382857D01*
X67730857Y-104411428D01*
X67845142Y-104411428D01*
X67902285Y-104382857D01*
X67930857Y-104354285D01*
X67959428Y-104297142D01*
X67959428Y-103811428D01*
X68159428Y-103811428D02*
X68502285Y-103811428D01*
X68330857Y-104411428D02*
X68330857Y-103811428D01*
X68616571Y-103811428D02*
X68959428Y-103811428D01*
X68788000Y-104411428D02*
X68788000Y-103811428D01*
X69273714Y-103811428D02*
X69388000Y-103811428D01*
X69445142Y-103840000D01*
X69502285Y-103897142D01*
X69530857Y-104011428D01*
X69530857Y-104211428D01*
X69502285Y-104325714D01*
X69445142Y-104382857D01*
X69388000Y-104411428D01*
X69273714Y-104411428D01*
X69216571Y-104382857D01*
X69159428Y-104325714D01*
X69130857Y-104211428D01*
X69130857Y-104011428D01*
X69159428Y-103897142D01*
X69216571Y-103840000D01*
X69273714Y-103811428D01*
X69788000Y-104411428D02*
X69788000Y-103811428D01*
X70130857Y-104411428D01*
X70130857Y-103811428D01*
X70273714Y-104468571D02*
X70730857Y-104468571D01*
X71188000Y-104411428D02*
X70845142Y-104411428D01*
X71016571Y-104411428D02*
X71016571Y-103811428D01*
X70959428Y-103897142D01*
X70902285Y-103954285D01*
X70845142Y-103982857D01*
X67216571Y-112225142D02*
X67302285Y-112253714D01*
X67330857Y-112282285D01*
X67359428Y-112339428D01*
X67359428Y-112425142D01*
X67330857Y-112482285D01*
X67302285Y-112510857D01*
X67245142Y-112539428D01*
X67016571Y-112539428D01*
X67016571Y-111939428D01*
X67216571Y-111939428D01*
X67273714Y-111968000D01*
X67302285Y-111996571D01*
X67330857Y-112053714D01*
X67330857Y-112110857D01*
X67302285Y-112168000D01*
X67273714Y-112196571D01*
X67216571Y-112225142D01*
X67016571Y-112225142D01*
X67616571Y-111939428D02*
X67616571Y-112425142D01*
X67645142Y-112482285D01*
X67673714Y-112510857D01*
X67730857Y-112539428D01*
X67845142Y-112539428D01*
X67902285Y-112510857D01*
X67930857Y-112482285D01*
X67959428Y-112425142D01*
X67959428Y-111939428D01*
X68159428Y-111939428D02*
X68502285Y-111939428D01*
X68330857Y-112539428D02*
X68330857Y-111939428D01*
X68616571Y-111939428D02*
X68959428Y-111939428D01*
X68788000Y-112539428D02*
X68788000Y-111939428D01*
X69273714Y-111939428D02*
X69388000Y-111939428D01*
X69445142Y-111968000D01*
X69502285Y-112025142D01*
X69530857Y-112139428D01*
X69530857Y-112339428D01*
X69502285Y-112453714D01*
X69445142Y-112510857D01*
X69388000Y-112539428D01*
X69273714Y-112539428D01*
X69216571Y-112510857D01*
X69159428Y-112453714D01*
X69130857Y-112339428D01*
X69130857Y-112139428D01*
X69159428Y-112025142D01*
X69216571Y-111968000D01*
X69273714Y-111939428D01*
X69788000Y-112539428D02*
X69788000Y-111939428D01*
X70130857Y-112539428D01*
X70130857Y-111939428D01*
X70273714Y-112596571D02*
X70730857Y-112596571D01*
X70845142Y-111996571D02*
X70873714Y-111968000D01*
X70930857Y-111939428D01*
X71073714Y-111939428D01*
X71130857Y-111968000D01*
X71159428Y-111996571D01*
X71188000Y-112053714D01*
X71188000Y-112110857D01*
X71159428Y-112196571D01*
X70816571Y-112539428D01*
X71188000Y-112539428D01*
X90594666Y-77648571D02*
X90570857Y-77672380D01*
X90499428Y-77696190D01*
X90451809Y-77696190D01*
X90380380Y-77672380D01*
X90332761Y-77624761D01*
X90308952Y-77577142D01*
X90285142Y-77481904D01*
X90285142Y-77410476D01*
X90308952Y-77315238D01*
X90332761Y-77267619D01*
X90380380Y-77220000D01*
X90451809Y-77196190D01*
X90499428Y-77196190D01*
X90570857Y-77220000D01*
X90594666Y-77243809D01*
X90761333Y-77196190D02*
X91070857Y-77196190D01*
X90904190Y-77386666D01*
X90975619Y-77386666D01*
X91023238Y-77410476D01*
X91047047Y-77434285D01*
X91070857Y-77481904D01*
X91070857Y-77600952D01*
X91047047Y-77648571D01*
X91023238Y-77672380D01*
X90975619Y-77696190D01*
X90832761Y-77696190D01*
X90785142Y-77672380D01*
X90761333Y-77648571D01*
X92666380Y-77696190D02*
X92380666Y-77696190D01*
X92523523Y-77696190D02*
X92523523Y-77196190D01*
X92475904Y-77267619D01*
X92428285Y-77315238D01*
X92380666Y-77339047D01*
X93094952Y-77362857D02*
X93094952Y-77696190D01*
X92880666Y-77362857D02*
X92880666Y-77624761D01*
X92904476Y-77672380D01*
X92952095Y-77696190D01*
X93023523Y-77696190D01*
X93071142Y-77672380D01*
X93094952Y-77648571D01*
X93499714Y-77434285D02*
X93333047Y-77434285D01*
X93333047Y-77696190D02*
X93333047Y-77196190D01*
X93571142Y-77196190D01*
X101770666Y-112700571D02*
X101746857Y-112724380D01*
X101675428Y-112748190D01*
X101627809Y-112748190D01*
X101556380Y-112724380D01*
X101508761Y-112676761D01*
X101484952Y-112629142D01*
X101461142Y-112533904D01*
X101461142Y-112462476D01*
X101484952Y-112367238D01*
X101508761Y-112319619D01*
X101556380Y-112272000D01*
X101627809Y-112248190D01*
X101675428Y-112248190D01*
X101746857Y-112272000D01*
X101770666Y-112295809D01*
X102199238Y-112414857D02*
X102199238Y-112748190D01*
X102080190Y-112224380D02*
X101961142Y-112581523D01*
X102270666Y-112581523D01*
X103437619Y-112414857D02*
X103437619Y-112748190D01*
X103318571Y-112224380D02*
X103199523Y-112581523D01*
X103509047Y-112581523D01*
X103699523Y-112700571D02*
X103723333Y-112724380D01*
X103699523Y-112748190D01*
X103675714Y-112724380D01*
X103699523Y-112700571D01*
X103699523Y-112748190D01*
X103890000Y-112248190D02*
X104223333Y-112248190D01*
X104009047Y-112748190D01*
X104628095Y-112414857D02*
X104628095Y-112748190D01*
X104413809Y-112414857D02*
X104413809Y-112676761D01*
X104437619Y-112724380D01*
X104485238Y-112748190D01*
X104556666Y-112748190D01*
X104604285Y-112724380D01*
X104628095Y-112700571D01*
X105032857Y-112486285D02*
X104866190Y-112486285D01*
X104866190Y-112748190D02*
X104866190Y-112248190D01*
X105104285Y-112248190D01*
X81212571Y-74854571D02*
X81188761Y-74878380D01*
X81117333Y-74902190D01*
X81069714Y-74902190D01*
X80998285Y-74878380D01*
X80950666Y-74830761D01*
X80926857Y-74783142D01*
X80903047Y-74687904D01*
X80903047Y-74616476D01*
X80926857Y-74521238D01*
X80950666Y-74473619D01*
X80998285Y-74426000D01*
X81069714Y-74402190D01*
X81117333Y-74402190D01*
X81188761Y-74426000D01*
X81212571Y-74449809D01*
X81688761Y-74902190D02*
X81403047Y-74902190D01*
X81545904Y-74902190D02*
X81545904Y-74402190D01*
X81498285Y-74473619D01*
X81450666Y-74521238D01*
X81403047Y-74545047D01*
X81879238Y-74449809D02*
X81903047Y-74426000D01*
X81950666Y-74402190D01*
X82069714Y-74402190D01*
X82117333Y-74426000D01*
X82141142Y-74449809D01*
X82164952Y-74497428D01*
X82164952Y-74545047D01*
X82141142Y-74616476D01*
X81855428Y-74902190D01*
X82164952Y-74902190D01*
X81252285Y-75664190D02*
X80966571Y-75664190D01*
X81109428Y-75664190D02*
X81109428Y-75164190D01*
X81061809Y-75235619D01*
X81014190Y-75283238D01*
X80966571Y-75307047D01*
X81561809Y-75164190D02*
X81609428Y-75164190D01*
X81657047Y-75188000D01*
X81680857Y-75211809D01*
X81704666Y-75259428D01*
X81728476Y-75354666D01*
X81728476Y-75473714D01*
X81704666Y-75568952D01*
X81680857Y-75616571D01*
X81657047Y-75640380D01*
X81609428Y-75664190D01*
X81561809Y-75664190D01*
X81514190Y-75640380D01*
X81490380Y-75616571D01*
X81466571Y-75568952D01*
X81442761Y-75473714D01*
X81442761Y-75354666D01*
X81466571Y-75259428D01*
X81490380Y-75211809D01*
X81514190Y-75188000D01*
X81561809Y-75164190D01*
X81942761Y-75330857D02*
X81942761Y-75664190D01*
X81942761Y-75378476D02*
X81966571Y-75354666D01*
X82014190Y-75330857D01*
X82085619Y-75330857D01*
X82133238Y-75354666D01*
X82157047Y-75402285D01*
X82157047Y-75664190D01*
X82561809Y-75402285D02*
X82395142Y-75402285D01*
X82395142Y-75664190D02*
X82395142Y-75164190D01*
X82633238Y-75164190D01*
X93650571Y-105477428D02*
X93674380Y-105501238D01*
X93698190Y-105572666D01*
X93698190Y-105620285D01*
X93674380Y-105691714D01*
X93626761Y-105739333D01*
X93579142Y-105763142D01*
X93483904Y-105786952D01*
X93412476Y-105786952D01*
X93317238Y-105763142D01*
X93269619Y-105739333D01*
X93222000Y-105691714D01*
X93198190Y-105620285D01*
X93198190Y-105572666D01*
X93222000Y-105501238D01*
X93245809Y-105477428D01*
X93698190Y-105001238D02*
X93698190Y-105286952D01*
X93698190Y-105144095D02*
X93198190Y-105144095D01*
X93269619Y-105191714D01*
X93317238Y-105239333D01*
X93341047Y-105286952D01*
X93364857Y-104572666D02*
X93698190Y-104572666D01*
X93174380Y-104691714D02*
X93531523Y-104810761D01*
X93531523Y-104501238D01*
X93698190Y-103675619D02*
X93698190Y-103961333D01*
X93698190Y-103818476D02*
X93198190Y-103818476D01*
X93269619Y-103866095D01*
X93317238Y-103913714D01*
X93341047Y-103961333D01*
X93364857Y-103247047D02*
X93698190Y-103247047D01*
X93364857Y-103461333D02*
X93626761Y-103461333D01*
X93674380Y-103437523D01*
X93698190Y-103389904D01*
X93698190Y-103318476D01*
X93674380Y-103270857D01*
X93650571Y-103247047D01*
X93436285Y-102842285D02*
X93436285Y-103008952D01*
X93698190Y-103008952D02*
X93198190Y-103008952D01*
X93198190Y-102770857D01*
X98222571Y-104461428D02*
X98246380Y-104485238D01*
X98270190Y-104556666D01*
X98270190Y-104604285D01*
X98246380Y-104675714D01*
X98198761Y-104723333D01*
X98151142Y-104747142D01*
X98055904Y-104770952D01*
X97984476Y-104770952D01*
X97889238Y-104747142D01*
X97841619Y-104723333D01*
X97794000Y-104675714D01*
X97770190Y-104604285D01*
X97770190Y-104556666D01*
X97794000Y-104485238D01*
X97817809Y-104461428D01*
X98270190Y-103985238D02*
X98270190Y-104270952D01*
X98270190Y-104128095D02*
X97770190Y-104128095D01*
X97841619Y-104175714D01*
X97889238Y-104223333D01*
X97913047Y-104270952D01*
X97770190Y-103532857D02*
X97770190Y-103770952D01*
X98008285Y-103794761D01*
X97984476Y-103770952D01*
X97960666Y-103723333D01*
X97960666Y-103604285D01*
X97984476Y-103556666D01*
X98008285Y-103532857D01*
X98055904Y-103509047D01*
X98174952Y-103509047D01*
X98222571Y-103532857D01*
X98246380Y-103556666D01*
X98270190Y-103604285D01*
X98270190Y-103723333D01*
X98246380Y-103770952D01*
X98222571Y-103794761D01*
X98270190Y-101357809D02*
X98270190Y-101643523D01*
X98270190Y-101500666D02*
X97770190Y-101500666D01*
X97841619Y-101548285D01*
X97889238Y-101595904D01*
X97913047Y-101643523D01*
X97770190Y-101048285D02*
X97770190Y-101000666D01*
X97794000Y-100953047D01*
X97817809Y-100929238D01*
X97865428Y-100905428D01*
X97960666Y-100881619D01*
X98079714Y-100881619D01*
X98174952Y-100905428D01*
X98222571Y-100929238D01*
X98246380Y-100953047D01*
X98270190Y-101000666D01*
X98270190Y-101048285D01*
X98246380Y-101095904D01*
X98222571Y-101119714D01*
X98174952Y-101143523D01*
X98079714Y-101167333D01*
X97960666Y-101167333D01*
X97865428Y-101143523D01*
X97817809Y-101119714D01*
X97794000Y-101095904D01*
X97770190Y-101048285D01*
X97770190Y-100572095D02*
X97770190Y-100524476D01*
X97794000Y-100476857D01*
X97817809Y-100453047D01*
X97865428Y-100429238D01*
X97960666Y-100405428D01*
X98079714Y-100405428D01*
X98174952Y-100429238D01*
X98222571Y-100453047D01*
X98246380Y-100476857D01*
X98270190Y-100524476D01*
X98270190Y-100572095D01*
X98246380Y-100619714D01*
X98222571Y-100643523D01*
X98174952Y-100667333D01*
X98079714Y-100691142D01*
X97960666Y-100691142D01*
X97865428Y-100667333D01*
X97817809Y-100643523D01*
X97794000Y-100619714D01*
X97770190Y-100572095D01*
X97936857Y-100191142D02*
X98270190Y-100191142D01*
X97984476Y-100191142D02*
X97960666Y-100167333D01*
X97936857Y-100119714D01*
X97936857Y-100048285D01*
X97960666Y-100000666D01*
X98008285Y-99976857D01*
X98270190Y-99976857D01*
X98008285Y-99572095D02*
X98008285Y-99738761D01*
X98270190Y-99738761D02*
X97770190Y-99738761D01*
X97770190Y-99500666D01*
X100000571Y-77283428D02*
X100024380Y-77307238D01*
X100048190Y-77378666D01*
X100048190Y-77426285D01*
X100024380Y-77497714D01*
X99976761Y-77545333D01*
X99929142Y-77569142D01*
X99833904Y-77592952D01*
X99762476Y-77592952D01*
X99667238Y-77569142D01*
X99619619Y-77545333D01*
X99572000Y-77497714D01*
X99548190Y-77426285D01*
X99548190Y-77378666D01*
X99572000Y-77307238D01*
X99595809Y-77283428D01*
X100048190Y-76807238D02*
X100048190Y-77092952D01*
X100048190Y-76950095D02*
X99548190Y-76950095D01*
X99619619Y-76997714D01*
X99667238Y-77045333D01*
X99691047Y-77092952D01*
X99548190Y-76640571D02*
X99548190Y-76307238D01*
X100048190Y-76521523D01*
X101064190Y-77227809D02*
X101064190Y-77513523D01*
X101064190Y-77370666D02*
X100564190Y-77370666D01*
X100635619Y-77418285D01*
X100683238Y-77465904D01*
X100707047Y-77513523D01*
X100564190Y-76918285D02*
X100564190Y-76870666D01*
X100588000Y-76823047D01*
X100611809Y-76799238D01*
X100659428Y-76775428D01*
X100754666Y-76751619D01*
X100873714Y-76751619D01*
X100968952Y-76775428D01*
X101016571Y-76799238D01*
X101040380Y-76823047D01*
X101064190Y-76870666D01*
X101064190Y-76918285D01*
X101040380Y-76965904D01*
X101016571Y-76989714D01*
X100968952Y-77013523D01*
X100873714Y-77037333D01*
X100754666Y-77037333D01*
X100659428Y-77013523D01*
X100611809Y-76989714D01*
X100588000Y-76965904D01*
X100564190Y-76918285D01*
X100564190Y-76442095D02*
X100564190Y-76394476D01*
X100588000Y-76346857D01*
X100611809Y-76323047D01*
X100659428Y-76299238D01*
X100754666Y-76275428D01*
X100873714Y-76275428D01*
X100968952Y-76299238D01*
X101016571Y-76323047D01*
X101040380Y-76346857D01*
X101064190Y-76394476D01*
X101064190Y-76442095D01*
X101040380Y-76489714D01*
X101016571Y-76513523D01*
X100968952Y-76537333D01*
X100873714Y-76561142D01*
X100754666Y-76561142D01*
X100659428Y-76537333D01*
X100611809Y-76513523D01*
X100588000Y-76489714D01*
X100564190Y-76442095D01*
X100730857Y-76061142D02*
X101064190Y-76061142D01*
X100778476Y-76061142D02*
X100754666Y-76037333D01*
X100730857Y-75989714D01*
X100730857Y-75918285D01*
X100754666Y-75870666D01*
X100802285Y-75846857D01*
X101064190Y-75846857D01*
X100802285Y-75442095D02*
X100802285Y-75608761D01*
X101064190Y-75608761D02*
X100564190Y-75608761D01*
X100564190Y-75370666D01*
X103516952Y-105636190D02*
X103516952Y-105136190D01*
X103636000Y-105136190D01*
X103707428Y-105160000D01*
X103755047Y-105207619D01*
X103778857Y-105255238D01*
X103802666Y-105350476D01*
X103802666Y-105421904D01*
X103778857Y-105517142D01*
X103755047Y-105564761D01*
X103707428Y-105612380D01*
X103636000Y-105636190D01*
X103516952Y-105636190D01*
X104278857Y-105636190D02*
X103993142Y-105636190D01*
X104136000Y-105636190D02*
X104136000Y-105136190D01*
X104088380Y-105207619D01*
X104040761Y-105255238D01*
X103993142Y-105279047D01*
X103532952Y-106398190D02*
X103532952Y-105898190D01*
X103652000Y-105898190D01*
X103723428Y-105922000D01*
X103771047Y-105969619D01*
X103794857Y-106017238D01*
X103818666Y-106112476D01*
X103818666Y-106183904D01*
X103794857Y-106279142D01*
X103771047Y-106326761D01*
X103723428Y-106374380D01*
X103652000Y-106398190D01*
X103532952Y-106398190D01*
X103913904Y-106445809D02*
X104294857Y-106445809D01*
X104366285Y-105898190D02*
X104699619Y-105898190D01*
X104366285Y-106398190D01*
X104699619Y-106398190D01*
X105080571Y-106374380D02*
X105032952Y-106398190D01*
X104937714Y-106398190D01*
X104890095Y-106374380D01*
X104866285Y-106326761D01*
X104866285Y-106136285D01*
X104890095Y-106088666D01*
X104937714Y-106064857D01*
X105032952Y-106064857D01*
X105080571Y-106088666D01*
X105104380Y-106136285D01*
X105104380Y-106183904D01*
X104866285Y-106231523D01*
X105318666Y-106064857D02*
X105318666Y-106398190D01*
X105318666Y-106112476D02*
X105342476Y-106088666D01*
X105390095Y-106064857D01*
X105461523Y-106064857D01*
X105509142Y-106088666D01*
X105532952Y-106136285D01*
X105532952Y-106398190D01*
X105961523Y-106374380D02*
X105913904Y-106398190D01*
X105818666Y-106398190D01*
X105771047Y-106374380D01*
X105747238Y-106326761D01*
X105747238Y-106136285D01*
X105771047Y-106088666D01*
X105818666Y-106064857D01*
X105913904Y-106064857D01*
X105961523Y-106088666D01*
X105985333Y-106136285D01*
X105985333Y-106183904D01*
X105747238Y-106231523D01*
X106199619Y-106398190D02*
X106199619Y-106064857D01*
X106199619Y-106160095D02*
X106223428Y-106112476D01*
X106247238Y-106088666D01*
X106294857Y-106064857D01*
X106342476Y-106064857D01*
X71068476Y-96492190D02*
X70830380Y-96492190D01*
X70830380Y-95992190D01*
X71235142Y-96230285D02*
X71401809Y-96230285D01*
X71473238Y-96492190D02*
X71235142Y-96492190D01*
X71235142Y-95992190D01*
X71473238Y-95992190D01*
X71687523Y-96492190D02*
X71687523Y-95992190D01*
X71806571Y-95992190D01*
X71878000Y-96016000D01*
X71925619Y-96063619D01*
X71949428Y-96111238D01*
X71973238Y-96206476D01*
X71973238Y-96277904D01*
X71949428Y-96373142D01*
X71925619Y-96420761D01*
X71878000Y-96468380D01*
X71806571Y-96492190D01*
X71687523Y-96492190D01*
X72282761Y-95992190D02*
X72330380Y-95992190D01*
X72378000Y-96016000D01*
X72401809Y-96039809D01*
X72425619Y-96087428D01*
X72449428Y-96182666D01*
X72449428Y-96301714D01*
X72425619Y-96396952D01*
X72401809Y-96444571D01*
X72378000Y-96468380D01*
X72330380Y-96492190D01*
X72282761Y-96492190D01*
X72235142Y-96468380D01*
X72211333Y-96444571D01*
X72187523Y-96396952D01*
X72163714Y-96301714D01*
X72163714Y-96182666D01*
X72187523Y-96087428D01*
X72211333Y-96039809D01*
X72235142Y-96016000D01*
X72282761Y-95992190D01*
X71068476Y-98524190D02*
X70830380Y-98524190D01*
X70830380Y-98024190D01*
X71235142Y-98262285D02*
X71401809Y-98262285D01*
X71473238Y-98524190D02*
X71235142Y-98524190D01*
X71235142Y-98024190D01*
X71473238Y-98024190D01*
X71687523Y-98524190D02*
X71687523Y-98024190D01*
X71806571Y-98024190D01*
X71878000Y-98048000D01*
X71925619Y-98095619D01*
X71949428Y-98143238D01*
X71973238Y-98238476D01*
X71973238Y-98309904D01*
X71949428Y-98405142D01*
X71925619Y-98452761D01*
X71878000Y-98500380D01*
X71806571Y-98524190D01*
X71687523Y-98524190D01*
X72449428Y-98524190D02*
X72163714Y-98524190D01*
X72306571Y-98524190D02*
X72306571Y-98024190D01*
X72258952Y-98095619D01*
X72211333Y-98143238D01*
X72163714Y-98167047D01*
X71068476Y-100556190D02*
X70830380Y-100556190D01*
X70830380Y-100056190D01*
X71235142Y-100294285D02*
X71401809Y-100294285D01*
X71473238Y-100556190D02*
X71235142Y-100556190D01*
X71235142Y-100056190D01*
X71473238Y-100056190D01*
X71687523Y-100556190D02*
X71687523Y-100056190D01*
X71806571Y-100056190D01*
X71878000Y-100080000D01*
X71925619Y-100127619D01*
X71949428Y-100175238D01*
X71973238Y-100270476D01*
X71973238Y-100341904D01*
X71949428Y-100437142D01*
X71925619Y-100484761D01*
X71878000Y-100532380D01*
X71806571Y-100556190D01*
X71687523Y-100556190D01*
X72163714Y-100103809D02*
X72187523Y-100080000D01*
X72235142Y-100056190D01*
X72354190Y-100056190D01*
X72401809Y-100080000D01*
X72425619Y-100103809D01*
X72449428Y-100151428D01*
X72449428Y-100199047D01*
X72425619Y-100270476D01*
X72139904Y-100556190D01*
X72449428Y-100556190D01*
X71068476Y-102842190D02*
X70830380Y-102842190D01*
X70830380Y-102342190D01*
X71235142Y-102580285D02*
X71401809Y-102580285D01*
X71473238Y-102842190D02*
X71235142Y-102842190D01*
X71235142Y-102342190D01*
X71473238Y-102342190D01*
X71687523Y-102842190D02*
X71687523Y-102342190D01*
X71806571Y-102342190D01*
X71878000Y-102366000D01*
X71925619Y-102413619D01*
X71949428Y-102461238D01*
X71973238Y-102556476D01*
X71973238Y-102627904D01*
X71949428Y-102723142D01*
X71925619Y-102770761D01*
X71878000Y-102818380D01*
X71806571Y-102842190D01*
X71687523Y-102842190D01*
X72139904Y-102342190D02*
X72449428Y-102342190D01*
X72282761Y-102532666D01*
X72354190Y-102532666D01*
X72401809Y-102556476D01*
X72425619Y-102580285D01*
X72449428Y-102627904D01*
X72449428Y-102746952D01*
X72425619Y-102794571D01*
X72401809Y-102818380D01*
X72354190Y-102842190D01*
X72211333Y-102842190D01*
X72163714Y-102818380D01*
X72139904Y-102794571D01*
X83958952Y-114018190D02*
X83958952Y-113518190D01*
X84149428Y-113518190D01*
X84197047Y-113542000D01*
X84220857Y-113565809D01*
X84244666Y-113613428D01*
X84244666Y-113684857D01*
X84220857Y-113732476D01*
X84197047Y-113756285D01*
X84149428Y-113780095D01*
X83958952Y-113780095D01*
X84720857Y-114018190D02*
X84435142Y-114018190D01*
X84578000Y-114018190D02*
X84578000Y-113518190D01*
X84530380Y-113589619D01*
X84482761Y-113637238D01*
X84435142Y-113661047D01*
X94170761Y-118336190D02*
X94170761Y-117836190D01*
X94361238Y-117836190D01*
X94408857Y-117860000D01*
X94432666Y-117883809D01*
X94456476Y-117931428D01*
X94456476Y-118002857D01*
X94432666Y-118050476D01*
X94408857Y-118074285D01*
X94361238Y-118098095D01*
X94170761Y-118098095D01*
X94742190Y-118336190D02*
X94694571Y-118312380D01*
X94670761Y-118288571D01*
X94646952Y-118240952D01*
X94646952Y-118098095D01*
X94670761Y-118050476D01*
X94694571Y-118026666D01*
X94742190Y-118002857D01*
X94813619Y-118002857D01*
X94861238Y-118026666D01*
X94885047Y-118050476D01*
X94908857Y-118098095D01*
X94908857Y-118240952D01*
X94885047Y-118288571D01*
X94861238Y-118312380D01*
X94813619Y-118336190D01*
X94742190Y-118336190D01*
X95075523Y-118002857D02*
X95170761Y-118336190D01*
X95266000Y-118098095D01*
X95361238Y-118336190D01*
X95456476Y-118002857D01*
X95837428Y-118312380D02*
X95789809Y-118336190D01*
X95694571Y-118336190D01*
X95646952Y-118312380D01*
X95623142Y-118264761D01*
X95623142Y-118074285D01*
X95646952Y-118026666D01*
X95694571Y-118002857D01*
X95789809Y-118002857D01*
X95837428Y-118026666D01*
X95861238Y-118074285D01*
X95861238Y-118121904D01*
X95623142Y-118169523D01*
X96075523Y-118336190D02*
X96075523Y-118002857D01*
X96075523Y-118098095D02*
X96099333Y-118050476D01*
X96123142Y-118026666D01*
X96170761Y-118002857D01*
X96218380Y-118002857D01*
X96266000Y-118383809D02*
X96646952Y-118383809D01*
X97004095Y-118336190D02*
X96766000Y-118336190D01*
X96766000Y-117836190D01*
X97170761Y-118074285D02*
X97337428Y-118074285D01*
X97408857Y-118336190D02*
X97170761Y-118336190D01*
X97170761Y-117836190D01*
X97408857Y-117836190D01*
X97623142Y-118336190D02*
X97623142Y-117836190D01*
X97742190Y-117836190D01*
X97813619Y-117860000D01*
X97861238Y-117907619D01*
X97885047Y-117955238D01*
X97908857Y-118050476D01*
X97908857Y-118121904D01*
X97885047Y-118217142D01*
X97861238Y-118264761D01*
X97813619Y-118312380D01*
X97742190Y-118336190D01*
X97623142Y-118336190D01*
X98385047Y-118336190D02*
X98099333Y-118336190D01*
X98242190Y-118336190D02*
X98242190Y-117836190D01*
X98194571Y-117907619D01*
X98146952Y-117955238D01*
X98099333Y-117979047D01*
X98250380Y-112287809D02*
X98202761Y-112264000D01*
X98155142Y-112216380D01*
X98083714Y-112144952D01*
X98036095Y-112121142D01*
X97988476Y-112121142D01*
X98012285Y-112240190D02*
X97964666Y-112216380D01*
X97917047Y-112168761D01*
X97893238Y-112073523D01*
X97893238Y-111906857D01*
X97917047Y-111811619D01*
X97964666Y-111764000D01*
X98012285Y-111740190D01*
X98107523Y-111740190D01*
X98155142Y-111764000D01*
X98202761Y-111811619D01*
X98226571Y-111906857D01*
X98226571Y-112073523D01*
X98202761Y-112168761D01*
X98155142Y-112216380D01*
X98107523Y-112240190D01*
X98012285Y-112240190D01*
X98702761Y-112240190D02*
X98417047Y-112240190D01*
X98559904Y-112240190D02*
X98559904Y-111740190D01*
X98512285Y-111811619D01*
X98464666Y-111859238D01*
X98417047Y-111883047D01*
X100846190Y-109446190D02*
X100846190Y-108946190D01*
X101131904Y-109446190D01*
X101131904Y-108946190D01*
X101322380Y-108946190D02*
X101655714Y-109446190D01*
X101655714Y-108946190D02*
X101322380Y-109446190D01*
X101846190Y-109446190D02*
X101846190Y-108946190D01*
X102036666Y-108946190D01*
X102084285Y-108970000D01*
X102108095Y-108993809D01*
X102131904Y-109041428D01*
X102131904Y-109112857D01*
X102108095Y-109160476D01*
X102084285Y-109184285D01*
X102036666Y-109208095D01*
X101846190Y-109208095D01*
X102893809Y-109184285D02*
X102965238Y-109208095D01*
X102989047Y-109231904D01*
X103012857Y-109279523D01*
X103012857Y-109350952D01*
X102989047Y-109398571D01*
X102965238Y-109422380D01*
X102917619Y-109446190D01*
X102727142Y-109446190D01*
X102727142Y-108946190D01*
X102893809Y-108946190D01*
X102941428Y-108970000D01*
X102965238Y-108993809D01*
X102989047Y-109041428D01*
X102989047Y-109089047D01*
X102965238Y-109136666D01*
X102941428Y-109160476D01*
X102893809Y-109184285D01*
X102727142Y-109184285D01*
X103203333Y-109422380D02*
X103274761Y-109446190D01*
X103393809Y-109446190D01*
X103441428Y-109422380D01*
X103465238Y-109398571D01*
X103489047Y-109350952D01*
X103489047Y-109303333D01*
X103465238Y-109255714D01*
X103441428Y-109231904D01*
X103393809Y-109208095D01*
X103298571Y-109184285D01*
X103250952Y-109160476D01*
X103227142Y-109136666D01*
X103203333Y-109089047D01*
X103203333Y-109041428D01*
X103227142Y-108993809D01*
X103250952Y-108970000D01*
X103298571Y-108946190D01*
X103417619Y-108946190D01*
X103489047Y-108970000D01*
X103679523Y-109422380D02*
X103750952Y-109446190D01*
X103870000Y-109446190D01*
X103917619Y-109422380D01*
X103941428Y-109398571D01*
X103965238Y-109350952D01*
X103965238Y-109303333D01*
X103941428Y-109255714D01*
X103917619Y-109231904D01*
X103870000Y-109208095D01*
X103774761Y-109184285D01*
X103727142Y-109160476D01*
X103703333Y-109136666D01*
X103679523Y-109089047D01*
X103679523Y-109041428D01*
X103703333Y-108993809D01*
X103727142Y-108970000D01*
X103774761Y-108946190D01*
X103893809Y-108946190D01*
X103965238Y-108970000D01*
X104250952Y-109160476D02*
X104203333Y-109136666D01*
X104179523Y-109112857D01*
X104155714Y-109065238D01*
X104155714Y-109041428D01*
X104179523Y-108993809D01*
X104203333Y-108970000D01*
X104250952Y-108946190D01*
X104346190Y-108946190D01*
X104393809Y-108970000D01*
X104417619Y-108993809D01*
X104441428Y-109041428D01*
X104441428Y-109065238D01*
X104417619Y-109112857D01*
X104393809Y-109136666D01*
X104346190Y-109160476D01*
X104250952Y-109160476D01*
X104203333Y-109184285D01*
X104179523Y-109208095D01*
X104155714Y-109255714D01*
X104155714Y-109350952D01*
X104179523Y-109398571D01*
X104203333Y-109422380D01*
X104250952Y-109446190D01*
X104346190Y-109446190D01*
X104393809Y-109422380D01*
X104417619Y-109398571D01*
X104441428Y-109350952D01*
X104441428Y-109255714D01*
X104417619Y-109208095D01*
X104393809Y-109184285D01*
X104346190Y-109160476D01*
X104870000Y-109112857D02*
X104870000Y-109446190D01*
X104750952Y-108922380D02*
X104631904Y-109279523D01*
X104941428Y-109279523D01*
X81486380Y-86887809D02*
X81438761Y-86864000D01*
X81391142Y-86816380D01*
X81319714Y-86744952D01*
X81272095Y-86721142D01*
X81224476Y-86721142D01*
X81248285Y-86840190D02*
X81200666Y-86816380D01*
X81153047Y-86768761D01*
X81129238Y-86673523D01*
X81129238Y-86506857D01*
X81153047Y-86411619D01*
X81200666Y-86364000D01*
X81248285Y-86340190D01*
X81343523Y-86340190D01*
X81391142Y-86364000D01*
X81438761Y-86411619D01*
X81462571Y-86506857D01*
X81462571Y-86673523D01*
X81438761Y-86768761D01*
X81391142Y-86816380D01*
X81343523Y-86840190D01*
X81248285Y-86840190D01*
X81653047Y-86387809D02*
X81676857Y-86364000D01*
X81724476Y-86340190D01*
X81843523Y-86340190D01*
X81891142Y-86364000D01*
X81914952Y-86387809D01*
X81938761Y-86435428D01*
X81938761Y-86483047D01*
X81914952Y-86554476D01*
X81629238Y-86840190D01*
X81938761Y-86840190D01*
X75632857Y-88110190D02*
X75632857Y-87610190D01*
X75918571Y-88110190D01*
X75918571Y-87610190D01*
X76109047Y-87610190D02*
X76442380Y-88110190D01*
X76442380Y-87610190D02*
X76109047Y-88110190D01*
X76632857Y-88110190D02*
X76632857Y-87610190D01*
X76823333Y-87610190D01*
X76870952Y-87634000D01*
X76894761Y-87657809D01*
X76918571Y-87705428D01*
X76918571Y-87776857D01*
X76894761Y-87824476D01*
X76870952Y-87848285D01*
X76823333Y-87872095D01*
X76632857Y-87872095D01*
X77490000Y-87657809D02*
X77513809Y-87634000D01*
X77561428Y-87610190D01*
X77680476Y-87610190D01*
X77728095Y-87634000D01*
X77751904Y-87657809D01*
X77775714Y-87705428D01*
X77775714Y-87753047D01*
X77751904Y-87824476D01*
X77466190Y-88110190D01*
X77775714Y-88110190D01*
X77990000Y-88110190D02*
X77990000Y-87610190D01*
X78275714Y-88110190D01*
X78275714Y-87610190D01*
X78466190Y-87610190D02*
X78799523Y-87610190D01*
X78585238Y-88110190D01*
X79085238Y-87610190D02*
X79132857Y-87610190D01*
X79180476Y-87634000D01*
X79204285Y-87657809D01*
X79228095Y-87705428D01*
X79251904Y-87800666D01*
X79251904Y-87919714D01*
X79228095Y-88014952D01*
X79204285Y-88062571D01*
X79180476Y-88086380D01*
X79132857Y-88110190D01*
X79085238Y-88110190D01*
X79037619Y-88086380D01*
X79013809Y-88062571D01*
X78990000Y-88014952D01*
X78966190Y-87919714D01*
X78966190Y-87800666D01*
X78990000Y-87705428D01*
X79013809Y-87657809D01*
X79037619Y-87634000D01*
X79085238Y-87610190D01*
X79561428Y-87610190D02*
X79609047Y-87610190D01*
X79656666Y-87634000D01*
X79680476Y-87657809D01*
X79704285Y-87705428D01*
X79728095Y-87800666D01*
X79728095Y-87919714D01*
X79704285Y-88014952D01*
X79680476Y-88062571D01*
X79656666Y-88086380D01*
X79609047Y-88110190D01*
X79561428Y-88110190D01*
X79513809Y-88086380D01*
X79490000Y-88062571D01*
X79466190Y-88014952D01*
X79442380Y-87919714D01*
X79442380Y-87800666D01*
X79466190Y-87705428D01*
X79490000Y-87657809D01*
X79513809Y-87634000D01*
X79561428Y-87610190D01*
X79918571Y-87657809D02*
X79942380Y-87634000D01*
X79990000Y-87610190D01*
X80109047Y-87610190D01*
X80156666Y-87634000D01*
X80180476Y-87657809D01*
X80204285Y-87705428D01*
X80204285Y-87753047D01*
X80180476Y-87824476D01*
X79894761Y-88110190D01*
X80204285Y-88110190D01*
X80442380Y-88086380D02*
X80442380Y-88110190D01*
X80418571Y-88157809D01*
X80394761Y-88181619D01*
X80632857Y-87657809D02*
X80656666Y-87634000D01*
X80704285Y-87610190D01*
X80823333Y-87610190D01*
X80870952Y-87634000D01*
X80894761Y-87657809D01*
X80918571Y-87705428D01*
X80918571Y-87753047D01*
X80894761Y-87824476D01*
X80609047Y-88110190D01*
X80918571Y-88110190D01*
X81394761Y-88110190D02*
X81109047Y-88110190D01*
X81251904Y-88110190D02*
X81251904Y-87610190D01*
X81204285Y-87681619D01*
X81156666Y-87729238D01*
X81109047Y-87753047D01*
X81847142Y-87610190D02*
X81609047Y-87610190D01*
X81585238Y-87848285D01*
X81609047Y-87824476D01*
X81656666Y-87800666D01*
X81775714Y-87800666D01*
X81823333Y-87824476D01*
X81847142Y-87848285D01*
X81870952Y-87895904D01*
X81870952Y-88014952D01*
X81847142Y-88062571D01*
X81823333Y-88086380D01*
X81775714Y-88110190D01*
X81656666Y-88110190D01*
X81609047Y-88086380D01*
X81585238Y-88062571D01*
X96218380Y-87649809D02*
X96170761Y-87626000D01*
X96123142Y-87578380D01*
X96051714Y-87506952D01*
X96004095Y-87483142D01*
X95956476Y-87483142D01*
X95980285Y-87602190D02*
X95932666Y-87578380D01*
X95885047Y-87530761D01*
X95861238Y-87435523D01*
X95861238Y-87268857D01*
X95885047Y-87173619D01*
X95932666Y-87126000D01*
X95980285Y-87102190D01*
X96075523Y-87102190D01*
X96123142Y-87126000D01*
X96170761Y-87173619D01*
X96194571Y-87268857D01*
X96194571Y-87435523D01*
X96170761Y-87530761D01*
X96123142Y-87578380D01*
X96075523Y-87602190D01*
X95980285Y-87602190D01*
X96361238Y-87102190D02*
X96670761Y-87102190D01*
X96504095Y-87292666D01*
X96575523Y-87292666D01*
X96623142Y-87316476D01*
X96646952Y-87340285D01*
X96670761Y-87387904D01*
X96670761Y-87506952D01*
X96646952Y-87554571D01*
X96623142Y-87578380D01*
X96575523Y-87602190D01*
X96432666Y-87602190D01*
X96385047Y-87578380D01*
X96361238Y-87554571D01*
X96020190Y-88618190D02*
X96020190Y-88118190D01*
X96305904Y-88618190D01*
X96305904Y-88118190D01*
X96496380Y-88118190D02*
X96829714Y-88618190D01*
X96829714Y-88118190D02*
X96496380Y-88618190D01*
X97020190Y-88618190D02*
X97020190Y-88118190D01*
X97210666Y-88118190D01*
X97258285Y-88142000D01*
X97282095Y-88165809D01*
X97305904Y-88213428D01*
X97305904Y-88284857D01*
X97282095Y-88332476D01*
X97258285Y-88356285D01*
X97210666Y-88380095D01*
X97020190Y-88380095D01*
X98067809Y-88356285D02*
X98139238Y-88380095D01*
X98163047Y-88403904D01*
X98186857Y-88451523D01*
X98186857Y-88522952D01*
X98163047Y-88570571D01*
X98139238Y-88594380D01*
X98091619Y-88618190D01*
X97901142Y-88618190D01*
X97901142Y-88118190D01*
X98067809Y-88118190D01*
X98115428Y-88142000D01*
X98139238Y-88165809D01*
X98163047Y-88213428D01*
X98163047Y-88261047D01*
X98139238Y-88308666D01*
X98115428Y-88332476D01*
X98067809Y-88356285D01*
X97901142Y-88356285D01*
X98377333Y-88594380D02*
X98448761Y-88618190D01*
X98567809Y-88618190D01*
X98615428Y-88594380D01*
X98639238Y-88570571D01*
X98663047Y-88522952D01*
X98663047Y-88475333D01*
X98639238Y-88427714D01*
X98615428Y-88403904D01*
X98567809Y-88380095D01*
X98472571Y-88356285D01*
X98424952Y-88332476D01*
X98401142Y-88308666D01*
X98377333Y-88261047D01*
X98377333Y-88213428D01*
X98401142Y-88165809D01*
X98424952Y-88142000D01*
X98472571Y-88118190D01*
X98591619Y-88118190D01*
X98663047Y-88142000D01*
X98853523Y-88594380D02*
X98924952Y-88618190D01*
X99044000Y-88618190D01*
X99091619Y-88594380D01*
X99115428Y-88570571D01*
X99139238Y-88522952D01*
X99139238Y-88475333D01*
X99115428Y-88427714D01*
X99091619Y-88403904D01*
X99044000Y-88380095D01*
X98948761Y-88356285D01*
X98901142Y-88332476D01*
X98877333Y-88308666D01*
X98853523Y-88261047D01*
X98853523Y-88213428D01*
X98877333Y-88165809D01*
X98901142Y-88142000D01*
X98948761Y-88118190D01*
X99067809Y-88118190D01*
X99139238Y-88142000D01*
X99424952Y-88332476D02*
X99377333Y-88308666D01*
X99353523Y-88284857D01*
X99329714Y-88237238D01*
X99329714Y-88213428D01*
X99353523Y-88165809D01*
X99377333Y-88142000D01*
X99424952Y-88118190D01*
X99520190Y-88118190D01*
X99567809Y-88142000D01*
X99591619Y-88165809D01*
X99615428Y-88213428D01*
X99615428Y-88237238D01*
X99591619Y-88284857D01*
X99567809Y-88308666D01*
X99520190Y-88332476D01*
X99424952Y-88332476D01*
X99377333Y-88356285D01*
X99353523Y-88380095D01*
X99329714Y-88427714D01*
X99329714Y-88522952D01*
X99353523Y-88570571D01*
X99377333Y-88594380D01*
X99424952Y-88618190D01*
X99520190Y-88618190D01*
X99567809Y-88594380D01*
X99591619Y-88570571D01*
X99615428Y-88522952D01*
X99615428Y-88427714D01*
X99591619Y-88380095D01*
X99567809Y-88356285D01*
X99520190Y-88332476D01*
X100044000Y-88284857D02*
X100044000Y-88618190D01*
X99924952Y-88094380D02*
X99805904Y-88451523D01*
X100115428Y-88451523D01*
X74338666Y-93444190D02*
X74172000Y-93206095D01*
X74052952Y-93444190D02*
X74052952Y-92944190D01*
X74243428Y-92944190D01*
X74291047Y-92968000D01*
X74314857Y-92991809D01*
X74338666Y-93039428D01*
X74338666Y-93110857D01*
X74314857Y-93158476D01*
X74291047Y-93182285D01*
X74243428Y-93206095D01*
X74052952Y-93206095D01*
X74505333Y-92944190D02*
X74814857Y-92944190D01*
X74648190Y-93134666D01*
X74719619Y-93134666D01*
X74767238Y-93158476D01*
X74791047Y-93182285D01*
X74814857Y-93229904D01*
X74814857Y-93348952D01*
X74791047Y-93396571D01*
X74767238Y-93420380D01*
X74719619Y-93444190D01*
X74576761Y-93444190D01*
X74529142Y-93420380D01*
X74505333Y-93396571D01*
X74033142Y-93706190D02*
X74342666Y-93706190D01*
X74176000Y-93896666D01*
X74247428Y-93896666D01*
X74295047Y-93920476D01*
X74318857Y-93944285D01*
X74342666Y-93991904D01*
X74342666Y-94110952D01*
X74318857Y-94158571D01*
X74295047Y-94182380D01*
X74247428Y-94206190D01*
X74104571Y-94206190D01*
X74056952Y-94182380D01*
X74033142Y-94158571D01*
X74509333Y-93706190D02*
X74818857Y-93706190D01*
X74652190Y-93896666D01*
X74723619Y-93896666D01*
X74771238Y-93920476D01*
X74795047Y-93944285D01*
X74818857Y-93991904D01*
X74818857Y-94110952D01*
X74795047Y-94158571D01*
X74771238Y-94182380D01*
X74723619Y-94206190D01*
X74580761Y-94206190D01*
X74533142Y-94182380D01*
X74509333Y-94158571D01*
X75128380Y-93706190D02*
X75176000Y-93706190D01*
X75223619Y-93730000D01*
X75247428Y-93753809D01*
X75271238Y-93801428D01*
X75295047Y-93896666D01*
X75295047Y-94015714D01*
X75271238Y-94110952D01*
X75247428Y-94158571D01*
X75223619Y-94182380D01*
X75176000Y-94206190D01*
X75128380Y-94206190D01*
X75080761Y-94182380D01*
X75056952Y-94158571D01*
X75033142Y-94110952D01*
X75009333Y-94015714D01*
X75009333Y-93896666D01*
X75033142Y-93801428D01*
X75056952Y-93753809D01*
X75080761Y-93730000D01*
X75128380Y-93706190D01*
X74846666Y-91158190D02*
X74680000Y-90920095D01*
X74560952Y-91158190D02*
X74560952Y-90658190D01*
X74751428Y-90658190D01*
X74799047Y-90682000D01*
X74822857Y-90705809D01*
X74846666Y-90753428D01*
X74846666Y-90824857D01*
X74822857Y-90872476D01*
X74799047Y-90896285D01*
X74751428Y-90920095D01*
X74560952Y-90920095D01*
X75275238Y-90824857D02*
X75275238Y-91158190D01*
X75156190Y-90634380D02*
X75037142Y-90991523D01*
X75346666Y-90991523D01*
X74541142Y-91420190D02*
X74850666Y-91420190D01*
X74684000Y-91610666D01*
X74755428Y-91610666D01*
X74803047Y-91634476D01*
X74826857Y-91658285D01*
X74850666Y-91705904D01*
X74850666Y-91824952D01*
X74826857Y-91872571D01*
X74803047Y-91896380D01*
X74755428Y-91920190D01*
X74612571Y-91920190D01*
X74564952Y-91896380D01*
X74541142Y-91872571D01*
X75017333Y-91420190D02*
X75326857Y-91420190D01*
X75160190Y-91610666D01*
X75231619Y-91610666D01*
X75279238Y-91634476D01*
X75303047Y-91658285D01*
X75326857Y-91705904D01*
X75326857Y-91824952D01*
X75303047Y-91872571D01*
X75279238Y-91896380D01*
X75231619Y-91920190D01*
X75088761Y-91920190D01*
X75041142Y-91896380D01*
X75017333Y-91872571D01*
X75636380Y-91420190D02*
X75684000Y-91420190D01*
X75731619Y-91444000D01*
X75755428Y-91467809D01*
X75779238Y-91515428D01*
X75803047Y-91610666D01*
X75803047Y-91729714D01*
X75779238Y-91824952D01*
X75755428Y-91872571D01*
X75731619Y-91896380D01*
X75684000Y-91920190D01*
X75636380Y-91920190D01*
X75588761Y-91896380D01*
X75564952Y-91872571D01*
X75541142Y-91824952D01*
X75517333Y-91729714D01*
X75517333Y-91610666D01*
X75541142Y-91515428D01*
X75564952Y-91467809D01*
X75588761Y-91444000D01*
X75636380Y-91420190D01*
X97198666Y-114272190D02*
X97032000Y-114034095D01*
X96912952Y-114272190D02*
X96912952Y-113772190D01*
X97103428Y-113772190D01*
X97151047Y-113796000D01*
X97174857Y-113819809D01*
X97198666Y-113867428D01*
X97198666Y-113938857D01*
X97174857Y-113986476D01*
X97151047Y-114010285D01*
X97103428Y-114034095D01*
X96912952Y-114034095D01*
X97365333Y-113772190D02*
X97698666Y-113772190D01*
X97484380Y-114272190D01*
X97155047Y-114700857D02*
X97155047Y-115034190D01*
X97036000Y-114510380D02*
X96916952Y-114867523D01*
X97226476Y-114867523D01*
X97369333Y-114534190D02*
X97702666Y-114534190D01*
X97488380Y-115034190D01*
X97988380Y-114534190D02*
X98036000Y-114534190D01*
X98083619Y-114558000D01*
X98107428Y-114581809D01*
X98131238Y-114629428D01*
X98155047Y-114724666D01*
X98155047Y-114843714D01*
X98131238Y-114938952D01*
X98107428Y-114986571D01*
X98083619Y-115010380D01*
X98036000Y-115034190D01*
X97988380Y-115034190D01*
X97940761Y-115010380D01*
X97916952Y-114986571D01*
X97893142Y-114938952D01*
X97869333Y-114843714D01*
X97869333Y-114724666D01*
X97893142Y-114629428D01*
X97916952Y-114581809D01*
X97940761Y-114558000D01*
X97988380Y-114534190D01*
X93952190Y-111081333D02*
X93714095Y-111248000D01*
X93952190Y-111367047D02*
X93452190Y-111367047D01*
X93452190Y-111176571D01*
X93476000Y-111128952D01*
X93499809Y-111105142D01*
X93547428Y-111081333D01*
X93618857Y-111081333D01*
X93666476Y-111105142D01*
X93690285Y-111128952D01*
X93714095Y-111176571D01*
X93714095Y-111367047D01*
X93952190Y-110843238D02*
X93952190Y-110748000D01*
X93928380Y-110700380D01*
X93904571Y-110676571D01*
X93833142Y-110628952D01*
X93737904Y-110605142D01*
X93547428Y-110605142D01*
X93499809Y-110628952D01*
X93476000Y-110652761D01*
X93452190Y-110700380D01*
X93452190Y-110795619D01*
X93476000Y-110843238D01*
X93499809Y-110867047D01*
X93547428Y-110890857D01*
X93666476Y-110890857D01*
X93714095Y-110867047D01*
X93737904Y-110843238D01*
X93761714Y-110795619D01*
X93761714Y-110700380D01*
X93737904Y-110652761D01*
X93714095Y-110628952D01*
X93666476Y-110605142D01*
X93952190Y-109263619D02*
X93952190Y-109549333D01*
X93952190Y-109406476D02*
X93452190Y-109406476D01*
X93523619Y-109454095D01*
X93571238Y-109501714D01*
X93595047Y-109549333D01*
X93452190Y-108954095D02*
X93452190Y-108906476D01*
X93476000Y-108858857D01*
X93499809Y-108835047D01*
X93547428Y-108811238D01*
X93642666Y-108787428D01*
X93761714Y-108787428D01*
X93856952Y-108811238D01*
X93904571Y-108835047D01*
X93928380Y-108858857D01*
X93952190Y-108906476D01*
X93952190Y-108954095D01*
X93928380Y-109001714D01*
X93904571Y-109025523D01*
X93856952Y-109049333D01*
X93761714Y-109073142D01*
X93642666Y-109073142D01*
X93547428Y-109049333D01*
X93499809Y-109025523D01*
X93476000Y-109001714D01*
X93452190Y-108954095D01*
X93952190Y-108573142D02*
X93452190Y-108573142D01*
X93761714Y-108525523D02*
X93952190Y-108382666D01*
X93618857Y-108382666D02*
X93809333Y-108573142D01*
X80958571Y-78966190D02*
X80791904Y-78728095D01*
X80672857Y-78966190D02*
X80672857Y-78466190D01*
X80863333Y-78466190D01*
X80910952Y-78490000D01*
X80934761Y-78513809D01*
X80958571Y-78561428D01*
X80958571Y-78632857D01*
X80934761Y-78680476D01*
X80910952Y-78704285D01*
X80863333Y-78728095D01*
X80672857Y-78728095D01*
X81434761Y-78966190D02*
X81149047Y-78966190D01*
X81291904Y-78966190D02*
X81291904Y-78466190D01*
X81244285Y-78537619D01*
X81196666Y-78585238D01*
X81149047Y-78609047D01*
X81863333Y-78632857D02*
X81863333Y-78966190D01*
X81744285Y-78442380D02*
X81625238Y-78799523D01*
X81934761Y-78799523D01*
X80934761Y-79394857D02*
X80934761Y-79728190D01*
X80815714Y-79204380D02*
X80696666Y-79561523D01*
X81006190Y-79561523D01*
X81196666Y-79728190D02*
X81196666Y-79228190D01*
X81244285Y-79537714D02*
X81387142Y-79728190D01*
X81387142Y-79394857D02*
X81196666Y-79585333D01*
X81553809Y-79228190D02*
X81887142Y-79228190D01*
X81672857Y-79728190D01*
X80958571Y-76934190D02*
X80791904Y-76696095D01*
X80672857Y-76934190D02*
X80672857Y-76434190D01*
X80863333Y-76434190D01*
X80910952Y-76458000D01*
X80934761Y-76481809D01*
X80958571Y-76529428D01*
X80958571Y-76600857D01*
X80934761Y-76648476D01*
X80910952Y-76672285D01*
X80863333Y-76696095D01*
X80672857Y-76696095D01*
X81434761Y-76934190D02*
X81149047Y-76934190D01*
X81291904Y-76934190D02*
X81291904Y-76434190D01*
X81244285Y-76505619D01*
X81196666Y-76553238D01*
X81149047Y-76577047D01*
X81887142Y-76434190D02*
X81649047Y-76434190D01*
X81625238Y-76672285D01*
X81649047Y-76648476D01*
X81696666Y-76624666D01*
X81815714Y-76624666D01*
X81863333Y-76648476D01*
X81887142Y-76672285D01*
X81910952Y-76719904D01*
X81910952Y-76838952D01*
X81887142Y-76886571D01*
X81863333Y-76910380D01*
X81815714Y-76934190D01*
X81696666Y-76934190D01*
X81649047Y-76910380D01*
X81625238Y-76886571D01*
X80637142Y-77196190D02*
X80946666Y-77196190D01*
X80780000Y-77386666D01*
X80851428Y-77386666D01*
X80899047Y-77410476D01*
X80922857Y-77434285D01*
X80946666Y-77481904D01*
X80946666Y-77600952D01*
X80922857Y-77648571D01*
X80899047Y-77672380D01*
X80851428Y-77696190D01*
X80708571Y-77696190D01*
X80660952Y-77672380D01*
X80637142Y-77648571D01*
X81113333Y-77196190D02*
X81422857Y-77196190D01*
X81256190Y-77386666D01*
X81327619Y-77386666D01*
X81375238Y-77410476D01*
X81399047Y-77434285D01*
X81422857Y-77481904D01*
X81422857Y-77600952D01*
X81399047Y-77648571D01*
X81375238Y-77672380D01*
X81327619Y-77696190D01*
X81184761Y-77696190D01*
X81137142Y-77672380D01*
X81113333Y-77648571D01*
X81732380Y-77196190D02*
X81780000Y-77196190D01*
X81827619Y-77220000D01*
X81851428Y-77243809D01*
X81875238Y-77291428D01*
X81899047Y-77386666D01*
X81899047Y-77505714D01*
X81875238Y-77600952D01*
X81851428Y-77648571D01*
X81827619Y-77672380D01*
X81780000Y-77696190D01*
X81732380Y-77696190D01*
X81684761Y-77672380D01*
X81660952Y-77648571D01*
X81637142Y-77600952D01*
X81613333Y-77505714D01*
X81613333Y-77386666D01*
X81637142Y-77291428D01*
X81660952Y-77243809D01*
X81684761Y-77220000D01*
X81732380Y-77196190D01*
X78204190Y-108271428D02*
X77966095Y-108438095D01*
X78204190Y-108557142D02*
X77704190Y-108557142D01*
X77704190Y-108366666D01*
X77728000Y-108319047D01*
X77751809Y-108295238D01*
X77799428Y-108271428D01*
X77870857Y-108271428D01*
X77918476Y-108295238D01*
X77942285Y-108319047D01*
X77966095Y-108366666D01*
X77966095Y-108557142D01*
X78204190Y-107795238D02*
X78204190Y-108080952D01*
X78204190Y-107938095D02*
X77704190Y-107938095D01*
X77775619Y-107985714D01*
X77823238Y-108033333D01*
X77847047Y-108080952D01*
X77704190Y-107366666D02*
X77704190Y-107461904D01*
X77728000Y-107509523D01*
X77751809Y-107533333D01*
X77823238Y-107580952D01*
X77918476Y-107604761D01*
X78108952Y-107604761D01*
X78156571Y-107580952D01*
X78180380Y-107557142D01*
X78204190Y-107509523D01*
X78204190Y-107414285D01*
X78180380Y-107366666D01*
X78156571Y-107342857D01*
X78108952Y-107319047D01*
X77989904Y-107319047D01*
X77942285Y-107342857D01*
X77918476Y-107366666D01*
X77894666Y-107414285D01*
X77894666Y-107509523D01*
X77918476Y-107557142D01*
X77942285Y-107580952D01*
X77989904Y-107604761D01*
X80744190Y-107993619D02*
X80744190Y-108279333D01*
X80744190Y-108136476D02*
X80244190Y-108136476D01*
X80315619Y-108184095D01*
X80363238Y-108231714D01*
X80387047Y-108279333D01*
X80244190Y-107684095D02*
X80244190Y-107636476D01*
X80268000Y-107588857D01*
X80291809Y-107565047D01*
X80339428Y-107541238D01*
X80434666Y-107517428D01*
X80553714Y-107517428D01*
X80648952Y-107541238D01*
X80696571Y-107565047D01*
X80720380Y-107588857D01*
X80744190Y-107636476D01*
X80744190Y-107684095D01*
X80720380Y-107731714D01*
X80696571Y-107755523D01*
X80648952Y-107779333D01*
X80553714Y-107803142D01*
X80434666Y-107803142D01*
X80339428Y-107779333D01*
X80291809Y-107755523D01*
X80268000Y-107731714D01*
X80244190Y-107684095D01*
X80744190Y-107303142D02*
X80244190Y-107303142D01*
X80553714Y-107255523D02*
X80744190Y-107112666D01*
X80410857Y-107112666D02*
X80601333Y-107303142D01*
X78204190Y-112335428D02*
X77966095Y-112502095D01*
X78204190Y-112621142D02*
X77704190Y-112621142D01*
X77704190Y-112430666D01*
X77728000Y-112383047D01*
X77751809Y-112359238D01*
X77799428Y-112335428D01*
X77870857Y-112335428D01*
X77918476Y-112359238D01*
X77942285Y-112383047D01*
X77966095Y-112430666D01*
X77966095Y-112621142D01*
X78204190Y-111859238D02*
X78204190Y-112144952D01*
X78204190Y-112002095D02*
X77704190Y-112002095D01*
X77775619Y-112049714D01*
X77823238Y-112097333D01*
X77847047Y-112144952D01*
X77704190Y-111692571D02*
X77704190Y-111359238D01*
X78204190Y-111573523D01*
X80744190Y-111041619D02*
X80744190Y-111327333D01*
X80744190Y-111184476D02*
X80244190Y-111184476D01*
X80315619Y-111232095D01*
X80363238Y-111279714D01*
X80387047Y-111327333D01*
X80244190Y-110732095D02*
X80244190Y-110684476D01*
X80268000Y-110636857D01*
X80291809Y-110613047D01*
X80339428Y-110589238D01*
X80434666Y-110565428D01*
X80553714Y-110565428D01*
X80648952Y-110589238D01*
X80696571Y-110613047D01*
X80720380Y-110636857D01*
X80744190Y-110684476D01*
X80744190Y-110732095D01*
X80720380Y-110779714D01*
X80696571Y-110803523D01*
X80648952Y-110827333D01*
X80553714Y-110851142D01*
X80434666Y-110851142D01*
X80339428Y-110827333D01*
X80291809Y-110803523D01*
X80268000Y-110779714D01*
X80244190Y-110732095D01*
X80744190Y-110351142D02*
X80244190Y-110351142D01*
X80553714Y-110303523D02*
X80744190Y-110160666D01*
X80410857Y-110160666D02*
X80601333Y-110351142D01*
X75878571Y-96492190D02*
X75711904Y-96254095D01*
X75592857Y-96492190D02*
X75592857Y-95992190D01*
X75783333Y-95992190D01*
X75830952Y-96016000D01*
X75854761Y-96039809D01*
X75878571Y-96087428D01*
X75878571Y-96158857D01*
X75854761Y-96206476D01*
X75830952Y-96230285D01*
X75783333Y-96254095D01*
X75592857Y-96254095D01*
X76354761Y-96492190D02*
X76069047Y-96492190D01*
X76211904Y-96492190D02*
X76211904Y-95992190D01*
X76164285Y-96063619D01*
X76116666Y-96111238D01*
X76069047Y-96135047D01*
X76640476Y-96206476D02*
X76592857Y-96182666D01*
X76569047Y-96158857D01*
X76545238Y-96111238D01*
X76545238Y-96087428D01*
X76569047Y-96039809D01*
X76592857Y-96016000D01*
X76640476Y-95992190D01*
X76735714Y-95992190D01*
X76783333Y-96016000D01*
X76807142Y-96039809D01*
X76830952Y-96087428D01*
X76830952Y-96111238D01*
X76807142Y-96158857D01*
X76783333Y-96182666D01*
X76735714Y-96206476D01*
X76640476Y-96206476D01*
X76592857Y-96230285D01*
X76569047Y-96254095D01*
X76545238Y-96301714D01*
X76545238Y-96396952D01*
X76569047Y-96444571D01*
X76592857Y-96468380D01*
X76640476Y-96492190D01*
X76735714Y-96492190D01*
X76783333Y-96468380D01*
X76807142Y-96444571D01*
X76830952Y-96396952D01*
X76830952Y-96301714D01*
X76807142Y-96254095D01*
X76783333Y-96230285D01*
X76735714Y-96206476D01*
X75557142Y-96754190D02*
X75866666Y-96754190D01*
X75700000Y-96944666D01*
X75771428Y-96944666D01*
X75819047Y-96968476D01*
X75842857Y-96992285D01*
X75866666Y-97039904D01*
X75866666Y-97158952D01*
X75842857Y-97206571D01*
X75819047Y-97230380D01*
X75771428Y-97254190D01*
X75628571Y-97254190D01*
X75580952Y-97230380D01*
X75557142Y-97206571D01*
X76033333Y-96754190D02*
X76342857Y-96754190D01*
X76176190Y-96944666D01*
X76247619Y-96944666D01*
X76295238Y-96968476D01*
X76319047Y-96992285D01*
X76342857Y-97039904D01*
X76342857Y-97158952D01*
X76319047Y-97206571D01*
X76295238Y-97230380D01*
X76247619Y-97254190D01*
X76104761Y-97254190D01*
X76057142Y-97230380D01*
X76033333Y-97206571D01*
X76652380Y-96754190D02*
X76700000Y-96754190D01*
X76747619Y-96778000D01*
X76771428Y-96801809D01*
X76795238Y-96849428D01*
X76819047Y-96944666D01*
X76819047Y-97063714D01*
X76795238Y-97158952D01*
X76771428Y-97206571D01*
X76747619Y-97230380D01*
X76700000Y-97254190D01*
X76652380Y-97254190D01*
X76604761Y-97230380D01*
X76580952Y-97206571D01*
X76557142Y-97158952D01*
X76533333Y-97063714D01*
X76533333Y-96944666D01*
X76557142Y-96849428D01*
X76580952Y-96801809D01*
X76604761Y-96778000D01*
X76652380Y-96754190D01*
X75878571Y-98524190D02*
X75711904Y-98286095D01*
X75592857Y-98524190D02*
X75592857Y-98024190D01*
X75783333Y-98024190D01*
X75830952Y-98048000D01*
X75854761Y-98071809D01*
X75878571Y-98119428D01*
X75878571Y-98190857D01*
X75854761Y-98238476D01*
X75830952Y-98262285D01*
X75783333Y-98286095D01*
X75592857Y-98286095D01*
X76354761Y-98524190D02*
X76069047Y-98524190D01*
X76211904Y-98524190D02*
X76211904Y-98024190D01*
X76164285Y-98095619D01*
X76116666Y-98143238D01*
X76069047Y-98167047D01*
X76592857Y-98524190D02*
X76688095Y-98524190D01*
X76735714Y-98500380D01*
X76759523Y-98476571D01*
X76807142Y-98405142D01*
X76830952Y-98309904D01*
X76830952Y-98119428D01*
X76807142Y-98071809D01*
X76783333Y-98048000D01*
X76735714Y-98024190D01*
X76640476Y-98024190D01*
X76592857Y-98048000D01*
X76569047Y-98071809D01*
X76545238Y-98119428D01*
X76545238Y-98238476D01*
X76569047Y-98286095D01*
X76592857Y-98309904D01*
X76640476Y-98333714D01*
X76735714Y-98333714D01*
X76783333Y-98309904D01*
X76807142Y-98286095D01*
X76830952Y-98238476D01*
X75557142Y-98786190D02*
X75866666Y-98786190D01*
X75700000Y-98976666D01*
X75771428Y-98976666D01*
X75819047Y-99000476D01*
X75842857Y-99024285D01*
X75866666Y-99071904D01*
X75866666Y-99190952D01*
X75842857Y-99238571D01*
X75819047Y-99262380D01*
X75771428Y-99286190D01*
X75628571Y-99286190D01*
X75580952Y-99262380D01*
X75557142Y-99238571D01*
X76033333Y-98786190D02*
X76342857Y-98786190D01*
X76176190Y-98976666D01*
X76247619Y-98976666D01*
X76295238Y-99000476D01*
X76319047Y-99024285D01*
X76342857Y-99071904D01*
X76342857Y-99190952D01*
X76319047Y-99238571D01*
X76295238Y-99262380D01*
X76247619Y-99286190D01*
X76104761Y-99286190D01*
X76057142Y-99262380D01*
X76033333Y-99238571D01*
X76652380Y-98786190D02*
X76700000Y-98786190D01*
X76747619Y-98810000D01*
X76771428Y-98833809D01*
X76795238Y-98881428D01*
X76819047Y-98976666D01*
X76819047Y-99095714D01*
X76795238Y-99190952D01*
X76771428Y-99238571D01*
X76747619Y-99262380D01*
X76700000Y-99286190D01*
X76652380Y-99286190D01*
X76604761Y-99262380D01*
X76580952Y-99238571D01*
X76557142Y-99190952D01*
X76533333Y-99095714D01*
X76533333Y-98976666D01*
X76557142Y-98881428D01*
X76580952Y-98833809D01*
X76604761Y-98810000D01*
X76652380Y-98786190D01*
X75878571Y-100556190D02*
X75711904Y-100318095D01*
X75592857Y-100556190D02*
X75592857Y-100056190D01*
X75783333Y-100056190D01*
X75830952Y-100080000D01*
X75854761Y-100103809D01*
X75878571Y-100151428D01*
X75878571Y-100222857D01*
X75854761Y-100270476D01*
X75830952Y-100294285D01*
X75783333Y-100318095D01*
X75592857Y-100318095D01*
X76069047Y-100103809D02*
X76092857Y-100080000D01*
X76140476Y-100056190D01*
X76259523Y-100056190D01*
X76307142Y-100080000D01*
X76330952Y-100103809D01*
X76354761Y-100151428D01*
X76354761Y-100199047D01*
X76330952Y-100270476D01*
X76045238Y-100556190D01*
X76354761Y-100556190D01*
X76664285Y-100056190D02*
X76711904Y-100056190D01*
X76759523Y-100080000D01*
X76783333Y-100103809D01*
X76807142Y-100151428D01*
X76830952Y-100246666D01*
X76830952Y-100365714D01*
X76807142Y-100460952D01*
X76783333Y-100508571D01*
X76759523Y-100532380D01*
X76711904Y-100556190D01*
X76664285Y-100556190D01*
X76616666Y-100532380D01*
X76592857Y-100508571D01*
X76569047Y-100460952D01*
X76545238Y-100365714D01*
X76545238Y-100246666D01*
X76569047Y-100151428D01*
X76592857Y-100103809D01*
X76616666Y-100080000D01*
X76664285Y-100056190D01*
X75557142Y-100818190D02*
X75866666Y-100818190D01*
X75700000Y-101008666D01*
X75771428Y-101008666D01*
X75819047Y-101032476D01*
X75842857Y-101056285D01*
X75866666Y-101103904D01*
X75866666Y-101222952D01*
X75842857Y-101270571D01*
X75819047Y-101294380D01*
X75771428Y-101318190D01*
X75628571Y-101318190D01*
X75580952Y-101294380D01*
X75557142Y-101270571D01*
X76033333Y-100818190D02*
X76342857Y-100818190D01*
X76176190Y-101008666D01*
X76247619Y-101008666D01*
X76295238Y-101032476D01*
X76319047Y-101056285D01*
X76342857Y-101103904D01*
X76342857Y-101222952D01*
X76319047Y-101270571D01*
X76295238Y-101294380D01*
X76247619Y-101318190D01*
X76104761Y-101318190D01*
X76057142Y-101294380D01*
X76033333Y-101270571D01*
X76652380Y-100818190D02*
X76700000Y-100818190D01*
X76747619Y-100842000D01*
X76771428Y-100865809D01*
X76795238Y-100913428D01*
X76819047Y-101008666D01*
X76819047Y-101127714D01*
X76795238Y-101222952D01*
X76771428Y-101270571D01*
X76747619Y-101294380D01*
X76700000Y-101318190D01*
X76652380Y-101318190D01*
X76604761Y-101294380D01*
X76580952Y-101270571D01*
X76557142Y-101222952D01*
X76533333Y-101127714D01*
X76533333Y-101008666D01*
X76557142Y-100913428D01*
X76580952Y-100865809D01*
X76604761Y-100842000D01*
X76652380Y-100818190D01*
X75878571Y-102588190D02*
X75711904Y-102350095D01*
X75592857Y-102588190D02*
X75592857Y-102088190D01*
X75783333Y-102088190D01*
X75830952Y-102112000D01*
X75854761Y-102135809D01*
X75878571Y-102183428D01*
X75878571Y-102254857D01*
X75854761Y-102302476D01*
X75830952Y-102326285D01*
X75783333Y-102350095D01*
X75592857Y-102350095D01*
X76069047Y-102135809D02*
X76092857Y-102112000D01*
X76140476Y-102088190D01*
X76259523Y-102088190D01*
X76307142Y-102112000D01*
X76330952Y-102135809D01*
X76354761Y-102183428D01*
X76354761Y-102231047D01*
X76330952Y-102302476D01*
X76045238Y-102588190D01*
X76354761Y-102588190D01*
X76830952Y-102588190D02*
X76545238Y-102588190D01*
X76688095Y-102588190D02*
X76688095Y-102088190D01*
X76640476Y-102159619D01*
X76592857Y-102207238D01*
X76545238Y-102231047D01*
X75557142Y-102850190D02*
X75866666Y-102850190D01*
X75700000Y-103040666D01*
X75771428Y-103040666D01*
X75819047Y-103064476D01*
X75842857Y-103088285D01*
X75866666Y-103135904D01*
X75866666Y-103254952D01*
X75842857Y-103302571D01*
X75819047Y-103326380D01*
X75771428Y-103350190D01*
X75628571Y-103350190D01*
X75580952Y-103326380D01*
X75557142Y-103302571D01*
X76033333Y-102850190D02*
X76342857Y-102850190D01*
X76176190Y-103040666D01*
X76247619Y-103040666D01*
X76295238Y-103064476D01*
X76319047Y-103088285D01*
X76342857Y-103135904D01*
X76342857Y-103254952D01*
X76319047Y-103302571D01*
X76295238Y-103326380D01*
X76247619Y-103350190D01*
X76104761Y-103350190D01*
X76057142Y-103326380D01*
X76033333Y-103302571D01*
X76652380Y-102850190D02*
X76700000Y-102850190D01*
X76747619Y-102874000D01*
X76771428Y-102897809D01*
X76795238Y-102945428D01*
X76819047Y-103040666D01*
X76819047Y-103159714D01*
X76795238Y-103254952D01*
X76771428Y-103302571D01*
X76747619Y-103326380D01*
X76700000Y-103350190D01*
X76652380Y-103350190D01*
X76604761Y-103326380D01*
X76580952Y-103302571D01*
X76557142Y-103254952D01*
X76533333Y-103159714D01*
X76533333Y-103040666D01*
X76557142Y-102945428D01*
X76580952Y-102897809D01*
X76604761Y-102874000D01*
X76652380Y-102850190D01*
X86292571Y-86840190D02*
X86125904Y-86602095D01*
X86006857Y-86840190D02*
X86006857Y-86340190D01*
X86197333Y-86340190D01*
X86244952Y-86364000D01*
X86268761Y-86387809D01*
X86292571Y-86435428D01*
X86292571Y-86506857D01*
X86268761Y-86554476D01*
X86244952Y-86578285D01*
X86197333Y-86602095D01*
X86006857Y-86602095D01*
X86483047Y-86387809D02*
X86506857Y-86364000D01*
X86554476Y-86340190D01*
X86673523Y-86340190D01*
X86721142Y-86364000D01*
X86744952Y-86387809D01*
X86768761Y-86435428D01*
X86768761Y-86483047D01*
X86744952Y-86554476D01*
X86459238Y-86840190D01*
X86768761Y-86840190D01*
X86959238Y-86387809D02*
X86983047Y-86364000D01*
X87030666Y-86340190D01*
X87149714Y-86340190D01*
X87197333Y-86364000D01*
X87221142Y-86387809D01*
X87244952Y-86435428D01*
X87244952Y-86483047D01*
X87221142Y-86554476D01*
X86935428Y-86840190D01*
X87244952Y-86840190D01*
X88094380Y-86840190D02*
X87808666Y-86840190D01*
X87951523Y-86840190D02*
X87951523Y-86340190D01*
X87903904Y-86411619D01*
X87856285Y-86459238D01*
X87808666Y-86483047D01*
X88403904Y-86340190D02*
X88451523Y-86340190D01*
X88499142Y-86364000D01*
X88522952Y-86387809D01*
X88546761Y-86435428D01*
X88570571Y-86530666D01*
X88570571Y-86649714D01*
X88546761Y-86744952D01*
X88522952Y-86792571D01*
X88499142Y-86816380D01*
X88451523Y-86840190D01*
X88403904Y-86840190D01*
X88356285Y-86816380D01*
X88332476Y-86792571D01*
X88308666Y-86744952D01*
X88284857Y-86649714D01*
X88284857Y-86530666D01*
X88308666Y-86435428D01*
X88332476Y-86387809D01*
X88356285Y-86364000D01*
X88403904Y-86340190D01*
X88784857Y-86840190D02*
X88784857Y-86340190D01*
X88832476Y-86649714D02*
X88975333Y-86840190D01*
X88975333Y-86506857D02*
X88784857Y-86697333D01*
X87856190Y-91761428D02*
X87618095Y-91928095D01*
X87856190Y-92047142D02*
X87356190Y-92047142D01*
X87356190Y-91856666D01*
X87380000Y-91809047D01*
X87403809Y-91785238D01*
X87451428Y-91761428D01*
X87522857Y-91761428D01*
X87570476Y-91785238D01*
X87594285Y-91809047D01*
X87618095Y-91856666D01*
X87618095Y-92047142D01*
X87403809Y-91570952D02*
X87380000Y-91547142D01*
X87356190Y-91499523D01*
X87356190Y-91380476D01*
X87380000Y-91332857D01*
X87403809Y-91309047D01*
X87451428Y-91285238D01*
X87499047Y-91285238D01*
X87570476Y-91309047D01*
X87856190Y-91594761D01*
X87856190Y-91285238D01*
X87356190Y-91118571D02*
X87356190Y-90809047D01*
X87546666Y-90975714D01*
X87546666Y-90904285D01*
X87570476Y-90856666D01*
X87594285Y-90832857D01*
X87641904Y-90809047D01*
X87760952Y-90809047D01*
X87808571Y-90832857D01*
X87832380Y-90856666D01*
X87856190Y-90904285D01*
X87856190Y-91047142D01*
X87832380Y-91094761D01*
X87808571Y-91118571D01*
X87856190Y-89959619D02*
X87856190Y-90245333D01*
X87856190Y-90102476D02*
X87356190Y-90102476D01*
X87427619Y-90150095D01*
X87475238Y-90197714D01*
X87499047Y-90245333D01*
X87356190Y-89650095D02*
X87356190Y-89602476D01*
X87380000Y-89554857D01*
X87403809Y-89531047D01*
X87451428Y-89507238D01*
X87546666Y-89483428D01*
X87665714Y-89483428D01*
X87760952Y-89507238D01*
X87808571Y-89531047D01*
X87832380Y-89554857D01*
X87856190Y-89602476D01*
X87856190Y-89650095D01*
X87832380Y-89697714D01*
X87808571Y-89721523D01*
X87760952Y-89745333D01*
X87665714Y-89769142D01*
X87546666Y-89769142D01*
X87451428Y-89745333D01*
X87403809Y-89721523D01*
X87380000Y-89697714D01*
X87356190Y-89650095D01*
X87856190Y-89269142D02*
X87356190Y-89269142D01*
X87665714Y-89221523D02*
X87856190Y-89078666D01*
X87522857Y-89078666D02*
X87713333Y-89269142D01*
X97762190Y-77283428D02*
X97524095Y-77450095D01*
X97762190Y-77569142D02*
X97262190Y-77569142D01*
X97262190Y-77378666D01*
X97286000Y-77331047D01*
X97309809Y-77307238D01*
X97357428Y-77283428D01*
X97428857Y-77283428D01*
X97476476Y-77307238D01*
X97500285Y-77331047D01*
X97524095Y-77378666D01*
X97524095Y-77569142D01*
X97309809Y-77092952D02*
X97286000Y-77069142D01*
X97262190Y-77021523D01*
X97262190Y-76902476D01*
X97286000Y-76854857D01*
X97309809Y-76831047D01*
X97357428Y-76807238D01*
X97405047Y-76807238D01*
X97476476Y-76831047D01*
X97762190Y-77116761D01*
X97762190Y-76807238D01*
X97428857Y-76378666D02*
X97762190Y-76378666D01*
X97238380Y-76497714D02*
X97595523Y-76616761D01*
X97595523Y-76307238D01*
X98444857Y-77307238D02*
X98778190Y-77307238D01*
X98254380Y-77426285D02*
X98611523Y-77545333D01*
X98611523Y-77235809D01*
X98278190Y-77092952D02*
X98278190Y-76759619D01*
X98778190Y-76973904D01*
X98778190Y-76569142D02*
X98278190Y-76569142D01*
X98587714Y-76521523D02*
X98778190Y-76378666D01*
X98444857Y-76378666D02*
X98635333Y-76569142D01*
X100810190Y-92777428D02*
X100572095Y-92944095D01*
X100810190Y-93063142D02*
X100310190Y-93063142D01*
X100310190Y-92872666D01*
X100334000Y-92825047D01*
X100357809Y-92801238D01*
X100405428Y-92777428D01*
X100476857Y-92777428D01*
X100524476Y-92801238D01*
X100548285Y-92825047D01*
X100572095Y-92872666D01*
X100572095Y-93063142D01*
X100357809Y-92586952D02*
X100334000Y-92563142D01*
X100310190Y-92515523D01*
X100310190Y-92396476D01*
X100334000Y-92348857D01*
X100357809Y-92325047D01*
X100405428Y-92301238D01*
X100453047Y-92301238D01*
X100524476Y-92325047D01*
X100810190Y-92610761D01*
X100810190Y-92301238D01*
X100310190Y-91848857D02*
X100310190Y-92086952D01*
X100548285Y-92110761D01*
X100524476Y-92086952D01*
X100500666Y-92039333D01*
X100500666Y-91920285D01*
X100524476Y-91872666D01*
X100548285Y-91848857D01*
X100595904Y-91825047D01*
X100714952Y-91825047D01*
X100762571Y-91848857D01*
X100786380Y-91872666D01*
X100810190Y-91920285D01*
X100810190Y-92039333D01*
X100786380Y-92086952D01*
X100762571Y-92110761D01*
X100476857Y-90769238D02*
X100810190Y-90769238D01*
X100286380Y-90888285D02*
X100643523Y-91007333D01*
X100643523Y-90697809D01*
X100310190Y-90554952D02*
X100310190Y-90221619D01*
X100810190Y-90435904D01*
X100810190Y-90031142D02*
X100310190Y-90031142D01*
X100619714Y-89983523D02*
X100810190Y-89840666D01*
X100476857Y-89840666D02*
X100667333Y-90031142D01*
X95730190Y-98111428D02*
X95492095Y-98278095D01*
X95730190Y-98397142D02*
X95230190Y-98397142D01*
X95230190Y-98206666D01*
X95254000Y-98159047D01*
X95277809Y-98135238D01*
X95325428Y-98111428D01*
X95396857Y-98111428D01*
X95444476Y-98135238D01*
X95468285Y-98159047D01*
X95492095Y-98206666D01*
X95492095Y-98397142D01*
X95277809Y-97920952D02*
X95254000Y-97897142D01*
X95230190Y-97849523D01*
X95230190Y-97730476D01*
X95254000Y-97682857D01*
X95277809Y-97659047D01*
X95325428Y-97635238D01*
X95373047Y-97635238D01*
X95444476Y-97659047D01*
X95730190Y-97944761D01*
X95730190Y-97635238D01*
X95230190Y-97206666D02*
X95230190Y-97301904D01*
X95254000Y-97349523D01*
X95277809Y-97373333D01*
X95349238Y-97420952D01*
X95444476Y-97444761D01*
X95634952Y-97444761D01*
X95682571Y-97420952D01*
X95706380Y-97397142D01*
X95730190Y-97349523D01*
X95730190Y-97254285D01*
X95706380Y-97206666D01*
X95682571Y-97182857D01*
X95634952Y-97159047D01*
X95515904Y-97159047D01*
X95468285Y-97182857D01*
X95444476Y-97206666D01*
X95420666Y-97254285D01*
X95420666Y-97349523D01*
X95444476Y-97397142D01*
X95468285Y-97420952D01*
X95515904Y-97444761D01*
X94968190Y-99337619D02*
X94730095Y-99504285D01*
X94968190Y-99623333D02*
X94468190Y-99623333D01*
X94468190Y-99432857D01*
X94492000Y-99385238D01*
X94515809Y-99361428D01*
X94563428Y-99337619D01*
X94634857Y-99337619D01*
X94682476Y-99361428D01*
X94706285Y-99385238D01*
X94730095Y-99432857D01*
X94730095Y-99623333D01*
X95015809Y-99242380D02*
X95015809Y-98861428D01*
X94468190Y-98813809D02*
X94968190Y-98647142D01*
X94468190Y-98480476D01*
X94968190Y-98099523D02*
X94706285Y-98099523D01*
X94658666Y-98123333D01*
X94634857Y-98170952D01*
X94634857Y-98266190D01*
X94658666Y-98313809D01*
X94944380Y-98099523D02*
X94968190Y-98147142D01*
X94968190Y-98266190D01*
X94944380Y-98313809D01*
X94896761Y-98337619D01*
X94849142Y-98337619D01*
X94801523Y-98313809D01*
X94777714Y-98266190D01*
X94777714Y-98147142D01*
X94753904Y-98099523D01*
X94968190Y-97861428D02*
X94634857Y-97861428D01*
X94730095Y-97861428D02*
X94682476Y-97837619D01*
X94658666Y-97813809D01*
X94634857Y-97766190D01*
X94634857Y-97718571D01*
X94968190Y-97551904D02*
X94634857Y-97551904D01*
X94468190Y-97551904D02*
X94492000Y-97575714D01*
X94515809Y-97551904D01*
X94492000Y-97528095D01*
X94468190Y-97551904D01*
X94515809Y-97551904D01*
X94968190Y-97099523D02*
X94706285Y-97099523D01*
X94658666Y-97123333D01*
X94634857Y-97170952D01*
X94634857Y-97266190D01*
X94658666Y-97313809D01*
X94944380Y-97099523D02*
X94968190Y-97147142D01*
X94968190Y-97266190D01*
X94944380Y-97313809D01*
X94896761Y-97337619D01*
X94849142Y-97337619D01*
X94801523Y-97313809D01*
X94777714Y-97266190D01*
X94777714Y-97147142D01*
X94753904Y-97099523D01*
X94968190Y-96861428D02*
X94468190Y-96861428D01*
X94658666Y-96861428D02*
X94634857Y-96813809D01*
X94634857Y-96718571D01*
X94658666Y-96670952D01*
X94682476Y-96647142D01*
X94730095Y-96623333D01*
X94872952Y-96623333D01*
X94920571Y-96647142D01*
X94944380Y-96670952D01*
X94968190Y-96718571D01*
X94968190Y-96813809D01*
X94944380Y-96861428D01*
X94968190Y-96337619D02*
X94944380Y-96385238D01*
X94896761Y-96409047D01*
X94468190Y-96409047D01*
X94944380Y-95956666D02*
X94968190Y-96004285D01*
X94968190Y-96099523D01*
X94944380Y-96147142D01*
X94896761Y-96170952D01*
X94706285Y-96170952D01*
X94658666Y-96147142D01*
X94634857Y-96099523D01*
X94634857Y-96004285D01*
X94658666Y-95956666D01*
X94706285Y-95932857D01*
X94753904Y-95932857D01*
X94801523Y-96170952D01*
X67476857Y-94968190D02*
X67310190Y-94730095D01*
X67191142Y-94968190D02*
X67191142Y-94468190D01*
X67381619Y-94468190D01*
X67429238Y-94492000D01*
X67453047Y-94515809D01*
X67476857Y-94563428D01*
X67476857Y-94634857D01*
X67453047Y-94682476D01*
X67429238Y-94706285D01*
X67381619Y-94730095D01*
X67191142Y-94730095D01*
X67857809Y-94706285D02*
X67691142Y-94706285D01*
X67691142Y-94968190D02*
X67691142Y-94468190D01*
X67929238Y-94468190D01*
X68000666Y-95015809D02*
X68381619Y-95015809D01*
X68738761Y-94968190D02*
X68500666Y-94968190D01*
X68500666Y-94468190D01*
X68905428Y-94706285D02*
X69072095Y-94706285D01*
X69143523Y-94968190D02*
X68905428Y-94968190D01*
X68905428Y-94468190D01*
X69143523Y-94468190D01*
X69357809Y-94968190D02*
X69357809Y-94468190D01*
X69476857Y-94468190D01*
X69548285Y-94492000D01*
X69595904Y-94539619D01*
X69619714Y-94587238D01*
X69643523Y-94682476D01*
X69643523Y-94753904D01*
X69619714Y-94849142D01*
X69595904Y-94896761D01*
X69548285Y-94944380D01*
X69476857Y-94968190D01*
X69357809Y-94968190D01*
X69738761Y-95015809D02*
X70119714Y-95015809D01*
X70334000Y-94468190D02*
X70381619Y-94468190D01*
X70429238Y-94492000D01*
X70453047Y-94515809D01*
X70476857Y-94563428D01*
X70500666Y-94658666D01*
X70500666Y-94777714D01*
X70476857Y-94872952D01*
X70453047Y-94920571D01*
X70429238Y-94944380D01*
X70381619Y-94968190D01*
X70334000Y-94968190D01*
X70286380Y-94944380D01*
X70262571Y-94920571D01*
X70238761Y-94872952D01*
X70214952Y-94777714D01*
X70214952Y-94658666D01*
X70238761Y-94563428D01*
X70262571Y-94515809D01*
X70286380Y-94492000D01*
X70334000Y-94468190D01*
X67476857Y-90396190D02*
X67310190Y-90158095D01*
X67191142Y-90396190D02*
X67191142Y-89896190D01*
X67381619Y-89896190D01*
X67429238Y-89920000D01*
X67453047Y-89943809D01*
X67476857Y-89991428D01*
X67476857Y-90062857D01*
X67453047Y-90110476D01*
X67429238Y-90134285D01*
X67381619Y-90158095D01*
X67191142Y-90158095D01*
X67857809Y-90134285D02*
X67691142Y-90134285D01*
X67691142Y-90396190D02*
X67691142Y-89896190D01*
X67929238Y-89896190D01*
X68000666Y-90443809D02*
X68381619Y-90443809D01*
X68738761Y-90396190D02*
X68500666Y-90396190D01*
X68500666Y-89896190D01*
X68905428Y-90134285D02*
X69072095Y-90134285D01*
X69143523Y-90396190D02*
X68905428Y-90396190D01*
X68905428Y-89896190D01*
X69143523Y-89896190D01*
X69357809Y-90396190D02*
X69357809Y-89896190D01*
X69476857Y-89896190D01*
X69548285Y-89920000D01*
X69595904Y-89967619D01*
X69619714Y-90015238D01*
X69643523Y-90110476D01*
X69643523Y-90181904D01*
X69619714Y-90277142D01*
X69595904Y-90324761D01*
X69548285Y-90372380D01*
X69476857Y-90396190D01*
X69357809Y-90396190D01*
X69738761Y-90443809D02*
X70119714Y-90443809D01*
X70500666Y-90396190D02*
X70214952Y-90396190D01*
X70357809Y-90396190D02*
X70357809Y-89896190D01*
X70310190Y-89967619D01*
X70262571Y-90015238D01*
X70214952Y-90039047D01*
X93706190Y-81914952D02*
X94110952Y-81914952D01*
X94158571Y-81891142D01*
X94182380Y-81867333D01*
X94206190Y-81819714D01*
X94206190Y-81724476D01*
X94182380Y-81676857D01*
X94158571Y-81653047D01*
X94110952Y-81629238D01*
X93706190Y-81629238D01*
X93706190Y-81153047D02*
X93706190Y-81391142D01*
X93944285Y-81414952D01*
X93920476Y-81391142D01*
X93896666Y-81343523D01*
X93896666Y-81224476D01*
X93920476Y-81176857D01*
X93944285Y-81153047D01*
X93991904Y-81129238D01*
X94110952Y-81129238D01*
X94158571Y-81153047D01*
X94182380Y-81176857D01*
X94206190Y-81224476D01*
X94206190Y-81343523D01*
X94182380Y-81391142D01*
X94158571Y-81414952D01*
X93646857Y-84038285D02*
X93718285Y-84062095D01*
X93742095Y-84085904D01*
X93765904Y-84133523D01*
X93765904Y-84204952D01*
X93742095Y-84252571D01*
X93718285Y-84276380D01*
X93670666Y-84300190D01*
X93480190Y-84300190D01*
X93480190Y-83800190D01*
X93646857Y-83800190D01*
X93694476Y-83824000D01*
X93718285Y-83847809D01*
X93742095Y-83895428D01*
X93742095Y-83943047D01*
X93718285Y-83990666D01*
X93694476Y-84014476D01*
X93646857Y-84038285D01*
X93480190Y-84038285D01*
X93980190Y-84300190D02*
X93980190Y-83800190D01*
X93980190Y-84038285D02*
X94265904Y-84038285D01*
X94265904Y-84300190D02*
X94265904Y-83800190D01*
X94765904Y-84300190D02*
X94480190Y-84300190D01*
X94623047Y-84300190D02*
X94623047Y-83800190D01*
X94575428Y-83871619D01*
X94527809Y-83919238D01*
X94480190Y-83943047D01*
X95194476Y-83800190D02*
X95099238Y-83800190D01*
X95051619Y-83824000D01*
X95027809Y-83847809D01*
X94980190Y-83919238D01*
X94956380Y-84014476D01*
X94956380Y-84204952D01*
X94980190Y-84252571D01*
X95004000Y-84276380D01*
X95051619Y-84300190D01*
X95146857Y-84300190D01*
X95194476Y-84276380D01*
X95218285Y-84252571D01*
X95242095Y-84204952D01*
X95242095Y-84085904D01*
X95218285Y-84038285D01*
X95194476Y-84014476D01*
X95146857Y-83990666D01*
X95051619Y-83990666D01*
X95004000Y-84014476D01*
X94980190Y-84038285D01*
X94956380Y-84085904D01*
X95551619Y-83800190D02*
X95599238Y-83800190D01*
X95646857Y-83824000D01*
X95670666Y-83847809D01*
X95694476Y-83895428D01*
X95718285Y-83990666D01*
X95718285Y-84109714D01*
X95694476Y-84204952D01*
X95670666Y-84252571D01*
X95646857Y-84276380D01*
X95599238Y-84300190D01*
X95551619Y-84300190D01*
X95504000Y-84276380D01*
X95480190Y-84252571D01*
X95456380Y-84204952D01*
X95432571Y-84109714D01*
X95432571Y-83990666D01*
X95456380Y-83895428D01*
X95480190Y-83847809D01*
X95504000Y-83824000D01*
X95551619Y-83800190D01*
X95884952Y-83800190D02*
X96194476Y-83800190D01*
X96027809Y-83990666D01*
X96099238Y-83990666D01*
X96146857Y-84014476D01*
X96170666Y-84038285D01*
X96194476Y-84085904D01*
X96194476Y-84204952D01*
X96170666Y-84252571D01*
X96146857Y-84276380D01*
X96099238Y-84300190D01*
X95956380Y-84300190D01*
X95908761Y-84276380D01*
X95884952Y-84252571D01*
X96575428Y-84038285D02*
X96408761Y-84038285D01*
X96408761Y-84300190D02*
X96408761Y-83800190D01*
X96646857Y-83800190D01*
X96765904Y-83800190D02*
X96932571Y-84300190D01*
X97099238Y-83800190D01*
X97551619Y-84252571D02*
X97527809Y-84276380D01*
X97456380Y-84300190D01*
X97408761Y-84300190D01*
X97337333Y-84276380D01*
X97289714Y-84228761D01*
X97265904Y-84181142D01*
X97242095Y-84085904D01*
X97242095Y-84014476D01*
X97265904Y-83919238D01*
X97289714Y-83871619D01*
X97337333Y-83824000D01*
X97408761Y-83800190D01*
X97456380Y-83800190D01*
X97527809Y-83824000D01*
X97551619Y-83847809D01*
X86233047Y-81006190D02*
X86233047Y-81410952D01*
X86256857Y-81458571D01*
X86280666Y-81482380D01*
X86328285Y-81506190D01*
X86423523Y-81506190D01*
X86471142Y-81482380D01*
X86494952Y-81458571D01*
X86518761Y-81410952D01*
X86518761Y-81006190D01*
X86971142Y-81006190D02*
X86875904Y-81006190D01*
X86828285Y-81030000D01*
X86804476Y-81053809D01*
X86756857Y-81125238D01*
X86733047Y-81220476D01*
X86733047Y-81410952D01*
X86756857Y-81458571D01*
X86780666Y-81482380D01*
X86828285Y-81506190D01*
X86923523Y-81506190D01*
X86971142Y-81482380D01*
X86994952Y-81458571D01*
X87018761Y-81410952D01*
X87018761Y-81291904D01*
X86994952Y-81244285D01*
X86971142Y-81220476D01*
X86923523Y-81196666D01*
X86828285Y-81196666D01*
X86780666Y-81220476D01*
X86756857Y-81244285D01*
X86733047Y-81291904D01*
X82236761Y-82268190D02*
X82236761Y-81768190D01*
X82403428Y-82125333D01*
X82570095Y-81768190D01*
X82570095Y-82268190D01*
X83093904Y-82220571D02*
X83070095Y-82244380D01*
X82998666Y-82268190D01*
X82951047Y-82268190D01*
X82879619Y-82244380D01*
X82832000Y-82196761D01*
X82808190Y-82149142D01*
X82784380Y-82053904D01*
X82784380Y-81982476D01*
X82808190Y-81887238D01*
X82832000Y-81839619D01*
X82879619Y-81792000D01*
X82951047Y-81768190D01*
X82998666Y-81768190D01*
X83070095Y-81792000D01*
X83093904Y-81815809D01*
X83308190Y-82268190D02*
X83308190Y-81768190D01*
X83498666Y-81768190D01*
X83546285Y-81792000D01*
X83570095Y-81815809D01*
X83593904Y-81863428D01*
X83593904Y-81934857D01*
X83570095Y-81982476D01*
X83546285Y-82006285D01*
X83498666Y-82030095D01*
X83308190Y-82030095D01*
X83832000Y-82268190D02*
X83927238Y-82268190D01*
X83974857Y-82244380D01*
X83998666Y-82220571D01*
X84046285Y-82149142D01*
X84070095Y-82053904D01*
X84070095Y-81863428D01*
X84046285Y-81815809D01*
X84022476Y-81792000D01*
X83974857Y-81768190D01*
X83879619Y-81768190D01*
X83832000Y-81792000D01*
X83808190Y-81815809D01*
X83784380Y-81863428D01*
X83784380Y-81982476D01*
X83808190Y-82030095D01*
X83832000Y-82053904D01*
X83879619Y-82077714D01*
X83974857Y-82077714D01*
X84022476Y-82053904D01*
X84046285Y-82030095D01*
X84070095Y-81982476D01*
X84236761Y-81768190D02*
X84570095Y-81768190D01*
X84355809Y-82268190D01*
X84855809Y-81768190D02*
X84903428Y-81768190D01*
X84951047Y-81792000D01*
X84974857Y-81815809D01*
X84998666Y-81863428D01*
X85022476Y-81958666D01*
X85022476Y-82077714D01*
X84998666Y-82172952D01*
X84974857Y-82220571D01*
X84951047Y-82244380D01*
X84903428Y-82268190D01*
X84855809Y-82268190D01*
X84808190Y-82244380D01*
X84784380Y-82220571D01*
X84760571Y-82172952D01*
X84736761Y-82077714D01*
X84736761Y-81958666D01*
X84760571Y-81863428D01*
X84784380Y-81815809D01*
X84808190Y-81792000D01*
X84855809Y-81768190D01*
X85332000Y-81768190D02*
X85379619Y-81768190D01*
X85427238Y-81792000D01*
X85451047Y-81815809D01*
X85474857Y-81863428D01*
X85498666Y-81958666D01*
X85498666Y-82077714D01*
X85474857Y-82172952D01*
X85451047Y-82220571D01*
X85427238Y-82244380D01*
X85379619Y-82268190D01*
X85332000Y-82268190D01*
X85284380Y-82244380D01*
X85260571Y-82220571D01*
X85236761Y-82172952D01*
X85212952Y-82077714D01*
X85212952Y-81958666D01*
X85236761Y-81863428D01*
X85260571Y-81815809D01*
X85284380Y-81792000D01*
X85332000Y-81768190D01*
X85641523Y-81768190D02*
X85927238Y-81768190D01*
X85784380Y-82268190D02*
X85784380Y-81768190D01*
X86093904Y-82077714D02*
X86474857Y-82077714D01*
X86712952Y-82006285D02*
X86879619Y-82006285D01*
X86951047Y-82268190D02*
X86712952Y-82268190D01*
X86712952Y-81768190D01*
X86951047Y-81768190D01*
X107152285Y-110783333D02*
X107176095Y-110711904D01*
X107199904Y-110688095D01*
X107247523Y-110664285D01*
X107318952Y-110664285D01*
X107366571Y-110688095D01*
X107390380Y-110711904D01*
X107414190Y-110759523D01*
X107414190Y-110950000D01*
X106914190Y-110950000D01*
X106914190Y-110783333D01*
X106938000Y-110735714D01*
X106961809Y-110711904D01*
X107009428Y-110688095D01*
X107057047Y-110688095D01*
X107104666Y-110711904D01*
X107128476Y-110735714D01*
X107152285Y-110783333D01*
X107152285Y-110950000D01*
X107414190Y-110235714D02*
X107152285Y-110235714D01*
X107104666Y-110259523D01*
X107080857Y-110307142D01*
X107080857Y-110402380D01*
X107104666Y-110450000D01*
X107390380Y-110235714D02*
X107414190Y-110283333D01*
X107414190Y-110402380D01*
X107390380Y-110450000D01*
X107342761Y-110473809D01*
X107295142Y-110473809D01*
X107247523Y-110450000D01*
X107223714Y-110402380D01*
X107223714Y-110283333D01*
X107199904Y-110235714D01*
X107080857Y-110069047D02*
X107080857Y-109878571D01*
X106914190Y-109997619D02*
X107342761Y-109997619D01*
X107390380Y-109973809D01*
X107414190Y-109926190D01*
X107414190Y-109878571D01*
X107080857Y-109783333D02*
X107080857Y-109592857D01*
X106914190Y-109711904D02*
X107342761Y-109711904D01*
X107390380Y-109688095D01*
X107414190Y-109640476D01*
X107414190Y-109592857D01*
X107390380Y-109235714D02*
X107414190Y-109283333D01*
X107414190Y-109378571D01*
X107390380Y-109426190D01*
X107342761Y-109450000D01*
X107152285Y-109450000D01*
X107104666Y-109426190D01*
X107080857Y-109378571D01*
X107080857Y-109283333D01*
X107104666Y-109235714D01*
X107152285Y-109211904D01*
X107199904Y-109211904D01*
X107247523Y-109450000D01*
X107414190Y-108997619D02*
X107080857Y-108997619D01*
X107176095Y-108997619D02*
X107128476Y-108973809D01*
X107104666Y-108950000D01*
X107080857Y-108902380D01*
X107080857Y-108854761D01*
X107080857Y-108735714D02*
X107414190Y-108616666D01*
X107080857Y-108497619D02*
X107414190Y-108616666D01*
X107533238Y-108664285D01*
X107557047Y-108688095D01*
X107580857Y-108735714D01*
X107461809Y-108426190D02*
X107461809Y-108045238D01*
X107366571Y-107640476D02*
X107390380Y-107664285D01*
X107414190Y-107735714D01*
X107414190Y-107783333D01*
X107390380Y-107854761D01*
X107342761Y-107902380D01*
X107295142Y-107926190D01*
X107199904Y-107950000D01*
X107128476Y-107950000D01*
X107033238Y-107926190D01*
X106985619Y-107902380D01*
X106938000Y-107854761D01*
X106914190Y-107783333D01*
X106914190Y-107735714D01*
X106938000Y-107664285D01*
X106961809Y-107640476D01*
X107080857Y-107211904D02*
X107414190Y-107211904D01*
X107080857Y-107426190D02*
X107342761Y-107426190D01*
X107390380Y-107402380D01*
X107414190Y-107354761D01*
X107414190Y-107283333D01*
X107390380Y-107235714D01*
X107366571Y-107211904D01*
X107414190Y-106973809D02*
X107080857Y-106973809D01*
X107176095Y-106973809D02*
X107128476Y-106950000D01*
X107104666Y-106926190D01*
X107080857Y-106878571D01*
X107080857Y-106830952D01*
X107414190Y-106664285D02*
X107080857Y-106664285D01*
X107176095Y-106664285D02*
X107128476Y-106640476D01*
X107104666Y-106616666D01*
X107080857Y-106569047D01*
X107080857Y-106521428D01*
X107390380Y-106164285D02*
X107414190Y-106211904D01*
X107414190Y-106307142D01*
X107390380Y-106354761D01*
X107342761Y-106378571D01*
X107152285Y-106378571D01*
X107104666Y-106354761D01*
X107080857Y-106307142D01*
X107080857Y-106211904D01*
X107104666Y-106164285D01*
X107152285Y-106140476D01*
X107199904Y-106140476D01*
X107247523Y-106378571D01*
X107080857Y-105926190D02*
X107414190Y-105926190D01*
X107128476Y-105926190D02*
X107104666Y-105902380D01*
X107080857Y-105854761D01*
X107080857Y-105783333D01*
X107104666Y-105735714D01*
X107152285Y-105711904D01*
X107414190Y-105711904D01*
X107080857Y-105545238D02*
X107080857Y-105354761D01*
X106914190Y-105473809D02*
X107342761Y-105473809D01*
X107390380Y-105450000D01*
X107414190Y-105402380D01*
X107414190Y-105354761D01*
X107414190Y-104926190D02*
X107414190Y-105211904D01*
X107414190Y-105069047D02*
X106914190Y-105069047D01*
X106985619Y-105116666D01*
X107033238Y-105164285D01*
X107057047Y-105211904D01*
X111430571Y-116482476D02*
X111454380Y-116506285D01*
X111478190Y-116577714D01*
X111478190Y-116625333D01*
X111454380Y-116696761D01*
X111406761Y-116744380D01*
X111359142Y-116768190D01*
X111263904Y-116792000D01*
X111192476Y-116792000D01*
X111097238Y-116768190D01*
X111049619Y-116744380D01*
X111002000Y-116696761D01*
X110978190Y-116625333D01*
X110978190Y-116577714D01*
X111002000Y-116506285D01*
X111025809Y-116482476D01*
X111478190Y-116268190D02*
X110978190Y-116268190D01*
X111478190Y-116053904D02*
X111216285Y-116053904D01*
X111168666Y-116077714D01*
X111144857Y-116125333D01*
X111144857Y-116196761D01*
X111168666Y-116244380D01*
X111192476Y-116268190D01*
X111478190Y-115601523D02*
X111216285Y-115601523D01*
X111168666Y-115625333D01*
X111144857Y-115672952D01*
X111144857Y-115768190D01*
X111168666Y-115815809D01*
X111454380Y-115601523D02*
X111478190Y-115649142D01*
X111478190Y-115768190D01*
X111454380Y-115815809D01*
X111406761Y-115839619D01*
X111359142Y-115839619D01*
X111311523Y-115815809D01*
X111287714Y-115768190D01*
X111287714Y-115649142D01*
X111263904Y-115601523D01*
X111478190Y-115363428D02*
X111144857Y-115363428D01*
X111240095Y-115363428D02*
X111192476Y-115339619D01*
X111168666Y-115315809D01*
X111144857Y-115268190D01*
X111144857Y-115220571D01*
X111144857Y-114839619D02*
X111549619Y-114839619D01*
X111597238Y-114863428D01*
X111621047Y-114887238D01*
X111644857Y-114934857D01*
X111644857Y-115006285D01*
X111621047Y-115053904D01*
X111454380Y-114839619D02*
X111478190Y-114887238D01*
X111478190Y-114982476D01*
X111454380Y-115030095D01*
X111430571Y-115053904D01*
X111382952Y-115077714D01*
X111240095Y-115077714D01*
X111192476Y-115053904D01*
X111168666Y-115030095D01*
X111144857Y-114982476D01*
X111144857Y-114887238D01*
X111168666Y-114839619D01*
X111454380Y-114411047D02*
X111478190Y-114458666D01*
X111478190Y-114553904D01*
X111454380Y-114601523D01*
X111406761Y-114625333D01*
X111216285Y-114625333D01*
X111168666Y-114601523D01*
X111144857Y-114553904D01*
X111144857Y-114458666D01*
X111168666Y-114411047D01*
X111216285Y-114387238D01*
X111263904Y-114387238D01*
X111311523Y-114625333D01*
X111525809Y-114292000D02*
X111525809Y-113911047D01*
X111430571Y-113506285D02*
X111454380Y-113530095D01*
X111478190Y-113601523D01*
X111478190Y-113649142D01*
X111454380Y-113720571D01*
X111406761Y-113768190D01*
X111359142Y-113792000D01*
X111263904Y-113815809D01*
X111192476Y-113815809D01*
X111097238Y-113792000D01*
X111049619Y-113768190D01*
X111002000Y-113720571D01*
X110978190Y-113649142D01*
X110978190Y-113601523D01*
X111002000Y-113530095D01*
X111025809Y-113506285D01*
X111144857Y-113077714D02*
X111478190Y-113077714D01*
X111144857Y-113292000D02*
X111406761Y-113292000D01*
X111454380Y-113268190D01*
X111478190Y-113220571D01*
X111478190Y-113149142D01*
X111454380Y-113101523D01*
X111430571Y-113077714D01*
X111478190Y-112839619D02*
X111144857Y-112839619D01*
X111240095Y-112839619D02*
X111192476Y-112815809D01*
X111168666Y-112792000D01*
X111144857Y-112744380D01*
X111144857Y-112696761D01*
X111478190Y-112530095D02*
X111144857Y-112530095D01*
X111240095Y-112530095D02*
X111192476Y-112506285D01*
X111168666Y-112482476D01*
X111144857Y-112434857D01*
X111144857Y-112387238D01*
X111454380Y-112030095D02*
X111478190Y-112077714D01*
X111478190Y-112172952D01*
X111454380Y-112220571D01*
X111406761Y-112244380D01*
X111216285Y-112244380D01*
X111168666Y-112220571D01*
X111144857Y-112172952D01*
X111144857Y-112077714D01*
X111168666Y-112030095D01*
X111216285Y-112006285D01*
X111263904Y-112006285D01*
X111311523Y-112244380D01*
X111144857Y-111792000D02*
X111478190Y-111792000D01*
X111192476Y-111792000D02*
X111168666Y-111768190D01*
X111144857Y-111720571D01*
X111144857Y-111649142D01*
X111168666Y-111601523D01*
X111216285Y-111577714D01*
X111478190Y-111577714D01*
X111144857Y-111411047D02*
X111144857Y-111220571D01*
X110978190Y-111339619D02*
X111406761Y-111339619D01*
X111454380Y-111315809D01*
X111478190Y-111268190D01*
X111478190Y-111220571D01*
X111478190Y-110792000D02*
X111478190Y-111077714D01*
X111478190Y-110934857D02*
X110978190Y-110934857D01*
X111049619Y-110982476D01*
X111097238Y-111030095D01*
X111121047Y-111077714D01*
X111478190Y-105346190D02*
X110978190Y-105346190D01*
X111335333Y-105179523D01*
X110978190Y-105012857D01*
X111478190Y-105012857D01*
X111430571Y-104489047D02*
X111454380Y-104512857D01*
X111478190Y-104584285D01*
X111478190Y-104631904D01*
X111454380Y-104703333D01*
X111406761Y-104750952D01*
X111359142Y-104774761D01*
X111263904Y-104798571D01*
X111192476Y-104798571D01*
X111097238Y-104774761D01*
X111049619Y-104750952D01*
X111002000Y-104703333D01*
X110978190Y-104631904D01*
X110978190Y-104584285D01*
X111002000Y-104512857D01*
X111025809Y-104489047D01*
X110978190Y-104274761D02*
X111382952Y-104274761D01*
X111430571Y-104250952D01*
X111454380Y-104227142D01*
X111478190Y-104179523D01*
X111478190Y-104084285D01*
X111454380Y-104036666D01*
X111430571Y-104012857D01*
X111382952Y-103989047D01*
X110978190Y-103989047D01*
X111525809Y-103870000D02*
X111525809Y-103489047D01*
X111430571Y-103084285D02*
X111454380Y-103108095D01*
X111478190Y-103179523D01*
X111478190Y-103227142D01*
X111454380Y-103298571D01*
X111406761Y-103346190D01*
X111359142Y-103370000D01*
X111263904Y-103393809D01*
X111192476Y-103393809D01*
X111097238Y-103370000D01*
X111049619Y-103346190D01*
X111002000Y-103298571D01*
X110978190Y-103227142D01*
X110978190Y-103179523D01*
X111002000Y-103108095D01*
X111025809Y-103084285D01*
X111144857Y-102655714D02*
X111478190Y-102655714D01*
X111144857Y-102870000D02*
X111406761Y-102870000D01*
X111454380Y-102846190D01*
X111478190Y-102798571D01*
X111478190Y-102727142D01*
X111454380Y-102679523D01*
X111430571Y-102655714D01*
X111478190Y-102417619D02*
X111144857Y-102417619D01*
X111240095Y-102417619D02*
X111192476Y-102393809D01*
X111168666Y-102370000D01*
X111144857Y-102322380D01*
X111144857Y-102274761D01*
X111478190Y-102108095D02*
X111144857Y-102108095D01*
X111240095Y-102108095D02*
X111192476Y-102084285D01*
X111168666Y-102060476D01*
X111144857Y-102012857D01*
X111144857Y-101965238D01*
X111454380Y-101608095D02*
X111478190Y-101655714D01*
X111478190Y-101750952D01*
X111454380Y-101798571D01*
X111406761Y-101822380D01*
X111216285Y-101822380D01*
X111168666Y-101798571D01*
X111144857Y-101750952D01*
X111144857Y-101655714D01*
X111168666Y-101608095D01*
X111216285Y-101584285D01*
X111263904Y-101584285D01*
X111311523Y-101822380D01*
X111144857Y-101370000D02*
X111478190Y-101370000D01*
X111192476Y-101370000D02*
X111168666Y-101346190D01*
X111144857Y-101298571D01*
X111144857Y-101227142D01*
X111168666Y-101179523D01*
X111216285Y-101155714D01*
X111478190Y-101155714D01*
X111144857Y-100989047D02*
X111144857Y-100798571D01*
X110978190Y-100917619D02*
X111406761Y-100917619D01*
X111454380Y-100893809D01*
X111478190Y-100846190D01*
X111478190Y-100798571D01*
X111478190Y-100370000D02*
X111478190Y-100655714D01*
X111478190Y-100512857D02*
X110978190Y-100512857D01*
X111049619Y-100560476D01*
X111097238Y-100608095D01*
X111121047Y-100655714D01*
X70838190Y-82323619D02*
X70338190Y-82323619D01*
X70338190Y-82133142D01*
X70362000Y-82085523D01*
X70385809Y-82061714D01*
X70433428Y-82037904D01*
X70504857Y-82037904D01*
X70552476Y-82061714D01*
X70576285Y-82085523D01*
X70600095Y-82133142D01*
X70600095Y-82323619D01*
X70838190Y-81823619D02*
X70338190Y-81823619D01*
X70790571Y-81299809D02*
X70814380Y-81323619D01*
X70838190Y-81395047D01*
X70838190Y-81442666D01*
X70814380Y-81514095D01*
X70766761Y-81561714D01*
X70719142Y-81585523D01*
X70623904Y-81609333D01*
X70552476Y-81609333D01*
X70457238Y-81585523D01*
X70409619Y-81561714D01*
X70362000Y-81514095D01*
X70338190Y-81442666D01*
X70338190Y-81395047D01*
X70362000Y-81323619D01*
X70385809Y-81299809D01*
X70838190Y-81085523D02*
X70338190Y-81085523D01*
X70838190Y-80799809D02*
X70552476Y-81014095D01*
X70338190Y-80799809D02*
X70623904Y-81085523D01*
X70838190Y-80585523D02*
X70338190Y-80585523D01*
X70338190Y-80418857D02*
X70338190Y-80133142D01*
X70838190Y-80276000D02*
X70338190Y-80276000D01*
X70838190Y-79704571D02*
X70838190Y-79990285D01*
X70838190Y-79847428D02*
X70338190Y-79847428D01*
X70409619Y-79895047D01*
X70457238Y-79942666D01*
X70481047Y-79990285D01*
X111478190Y-98123142D02*
X111240095Y-98289809D01*
X111478190Y-98408857D02*
X110978190Y-98408857D01*
X110978190Y-98218380D01*
X111002000Y-98170761D01*
X111025809Y-98146952D01*
X111073428Y-98123142D01*
X111144857Y-98123142D01*
X111192476Y-98146952D01*
X111216285Y-98170761D01*
X111240095Y-98218380D01*
X111240095Y-98408857D01*
X111216285Y-97742190D02*
X111216285Y-97908857D01*
X111478190Y-97908857D02*
X110978190Y-97908857D01*
X110978190Y-97670761D01*
X111525809Y-97599333D02*
X111525809Y-97218380D01*
X111430571Y-96813619D02*
X111454380Y-96837428D01*
X111478190Y-96908857D01*
X111478190Y-96956476D01*
X111454380Y-97027904D01*
X111406761Y-97075523D01*
X111359142Y-97099333D01*
X111263904Y-97123142D01*
X111192476Y-97123142D01*
X111097238Y-97099333D01*
X111049619Y-97075523D01*
X111002000Y-97027904D01*
X110978190Y-96956476D01*
X110978190Y-96908857D01*
X111002000Y-96837428D01*
X111025809Y-96813619D01*
X111144857Y-96385047D02*
X111478190Y-96385047D01*
X111144857Y-96599333D02*
X111406761Y-96599333D01*
X111454380Y-96575523D01*
X111478190Y-96527904D01*
X111478190Y-96456476D01*
X111454380Y-96408857D01*
X111430571Y-96385047D01*
X111478190Y-96146952D02*
X111144857Y-96146952D01*
X111240095Y-96146952D02*
X111192476Y-96123142D01*
X111168666Y-96099333D01*
X111144857Y-96051714D01*
X111144857Y-96004095D01*
X111478190Y-95837428D02*
X111144857Y-95837428D01*
X111240095Y-95837428D02*
X111192476Y-95813619D01*
X111168666Y-95789809D01*
X111144857Y-95742190D01*
X111144857Y-95694571D01*
X111454380Y-95337428D02*
X111478190Y-95385047D01*
X111478190Y-95480285D01*
X111454380Y-95527904D01*
X111406761Y-95551714D01*
X111216285Y-95551714D01*
X111168666Y-95527904D01*
X111144857Y-95480285D01*
X111144857Y-95385047D01*
X111168666Y-95337428D01*
X111216285Y-95313619D01*
X111263904Y-95313619D01*
X111311523Y-95551714D01*
X111144857Y-95099333D02*
X111478190Y-95099333D01*
X111192476Y-95099333D02*
X111168666Y-95075523D01*
X111144857Y-95027904D01*
X111144857Y-94956476D01*
X111168666Y-94908857D01*
X111216285Y-94885047D01*
X111478190Y-94885047D01*
X111144857Y-94718380D02*
X111144857Y-94527904D01*
X110978190Y-94646952D02*
X111406761Y-94646952D01*
X111454380Y-94623142D01*
X111478190Y-94575523D01*
X111478190Y-94527904D01*
X111478190Y-94099333D02*
X111478190Y-94385047D01*
X111478190Y-94242190D02*
X110978190Y-94242190D01*
X111049619Y-94289809D01*
X111097238Y-94337428D01*
X111121047Y-94385047D01*
X106914190Y-94702000D02*
X107318952Y-94702000D01*
X107366571Y-94678190D01*
X107390380Y-94654380D01*
X107414190Y-94606761D01*
X107414190Y-94511523D01*
X107390380Y-94463904D01*
X107366571Y-94440095D01*
X107318952Y-94416285D01*
X106914190Y-94416285D01*
X107271333Y-94202000D02*
X107271333Y-93963904D01*
X107414190Y-94249619D02*
X106914190Y-94082952D01*
X107414190Y-93916285D01*
X107414190Y-93463904D02*
X107176095Y-93630571D01*
X107414190Y-93749619D02*
X106914190Y-93749619D01*
X106914190Y-93559142D01*
X106938000Y-93511523D01*
X106961809Y-93487714D01*
X107009428Y-93463904D01*
X107080857Y-93463904D01*
X107128476Y-93487714D01*
X107152285Y-93511523D01*
X107176095Y-93559142D01*
X107176095Y-93749619D01*
X106914190Y-93321047D02*
X106914190Y-93035333D01*
X107414190Y-93178190D02*
X106914190Y-93178190D01*
X106961809Y-92892476D02*
X106938000Y-92868666D01*
X106914190Y-92821047D01*
X106914190Y-92702000D01*
X106938000Y-92654380D01*
X106961809Y-92630571D01*
X107009428Y-92606761D01*
X107057047Y-92606761D01*
X107128476Y-92630571D01*
X107414190Y-92916285D01*
X107414190Y-92606761D01*
X107461809Y-92511523D02*
X107461809Y-92130571D01*
X107366571Y-91725809D02*
X107390380Y-91749619D01*
X107414190Y-91821047D01*
X107414190Y-91868666D01*
X107390380Y-91940095D01*
X107342761Y-91987714D01*
X107295142Y-92011523D01*
X107199904Y-92035333D01*
X107128476Y-92035333D01*
X107033238Y-92011523D01*
X106985619Y-91987714D01*
X106938000Y-91940095D01*
X106914190Y-91868666D01*
X106914190Y-91821047D01*
X106938000Y-91749619D01*
X106961809Y-91725809D01*
X106914190Y-91416285D02*
X106914190Y-91321047D01*
X106938000Y-91273428D01*
X106985619Y-91225809D01*
X107080857Y-91202000D01*
X107247523Y-91202000D01*
X107342761Y-91225809D01*
X107390380Y-91273428D01*
X107414190Y-91321047D01*
X107414190Y-91416285D01*
X107390380Y-91463904D01*
X107342761Y-91511523D01*
X107247523Y-91535333D01*
X107080857Y-91535333D01*
X106985619Y-91511523D01*
X106938000Y-91463904D01*
X106914190Y-91416285D01*
X107414190Y-90987714D02*
X106914190Y-90987714D01*
X107414190Y-90702000D01*
X106914190Y-90702000D01*
X107414190Y-90463904D02*
X106914190Y-90463904D01*
X107414190Y-90178190D01*
X106914190Y-90178190D01*
X107414190Y-89678190D02*
X107414190Y-89963904D01*
X107414190Y-89821047D02*
X106914190Y-89821047D01*
X106985619Y-89868666D01*
X107033238Y-89916285D01*
X107057047Y-89963904D01*
M02*
