G04 #@! TF.GenerationSoftware,KiCad,Pcbnew,no-vcs-found-7592~57~ubuntu16.04.1*
G04 #@! TF.CreationDate,2017-02-12T17:12:26+02:00*
G04 #@! TF.ProjectId,lora_sensor,6C6F72615F73656E736F722E6B696361,rev?*
G04 #@! TF.FileFunction,Soldermask,Top*
G04 #@! TF.FilePolarity,Negative*
%FSLAX46Y46*%
G04 Gerber Fmt 4.6, Leading zero omitted, Abs format (unit mm)*
G04 Created by KiCad (PCBNEW no-vcs-found-7592~57~ubuntu16.04.1) date Sun Feb 12 17:12:26 2017*
%MOMM*%
%LPD*%
G01*
G04 APERTURE LIST*
%ADD10C,0.100000*%
%ADD11O,2.100000X2.100000*%
%ADD12R,2.100000X2.100000*%
%ADD13C,6.800000*%
%ADD14R,2.150000X0.850000*%
%ADD15R,2.900000X2.400000*%
%ADD16R,1.400000X1.650000*%
%ADD17R,1.400000X2.000000*%
%ADD18R,1.650000X1.400000*%
%ADD19R,3.900000X2.200000*%
%ADD20R,1.600000X1.600000*%
%ADD21R,0.800000X2.400000*%
%ADD22R,2.500000X2.000000*%
%ADD23R,2.200000X2.300000*%
%ADD24R,1.200000X1.300000*%
%ADD25R,1.100000X1.700000*%
%ADD26R,1.700000X1.100000*%
%ADD27C,1.800000*%
%ADD28O,1.800000X1.800000*%
%ADD29R,0.700000X1.200000*%
%ADD30R,1.460000X1.050000*%
G04 APERTURE END LIST*
D10*
D11*
X101600000Y-114300000D03*
D12*
X104140000Y-114300000D03*
D13*
X73660000Y-115570000D03*
X73660000Y-74930000D03*
X101600000Y-97790000D03*
D14*
X82760000Y-97375000D03*
X82760000Y-98025000D03*
X82760000Y-98675000D03*
X82760000Y-99325000D03*
X82760000Y-99975000D03*
X82760000Y-100625000D03*
X82760000Y-101275000D03*
X82760000Y-101925000D03*
X82760000Y-102575000D03*
X82760000Y-103225000D03*
X82760000Y-103875000D03*
X82760000Y-104525000D03*
X82760000Y-105175000D03*
X82760000Y-105825000D03*
X89960000Y-105825000D03*
X89960000Y-105175000D03*
X89960000Y-104525000D03*
X89960000Y-103875000D03*
X89960000Y-103225000D03*
X89960000Y-102575000D03*
X89960000Y-101925000D03*
X89960000Y-101275000D03*
X89960000Y-100625000D03*
X89960000Y-99975000D03*
X89960000Y-99325000D03*
X89960000Y-98675000D03*
X89960000Y-98025000D03*
X89960000Y-97375000D03*
D15*
X68115000Y-106172000D03*
X76665000Y-106172000D03*
X68115000Y-109982000D03*
X76665000Y-109982000D03*
D16*
X92948000Y-76200000D03*
X90948000Y-76200000D03*
D17*
X101624000Y-110998000D03*
X104624000Y-110998000D03*
D16*
X77994000Y-75184000D03*
X79994000Y-75184000D03*
D18*
X94742000Y-102378000D03*
X94742000Y-104378000D03*
X96774000Y-102378000D03*
X96774000Y-104378000D03*
X100330000Y-78502000D03*
X100330000Y-80502000D03*
D19*
X101306000Y-106680000D03*
X96306000Y-106680000D03*
D20*
X69934000Y-96774000D03*
X67734000Y-96774000D03*
X69934000Y-98806000D03*
X67734000Y-98806000D03*
X69934000Y-100838000D03*
X67734000Y-100838000D03*
X69934000Y-102870000D03*
X67734000Y-102870000D03*
D21*
X85314000Y-114866000D03*
X85964000Y-114866000D03*
X86614000Y-114866000D03*
X87264000Y-114866000D03*
X87914000Y-114866000D03*
D22*
X89714000Y-115316000D03*
X83514000Y-115316000D03*
D23*
X90614000Y-117866000D03*
X82614000Y-117866000D03*
D20*
X95250000Y-116924000D03*
X95250000Y-114724000D03*
D24*
X98110000Y-110982000D03*
X100010000Y-110982000D03*
X99060000Y-108982000D03*
X82870000Y-87868000D03*
X84770000Y-87868000D03*
X83820000Y-85868000D03*
X93030000Y-88884000D03*
X94930000Y-88884000D03*
X93980000Y-86884000D03*
D25*
X73340000Y-93472000D03*
X71440000Y-93472000D03*
X73340000Y-91440000D03*
X71440000Y-91440000D03*
X95316000Y-112776000D03*
X97216000Y-112776000D03*
D26*
X95250000Y-109032000D03*
X95250000Y-110932000D03*
D25*
X79944000Y-79248000D03*
X78044000Y-79248000D03*
X79944000Y-77216000D03*
X78044000Y-77216000D03*
D26*
X79248000Y-108646000D03*
X79248000Y-106746000D03*
X79248000Y-109794000D03*
X79248000Y-111694000D03*
D25*
X74864000Y-96774000D03*
X72964000Y-96774000D03*
X74864000Y-98806000D03*
X72964000Y-98806000D03*
X74864000Y-100838000D03*
X72964000Y-100838000D03*
X74864000Y-102870000D03*
X72964000Y-102870000D03*
X88326000Y-85344000D03*
X86426000Y-85344000D03*
D26*
X86360000Y-89728000D03*
X86360000Y-91628000D03*
X98044000Y-78552000D03*
X98044000Y-80452000D03*
X99060000Y-90490000D03*
X99060000Y-92390000D03*
D27*
X96520000Y-96520000D03*
D28*
X96520000Y-99060000D03*
D20*
X69934000Y-93472000D03*
X67734000Y-93472000D03*
X69934000Y-91440000D03*
X67734000Y-91440000D03*
D29*
X95504000Y-80034000D03*
X95004000Y-80034000D03*
X95004000Y-83034000D03*
X95504000Y-83034000D03*
X96004000Y-83034000D03*
X96004000Y-80034000D03*
D30*
X88054000Y-80838000D03*
X88054000Y-81788000D03*
X88054000Y-82738000D03*
X90254000Y-82738000D03*
X90254000Y-80838000D03*
D11*
X109220000Y-106680000D03*
D12*
X109220000Y-109220000D03*
D11*
X109220000Y-114300000D03*
D12*
X109220000Y-111760000D03*
X109220000Y-104140000D03*
D11*
X109220000Y-101600000D03*
X68580000Y-87630000D03*
X68580000Y-85090000D03*
X68580000Y-82550000D03*
X68580000Y-80010000D03*
X68580000Y-77470000D03*
D12*
X68580000Y-74930000D03*
X109220000Y-99060000D03*
D11*
X109220000Y-96520000D03*
X106680000Y-101600000D03*
X106680000Y-99060000D03*
D12*
X106680000Y-96520000D03*
M02*
