G04 #@! TF.GenerationSoftware,KiCad,Pcbnew,no-vcs-found-7592~57~ubuntu16.04.1*
G04 #@! TF.CreationDate,2017-02-12T17:12:26+02:00*
G04 #@! TF.ProjectId,lora_sensor,6C6F72615F73656E736F722E6B696361,rev?*
G04 #@! TF.FileFunction,Copper,L2,Bot,Signal*
G04 #@! TF.FilePolarity,Positive*
%FSLAX46Y46*%
G04 Gerber Fmt 4.6, Leading zero omitted, Abs format (unit mm)*
G04 Created by KiCad (PCBNEW no-vcs-found-7592~57~ubuntu16.04.1) date Sun Feb 12 17:12:26 2017*
%MOMM*%
%LPD*%
G01*
G04 APERTURE LIST*
%ADD10C,0.100000*%
%ADD11O,1.700000X1.700000*%
%ADD12R,1.700000X1.700000*%
%ADD13C,6.400000*%
%ADD14R,1.300000X0.700000*%
%ADD15R,1.000000X1.600000*%
%ADD16R,1.250000X1.000000*%
%ADD17R,1.000000X1.250000*%
%ADD18R,1.600000X1.000000*%
%ADD19R,0.700000X1.300000*%
%ADD20C,1.400000*%
%ADD21O,1.400000X1.400000*%
%ADD22R,1.016000X1.524000*%
%ADD23R,1.524000X1.016000*%
%ADD24R,1.220000X0.650000*%
%ADD25R,1.060000X0.650000*%
%ADD26R,2.400000X2.800000*%
%ADD27R,4.500000X1.524000*%
%ADD28R,4.500000X2.000000*%
%ADD29C,0.600000*%
%ADD30C,0.500000*%
%ADD31C,0.250000*%
%ADD32C,0.800000*%
%ADD33C,0.254000*%
G04 APERTURE END LIST*
D10*
D11*
X101600000Y-114300000D03*
D12*
X104140000Y-114300000D03*
D13*
X73660000Y-115570000D03*
X73660000Y-74930000D03*
X101600000Y-97790000D03*
D14*
X111760000Y-107000000D03*
X111760000Y-108900000D03*
D15*
X94972000Y-113030000D03*
X91972000Y-113030000D03*
D16*
X106172000Y-93964000D03*
X106172000Y-91964000D03*
D17*
X75930000Y-80772000D03*
X73930000Y-80772000D03*
X98536000Y-108712000D03*
X96536000Y-108712000D03*
D16*
X99314000Y-106664000D03*
X99314000Y-104664000D03*
D17*
X105394000Y-104394000D03*
X103394000Y-104394000D03*
D16*
X101600000Y-106664000D03*
X101600000Y-104664000D03*
D17*
X87614000Y-97790000D03*
X85614000Y-97790000D03*
X85614000Y-106934000D03*
X87614000Y-106934000D03*
D18*
X75692000Y-101576000D03*
X75692000Y-98576000D03*
D16*
X79248000Y-106918000D03*
X79248000Y-104918000D03*
D14*
X75946000Y-82108000D03*
X75946000Y-84008000D03*
X75946000Y-85410000D03*
X75946000Y-87310000D03*
X73914000Y-82108000D03*
X73914000Y-84008000D03*
X73914000Y-85410000D03*
X73914000Y-87310000D03*
X111760000Y-112080000D03*
X111760000Y-113980000D03*
D19*
X96454000Y-110744000D03*
X94554000Y-110744000D03*
D14*
X111760000Y-101920000D03*
X111760000Y-103820000D03*
X111760000Y-96840000D03*
X111760000Y-98740000D03*
D20*
X96520000Y-96520000D03*
D21*
X96520000Y-99060000D03*
D22*
X78740000Y-91440000D03*
X80010000Y-91440000D03*
X81280000Y-91440000D03*
X82550000Y-91440000D03*
X83820000Y-91440000D03*
X85090000Y-91440000D03*
X86360000Y-91440000D03*
X87630000Y-91440000D03*
X88900000Y-91440000D03*
X90170000Y-91440000D03*
X91440000Y-91440000D03*
X92710000Y-91440000D03*
X93980000Y-91440000D03*
X95250000Y-91440000D03*
X96520000Y-91440000D03*
X97790000Y-91440000D03*
X99060000Y-91440000D03*
X100330000Y-91440000D03*
X101600000Y-91440000D03*
X102870000Y-91440000D03*
X102870000Y-73660000D03*
D23*
X104140000Y-86360000D03*
X104140000Y-85090000D03*
X104140000Y-83820000D03*
X104140000Y-82550000D03*
X104140000Y-81280000D03*
X104140000Y-80010000D03*
X104140000Y-78740000D03*
D22*
X101600000Y-73660000D03*
X100330000Y-73660000D03*
X99060000Y-73660000D03*
X97790000Y-73660000D03*
X96520000Y-73660000D03*
X95250000Y-73660000D03*
X93980000Y-73660000D03*
X92710000Y-73660000D03*
X91440000Y-73660000D03*
X90170000Y-73660000D03*
X88900000Y-73660000D03*
X87630000Y-73660000D03*
X86360000Y-73660000D03*
X85090000Y-73660000D03*
X83820000Y-73660000D03*
X82550000Y-73660000D03*
X81280000Y-73660000D03*
X80010000Y-73660000D03*
X78740000Y-73660000D03*
D24*
X101386000Y-110302000D03*
X101386000Y-111252000D03*
X101386000Y-112202000D03*
X98766000Y-112202000D03*
X98766000Y-110302000D03*
D25*
X105748000Y-106746000D03*
X105748000Y-107696000D03*
X105748000Y-108646000D03*
X103548000Y-108646000D03*
X103548000Y-106746000D03*
D11*
X109220000Y-106680000D03*
D12*
X109220000Y-109220000D03*
D11*
X109220000Y-114300000D03*
D12*
X109220000Y-111760000D03*
X109220000Y-104140000D03*
D11*
X109220000Y-101600000D03*
X68580000Y-87630000D03*
X68580000Y-85090000D03*
X68580000Y-82550000D03*
X68580000Y-80010000D03*
X68580000Y-77470000D03*
D12*
X68580000Y-74930000D03*
X109220000Y-99060000D03*
D11*
X109220000Y-96520000D03*
X106680000Y-101600000D03*
X106680000Y-99060000D03*
D12*
X106680000Y-96520000D03*
D26*
X87760000Y-100562000D03*
X87760000Y-104162000D03*
X84960000Y-104162000D03*
X84960000Y-100562000D03*
D27*
X111760000Y-77470000D03*
D28*
X111760000Y-80270000D03*
X111760000Y-74670000D03*
X111760000Y-87370000D03*
X111760000Y-92970000D03*
D27*
X111760000Y-90170000D03*
D29*
X85852000Y-112268000D03*
X88900000Y-106934000D03*
X90170000Y-113030000D03*
X105156000Y-74676000D03*
X112268000Y-95504000D03*
X111760000Y-92970000D03*
X108204000Y-91948000D03*
X106426000Y-90170000D03*
X106426000Y-87376000D03*
X105918000Y-85344000D03*
X109982000Y-85090000D03*
X108715000Y-83817000D03*
X107442000Y-82550000D03*
X105918000Y-82550000D03*
X72644000Y-81280000D03*
X76962000Y-96774000D03*
X107442000Y-81026000D03*
X108966000Y-79502000D03*
X108966000Y-75946000D03*
X107442000Y-77470000D03*
X105664000Y-79248000D03*
X83058000Y-72136000D03*
X109474000Y-72644000D03*
X112268000Y-72644000D03*
X105918000Y-110998000D03*
X97282000Y-72136000D03*
X102870000Y-72136000D03*
X106426000Y-73660000D03*
X106426000Y-76200000D03*
X108966000Y-81788000D03*
X104394000Y-91440000D03*
X80772000Y-101346000D03*
X98806000Y-103124000D03*
X91440000Y-74930000D03*
X91694000Y-103225000D03*
X96012000Y-93218000D03*
X104394000Y-93980000D03*
X92710000Y-74930000D03*
X93218000Y-114554000D03*
X85090000Y-113030000D03*
X79756000Y-102108000D03*
X79756000Y-103124000D03*
X77724000Y-99822000D03*
X101346000Y-103124000D03*
X109220000Y-101600000D03*
X72136000Y-80518000D03*
X82804000Y-108966000D03*
X93218000Y-102378000D03*
X98044000Y-102362000D03*
X91694000Y-97028000D03*
X75692000Y-92202000D03*
X77470000Y-93472000D03*
X74168000Y-91440000D03*
X98806000Y-113284000D03*
X82550000Y-95758000D03*
X76454000Y-92710000D03*
X91694000Y-98025000D03*
X84074000Y-107442000D03*
X81788000Y-107442000D03*
X74930000Y-92710000D03*
X80772000Y-105918000D03*
X93726000Y-99568000D03*
X93726000Y-98552000D03*
X76200000Y-103886000D03*
X84074000Y-95250000D03*
X99060000Y-93472000D03*
X85852000Y-94234000D03*
X84328000Y-94234000D03*
X81026000Y-94234000D03*
X92710000Y-108458000D03*
X93726000Y-107696000D03*
X94996000Y-101346000D03*
X94742000Y-100584000D03*
X92710000Y-98044000D03*
X93472000Y-96012000D03*
D30*
X109220000Y-114300000D02*
X104140000Y-114300000D01*
X111760000Y-113980000D02*
X109540000Y-113980000D01*
X109540000Y-113980000D02*
X109220000Y-114300000D01*
D31*
X90170000Y-113030000D02*
X86614000Y-113030000D01*
X85852000Y-112268000D02*
X86614000Y-113030000D01*
X88900000Y-106934000D02*
X87614000Y-106934000D01*
X90170000Y-113030000D02*
X91972000Y-113030000D01*
X100076000Y-93726000D02*
X103140000Y-93726000D01*
X103140000Y-91710000D02*
X103140000Y-93726000D01*
X97790000Y-96012000D02*
X100076000Y-93726000D01*
X97790000Y-97536000D02*
X97790000Y-96012000D01*
X97790000Y-97536000D02*
X96520000Y-98806000D01*
X105156000Y-74676000D02*
X104648000Y-74676000D01*
X104648000Y-74676000D02*
X102870000Y-76454000D01*
X109220000Y-74670000D02*
X105162000Y-74670000D01*
X105162000Y-74670000D02*
X105156000Y-74676000D01*
X112268000Y-95504000D02*
X111760000Y-94996000D01*
X111760000Y-94996000D02*
X111760000Y-92970000D01*
X105918000Y-85344000D02*
X106426000Y-85852000D01*
X106426000Y-85852000D02*
X106426000Y-87376000D01*
X109226000Y-92970000D02*
X111760000Y-92970000D01*
X108204000Y-91948000D02*
X109226000Y-92970000D01*
X106426000Y-90170000D02*
X108204000Y-91948000D01*
X106426000Y-87376000D02*
X106426000Y-90170000D01*
X104140000Y-85090000D02*
X105664000Y-85090000D01*
X105664000Y-85090000D02*
X105918000Y-85344000D01*
X109982000Y-85090000D02*
X109985000Y-85087000D01*
X108204000Y-83306000D02*
X108715000Y-83817000D01*
X108715000Y-83817000D02*
X109985000Y-85087000D01*
X109985000Y-85087000D02*
X110242000Y-85344000D01*
X110242000Y-85344000D02*
X111760000Y-85344000D01*
X111760000Y-87370000D02*
X111760000Y-85344000D01*
X111760000Y-85344000D02*
X111760000Y-80270000D01*
X96520000Y-99060000D02*
X96520000Y-98806000D01*
X103394000Y-104394000D02*
X103394000Y-103616000D01*
X105410000Y-101600000D02*
X106680000Y-101600000D01*
X103394000Y-103616000D02*
X105410000Y-101600000D01*
X78994000Y-104664000D02*
X78994000Y-101854000D01*
X79502000Y-101346000D02*
X80772000Y-101346000D01*
X79502000Y-101346000D02*
X78994000Y-101854000D01*
X78994000Y-104664000D02*
X79248000Y-104918000D01*
X68580000Y-80010000D02*
X69850000Y-78740000D01*
X78740000Y-75692000D02*
X78740000Y-73660000D01*
X75692000Y-78740000D02*
X78740000Y-75692000D01*
X69850000Y-78740000D02*
X75692000Y-78740000D01*
X72644000Y-81280000D02*
X72644000Y-81026000D01*
X72898000Y-80772000D02*
X73930000Y-80772000D01*
X72644000Y-81026000D02*
X72898000Y-80772000D01*
X75946000Y-97282000D02*
X75692000Y-97536000D01*
X75692000Y-98576000D02*
X75692000Y-97536000D01*
X76454000Y-96774000D02*
X75946000Y-97282000D01*
X76454000Y-96774000D02*
X76962000Y-96774000D01*
X105156000Y-82550000D02*
X105918000Y-82550000D01*
X105918000Y-82550000D02*
X106680000Y-81788000D01*
X106680000Y-81788000D02*
X107442000Y-81026000D01*
X107442000Y-81026000D02*
X108204000Y-80264000D01*
X108204000Y-80264000D02*
X108966000Y-79502000D01*
X104140000Y-82550000D02*
X105156000Y-82550000D01*
X104140000Y-80010000D02*
X104902000Y-80010000D01*
X104902000Y-80010000D02*
X105664000Y-79248000D01*
X105664000Y-79248000D02*
X106680000Y-78232000D01*
X106680000Y-78232000D02*
X107442000Y-77470000D01*
X107442000Y-77470000D02*
X108204000Y-76708000D01*
X108204000Y-76708000D02*
X108966000Y-75946000D01*
X108972000Y-74670000D02*
X109220000Y-74670000D01*
X109220000Y-74670000D02*
X112014000Y-74670000D01*
X108966000Y-74676000D02*
X108972000Y-74670000D01*
X108966000Y-75946000D02*
X108966000Y-74676000D01*
X112014000Y-74670000D02*
X112014000Y-72898000D01*
X112014000Y-72898000D02*
X112268000Y-72644000D01*
X112014000Y-83052000D02*
X112014000Y-80270000D01*
X111760000Y-83306000D02*
X108204000Y-83306000D01*
X108204000Y-83306000D02*
X108198000Y-83306000D01*
X107442000Y-82550000D02*
X108198000Y-83306000D01*
X106934000Y-82550000D02*
X104140000Y-82550000D01*
X106934000Y-82550000D02*
X107442000Y-82550000D01*
X111760000Y-83306000D02*
X112014000Y-83052000D01*
X101386000Y-111252000D02*
X103124000Y-111252000D01*
X103378000Y-110998000D02*
X105918000Y-110998000D01*
X103124000Y-111252000D02*
X103378000Y-110998000D01*
X105748000Y-107696000D02*
X104902000Y-107696000D01*
X104648000Y-109728000D02*
X105918000Y-110998000D01*
X104648000Y-107950000D02*
X104648000Y-109728000D01*
X104902000Y-107696000D02*
X104648000Y-107950000D01*
X91972000Y-113030000D02*
X91972000Y-111736000D01*
X91972000Y-111736000D02*
X92964000Y-110744000D01*
X92964000Y-110744000D02*
X94554000Y-110744000D01*
X94554000Y-110744000D02*
X94554000Y-109154000D01*
X94996000Y-108712000D02*
X96536000Y-108712000D01*
X94554000Y-109154000D02*
X94996000Y-108712000D01*
X106426000Y-73660000D02*
X104902000Y-72136000D01*
X104902000Y-72136000D02*
X102870000Y-72136000D01*
X102870000Y-72136000D02*
X97282000Y-72136000D01*
X97282000Y-72136000D02*
X91440000Y-72136000D01*
X102870000Y-73660000D02*
X102870000Y-72136000D01*
X85614000Y-97790000D02*
X85614000Y-96758000D01*
X85614000Y-96758000D02*
X85852000Y-96520000D01*
X102870000Y-91440000D02*
X104394000Y-91440000D01*
X80772000Y-101346000D02*
X81556000Y-100562000D01*
X81556000Y-100562000D02*
X85214000Y-100562000D01*
X72644000Y-81280000D02*
X72644000Y-86868000D01*
X72644000Y-86868000D02*
X73086000Y-87310000D01*
X99314000Y-103632000D02*
X99314000Y-104664000D01*
X98806000Y-103124000D02*
X99314000Y-103632000D01*
X73914000Y-87310000D02*
X73086000Y-87310000D01*
X103140000Y-91710000D02*
X102870000Y-91440000D01*
X87614000Y-106934000D02*
X87614000Y-105934000D01*
X87614000Y-105934000D02*
X88014000Y-105534000D01*
X78740000Y-91440000D02*
X78740000Y-88138000D01*
X78740000Y-88138000D02*
X77912000Y-87310000D01*
X75946000Y-87310000D02*
X77912000Y-87310000D01*
X77912000Y-87310000D02*
X85532000Y-87310000D01*
X86360000Y-88138000D02*
X86360000Y-91440000D01*
X85532000Y-87310000D02*
X86360000Y-88138000D01*
X73914000Y-87310000D02*
X75946000Y-87310000D01*
X102870000Y-78740000D02*
X102870000Y-76454000D01*
X102870000Y-76454000D02*
X102870000Y-75946000D01*
X102870000Y-75946000D02*
X102870000Y-73660000D01*
X102870000Y-80010000D02*
X102870000Y-78740000D01*
X102870000Y-78740000D02*
X104140000Y-78740000D01*
X102870000Y-82550000D02*
X102870000Y-80010000D01*
X102870000Y-80010000D02*
X104140000Y-80010000D01*
X102870000Y-85090000D02*
X102870000Y-82550000D01*
X102870000Y-82550000D02*
X104140000Y-82550000D01*
X102870000Y-86360000D02*
X102870000Y-85090000D01*
X102870000Y-85090000D02*
X104140000Y-85090000D01*
X102870000Y-86360000D02*
X104140000Y-86360000D01*
X96520000Y-91440000D02*
X96520000Y-89662000D01*
X102870000Y-89662000D02*
X102870000Y-91440000D01*
X96520000Y-89662000D02*
X102870000Y-89662000D01*
X67310000Y-72136000D02*
X66802000Y-72644000D01*
X67564000Y-80010000D02*
X68580000Y-80010000D01*
X66802000Y-79248000D02*
X67564000Y-80010000D01*
X66802000Y-72644000D02*
X66802000Y-79248000D01*
X87630000Y-72136000D02*
X83058000Y-72136000D01*
X83058000Y-72136000D02*
X78740000Y-72136000D01*
X78740000Y-72136000D02*
X78740000Y-73660000D01*
X91440000Y-73660000D02*
X91440000Y-72136000D01*
X87630000Y-72136000D02*
X87630000Y-73660000D01*
X91440000Y-72136000D02*
X87630000Y-72136000D01*
X91440000Y-73660000D02*
X91440000Y-74930000D01*
X101600000Y-104664000D02*
X99314000Y-104664000D01*
X103394000Y-104394000D02*
X101870000Y-104394000D01*
X101870000Y-104394000D02*
X101600000Y-104664000D01*
X85214000Y-100562000D02*
X85214000Y-99444000D01*
X85214000Y-99444000D02*
X85614000Y-99044000D01*
X85614000Y-99044000D02*
X85614000Y-97790000D01*
X89916000Y-101447000D02*
X91694000Y-103225000D01*
X89916000Y-97790000D02*
X89916000Y-101447000D01*
X88646000Y-96520000D02*
X89916000Y-97790000D01*
X85852000Y-96520000D02*
X88646000Y-96520000D01*
X91694000Y-103225000D02*
X88951000Y-103225000D01*
X88951000Y-103225000D02*
X88014000Y-104162000D01*
X88014000Y-105534000D02*
X88014000Y-104162000D01*
X106172000Y-93964000D02*
X104410000Y-93964000D01*
X95250000Y-92456000D02*
X95250000Y-91440000D01*
X95250000Y-92456000D02*
X96012000Y-93218000D01*
X104410000Y-93964000D02*
X104394000Y-93980000D01*
X106172000Y-93964000D02*
X107934000Y-93964000D01*
X109220000Y-95250000D02*
X109220000Y-96520000D01*
X107934000Y-93964000D02*
X109220000Y-95250000D01*
X75946000Y-82108000D02*
X76266000Y-82108000D01*
X76266000Y-82108000D02*
X78994000Y-84836000D01*
X93980000Y-89662000D02*
X95250000Y-89662000D01*
X89154000Y-84836000D02*
X93980000Y-89662000D01*
X78994000Y-84836000D02*
X89154000Y-84836000D01*
X75930000Y-80772000D02*
X75930000Y-82092000D01*
X75930000Y-82092000D02*
X75946000Y-82108000D01*
X73914000Y-82108000D02*
X75946000Y-82108000D01*
X75946000Y-82108000D02*
X76012000Y-82042000D01*
X92710000Y-74930000D02*
X92710000Y-79756000D01*
X95250000Y-82296000D02*
X92710000Y-79756000D01*
X95250000Y-82296000D02*
X95250000Y-84582000D01*
X95250000Y-84582000D02*
X95250000Y-87884000D01*
X95250000Y-87884000D02*
X95250000Y-89154000D01*
X95250000Y-89154000D02*
X95250000Y-89662000D01*
X95250000Y-89662000D02*
X95250000Y-91440000D01*
X92710000Y-73660000D02*
X92710000Y-74930000D01*
X111760000Y-96840000D02*
X109540000Y-96840000D01*
X109540000Y-96840000D02*
X109220000Y-96520000D01*
X94972000Y-114324000D02*
X94972000Y-113030000D01*
X94742000Y-114554000D02*
X94972000Y-114324000D01*
X86614000Y-114554000D02*
X93218000Y-114554000D01*
X93218000Y-114554000D02*
X94742000Y-114554000D01*
X85090000Y-113030000D02*
X86614000Y-114554000D01*
X98766000Y-112202000D02*
X97094000Y-112202000D01*
X96266000Y-113030000D02*
X94972000Y-113030000D01*
X97094000Y-112202000D02*
X96266000Y-113030000D01*
X103548000Y-108646000D02*
X98602000Y-108646000D01*
X98602000Y-108646000D02*
X98536000Y-108712000D01*
X103466000Y-108728000D02*
X103548000Y-108646000D01*
X109220000Y-99060000D02*
X107950000Y-100330000D01*
X107950000Y-100330000D02*
X107950000Y-104140000D01*
X109220000Y-104140000D02*
X107950000Y-104140000D01*
X107950000Y-104140000D02*
X107442000Y-104140000D01*
X107442000Y-104140000D02*
X107188000Y-104394000D01*
X107188000Y-104394000D02*
X105394000Y-104394000D01*
X105648000Y-104140000D02*
X105394000Y-104394000D01*
X111760000Y-103820000D02*
X109540000Y-103820000D01*
X109540000Y-103820000D02*
X109220000Y-104140000D01*
X105410000Y-105410000D02*
X105410000Y-104410000D01*
X103548000Y-106746000D02*
X103548000Y-106256000D01*
X104394000Y-105410000D02*
X105410000Y-105410000D01*
X103548000Y-106256000D02*
X104394000Y-105410000D01*
X101600000Y-106664000D02*
X99314000Y-106664000D01*
X103548000Y-106746000D02*
X101682000Y-106746000D01*
X101682000Y-106746000D02*
X101600000Y-106664000D01*
X111760000Y-98740000D02*
X109540000Y-98740000D01*
X109540000Y-98740000D02*
X109220000Y-99060000D01*
X88014000Y-102232000D02*
X88014000Y-100562000D01*
X88014000Y-100562000D02*
X88014000Y-99444000D01*
X88014000Y-99444000D02*
X87614000Y-99044000D01*
X87614000Y-99044000D02*
X87614000Y-97790000D01*
X87884000Y-102362000D02*
X88014000Y-102232000D01*
X82042000Y-102362000D02*
X87884000Y-102362000D01*
X81788000Y-102108000D02*
X82042000Y-102362000D01*
X79756000Y-102108000D02*
X81788000Y-102108000D01*
X85614000Y-106934000D02*
X85614000Y-105934000D01*
X85614000Y-105934000D02*
X85214000Y-105534000D01*
X81048000Y-104162000D02*
X85214000Y-104162000D01*
X80794000Y-104162000D02*
X81048000Y-104162000D01*
X79756000Y-103124000D02*
X80794000Y-104162000D01*
X85214000Y-105534000D02*
X85214000Y-104162000D01*
X77724000Y-101092000D02*
X77216000Y-101600000D01*
X77724000Y-99822000D02*
X77724000Y-101092000D01*
X77216000Y-101600000D02*
X75716000Y-101600000D01*
X75716000Y-101600000D02*
X75692000Y-101576000D01*
X98044000Y-102362000D02*
X99060000Y-102362000D01*
X99822000Y-103124000D02*
X99060000Y-102362000D01*
X99822000Y-103124000D02*
X101346000Y-103124000D01*
X82804000Y-108966000D02*
X88900000Y-108966000D01*
X93218000Y-104648000D02*
X88900000Y-108966000D01*
X93218000Y-104648000D02*
X93218000Y-102378000D01*
X71882000Y-98806000D02*
X71882000Y-100330000D01*
X78994000Y-108966000D02*
X81296000Y-108966000D01*
X77470000Y-107442000D02*
X78994000Y-108966000D01*
X77470000Y-103886000D02*
X77470000Y-107442000D01*
X76454000Y-102870000D02*
X77470000Y-103886000D01*
X74422000Y-102870000D02*
X76454000Y-102870000D01*
X71882000Y-100330000D02*
X74422000Y-102870000D01*
X71882000Y-80772000D02*
X71882000Y-98806000D01*
X72136000Y-80518000D02*
X71882000Y-80772000D01*
X82804000Y-108966000D02*
X81296000Y-108966000D01*
X81296000Y-108966000D02*
X79248000Y-106918000D01*
X111760000Y-101920000D02*
X109540000Y-101920000D01*
X109540000Y-101920000D02*
X109220000Y-101600000D01*
X93218000Y-102378000D02*
X93218000Y-102362000D01*
X90170000Y-95504000D02*
X89916000Y-95504000D01*
X91694000Y-97028000D02*
X90170000Y-95504000D01*
X84836000Y-95504000D02*
X89916000Y-95504000D01*
X83820000Y-96520000D02*
X84836000Y-95504000D01*
X78740000Y-96520000D02*
X83820000Y-96520000D01*
X75692000Y-93472000D02*
X78740000Y-96520000D01*
X75692000Y-92202000D02*
X75692000Y-93472000D01*
X88966000Y-85410000D02*
X91440000Y-87884000D01*
X75946000Y-85410000D02*
X88966000Y-85410000D01*
X91440000Y-87884000D02*
X91440000Y-91440000D01*
X75946000Y-84008000D02*
X75946000Y-85410000D01*
X93218000Y-93472000D02*
X93980000Y-92710000D01*
X91694000Y-93472000D02*
X93218000Y-93472000D01*
X77470000Y-93472000D02*
X91694000Y-93472000D01*
X93980000Y-91440000D02*
X93980000Y-92710000D01*
X92456000Y-92710000D02*
X77724000Y-92710000D01*
X77216000Y-92202000D02*
X76454000Y-91440000D01*
X92710000Y-92456000D02*
X92456000Y-92710000D01*
X77724000Y-92710000D02*
X77216000Y-92202000D01*
X92710000Y-91440000D02*
X92710000Y-92456000D01*
X76454000Y-91440000D02*
X74168000Y-91440000D01*
X73914000Y-85410000D02*
X73914000Y-84008000D01*
X90170000Y-91440000D02*
X90170000Y-87884000D01*
X73914000Y-86106000D02*
X73914000Y-85410000D01*
X74168000Y-86360000D02*
X73914000Y-86106000D01*
X88646000Y-86360000D02*
X74168000Y-86360000D01*
X90170000Y-87884000D02*
X88646000Y-86360000D01*
X101386000Y-110302000D02*
X100264000Y-110302000D01*
X99568000Y-113284000D02*
X98806000Y-113284000D01*
X100076000Y-112776000D02*
X99568000Y-113284000D01*
X100076000Y-110490000D02*
X100076000Y-112776000D01*
X100264000Y-110302000D02*
X100076000Y-110490000D01*
D30*
X111760000Y-112080000D02*
X110556000Y-112080000D01*
X110236000Y-111760000D02*
X109220000Y-111760000D01*
X110556000Y-112080000D02*
X110236000Y-111760000D01*
X109220000Y-111760000D02*
X107442000Y-111760000D01*
X104460000Y-112202000D02*
X101386000Y-112202000D01*
X107000000Y-112202000D02*
X104460000Y-112202000D01*
X107442000Y-111760000D02*
X107000000Y-112202000D01*
D31*
X96454000Y-110744000D02*
X97282000Y-110744000D01*
X97724000Y-110302000D02*
X98766000Y-110302000D01*
X97282000Y-110744000D02*
X97724000Y-110302000D01*
X96536000Y-111048000D02*
X96520000Y-111064000D01*
D30*
X107188000Y-106680000D02*
X109220000Y-106680000D01*
X105748000Y-106746000D02*
X105814000Y-106680000D01*
X105814000Y-106680000D02*
X107188000Y-106680000D01*
X105748000Y-108646000D02*
X106746000Y-108646000D01*
X107188000Y-108204000D02*
X107188000Y-106680000D01*
X106746000Y-108646000D02*
X107188000Y-108204000D01*
X111760000Y-107000000D02*
X109540000Y-107000000D01*
X109540000Y-107000000D02*
X109220000Y-106680000D01*
X111760000Y-108900000D02*
X109540000Y-108900000D01*
X109540000Y-108900000D02*
X109220000Y-109220000D01*
D31*
X76454000Y-93597602D02*
X78614398Y-95758000D01*
X78614398Y-95758000D02*
X82550000Y-95758000D01*
X76454000Y-92710000D02*
X76454000Y-93597602D01*
X89662000Y-96012000D02*
X89681000Y-96012000D01*
X89681000Y-96012000D02*
X91694000Y-98025000D01*
X84074000Y-107442000D02*
X81788000Y-107442000D01*
X77216000Y-96012000D02*
X74930000Y-93726000D01*
X74930000Y-93726000D02*
X74930000Y-92710000D01*
X85344000Y-96012000D02*
X89662000Y-96012000D01*
X82804000Y-98552000D02*
X85344000Y-96012000D01*
X79756000Y-98552000D02*
X82804000Y-98552000D01*
X77216000Y-96012000D02*
X79756000Y-98552000D01*
X83058000Y-108204000D02*
X81280000Y-108204000D01*
X92456000Y-100838000D02*
X93726000Y-99568000D01*
X91440000Y-105664000D02*
X92456000Y-104648000D01*
X83058000Y-108204000D02*
X88392000Y-108204000D01*
X88392000Y-108204000D02*
X88900000Y-108204000D01*
X88900000Y-108204000D02*
X91440000Y-105664000D01*
X92456000Y-104648000D02*
X92456000Y-102108000D01*
X92456000Y-102108000D02*
X92456000Y-100838000D01*
X80772000Y-107696000D02*
X80772000Y-105918000D01*
X81280000Y-108204000D02*
X80772000Y-107696000D01*
X94742000Y-98806000D02*
X94742000Y-99568000D01*
X94742000Y-98806000D02*
X94488000Y-98552000D01*
X94488000Y-98552000D02*
X93726000Y-98552000D01*
X93980000Y-100330000D02*
X93980000Y-105664000D01*
X94742000Y-99568000D02*
X93980000Y-100330000D01*
X78994000Y-109982000D02*
X77470000Y-109982000D01*
X89662000Y-109982000D02*
X93980000Y-105664000D01*
X82296000Y-109982000D02*
X89662000Y-109982000D01*
X82296000Y-109982000D02*
X78994000Y-109982000D01*
X76200000Y-108712000D02*
X76200000Y-103886000D01*
X77470000Y-109982000D02*
X76200000Y-108712000D01*
X97536000Y-94996000D02*
X94488000Y-94996000D01*
X84074000Y-95250000D02*
X84328000Y-94996000D01*
X84328000Y-94996000D02*
X94488000Y-94996000D01*
X96520000Y-96520000D02*
X96520000Y-96012000D01*
X96520000Y-96012000D02*
X97536000Y-94996000D01*
X97536000Y-94996000D02*
X99060000Y-93472000D01*
X93726000Y-94234000D02*
X97536000Y-94234000D01*
X85852000Y-94234000D02*
X87376000Y-94234000D01*
X91440000Y-94234000D02*
X93472000Y-94234000D01*
X87376000Y-94234000D02*
X91440000Y-94234000D01*
X93472000Y-94234000D02*
X93726000Y-94234000D01*
X97790000Y-93980000D02*
X97790000Y-91440000D01*
X97536000Y-94234000D02*
X97790000Y-93980000D01*
X97790000Y-91440000D02*
X97790000Y-92710000D01*
X81788000Y-94234000D02*
X81026000Y-94234000D01*
X84328000Y-94234000D02*
X81788000Y-94234000D01*
X72898000Y-79756000D02*
X71882000Y-79756000D01*
X81788000Y-79756000D02*
X72898000Y-79756000D01*
X78916002Y-110744000D02*
X90424000Y-110744000D01*
X90424000Y-110744000D02*
X92710000Y-108458000D01*
X86360000Y-75184000D02*
X85090000Y-76454000D01*
X86360000Y-75184000D02*
X86360000Y-73660000D01*
X85090000Y-76454000D02*
X81788000Y-79756000D01*
X77470000Y-110744000D02*
X78916002Y-110744000D01*
X71374000Y-104648000D02*
X77470000Y-110744000D01*
X71374000Y-80264000D02*
X71374000Y-104648000D01*
X71882000Y-79756000D02*
X71374000Y-80264000D01*
X78740000Y-111252000D02*
X76962000Y-111252000D01*
X72644000Y-79248000D02*
X80772000Y-79248000D01*
X80772000Y-79248000D02*
X84074000Y-75946000D01*
X93726000Y-107696000D02*
X93726000Y-108712000D01*
X93726000Y-108712000D02*
X91186000Y-111252000D01*
X85090000Y-74930000D02*
X85090000Y-73660000D01*
X85090000Y-74930000D02*
X84074000Y-75946000D01*
X91186000Y-111252000D02*
X78740000Y-111252000D01*
X71628000Y-79248000D02*
X72644000Y-79248000D01*
X70866000Y-80010000D02*
X71628000Y-79248000D01*
X70866000Y-105156000D02*
X70866000Y-80010000D01*
X76962000Y-111252000D02*
X70866000Y-105156000D01*
X103632000Y-102108000D02*
X106680000Y-99060000D01*
X99568000Y-102108000D02*
X103632000Y-102108000D01*
X98806000Y-101346000D02*
X99568000Y-102108000D01*
X98552000Y-101346000D02*
X98806000Y-101346000D01*
X94996000Y-101346000D02*
X98552000Y-101346000D01*
X105664000Y-96520000D02*
X106680000Y-96520000D01*
X105410000Y-96774000D02*
X105664000Y-96520000D01*
X105410000Y-99314000D02*
X105410000Y-96774000D01*
X103124000Y-101600000D02*
X105410000Y-99314000D01*
X99822000Y-101600000D02*
X103124000Y-101600000D01*
X98806000Y-100584000D02*
X99822000Y-101600000D01*
X94742000Y-100584000D02*
X98806000Y-100584000D01*
X93472000Y-97282000D02*
X92710000Y-98044000D01*
X93472000Y-96012000D02*
X93472000Y-97282000D01*
D32*
X109220000Y-77470000D02*
X112014000Y-77470000D01*
X104140000Y-81280000D02*
X105410000Y-81280000D01*
X105410000Y-81280000D02*
X109220000Y-77470000D01*
X109220000Y-90170000D02*
X111760000Y-90170000D01*
X107950000Y-88900000D02*
X109220000Y-90170000D01*
X107950000Y-85090000D02*
X107950000Y-88900000D01*
X104140000Y-83820000D02*
X106680000Y-83820000D01*
X106680000Y-83820000D02*
X107950000Y-85090000D01*
D33*
G36*
X70410741Y-72754811D02*
X69988191Y-73772423D01*
X69887809Y-73622191D01*
X69677765Y-73481843D01*
X69430000Y-73432560D01*
X67730000Y-73432560D01*
X67482235Y-73481843D01*
X67272191Y-73622191D01*
X67131843Y-73832235D01*
X67082560Y-74080000D01*
X67082560Y-75780000D01*
X67131843Y-76027765D01*
X67272191Y-76237809D01*
X67482235Y-76378157D01*
X67544777Y-76390597D01*
X67500853Y-76419946D01*
X67178946Y-76901715D01*
X67065907Y-77470000D01*
X67178946Y-78038285D01*
X67500853Y-78520054D01*
X67841553Y-78747702D01*
X67698642Y-78814817D01*
X67308355Y-79243076D01*
X67138524Y-79653110D01*
X67259845Y-79883000D01*
X68453000Y-79883000D01*
X68453000Y-79863000D01*
X68707000Y-79863000D01*
X68707000Y-79883000D01*
X69900155Y-79883000D01*
X70021476Y-79653110D01*
X69851645Y-79243076D01*
X69461358Y-78814817D01*
X69318447Y-78747702D01*
X69659147Y-78520054D01*
X69981054Y-78038285D01*
X70094093Y-77470000D01*
X69981054Y-76901715D01*
X69659147Y-76419946D01*
X69615223Y-76390597D01*
X69677765Y-76378157D01*
X69887809Y-76237809D01*
X69988583Y-76086991D01*
X70406950Y-77099515D01*
X71484811Y-78179259D01*
X72228342Y-78488000D01*
X71628000Y-78488000D01*
X71337161Y-78545852D01*
X71090599Y-78710599D01*
X70328599Y-79472599D01*
X70163852Y-79719161D01*
X70106000Y-80010000D01*
X70106000Y-105156000D01*
X70163852Y-105446839D01*
X70328599Y-105693401D01*
X76424599Y-111789401D01*
X76671161Y-111954148D01*
X76962000Y-112012000D01*
X90874979Y-112012000D01*
X90837000Y-112103690D01*
X90837000Y-112744250D01*
X90995750Y-112903000D01*
X91845000Y-112903000D01*
X91845000Y-111753750D01*
X92099000Y-111753750D01*
X92099000Y-112903000D01*
X92948250Y-112903000D01*
X93107000Y-112744250D01*
X93107000Y-112103690D01*
X93010327Y-111870301D01*
X92831698Y-111691673D01*
X92598309Y-111595000D01*
X92257750Y-111595000D01*
X92099000Y-111753750D01*
X91845000Y-111753750D01*
X91802026Y-111710776D01*
X93585891Y-109926911D01*
X93569000Y-109967690D01*
X93569000Y-110458250D01*
X93727750Y-110617000D01*
X94427000Y-110617000D01*
X94427000Y-109617750D01*
X94268250Y-109459000D01*
X94077691Y-109459000D01*
X94036910Y-109475892D01*
X94263401Y-109249401D01*
X94428148Y-109002840D01*
X94448604Y-108900000D01*
X94486000Y-108712000D01*
X94486000Y-108258463D01*
X94518192Y-108226327D01*
X94628494Y-107960690D01*
X95401000Y-107960690D01*
X95401000Y-108426250D01*
X95559750Y-108585000D01*
X96409000Y-108585000D01*
X96409000Y-107610750D01*
X96250250Y-107452000D01*
X95909691Y-107452000D01*
X95676302Y-107548673D01*
X95497673Y-107727301D01*
X95401000Y-107960690D01*
X94628494Y-107960690D01*
X94660838Y-107882799D01*
X94661162Y-107510833D01*
X94519117Y-107167057D01*
X94256327Y-106903808D01*
X93944483Y-106774319D01*
X94517401Y-106201401D01*
X94682148Y-105954839D01*
X94740000Y-105664000D01*
X94740000Y-102252103D01*
X94809201Y-102280838D01*
X95181167Y-102281162D01*
X95524943Y-102139117D01*
X95558118Y-102106000D01*
X97137897Y-102106000D01*
X97109162Y-102175201D01*
X97108838Y-102547167D01*
X97250883Y-102890943D01*
X97513673Y-103154192D01*
X97857201Y-103296838D01*
X98229167Y-103297162D01*
X98572943Y-103155117D01*
X98606118Y-103122000D01*
X98745198Y-103122000D01*
X99186998Y-103563800D01*
X99186998Y-103687748D01*
X99028250Y-103529000D01*
X98562690Y-103529000D01*
X98329301Y-103625673D01*
X98150673Y-103804302D01*
X98054000Y-104037691D01*
X98054000Y-104378250D01*
X98212750Y-104537000D01*
X99187000Y-104537000D01*
X99187000Y-104517000D01*
X99441000Y-104517000D01*
X99441000Y-104537000D01*
X100415250Y-104537000D01*
X100457000Y-104495250D01*
X100498750Y-104537000D01*
X101473000Y-104537000D01*
X101473000Y-104517000D01*
X101727000Y-104517000D01*
X101727000Y-104537000D01*
X101747000Y-104537000D01*
X101747000Y-104791000D01*
X101727000Y-104791000D01*
X101727000Y-104811000D01*
X101473000Y-104811000D01*
X101473000Y-104791000D01*
X100498750Y-104791000D01*
X100457000Y-104832750D01*
X100415250Y-104791000D01*
X99441000Y-104791000D01*
X99441000Y-104811000D01*
X99187000Y-104811000D01*
X99187000Y-104791000D01*
X98212750Y-104791000D01*
X98054000Y-104949750D01*
X98054000Y-105290309D01*
X98150673Y-105523698D01*
X98292320Y-105665346D01*
X98231191Y-105706191D01*
X98090843Y-105916235D01*
X98041560Y-106164000D01*
X98041560Y-107164000D01*
X98090843Y-107411765D01*
X98109415Y-107439560D01*
X98036000Y-107439560D01*
X97788235Y-107488843D01*
X97578191Y-107629191D01*
X97537346Y-107690320D01*
X97395698Y-107548673D01*
X97162309Y-107452000D01*
X96821750Y-107452000D01*
X96663000Y-107610750D01*
X96663000Y-108585000D01*
X96683000Y-108585000D01*
X96683000Y-108839000D01*
X96663000Y-108839000D01*
X96663000Y-108859000D01*
X96409000Y-108859000D01*
X96409000Y-108839000D01*
X95559750Y-108839000D01*
X95401000Y-108997750D01*
X95401000Y-109463310D01*
X95497673Y-109696699D01*
X95562467Y-109761492D01*
X95505843Y-109846235D01*
X95500279Y-109874209D01*
X95442327Y-109734301D01*
X95263698Y-109555673D01*
X95030309Y-109459000D01*
X94839750Y-109459000D01*
X94681000Y-109617750D01*
X94681000Y-110617000D01*
X94701000Y-110617000D01*
X94701000Y-110871000D01*
X94681000Y-110871000D01*
X94681000Y-110891000D01*
X94427000Y-110891000D01*
X94427000Y-110871000D01*
X93727750Y-110871000D01*
X93569000Y-111029750D01*
X93569000Y-111520310D01*
X93665673Y-111753699D01*
X93844302Y-111932327D01*
X93893558Y-111952730D01*
X93873843Y-111982235D01*
X93824560Y-112230000D01*
X93824560Y-113794000D01*
X93780463Y-113794000D01*
X93748327Y-113761808D01*
X93404799Y-113619162D01*
X93107000Y-113618903D01*
X93107000Y-113315750D01*
X92948250Y-113157000D01*
X92099000Y-113157000D01*
X92099000Y-113177000D01*
X91845000Y-113177000D01*
X91845000Y-113157000D01*
X90995750Y-113157000D01*
X90837000Y-113315750D01*
X90837000Y-113794000D01*
X86928802Y-113794000D01*
X86025122Y-112890320D01*
X86025162Y-112844833D01*
X85883117Y-112501057D01*
X85620327Y-112237808D01*
X85276799Y-112095162D01*
X84904833Y-112094838D01*
X84561057Y-112236883D01*
X84297808Y-112499673D01*
X84155162Y-112843201D01*
X84154838Y-113215167D01*
X84296883Y-113558943D01*
X84559673Y-113822192D01*
X84903201Y-113964838D01*
X84950077Y-113964879D01*
X86076599Y-115091401D01*
X86323160Y-115256148D01*
X86371414Y-115265746D01*
X86614000Y-115314000D01*
X92655537Y-115314000D01*
X92687673Y-115346192D01*
X93031201Y-115488838D01*
X93403167Y-115489162D01*
X93746943Y-115347117D01*
X93780118Y-115314000D01*
X94742000Y-115314000D01*
X95032839Y-115256148D01*
X95279401Y-115091401D01*
X95509401Y-114861401D01*
X95646049Y-114656892D01*
X100158514Y-114656892D01*
X100404817Y-115181358D01*
X100833076Y-115571645D01*
X101243110Y-115741476D01*
X101473000Y-115620155D01*
X101473000Y-114427000D01*
X100279181Y-114427000D01*
X100158514Y-114656892D01*
X95646049Y-114656892D01*
X95674148Y-114614839D01*
X95710932Y-114429914D01*
X95719765Y-114428157D01*
X95929809Y-114287809D01*
X96070157Y-114077765D01*
X96119440Y-113830000D01*
X96119440Y-113790000D01*
X96266000Y-113790000D01*
X96556839Y-113732148D01*
X96803401Y-113567401D01*
X97408802Y-112962000D01*
X97682950Y-112962000D01*
X97698191Y-112984809D01*
X97871159Y-113100384D01*
X97870838Y-113469167D01*
X98012883Y-113812943D01*
X98275673Y-114076192D01*
X98619201Y-114218838D01*
X98991167Y-114219162D01*
X99334943Y-114077117D01*
X99368118Y-114044000D01*
X99568000Y-114044000D01*
X99858839Y-113986148D01*
X100105401Y-113821401D01*
X100313311Y-113613491D01*
X100158514Y-113943108D01*
X100279181Y-114173000D01*
X101473000Y-114173000D01*
X101473000Y-114153000D01*
X101727000Y-114153000D01*
X101727000Y-114173000D01*
X101747000Y-114173000D01*
X101747000Y-114427000D01*
X101727000Y-114427000D01*
X101727000Y-115620155D01*
X101956890Y-115741476D01*
X102366924Y-115571645D01*
X102671261Y-115294292D01*
X102691843Y-115397765D01*
X102832191Y-115607809D01*
X103042235Y-115748157D01*
X103290000Y-115797440D01*
X104990000Y-115797440D01*
X105237765Y-115748157D01*
X105447809Y-115607809D01*
X105588157Y-115397765D01*
X105630478Y-115185000D01*
X108030568Y-115185000D01*
X108140853Y-115350054D01*
X108622622Y-115671961D01*
X109190907Y-115785000D01*
X109249093Y-115785000D01*
X109817378Y-115671961D01*
X110299147Y-115350054D01*
X110621054Y-114868285D01*
X110621707Y-114865000D01*
X110767715Y-114865000D01*
X110862235Y-114928157D01*
X111110000Y-114977440D01*
X112410000Y-114977440D01*
X112657765Y-114928157D01*
X112867809Y-114787809D01*
X113008157Y-114577765D01*
X113057440Y-114330000D01*
X113057440Y-113630000D01*
X113008157Y-113382235D01*
X112867809Y-113172191D01*
X112657765Y-113031843D01*
X112648500Y-113030000D01*
X112657765Y-113028157D01*
X112867809Y-112887809D01*
X113008157Y-112677765D01*
X113057440Y-112430000D01*
X113057440Y-111730000D01*
X113008157Y-111482235D01*
X112867809Y-111272191D01*
X112657765Y-111131843D01*
X112410000Y-111082560D01*
X111110000Y-111082560D01*
X110862235Y-111131843D01*
X110860241Y-111133175D01*
X110848006Y-111125000D01*
X110717440Y-111037759D01*
X110717440Y-110910000D01*
X110668157Y-110662235D01*
X110553072Y-110490000D01*
X110668157Y-110317765D01*
X110717440Y-110070000D01*
X110717440Y-109785000D01*
X110767715Y-109785000D01*
X110862235Y-109848157D01*
X111110000Y-109897440D01*
X112410000Y-109897440D01*
X112657765Y-109848157D01*
X112867809Y-109707809D01*
X113008157Y-109497765D01*
X113057440Y-109250000D01*
X113057440Y-108550000D01*
X113008157Y-108302235D01*
X112867809Y-108092191D01*
X112657765Y-107951843D01*
X112648500Y-107950000D01*
X112657765Y-107948157D01*
X112867809Y-107807809D01*
X113008157Y-107597765D01*
X113057440Y-107350000D01*
X113057440Y-106650000D01*
X113008157Y-106402235D01*
X112867809Y-106192191D01*
X112657765Y-106051843D01*
X112410000Y-106002560D01*
X111110000Y-106002560D01*
X110862235Y-106051843D01*
X110767715Y-106115000D01*
X110621707Y-106115000D01*
X110621054Y-106111715D01*
X110299147Y-105629946D01*
X110255223Y-105600597D01*
X110317765Y-105588157D01*
X110527809Y-105447809D01*
X110668157Y-105237765D01*
X110717440Y-104990000D01*
X110717440Y-104671407D01*
X110862235Y-104768157D01*
X111110000Y-104817440D01*
X112410000Y-104817440D01*
X112657765Y-104768157D01*
X112867809Y-104627809D01*
X113008157Y-104417765D01*
X113057440Y-104170000D01*
X113057440Y-103470000D01*
X113008157Y-103222235D01*
X112867809Y-103012191D01*
X112657765Y-102871843D01*
X112648500Y-102870000D01*
X112657765Y-102868157D01*
X112867809Y-102727809D01*
X113008157Y-102517765D01*
X113057440Y-102270000D01*
X113057440Y-101570000D01*
X113008157Y-101322235D01*
X112867809Y-101112191D01*
X112657765Y-100971843D01*
X112410000Y-100922560D01*
X111110000Y-100922560D01*
X110862235Y-100971843D01*
X110652191Y-101112191D01*
X110640532Y-101129639D01*
X110621054Y-101031715D01*
X110299147Y-100549946D01*
X110255223Y-100520597D01*
X110317765Y-100508157D01*
X110527809Y-100367809D01*
X110668157Y-100157765D01*
X110717440Y-99910000D01*
X110717440Y-99591407D01*
X110862235Y-99688157D01*
X111110000Y-99737440D01*
X112410000Y-99737440D01*
X112657765Y-99688157D01*
X112867809Y-99547809D01*
X113008157Y-99337765D01*
X113057440Y-99090000D01*
X113057440Y-98390000D01*
X113008157Y-98142235D01*
X112867809Y-97932191D01*
X112657765Y-97791843D01*
X112648500Y-97790000D01*
X112657765Y-97788157D01*
X112867809Y-97647809D01*
X113008157Y-97437765D01*
X113057440Y-97190000D01*
X113057440Y-96490000D01*
X113008157Y-96242235D01*
X112867809Y-96032191D01*
X112657765Y-95891843D01*
X112410000Y-95842560D01*
X111110000Y-95842560D01*
X110862235Y-95891843D01*
X110652191Y-96032191D01*
X110640532Y-96049639D01*
X110621054Y-95951715D01*
X110299147Y-95469946D01*
X109980000Y-95256699D01*
X109980000Y-95250000D01*
X109922148Y-94959161D01*
X109757401Y-94712599D01*
X109649802Y-94605000D01*
X111474250Y-94605000D01*
X111633000Y-94446250D01*
X111633000Y-93097000D01*
X109033750Y-93097000D01*
X108875000Y-93255750D01*
X108875000Y-93830198D01*
X108471401Y-93426599D01*
X108224839Y-93261852D01*
X107934000Y-93204000D01*
X107386982Y-93204000D01*
X107254809Y-93006191D01*
X107193680Y-92965346D01*
X107335327Y-92823698D01*
X107432000Y-92590309D01*
X107432000Y-92249750D01*
X107273250Y-92091000D01*
X106299000Y-92091000D01*
X106299000Y-92111000D01*
X106045000Y-92111000D01*
X106045000Y-92091000D01*
X105070750Y-92091000D01*
X104912000Y-92249750D01*
X104912000Y-92590309D01*
X105008673Y-92823698D01*
X105150320Y-92965346D01*
X105089191Y-93006191D01*
X104957018Y-93204000D01*
X104940491Y-93204000D01*
X104924327Y-93187808D01*
X104580799Y-93045162D01*
X104208833Y-93044838D01*
X103865057Y-93186883D01*
X103601808Y-93449673D01*
X103459162Y-93793201D01*
X103458838Y-94165167D01*
X103580643Y-94459958D01*
X102366175Y-93955667D01*
X100840518Y-93954336D01*
X99430485Y-94536950D01*
X98350741Y-95614811D01*
X97765667Y-97023825D01*
X97764336Y-98549482D01*
X98290956Y-99824000D01*
X97605379Y-99824000D01*
X97812727Y-99393331D01*
X97690206Y-99187000D01*
X96647000Y-99187000D01*
X96647000Y-99207000D01*
X96393000Y-99207000D01*
X96393000Y-99187000D01*
X96373000Y-99187000D01*
X96373000Y-98933000D01*
X96393000Y-98933000D01*
X96393000Y-98913000D01*
X96647000Y-98913000D01*
X96647000Y-98933000D01*
X97690206Y-98933000D01*
X97812727Y-98726669D01*
X97586764Y-98257337D01*
X97198396Y-97910203D01*
X96925194Y-97797049D01*
X97275229Y-97652418D01*
X97651098Y-97277204D01*
X97854768Y-96786713D01*
X97855231Y-96255617D01*
X97707857Y-95898945D01*
X99199680Y-94407122D01*
X99245167Y-94407162D01*
X99588943Y-94265117D01*
X99852192Y-94002327D01*
X99994838Y-93658799D01*
X99995162Y-93286833D01*
X99853117Y-92943057D01*
X99744219Y-92833969D01*
X99822000Y-92849440D01*
X100838000Y-92849440D01*
X100965000Y-92824178D01*
X101092000Y-92849440D01*
X102108000Y-92849440D01*
X102214554Y-92828245D01*
X102235690Y-92837000D01*
X102584250Y-92837000D01*
X102743000Y-92678250D01*
X102743000Y-92264541D01*
X102755440Y-92202000D01*
X102755440Y-91567000D01*
X102997000Y-91567000D01*
X102997000Y-92678250D01*
X103155750Y-92837000D01*
X103504310Y-92837000D01*
X103737699Y-92740327D01*
X103916327Y-92561698D01*
X104013000Y-92328309D01*
X104013000Y-91725750D01*
X103854250Y-91567000D01*
X102997000Y-91567000D01*
X102755440Y-91567000D01*
X102755440Y-91337691D01*
X104912000Y-91337691D01*
X104912000Y-91678250D01*
X105070750Y-91837000D01*
X106045000Y-91837000D01*
X106045000Y-90987750D01*
X106299000Y-90987750D01*
X106299000Y-91837000D01*
X107273250Y-91837000D01*
X107432000Y-91678250D01*
X107432000Y-91337691D01*
X107335327Y-91104302D01*
X107156699Y-90925673D01*
X106923310Y-90829000D01*
X106457750Y-90829000D01*
X106299000Y-90987750D01*
X106045000Y-90987750D01*
X105886250Y-90829000D01*
X105420690Y-90829000D01*
X105187301Y-90925673D01*
X105008673Y-91104302D01*
X104912000Y-91337691D01*
X102755440Y-91337691D01*
X102755440Y-90678000D01*
X102743000Y-90615459D01*
X102743000Y-90201750D01*
X102997000Y-90201750D01*
X102997000Y-91313000D01*
X103854250Y-91313000D01*
X104013000Y-91154250D01*
X104013000Y-90551691D01*
X103916327Y-90318302D01*
X103737699Y-90139673D01*
X103504310Y-90043000D01*
X103155750Y-90043000D01*
X102997000Y-90201750D01*
X102743000Y-90201750D01*
X102584250Y-90043000D01*
X102235690Y-90043000D01*
X102214554Y-90051755D01*
X102108000Y-90030560D01*
X101092000Y-90030560D01*
X100965000Y-90055822D01*
X100838000Y-90030560D01*
X99822000Y-90030560D01*
X99695000Y-90055822D01*
X99568000Y-90030560D01*
X98552000Y-90030560D01*
X98425000Y-90055822D01*
X98298000Y-90030560D01*
X97282000Y-90030560D01*
X97175446Y-90051755D01*
X97154310Y-90043000D01*
X96805750Y-90043000D01*
X96647000Y-90201750D01*
X96647000Y-90615459D01*
X96634560Y-90678000D01*
X96634560Y-91587000D01*
X96405440Y-91587000D01*
X96405440Y-90678000D01*
X96393000Y-90615459D01*
X96393000Y-90201750D01*
X96234250Y-90043000D01*
X96010000Y-90043000D01*
X96010000Y-86645750D01*
X102743000Y-86645750D01*
X102743000Y-86994309D01*
X102839673Y-87227698D01*
X103018301Y-87406327D01*
X103251690Y-87503000D01*
X103854250Y-87503000D01*
X104013000Y-87344250D01*
X104013000Y-86487000D01*
X104267000Y-86487000D01*
X104267000Y-87344250D01*
X104425750Y-87503000D01*
X105028310Y-87503000D01*
X105261699Y-87406327D01*
X105440327Y-87227698D01*
X105537000Y-86994309D01*
X105537000Y-86645750D01*
X105378250Y-86487000D01*
X104267000Y-86487000D01*
X104013000Y-86487000D01*
X102901750Y-86487000D01*
X102743000Y-86645750D01*
X96010000Y-86645750D01*
X96010000Y-85375750D01*
X102743000Y-85375750D01*
X102743000Y-85724309D01*
X102743286Y-85725000D01*
X102743000Y-85725691D01*
X102743000Y-86074250D01*
X102901750Y-86233000D01*
X104013000Y-86233000D01*
X104013000Y-85217000D01*
X104267000Y-85217000D01*
X104267000Y-86233000D01*
X105378250Y-86233000D01*
X105537000Y-86074250D01*
X105537000Y-85725691D01*
X105536714Y-85725000D01*
X105537000Y-85724309D01*
X105537000Y-85375750D01*
X105378250Y-85217000D01*
X104267000Y-85217000D01*
X104013000Y-85217000D01*
X102901750Y-85217000D01*
X102743000Y-85375750D01*
X96010000Y-85375750D01*
X96010000Y-82296000D01*
X95952148Y-82005161D01*
X95952148Y-82005160D01*
X95787401Y-81758599D01*
X93470000Y-79441198D01*
X93470000Y-79025750D01*
X102743000Y-79025750D01*
X102743000Y-79374309D01*
X102743286Y-79375000D01*
X102743000Y-79375691D01*
X102743000Y-79724250D01*
X102901750Y-79883000D01*
X104013000Y-79883000D01*
X104013000Y-78867000D01*
X102901750Y-78867000D01*
X102743000Y-79025750D01*
X93470000Y-79025750D01*
X93470000Y-78105691D01*
X102743000Y-78105691D01*
X102743000Y-78454250D01*
X102901750Y-78613000D01*
X104013000Y-78613000D01*
X104013000Y-77755750D01*
X104267000Y-77755750D01*
X104267000Y-78613000D01*
X105378250Y-78613000D01*
X105537000Y-78454250D01*
X105537000Y-78105691D01*
X105440327Y-77872302D01*
X105261699Y-77693673D01*
X105028310Y-77597000D01*
X104425750Y-77597000D01*
X104267000Y-77755750D01*
X104013000Y-77755750D01*
X103854250Y-77597000D01*
X103251690Y-77597000D01*
X103018301Y-77693673D01*
X102839673Y-77872302D01*
X102743000Y-78105691D01*
X93470000Y-78105691D01*
X93470000Y-75492463D01*
X93502192Y-75460327D01*
X93644838Y-75116799D01*
X93644879Y-75069440D01*
X94488000Y-75069440D01*
X94615000Y-75044178D01*
X94742000Y-75069440D01*
X95758000Y-75069440D01*
X95885000Y-75044178D01*
X96012000Y-75069440D01*
X97028000Y-75069440D01*
X97155000Y-75044178D01*
X97282000Y-75069440D01*
X98298000Y-75069440D01*
X98425000Y-75044178D01*
X98552000Y-75069440D01*
X99568000Y-75069440D01*
X99695000Y-75044178D01*
X99822000Y-75069440D01*
X100838000Y-75069440D01*
X100965000Y-75044178D01*
X101092000Y-75069440D01*
X102108000Y-75069440D01*
X102214554Y-75048245D01*
X102235690Y-75057000D01*
X102584250Y-75057000D01*
X102743000Y-74898250D01*
X102743000Y-74484541D01*
X102755440Y-74422000D01*
X102755440Y-73787000D01*
X102997000Y-73787000D01*
X102997000Y-74898250D01*
X103155750Y-75057000D01*
X103504310Y-75057000D01*
X103737699Y-74960327D01*
X103916327Y-74781698D01*
X104013000Y-74548309D01*
X104013000Y-73945750D01*
X103854250Y-73787000D01*
X102997000Y-73787000D01*
X102755440Y-73787000D01*
X102755440Y-73543691D01*
X108875000Y-73543691D01*
X108875000Y-74384250D01*
X109033750Y-74543000D01*
X111633000Y-74543000D01*
X111633000Y-73193750D01*
X111474250Y-73035000D01*
X109383690Y-73035000D01*
X109150301Y-73131673D01*
X108971673Y-73310302D01*
X108875000Y-73543691D01*
X102755440Y-73543691D01*
X102755440Y-72898000D01*
X102743000Y-72835459D01*
X102743000Y-72421750D01*
X102997000Y-72421750D01*
X102997000Y-73533000D01*
X103854250Y-73533000D01*
X104013000Y-73374250D01*
X104013000Y-72771691D01*
X103916327Y-72538302D01*
X103737699Y-72359673D01*
X103504310Y-72263000D01*
X103155750Y-72263000D01*
X102997000Y-72421750D01*
X102743000Y-72421750D01*
X102584250Y-72263000D01*
X102235690Y-72263000D01*
X102214554Y-72271755D01*
X102108000Y-72250560D01*
X101092000Y-72250560D01*
X100965000Y-72275822D01*
X100838000Y-72250560D01*
X99822000Y-72250560D01*
X99695000Y-72275822D01*
X99568000Y-72250560D01*
X98552000Y-72250560D01*
X98425000Y-72275822D01*
X98298000Y-72250560D01*
X97282000Y-72250560D01*
X97155000Y-72275822D01*
X97028000Y-72250560D01*
X96012000Y-72250560D01*
X95885000Y-72275822D01*
X95758000Y-72250560D01*
X94742000Y-72250560D01*
X94615000Y-72275822D01*
X94488000Y-72250560D01*
X93472000Y-72250560D01*
X93345000Y-72275822D01*
X93218000Y-72250560D01*
X92202000Y-72250560D01*
X92095446Y-72271755D01*
X92074310Y-72263000D01*
X91725750Y-72263000D01*
X91567000Y-72421750D01*
X91567000Y-72835459D01*
X91554560Y-72898000D01*
X91554560Y-74422000D01*
X91567000Y-74484541D01*
X91567000Y-74898250D01*
X91725750Y-75057000D01*
X91774889Y-75057000D01*
X91774838Y-75115167D01*
X91916883Y-75458943D01*
X91950000Y-75492118D01*
X91950000Y-79756000D01*
X92007852Y-80046839D01*
X92172599Y-80293401D01*
X94490000Y-82610802D01*
X94490000Y-88902000D01*
X94294802Y-88902000D01*
X89691401Y-84298599D01*
X89444839Y-84133852D01*
X89154000Y-84076000D01*
X79308802Y-84076000D01*
X77243440Y-82010638D01*
X77243440Y-81758000D01*
X77194157Y-81510235D01*
X77077440Y-81335557D01*
X77077440Y-80516000D01*
X81788000Y-80516000D01*
X82078839Y-80458148D01*
X82325401Y-80293401D01*
X86897401Y-75721401D01*
X87062148Y-75474840D01*
X87120000Y-75184000D01*
X87120000Y-75057000D01*
X87344250Y-75057000D01*
X87503000Y-74898250D01*
X87503000Y-74484541D01*
X87515440Y-74422000D01*
X87515440Y-72898000D01*
X87744560Y-72898000D01*
X87744560Y-74422000D01*
X87757000Y-74484541D01*
X87757000Y-74898250D01*
X87915750Y-75057000D01*
X88264310Y-75057000D01*
X88285446Y-75048245D01*
X88392000Y-75069440D01*
X89408000Y-75069440D01*
X89535000Y-75044178D01*
X89662000Y-75069440D01*
X90678000Y-75069440D01*
X90784554Y-75048245D01*
X90805690Y-75057000D01*
X91154250Y-75057000D01*
X91313000Y-74898250D01*
X91313000Y-74484541D01*
X91325440Y-74422000D01*
X91325440Y-72898000D01*
X91313000Y-72835459D01*
X91313000Y-72421750D01*
X91154250Y-72263000D01*
X90805690Y-72263000D01*
X90784554Y-72271755D01*
X90678000Y-72250560D01*
X89662000Y-72250560D01*
X89535000Y-72275822D01*
X89408000Y-72250560D01*
X88392000Y-72250560D01*
X88285446Y-72271755D01*
X88264310Y-72263000D01*
X87915750Y-72263000D01*
X87757000Y-72421750D01*
X87757000Y-72835459D01*
X87744560Y-72898000D01*
X87515440Y-72898000D01*
X87503000Y-72835459D01*
X87503000Y-72421750D01*
X87344250Y-72263000D01*
X86995690Y-72263000D01*
X86974554Y-72271755D01*
X86868000Y-72250560D01*
X85852000Y-72250560D01*
X85725000Y-72275822D01*
X85598000Y-72250560D01*
X84582000Y-72250560D01*
X84455000Y-72275822D01*
X84328000Y-72250560D01*
X83312000Y-72250560D01*
X83185000Y-72275822D01*
X83058000Y-72250560D01*
X82042000Y-72250560D01*
X81915000Y-72275822D01*
X81788000Y-72250560D01*
X80772000Y-72250560D01*
X80645000Y-72275822D01*
X80518000Y-72250560D01*
X79502000Y-72250560D01*
X79395446Y-72271755D01*
X79374310Y-72263000D01*
X79025750Y-72263000D01*
X78867000Y-72421750D01*
X78867000Y-72835459D01*
X78854560Y-72898000D01*
X78854560Y-74422000D01*
X78867000Y-74484541D01*
X78867000Y-74898250D01*
X79025750Y-75057000D01*
X79374310Y-75057000D01*
X79395446Y-75048245D01*
X79502000Y-75069440D01*
X80518000Y-75069440D01*
X80645000Y-75044178D01*
X80772000Y-75069440D01*
X81788000Y-75069440D01*
X81915000Y-75044178D01*
X82042000Y-75069440D01*
X83058000Y-75069440D01*
X83185000Y-75044178D01*
X83312000Y-75069440D01*
X83875758Y-75069440D01*
X80457198Y-78488000D01*
X75091480Y-78488000D01*
X75829515Y-78183050D01*
X76909259Y-77105189D01*
X77494333Y-75696175D01*
X77495664Y-74170518D01*
X77402792Y-73945750D01*
X77597000Y-73945750D01*
X77597000Y-74548309D01*
X77693673Y-74781698D01*
X77872301Y-74960327D01*
X78105690Y-75057000D01*
X78454250Y-75057000D01*
X78613000Y-74898250D01*
X78613000Y-73787000D01*
X77755750Y-73787000D01*
X77597000Y-73945750D01*
X77402792Y-73945750D01*
X76917681Y-72771691D01*
X77597000Y-72771691D01*
X77597000Y-73374250D01*
X77755750Y-73533000D01*
X78613000Y-73533000D01*
X78613000Y-72421750D01*
X78454250Y-72263000D01*
X78105690Y-72263000D01*
X77872301Y-72359673D01*
X77693673Y-72538302D01*
X77597000Y-72771691D01*
X76917681Y-72771691D01*
X76913050Y-72760485D01*
X75909318Y-71755000D01*
X113665000Y-71755000D01*
X113665000Y-73035000D01*
X112045750Y-73035000D01*
X111887000Y-73193750D01*
X111887000Y-74543000D01*
X111907000Y-74543000D01*
X111907000Y-74797000D01*
X111887000Y-74797000D01*
X111887000Y-74817000D01*
X111633000Y-74817000D01*
X111633000Y-74797000D01*
X109033750Y-74797000D01*
X108875000Y-74955750D01*
X108875000Y-75796309D01*
X108971673Y-76029698D01*
X109136099Y-76194125D01*
X109052191Y-76250191D01*
X108911843Y-76460235D01*
X108904375Y-76497782D01*
X108823923Y-76513785D01*
X108488144Y-76738144D01*
X108488142Y-76738147D01*
X105537000Y-79689288D01*
X105537000Y-79375691D01*
X105536714Y-79375000D01*
X105537000Y-79374309D01*
X105537000Y-79025750D01*
X105378250Y-78867000D01*
X104267000Y-78867000D01*
X104267000Y-79883000D01*
X104287000Y-79883000D01*
X104287000Y-80124560D01*
X103378000Y-80124560D01*
X103315459Y-80137000D01*
X102901750Y-80137000D01*
X102743000Y-80295750D01*
X102743000Y-80644309D01*
X102751755Y-80665445D01*
X102730560Y-80772000D01*
X102730560Y-81788000D01*
X102751755Y-81894555D01*
X102743000Y-81915691D01*
X102743000Y-82264250D01*
X102901750Y-82423000D01*
X103315459Y-82423000D01*
X103378000Y-82435440D01*
X104902000Y-82435440D01*
X104964541Y-82423000D01*
X105378250Y-82423000D01*
X105505182Y-82296068D01*
X105806077Y-82236215D01*
X106141856Y-82011856D01*
X107597961Y-80555750D01*
X108875000Y-80555750D01*
X108875000Y-81396309D01*
X108971673Y-81629698D01*
X109150301Y-81808327D01*
X109383690Y-81905000D01*
X111474250Y-81905000D01*
X111633000Y-81746250D01*
X111633000Y-80397000D01*
X109033750Y-80397000D01*
X108875000Y-80555750D01*
X107597961Y-80555750D01*
X108875000Y-79278711D01*
X108875000Y-79984250D01*
X109033750Y-80143000D01*
X111633000Y-80143000D01*
X111633000Y-80123000D01*
X111887000Y-80123000D01*
X111887000Y-80143000D01*
X111907000Y-80143000D01*
X111907000Y-80397000D01*
X111887000Y-80397000D01*
X111887000Y-81746250D01*
X112045750Y-81905000D01*
X113665000Y-81905000D01*
X113665000Y-85735000D01*
X112045750Y-85735000D01*
X111887000Y-85893750D01*
X111887000Y-87243000D01*
X111907000Y-87243000D01*
X111907000Y-87497000D01*
X111887000Y-87497000D01*
X111887000Y-87517000D01*
X111633000Y-87517000D01*
X111633000Y-87497000D01*
X111613000Y-87497000D01*
X111613000Y-87243000D01*
X111633000Y-87243000D01*
X111633000Y-85893750D01*
X111474250Y-85735000D01*
X109383690Y-85735000D01*
X109150301Y-85831673D01*
X108985000Y-85996975D01*
X108985000Y-85090005D01*
X108985001Y-85090000D01*
X108906215Y-84693922D01*
X108718215Y-84412560D01*
X108681856Y-84358144D01*
X108681853Y-84358142D01*
X107411856Y-83088144D01*
X107076077Y-82863785D01*
X106680000Y-82784999D01*
X106679995Y-82785000D01*
X105486250Y-82785000D01*
X105378250Y-82677000D01*
X104964541Y-82677000D01*
X104902000Y-82664560D01*
X103378000Y-82664560D01*
X103315459Y-82677000D01*
X102901750Y-82677000D01*
X102743000Y-82835750D01*
X102743000Y-83184309D01*
X102751755Y-83205445D01*
X102730560Y-83312000D01*
X102730560Y-84328000D01*
X102751755Y-84434555D01*
X102743000Y-84455691D01*
X102743000Y-84804250D01*
X102901750Y-84963000D01*
X103315459Y-84963000D01*
X103378000Y-84975440D01*
X104902000Y-84975440D01*
X104964541Y-84963000D01*
X105378250Y-84963000D01*
X105486250Y-84855000D01*
X106251288Y-84855000D01*
X106915000Y-85518711D01*
X106915000Y-88899995D01*
X106914999Y-88900000D01*
X106993785Y-89296077D01*
X107218144Y-89631856D01*
X108488142Y-90901853D01*
X108488144Y-90901856D01*
X108689429Y-91036349D01*
X108823922Y-91126215D01*
X108904375Y-91142218D01*
X108911843Y-91179765D01*
X109052191Y-91389809D01*
X109136099Y-91445875D01*
X108971673Y-91610302D01*
X108875000Y-91843691D01*
X108875000Y-92684250D01*
X109033750Y-92843000D01*
X111633000Y-92843000D01*
X111633000Y-92823000D01*
X111887000Y-92823000D01*
X111887000Y-92843000D01*
X111907000Y-92843000D01*
X111907000Y-93097000D01*
X111887000Y-93097000D01*
X111887000Y-94446250D01*
X112045750Y-94605000D01*
X113665000Y-94605000D01*
X113665000Y-118745000D01*
X75907701Y-118745000D01*
X76909259Y-117745189D01*
X77494333Y-116336175D01*
X77495664Y-114810518D01*
X76913050Y-113400485D01*
X75835189Y-112320741D01*
X74426175Y-111735667D01*
X72900518Y-111734336D01*
X71490485Y-112316950D01*
X70410741Y-113394811D01*
X69825667Y-114803825D01*
X69824336Y-116329482D01*
X70406950Y-117739515D01*
X71410682Y-118745000D01*
X66675000Y-118745000D01*
X66675000Y-82550000D01*
X67065907Y-82550000D01*
X67178946Y-83118285D01*
X67500853Y-83600054D01*
X67830026Y-83820000D01*
X67500853Y-84039946D01*
X67178946Y-84521715D01*
X67065907Y-85090000D01*
X67178946Y-85658285D01*
X67500853Y-86140054D01*
X67830026Y-86360000D01*
X67500853Y-86579946D01*
X67178946Y-87061715D01*
X67065907Y-87630000D01*
X67178946Y-88198285D01*
X67500853Y-88680054D01*
X67982622Y-89001961D01*
X68550907Y-89115000D01*
X68609093Y-89115000D01*
X69177378Y-89001961D01*
X69659147Y-88680054D01*
X69981054Y-88198285D01*
X70094093Y-87630000D01*
X69981054Y-87061715D01*
X69659147Y-86579946D01*
X69329974Y-86360000D01*
X69659147Y-86140054D01*
X69981054Y-85658285D01*
X70094093Y-85090000D01*
X69981054Y-84521715D01*
X69659147Y-84039946D01*
X69329974Y-83820000D01*
X69659147Y-83600054D01*
X69981054Y-83118285D01*
X70094093Y-82550000D01*
X69981054Y-81981715D01*
X69659147Y-81499946D01*
X69318447Y-81272298D01*
X69461358Y-81205183D01*
X69851645Y-80776924D01*
X70021476Y-80366890D01*
X69900155Y-80137000D01*
X68707000Y-80137000D01*
X68707000Y-80157000D01*
X68453000Y-80157000D01*
X68453000Y-80137000D01*
X67259845Y-80137000D01*
X67138524Y-80366890D01*
X67308355Y-80776924D01*
X67698642Y-81205183D01*
X67841553Y-81272298D01*
X67500853Y-81499946D01*
X67178946Y-81981715D01*
X67065907Y-82550000D01*
X66675000Y-82550000D01*
X66675000Y-71755000D01*
X71412299Y-71755000D01*
X70410741Y-72754811D01*
X70410741Y-72754811D01*
G37*
X70410741Y-72754811D02*
X69988191Y-73772423D01*
X69887809Y-73622191D01*
X69677765Y-73481843D01*
X69430000Y-73432560D01*
X67730000Y-73432560D01*
X67482235Y-73481843D01*
X67272191Y-73622191D01*
X67131843Y-73832235D01*
X67082560Y-74080000D01*
X67082560Y-75780000D01*
X67131843Y-76027765D01*
X67272191Y-76237809D01*
X67482235Y-76378157D01*
X67544777Y-76390597D01*
X67500853Y-76419946D01*
X67178946Y-76901715D01*
X67065907Y-77470000D01*
X67178946Y-78038285D01*
X67500853Y-78520054D01*
X67841553Y-78747702D01*
X67698642Y-78814817D01*
X67308355Y-79243076D01*
X67138524Y-79653110D01*
X67259845Y-79883000D01*
X68453000Y-79883000D01*
X68453000Y-79863000D01*
X68707000Y-79863000D01*
X68707000Y-79883000D01*
X69900155Y-79883000D01*
X70021476Y-79653110D01*
X69851645Y-79243076D01*
X69461358Y-78814817D01*
X69318447Y-78747702D01*
X69659147Y-78520054D01*
X69981054Y-78038285D01*
X70094093Y-77470000D01*
X69981054Y-76901715D01*
X69659147Y-76419946D01*
X69615223Y-76390597D01*
X69677765Y-76378157D01*
X69887809Y-76237809D01*
X69988583Y-76086991D01*
X70406950Y-77099515D01*
X71484811Y-78179259D01*
X72228342Y-78488000D01*
X71628000Y-78488000D01*
X71337161Y-78545852D01*
X71090599Y-78710599D01*
X70328599Y-79472599D01*
X70163852Y-79719161D01*
X70106000Y-80010000D01*
X70106000Y-105156000D01*
X70163852Y-105446839D01*
X70328599Y-105693401D01*
X76424599Y-111789401D01*
X76671161Y-111954148D01*
X76962000Y-112012000D01*
X90874979Y-112012000D01*
X90837000Y-112103690D01*
X90837000Y-112744250D01*
X90995750Y-112903000D01*
X91845000Y-112903000D01*
X91845000Y-111753750D01*
X92099000Y-111753750D01*
X92099000Y-112903000D01*
X92948250Y-112903000D01*
X93107000Y-112744250D01*
X93107000Y-112103690D01*
X93010327Y-111870301D01*
X92831698Y-111691673D01*
X92598309Y-111595000D01*
X92257750Y-111595000D01*
X92099000Y-111753750D01*
X91845000Y-111753750D01*
X91802026Y-111710776D01*
X93585891Y-109926911D01*
X93569000Y-109967690D01*
X93569000Y-110458250D01*
X93727750Y-110617000D01*
X94427000Y-110617000D01*
X94427000Y-109617750D01*
X94268250Y-109459000D01*
X94077691Y-109459000D01*
X94036910Y-109475892D01*
X94263401Y-109249401D01*
X94428148Y-109002840D01*
X94448604Y-108900000D01*
X94486000Y-108712000D01*
X94486000Y-108258463D01*
X94518192Y-108226327D01*
X94628494Y-107960690D01*
X95401000Y-107960690D01*
X95401000Y-108426250D01*
X95559750Y-108585000D01*
X96409000Y-108585000D01*
X96409000Y-107610750D01*
X96250250Y-107452000D01*
X95909691Y-107452000D01*
X95676302Y-107548673D01*
X95497673Y-107727301D01*
X95401000Y-107960690D01*
X94628494Y-107960690D01*
X94660838Y-107882799D01*
X94661162Y-107510833D01*
X94519117Y-107167057D01*
X94256327Y-106903808D01*
X93944483Y-106774319D01*
X94517401Y-106201401D01*
X94682148Y-105954839D01*
X94740000Y-105664000D01*
X94740000Y-102252103D01*
X94809201Y-102280838D01*
X95181167Y-102281162D01*
X95524943Y-102139117D01*
X95558118Y-102106000D01*
X97137897Y-102106000D01*
X97109162Y-102175201D01*
X97108838Y-102547167D01*
X97250883Y-102890943D01*
X97513673Y-103154192D01*
X97857201Y-103296838D01*
X98229167Y-103297162D01*
X98572943Y-103155117D01*
X98606118Y-103122000D01*
X98745198Y-103122000D01*
X99186998Y-103563800D01*
X99186998Y-103687748D01*
X99028250Y-103529000D01*
X98562690Y-103529000D01*
X98329301Y-103625673D01*
X98150673Y-103804302D01*
X98054000Y-104037691D01*
X98054000Y-104378250D01*
X98212750Y-104537000D01*
X99187000Y-104537000D01*
X99187000Y-104517000D01*
X99441000Y-104517000D01*
X99441000Y-104537000D01*
X100415250Y-104537000D01*
X100457000Y-104495250D01*
X100498750Y-104537000D01*
X101473000Y-104537000D01*
X101473000Y-104517000D01*
X101727000Y-104517000D01*
X101727000Y-104537000D01*
X101747000Y-104537000D01*
X101747000Y-104791000D01*
X101727000Y-104791000D01*
X101727000Y-104811000D01*
X101473000Y-104811000D01*
X101473000Y-104791000D01*
X100498750Y-104791000D01*
X100457000Y-104832750D01*
X100415250Y-104791000D01*
X99441000Y-104791000D01*
X99441000Y-104811000D01*
X99187000Y-104811000D01*
X99187000Y-104791000D01*
X98212750Y-104791000D01*
X98054000Y-104949750D01*
X98054000Y-105290309D01*
X98150673Y-105523698D01*
X98292320Y-105665346D01*
X98231191Y-105706191D01*
X98090843Y-105916235D01*
X98041560Y-106164000D01*
X98041560Y-107164000D01*
X98090843Y-107411765D01*
X98109415Y-107439560D01*
X98036000Y-107439560D01*
X97788235Y-107488843D01*
X97578191Y-107629191D01*
X97537346Y-107690320D01*
X97395698Y-107548673D01*
X97162309Y-107452000D01*
X96821750Y-107452000D01*
X96663000Y-107610750D01*
X96663000Y-108585000D01*
X96683000Y-108585000D01*
X96683000Y-108839000D01*
X96663000Y-108839000D01*
X96663000Y-108859000D01*
X96409000Y-108859000D01*
X96409000Y-108839000D01*
X95559750Y-108839000D01*
X95401000Y-108997750D01*
X95401000Y-109463310D01*
X95497673Y-109696699D01*
X95562467Y-109761492D01*
X95505843Y-109846235D01*
X95500279Y-109874209D01*
X95442327Y-109734301D01*
X95263698Y-109555673D01*
X95030309Y-109459000D01*
X94839750Y-109459000D01*
X94681000Y-109617750D01*
X94681000Y-110617000D01*
X94701000Y-110617000D01*
X94701000Y-110871000D01*
X94681000Y-110871000D01*
X94681000Y-110891000D01*
X94427000Y-110891000D01*
X94427000Y-110871000D01*
X93727750Y-110871000D01*
X93569000Y-111029750D01*
X93569000Y-111520310D01*
X93665673Y-111753699D01*
X93844302Y-111932327D01*
X93893558Y-111952730D01*
X93873843Y-111982235D01*
X93824560Y-112230000D01*
X93824560Y-113794000D01*
X93780463Y-113794000D01*
X93748327Y-113761808D01*
X93404799Y-113619162D01*
X93107000Y-113618903D01*
X93107000Y-113315750D01*
X92948250Y-113157000D01*
X92099000Y-113157000D01*
X92099000Y-113177000D01*
X91845000Y-113177000D01*
X91845000Y-113157000D01*
X90995750Y-113157000D01*
X90837000Y-113315750D01*
X90837000Y-113794000D01*
X86928802Y-113794000D01*
X86025122Y-112890320D01*
X86025162Y-112844833D01*
X85883117Y-112501057D01*
X85620327Y-112237808D01*
X85276799Y-112095162D01*
X84904833Y-112094838D01*
X84561057Y-112236883D01*
X84297808Y-112499673D01*
X84155162Y-112843201D01*
X84154838Y-113215167D01*
X84296883Y-113558943D01*
X84559673Y-113822192D01*
X84903201Y-113964838D01*
X84950077Y-113964879D01*
X86076599Y-115091401D01*
X86323160Y-115256148D01*
X86371414Y-115265746D01*
X86614000Y-115314000D01*
X92655537Y-115314000D01*
X92687673Y-115346192D01*
X93031201Y-115488838D01*
X93403167Y-115489162D01*
X93746943Y-115347117D01*
X93780118Y-115314000D01*
X94742000Y-115314000D01*
X95032839Y-115256148D01*
X95279401Y-115091401D01*
X95509401Y-114861401D01*
X95646049Y-114656892D01*
X100158514Y-114656892D01*
X100404817Y-115181358D01*
X100833076Y-115571645D01*
X101243110Y-115741476D01*
X101473000Y-115620155D01*
X101473000Y-114427000D01*
X100279181Y-114427000D01*
X100158514Y-114656892D01*
X95646049Y-114656892D01*
X95674148Y-114614839D01*
X95710932Y-114429914D01*
X95719765Y-114428157D01*
X95929809Y-114287809D01*
X96070157Y-114077765D01*
X96119440Y-113830000D01*
X96119440Y-113790000D01*
X96266000Y-113790000D01*
X96556839Y-113732148D01*
X96803401Y-113567401D01*
X97408802Y-112962000D01*
X97682950Y-112962000D01*
X97698191Y-112984809D01*
X97871159Y-113100384D01*
X97870838Y-113469167D01*
X98012883Y-113812943D01*
X98275673Y-114076192D01*
X98619201Y-114218838D01*
X98991167Y-114219162D01*
X99334943Y-114077117D01*
X99368118Y-114044000D01*
X99568000Y-114044000D01*
X99858839Y-113986148D01*
X100105401Y-113821401D01*
X100313311Y-113613491D01*
X100158514Y-113943108D01*
X100279181Y-114173000D01*
X101473000Y-114173000D01*
X101473000Y-114153000D01*
X101727000Y-114153000D01*
X101727000Y-114173000D01*
X101747000Y-114173000D01*
X101747000Y-114427000D01*
X101727000Y-114427000D01*
X101727000Y-115620155D01*
X101956890Y-115741476D01*
X102366924Y-115571645D01*
X102671261Y-115294292D01*
X102691843Y-115397765D01*
X102832191Y-115607809D01*
X103042235Y-115748157D01*
X103290000Y-115797440D01*
X104990000Y-115797440D01*
X105237765Y-115748157D01*
X105447809Y-115607809D01*
X105588157Y-115397765D01*
X105630478Y-115185000D01*
X108030568Y-115185000D01*
X108140853Y-115350054D01*
X108622622Y-115671961D01*
X109190907Y-115785000D01*
X109249093Y-115785000D01*
X109817378Y-115671961D01*
X110299147Y-115350054D01*
X110621054Y-114868285D01*
X110621707Y-114865000D01*
X110767715Y-114865000D01*
X110862235Y-114928157D01*
X111110000Y-114977440D01*
X112410000Y-114977440D01*
X112657765Y-114928157D01*
X112867809Y-114787809D01*
X113008157Y-114577765D01*
X113057440Y-114330000D01*
X113057440Y-113630000D01*
X113008157Y-113382235D01*
X112867809Y-113172191D01*
X112657765Y-113031843D01*
X112648500Y-113030000D01*
X112657765Y-113028157D01*
X112867809Y-112887809D01*
X113008157Y-112677765D01*
X113057440Y-112430000D01*
X113057440Y-111730000D01*
X113008157Y-111482235D01*
X112867809Y-111272191D01*
X112657765Y-111131843D01*
X112410000Y-111082560D01*
X111110000Y-111082560D01*
X110862235Y-111131843D01*
X110860241Y-111133175D01*
X110848006Y-111125000D01*
X110717440Y-111037759D01*
X110717440Y-110910000D01*
X110668157Y-110662235D01*
X110553072Y-110490000D01*
X110668157Y-110317765D01*
X110717440Y-110070000D01*
X110717440Y-109785000D01*
X110767715Y-109785000D01*
X110862235Y-109848157D01*
X111110000Y-109897440D01*
X112410000Y-109897440D01*
X112657765Y-109848157D01*
X112867809Y-109707809D01*
X113008157Y-109497765D01*
X113057440Y-109250000D01*
X113057440Y-108550000D01*
X113008157Y-108302235D01*
X112867809Y-108092191D01*
X112657765Y-107951843D01*
X112648500Y-107950000D01*
X112657765Y-107948157D01*
X112867809Y-107807809D01*
X113008157Y-107597765D01*
X113057440Y-107350000D01*
X113057440Y-106650000D01*
X113008157Y-106402235D01*
X112867809Y-106192191D01*
X112657765Y-106051843D01*
X112410000Y-106002560D01*
X111110000Y-106002560D01*
X110862235Y-106051843D01*
X110767715Y-106115000D01*
X110621707Y-106115000D01*
X110621054Y-106111715D01*
X110299147Y-105629946D01*
X110255223Y-105600597D01*
X110317765Y-105588157D01*
X110527809Y-105447809D01*
X110668157Y-105237765D01*
X110717440Y-104990000D01*
X110717440Y-104671407D01*
X110862235Y-104768157D01*
X111110000Y-104817440D01*
X112410000Y-104817440D01*
X112657765Y-104768157D01*
X112867809Y-104627809D01*
X113008157Y-104417765D01*
X113057440Y-104170000D01*
X113057440Y-103470000D01*
X113008157Y-103222235D01*
X112867809Y-103012191D01*
X112657765Y-102871843D01*
X112648500Y-102870000D01*
X112657765Y-102868157D01*
X112867809Y-102727809D01*
X113008157Y-102517765D01*
X113057440Y-102270000D01*
X113057440Y-101570000D01*
X113008157Y-101322235D01*
X112867809Y-101112191D01*
X112657765Y-100971843D01*
X112410000Y-100922560D01*
X111110000Y-100922560D01*
X110862235Y-100971843D01*
X110652191Y-101112191D01*
X110640532Y-101129639D01*
X110621054Y-101031715D01*
X110299147Y-100549946D01*
X110255223Y-100520597D01*
X110317765Y-100508157D01*
X110527809Y-100367809D01*
X110668157Y-100157765D01*
X110717440Y-99910000D01*
X110717440Y-99591407D01*
X110862235Y-99688157D01*
X111110000Y-99737440D01*
X112410000Y-99737440D01*
X112657765Y-99688157D01*
X112867809Y-99547809D01*
X113008157Y-99337765D01*
X113057440Y-99090000D01*
X113057440Y-98390000D01*
X113008157Y-98142235D01*
X112867809Y-97932191D01*
X112657765Y-97791843D01*
X112648500Y-97790000D01*
X112657765Y-97788157D01*
X112867809Y-97647809D01*
X113008157Y-97437765D01*
X113057440Y-97190000D01*
X113057440Y-96490000D01*
X113008157Y-96242235D01*
X112867809Y-96032191D01*
X112657765Y-95891843D01*
X112410000Y-95842560D01*
X111110000Y-95842560D01*
X110862235Y-95891843D01*
X110652191Y-96032191D01*
X110640532Y-96049639D01*
X110621054Y-95951715D01*
X110299147Y-95469946D01*
X109980000Y-95256699D01*
X109980000Y-95250000D01*
X109922148Y-94959161D01*
X109757401Y-94712599D01*
X109649802Y-94605000D01*
X111474250Y-94605000D01*
X111633000Y-94446250D01*
X111633000Y-93097000D01*
X109033750Y-93097000D01*
X108875000Y-93255750D01*
X108875000Y-93830198D01*
X108471401Y-93426599D01*
X108224839Y-93261852D01*
X107934000Y-93204000D01*
X107386982Y-93204000D01*
X107254809Y-93006191D01*
X107193680Y-92965346D01*
X107335327Y-92823698D01*
X107432000Y-92590309D01*
X107432000Y-92249750D01*
X107273250Y-92091000D01*
X106299000Y-92091000D01*
X106299000Y-92111000D01*
X106045000Y-92111000D01*
X106045000Y-92091000D01*
X105070750Y-92091000D01*
X104912000Y-92249750D01*
X104912000Y-92590309D01*
X105008673Y-92823698D01*
X105150320Y-92965346D01*
X105089191Y-93006191D01*
X104957018Y-93204000D01*
X104940491Y-93204000D01*
X104924327Y-93187808D01*
X104580799Y-93045162D01*
X104208833Y-93044838D01*
X103865057Y-93186883D01*
X103601808Y-93449673D01*
X103459162Y-93793201D01*
X103458838Y-94165167D01*
X103580643Y-94459958D01*
X102366175Y-93955667D01*
X100840518Y-93954336D01*
X99430485Y-94536950D01*
X98350741Y-95614811D01*
X97765667Y-97023825D01*
X97764336Y-98549482D01*
X98290956Y-99824000D01*
X97605379Y-99824000D01*
X97812727Y-99393331D01*
X97690206Y-99187000D01*
X96647000Y-99187000D01*
X96647000Y-99207000D01*
X96393000Y-99207000D01*
X96393000Y-99187000D01*
X96373000Y-99187000D01*
X96373000Y-98933000D01*
X96393000Y-98933000D01*
X96393000Y-98913000D01*
X96647000Y-98913000D01*
X96647000Y-98933000D01*
X97690206Y-98933000D01*
X97812727Y-98726669D01*
X97586764Y-98257337D01*
X97198396Y-97910203D01*
X96925194Y-97797049D01*
X97275229Y-97652418D01*
X97651098Y-97277204D01*
X97854768Y-96786713D01*
X97855231Y-96255617D01*
X97707857Y-95898945D01*
X99199680Y-94407122D01*
X99245167Y-94407162D01*
X99588943Y-94265117D01*
X99852192Y-94002327D01*
X99994838Y-93658799D01*
X99995162Y-93286833D01*
X99853117Y-92943057D01*
X99744219Y-92833969D01*
X99822000Y-92849440D01*
X100838000Y-92849440D01*
X100965000Y-92824178D01*
X101092000Y-92849440D01*
X102108000Y-92849440D01*
X102214554Y-92828245D01*
X102235690Y-92837000D01*
X102584250Y-92837000D01*
X102743000Y-92678250D01*
X102743000Y-92264541D01*
X102755440Y-92202000D01*
X102755440Y-91567000D01*
X102997000Y-91567000D01*
X102997000Y-92678250D01*
X103155750Y-92837000D01*
X103504310Y-92837000D01*
X103737699Y-92740327D01*
X103916327Y-92561698D01*
X104013000Y-92328309D01*
X104013000Y-91725750D01*
X103854250Y-91567000D01*
X102997000Y-91567000D01*
X102755440Y-91567000D01*
X102755440Y-91337691D01*
X104912000Y-91337691D01*
X104912000Y-91678250D01*
X105070750Y-91837000D01*
X106045000Y-91837000D01*
X106045000Y-90987750D01*
X106299000Y-90987750D01*
X106299000Y-91837000D01*
X107273250Y-91837000D01*
X107432000Y-91678250D01*
X107432000Y-91337691D01*
X107335327Y-91104302D01*
X107156699Y-90925673D01*
X106923310Y-90829000D01*
X106457750Y-90829000D01*
X106299000Y-90987750D01*
X106045000Y-90987750D01*
X105886250Y-90829000D01*
X105420690Y-90829000D01*
X105187301Y-90925673D01*
X105008673Y-91104302D01*
X104912000Y-91337691D01*
X102755440Y-91337691D01*
X102755440Y-90678000D01*
X102743000Y-90615459D01*
X102743000Y-90201750D01*
X102997000Y-90201750D01*
X102997000Y-91313000D01*
X103854250Y-91313000D01*
X104013000Y-91154250D01*
X104013000Y-90551691D01*
X103916327Y-90318302D01*
X103737699Y-90139673D01*
X103504310Y-90043000D01*
X103155750Y-90043000D01*
X102997000Y-90201750D01*
X102743000Y-90201750D01*
X102584250Y-90043000D01*
X102235690Y-90043000D01*
X102214554Y-90051755D01*
X102108000Y-90030560D01*
X101092000Y-90030560D01*
X100965000Y-90055822D01*
X100838000Y-90030560D01*
X99822000Y-90030560D01*
X99695000Y-90055822D01*
X99568000Y-90030560D01*
X98552000Y-90030560D01*
X98425000Y-90055822D01*
X98298000Y-90030560D01*
X97282000Y-90030560D01*
X97175446Y-90051755D01*
X97154310Y-90043000D01*
X96805750Y-90043000D01*
X96647000Y-90201750D01*
X96647000Y-90615459D01*
X96634560Y-90678000D01*
X96634560Y-91587000D01*
X96405440Y-91587000D01*
X96405440Y-90678000D01*
X96393000Y-90615459D01*
X96393000Y-90201750D01*
X96234250Y-90043000D01*
X96010000Y-90043000D01*
X96010000Y-86645750D01*
X102743000Y-86645750D01*
X102743000Y-86994309D01*
X102839673Y-87227698D01*
X103018301Y-87406327D01*
X103251690Y-87503000D01*
X103854250Y-87503000D01*
X104013000Y-87344250D01*
X104013000Y-86487000D01*
X104267000Y-86487000D01*
X104267000Y-87344250D01*
X104425750Y-87503000D01*
X105028310Y-87503000D01*
X105261699Y-87406327D01*
X105440327Y-87227698D01*
X105537000Y-86994309D01*
X105537000Y-86645750D01*
X105378250Y-86487000D01*
X104267000Y-86487000D01*
X104013000Y-86487000D01*
X102901750Y-86487000D01*
X102743000Y-86645750D01*
X96010000Y-86645750D01*
X96010000Y-85375750D01*
X102743000Y-85375750D01*
X102743000Y-85724309D01*
X102743286Y-85725000D01*
X102743000Y-85725691D01*
X102743000Y-86074250D01*
X102901750Y-86233000D01*
X104013000Y-86233000D01*
X104013000Y-85217000D01*
X104267000Y-85217000D01*
X104267000Y-86233000D01*
X105378250Y-86233000D01*
X105537000Y-86074250D01*
X105537000Y-85725691D01*
X105536714Y-85725000D01*
X105537000Y-85724309D01*
X105537000Y-85375750D01*
X105378250Y-85217000D01*
X104267000Y-85217000D01*
X104013000Y-85217000D01*
X102901750Y-85217000D01*
X102743000Y-85375750D01*
X96010000Y-85375750D01*
X96010000Y-82296000D01*
X95952148Y-82005161D01*
X95952148Y-82005160D01*
X95787401Y-81758599D01*
X93470000Y-79441198D01*
X93470000Y-79025750D01*
X102743000Y-79025750D01*
X102743000Y-79374309D01*
X102743286Y-79375000D01*
X102743000Y-79375691D01*
X102743000Y-79724250D01*
X102901750Y-79883000D01*
X104013000Y-79883000D01*
X104013000Y-78867000D01*
X102901750Y-78867000D01*
X102743000Y-79025750D01*
X93470000Y-79025750D01*
X93470000Y-78105691D01*
X102743000Y-78105691D01*
X102743000Y-78454250D01*
X102901750Y-78613000D01*
X104013000Y-78613000D01*
X104013000Y-77755750D01*
X104267000Y-77755750D01*
X104267000Y-78613000D01*
X105378250Y-78613000D01*
X105537000Y-78454250D01*
X105537000Y-78105691D01*
X105440327Y-77872302D01*
X105261699Y-77693673D01*
X105028310Y-77597000D01*
X104425750Y-77597000D01*
X104267000Y-77755750D01*
X104013000Y-77755750D01*
X103854250Y-77597000D01*
X103251690Y-77597000D01*
X103018301Y-77693673D01*
X102839673Y-77872302D01*
X102743000Y-78105691D01*
X93470000Y-78105691D01*
X93470000Y-75492463D01*
X93502192Y-75460327D01*
X93644838Y-75116799D01*
X93644879Y-75069440D01*
X94488000Y-75069440D01*
X94615000Y-75044178D01*
X94742000Y-75069440D01*
X95758000Y-75069440D01*
X95885000Y-75044178D01*
X96012000Y-75069440D01*
X97028000Y-75069440D01*
X97155000Y-75044178D01*
X97282000Y-75069440D01*
X98298000Y-75069440D01*
X98425000Y-75044178D01*
X98552000Y-75069440D01*
X99568000Y-75069440D01*
X99695000Y-75044178D01*
X99822000Y-75069440D01*
X100838000Y-75069440D01*
X100965000Y-75044178D01*
X101092000Y-75069440D01*
X102108000Y-75069440D01*
X102214554Y-75048245D01*
X102235690Y-75057000D01*
X102584250Y-75057000D01*
X102743000Y-74898250D01*
X102743000Y-74484541D01*
X102755440Y-74422000D01*
X102755440Y-73787000D01*
X102997000Y-73787000D01*
X102997000Y-74898250D01*
X103155750Y-75057000D01*
X103504310Y-75057000D01*
X103737699Y-74960327D01*
X103916327Y-74781698D01*
X104013000Y-74548309D01*
X104013000Y-73945750D01*
X103854250Y-73787000D01*
X102997000Y-73787000D01*
X102755440Y-73787000D01*
X102755440Y-73543691D01*
X108875000Y-73543691D01*
X108875000Y-74384250D01*
X109033750Y-74543000D01*
X111633000Y-74543000D01*
X111633000Y-73193750D01*
X111474250Y-73035000D01*
X109383690Y-73035000D01*
X109150301Y-73131673D01*
X108971673Y-73310302D01*
X108875000Y-73543691D01*
X102755440Y-73543691D01*
X102755440Y-72898000D01*
X102743000Y-72835459D01*
X102743000Y-72421750D01*
X102997000Y-72421750D01*
X102997000Y-73533000D01*
X103854250Y-73533000D01*
X104013000Y-73374250D01*
X104013000Y-72771691D01*
X103916327Y-72538302D01*
X103737699Y-72359673D01*
X103504310Y-72263000D01*
X103155750Y-72263000D01*
X102997000Y-72421750D01*
X102743000Y-72421750D01*
X102584250Y-72263000D01*
X102235690Y-72263000D01*
X102214554Y-72271755D01*
X102108000Y-72250560D01*
X101092000Y-72250560D01*
X100965000Y-72275822D01*
X100838000Y-72250560D01*
X99822000Y-72250560D01*
X99695000Y-72275822D01*
X99568000Y-72250560D01*
X98552000Y-72250560D01*
X98425000Y-72275822D01*
X98298000Y-72250560D01*
X97282000Y-72250560D01*
X97155000Y-72275822D01*
X97028000Y-72250560D01*
X96012000Y-72250560D01*
X95885000Y-72275822D01*
X95758000Y-72250560D01*
X94742000Y-72250560D01*
X94615000Y-72275822D01*
X94488000Y-72250560D01*
X93472000Y-72250560D01*
X93345000Y-72275822D01*
X93218000Y-72250560D01*
X92202000Y-72250560D01*
X92095446Y-72271755D01*
X92074310Y-72263000D01*
X91725750Y-72263000D01*
X91567000Y-72421750D01*
X91567000Y-72835459D01*
X91554560Y-72898000D01*
X91554560Y-74422000D01*
X91567000Y-74484541D01*
X91567000Y-74898250D01*
X91725750Y-75057000D01*
X91774889Y-75057000D01*
X91774838Y-75115167D01*
X91916883Y-75458943D01*
X91950000Y-75492118D01*
X91950000Y-79756000D01*
X92007852Y-80046839D01*
X92172599Y-80293401D01*
X94490000Y-82610802D01*
X94490000Y-88902000D01*
X94294802Y-88902000D01*
X89691401Y-84298599D01*
X89444839Y-84133852D01*
X89154000Y-84076000D01*
X79308802Y-84076000D01*
X77243440Y-82010638D01*
X77243440Y-81758000D01*
X77194157Y-81510235D01*
X77077440Y-81335557D01*
X77077440Y-80516000D01*
X81788000Y-80516000D01*
X82078839Y-80458148D01*
X82325401Y-80293401D01*
X86897401Y-75721401D01*
X87062148Y-75474840D01*
X87120000Y-75184000D01*
X87120000Y-75057000D01*
X87344250Y-75057000D01*
X87503000Y-74898250D01*
X87503000Y-74484541D01*
X87515440Y-74422000D01*
X87515440Y-72898000D01*
X87744560Y-72898000D01*
X87744560Y-74422000D01*
X87757000Y-74484541D01*
X87757000Y-74898250D01*
X87915750Y-75057000D01*
X88264310Y-75057000D01*
X88285446Y-75048245D01*
X88392000Y-75069440D01*
X89408000Y-75069440D01*
X89535000Y-75044178D01*
X89662000Y-75069440D01*
X90678000Y-75069440D01*
X90784554Y-75048245D01*
X90805690Y-75057000D01*
X91154250Y-75057000D01*
X91313000Y-74898250D01*
X91313000Y-74484541D01*
X91325440Y-74422000D01*
X91325440Y-72898000D01*
X91313000Y-72835459D01*
X91313000Y-72421750D01*
X91154250Y-72263000D01*
X90805690Y-72263000D01*
X90784554Y-72271755D01*
X90678000Y-72250560D01*
X89662000Y-72250560D01*
X89535000Y-72275822D01*
X89408000Y-72250560D01*
X88392000Y-72250560D01*
X88285446Y-72271755D01*
X88264310Y-72263000D01*
X87915750Y-72263000D01*
X87757000Y-72421750D01*
X87757000Y-72835459D01*
X87744560Y-72898000D01*
X87515440Y-72898000D01*
X87503000Y-72835459D01*
X87503000Y-72421750D01*
X87344250Y-72263000D01*
X86995690Y-72263000D01*
X86974554Y-72271755D01*
X86868000Y-72250560D01*
X85852000Y-72250560D01*
X85725000Y-72275822D01*
X85598000Y-72250560D01*
X84582000Y-72250560D01*
X84455000Y-72275822D01*
X84328000Y-72250560D01*
X83312000Y-72250560D01*
X83185000Y-72275822D01*
X83058000Y-72250560D01*
X82042000Y-72250560D01*
X81915000Y-72275822D01*
X81788000Y-72250560D01*
X80772000Y-72250560D01*
X80645000Y-72275822D01*
X80518000Y-72250560D01*
X79502000Y-72250560D01*
X79395446Y-72271755D01*
X79374310Y-72263000D01*
X79025750Y-72263000D01*
X78867000Y-72421750D01*
X78867000Y-72835459D01*
X78854560Y-72898000D01*
X78854560Y-74422000D01*
X78867000Y-74484541D01*
X78867000Y-74898250D01*
X79025750Y-75057000D01*
X79374310Y-75057000D01*
X79395446Y-75048245D01*
X79502000Y-75069440D01*
X80518000Y-75069440D01*
X80645000Y-75044178D01*
X80772000Y-75069440D01*
X81788000Y-75069440D01*
X81915000Y-75044178D01*
X82042000Y-75069440D01*
X83058000Y-75069440D01*
X83185000Y-75044178D01*
X83312000Y-75069440D01*
X83875758Y-75069440D01*
X80457198Y-78488000D01*
X75091480Y-78488000D01*
X75829515Y-78183050D01*
X76909259Y-77105189D01*
X77494333Y-75696175D01*
X77495664Y-74170518D01*
X77402792Y-73945750D01*
X77597000Y-73945750D01*
X77597000Y-74548309D01*
X77693673Y-74781698D01*
X77872301Y-74960327D01*
X78105690Y-75057000D01*
X78454250Y-75057000D01*
X78613000Y-74898250D01*
X78613000Y-73787000D01*
X77755750Y-73787000D01*
X77597000Y-73945750D01*
X77402792Y-73945750D01*
X76917681Y-72771691D01*
X77597000Y-72771691D01*
X77597000Y-73374250D01*
X77755750Y-73533000D01*
X78613000Y-73533000D01*
X78613000Y-72421750D01*
X78454250Y-72263000D01*
X78105690Y-72263000D01*
X77872301Y-72359673D01*
X77693673Y-72538302D01*
X77597000Y-72771691D01*
X76917681Y-72771691D01*
X76913050Y-72760485D01*
X75909318Y-71755000D01*
X113665000Y-71755000D01*
X113665000Y-73035000D01*
X112045750Y-73035000D01*
X111887000Y-73193750D01*
X111887000Y-74543000D01*
X111907000Y-74543000D01*
X111907000Y-74797000D01*
X111887000Y-74797000D01*
X111887000Y-74817000D01*
X111633000Y-74817000D01*
X111633000Y-74797000D01*
X109033750Y-74797000D01*
X108875000Y-74955750D01*
X108875000Y-75796309D01*
X108971673Y-76029698D01*
X109136099Y-76194125D01*
X109052191Y-76250191D01*
X108911843Y-76460235D01*
X108904375Y-76497782D01*
X108823923Y-76513785D01*
X108488144Y-76738144D01*
X108488142Y-76738147D01*
X105537000Y-79689288D01*
X105537000Y-79375691D01*
X105536714Y-79375000D01*
X105537000Y-79374309D01*
X105537000Y-79025750D01*
X105378250Y-78867000D01*
X104267000Y-78867000D01*
X104267000Y-79883000D01*
X104287000Y-79883000D01*
X104287000Y-80124560D01*
X103378000Y-80124560D01*
X103315459Y-80137000D01*
X102901750Y-80137000D01*
X102743000Y-80295750D01*
X102743000Y-80644309D01*
X102751755Y-80665445D01*
X102730560Y-80772000D01*
X102730560Y-81788000D01*
X102751755Y-81894555D01*
X102743000Y-81915691D01*
X102743000Y-82264250D01*
X102901750Y-82423000D01*
X103315459Y-82423000D01*
X103378000Y-82435440D01*
X104902000Y-82435440D01*
X104964541Y-82423000D01*
X105378250Y-82423000D01*
X105505182Y-82296068D01*
X105806077Y-82236215D01*
X106141856Y-82011856D01*
X107597961Y-80555750D01*
X108875000Y-80555750D01*
X108875000Y-81396309D01*
X108971673Y-81629698D01*
X109150301Y-81808327D01*
X109383690Y-81905000D01*
X111474250Y-81905000D01*
X111633000Y-81746250D01*
X111633000Y-80397000D01*
X109033750Y-80397000D01*
X108875000Y-80555750D01*
X107597961Y-80555750D01*
X108875000Y-79278711D01*
X108875000Y-79984250D01*
X109033750Y-80143000D01*
X111633000Y-80143000D01*
X111633000Y-80123000D01*
X111887000Y-80123000D01*
X111887000Y-80143000D01*
X111907000Y-80143000D01*
X111907000Y-80397000D01*
X111887000Y-80397000D01*
X111887000Y-81746250D01*
X112045750Y-81905000D01*
X113665000Y-81905000D01*
X113665000Y-85735000D01*
X112045750Y-85735000D01*
X111887000Y-85893750D01*
X111887000Y-87243000D01*
X111907000Y-87243000D01*
X111907000Y-87497000D01*
X111887000Y-87497000D01*
X111887000Y-87517000D01*
X111633000Y-87517000D01*
X111633000Y-87497000D01*
X111613000Y-87497000D01*
X111613000Y-87243000D01*
X111633000Y-87243000D01*
X111633000Y-85893750D01*
X111474250Y-85735000D01*
X109383690Y-85735000D01*
X109150301Y-85831673D01*
X108985000Y-85996975D01*
X108985000Y-85090005D01*
X108985001Y-85090000D01*
X108906215Y-84693922D01*
X108718215Y-84412560D01*
X108681856Y-84358144D01*
X108681853Y-84358142D01*
X107411856Y-83088144D01*
X107076077Y-82863785D01*
X106680000Y-82784999D01*
X106679995Y-82785000D01*
X105486250Y-82785000D01*
X105378250Y-82677000D01*
X104964541Y-82677000D01*
X104902000Y-82664560D01*
X103378000Y-82664560D01*
X103315459Y-82677000D01*
X102901750Y-82677000D01*
X102743000Y-82835750D01*
X102743000Y-83184309D01*
X102751755Y-83205445D01*
X102730560Y-83312000D01*
X102730560Y-84328000D01*
X102751755Y-84434555D01*
X102743000Y-84455691D01*
X102743000Y-84804250D01*
X102901750Y-84963000D01*
X103315459Y-84963000D01*
X103378000Y-84975440D01*
X104902000Y-84975440D01*
X104964541Y-84963000D01*
X105378250Y-84963000D01*
X105486250Y-84855000D01*
X106251288Y-84855000D01*
X106915000Y-85518711D01*
X106915000Y-88899995D01*
X106914999Y-88900000D01*
X106993785Y-89296077D01*
X107218144Y-89631856D01*
X108488142Y-90901853D01*
X108488144Y-90901856D01*
X108689429Y-91036349D01*
X108823922Y-91126215D01*
X108904375Y-91142218D01*
X108911843Y-91179765D01*
X109052191Y-91389809D01*
X109136099Y-91445875D01*
X108971673Y-91610302D01*
X108875000Y-91843691D01*
X108875000Y-92684250D01*
X109033750Y-92843000D01*
X111633000Y-92843000D01*
X111633000Y-92823000D01*
X111887000Y-92823000D01*
X111887000Y-92843000D01*
X111907000Y-92843000D01*
X111907000Y-93097000D01*
X111887000Y-93097000D01*
X111887000Y-94446250D01*
X112045750Y-94605000D01*
X113665000Y-94605000D01*
X113665000Y-118745000D01*
X75907701Y-118745000D01*
X76909259Y-117745189D01*
X77494333Y-116336175D01*
X77495664Y-114810518D01*
X76913050Y-113400485D01*
X75835189Y-112320741D01*
X74426175Y-111735667D01*
X72900518Y-111734336D01*
X71490485Y-112316950D01*
X70410741Y-113394811D01*
X69825667Y-114803825D01*
X69824336Y-116329482D01*
X70406950Y-117739515D01*
X71410682Y-118745000D01*
X66675000Y-118745000D01*
X66675000Y-82550000D01*
X67065907Y-82550000D01*
X67178946Y-83118285D01*
X67500853Y-83600054D01*
X67830026Y-83820000D01*
X67500853Y-84039946D01*
X67178946Y-84521715D01*
X67065907Y-85090000D01*
X67178946Y-85658285D01*
X67500853Y-86140054D01*
X67830026Y-86360000D01*
X67500853Y-86579946D01*
X67178946Y-87061715D01*
X67065907Y-87630000D01*
X67178946Y-88198285D01*
X67500853Y-88680054D01*
X67982622Y-89001961D01*
X68550907Y-89115000D01*
X68609093Y-89115000D01*
X69177378Y-89001961D01*
X69659147Y-88680054D01*
X69981054Y-88198285D01*
X70094093Y-87630000D01*
X69981054Y-87061715D01*
X69659147Y-86579946D01*
X69329974Y-86360000D01*
X69659147Y-86140054D01*
X69981054Y-85658285D01*
X70094093Y-85090000D01*
X69981054Y-84521715D01*
X69659147Y-84039946D01*
X69329974Y-83820000D01*
X69659147Y-83600054D01*
X69981054Y-83118285D01*
X70094093Y-82550000D01*
X69981054Y-81981715D01*
X69659147Y-81499946D01*
X69318447Y-81272298D01*
X69461358Y-81205183D01*
X69851645Y-80776924D01*
X70021476Y-80366890D01*
X69900155Y-80137000D01*
X68707000Y-80137000D01*
X68707000Y-80157000D01*
X68453000Y-80157000D01*
X68453000Y-80137000D01*
X67259845Y-80137000D01*
X67138524Y-80366890D01*
X67308355Y-80776924D01*
X67698642Y-81205183D01*
X67841553Y-81272298D01*
X67500853Y-81499946D01*
X67178946Y-81981715D01*
X67065907Y-82550000D01*
X66675000Y-82550000D01*
X66675000Y-71755000D01*
X71412299Y-71755000D01*
X70410741Y-72754811D01*
G36*
X107722560Y-110070000D02*
X107771843Y-110317765D01*
X107886928Y-110490000D01*
X107771843Y-110662235D01*
X107729522Y-110875000D01*
X107442000Y-110875000D01*
X107103325Y-110942367D01*
X106816210Y-111134210D01*
X106816208Y-111134213D01*
X106633421Y-111317000D01*
X102300871Y-111317000D01*
X102243765Y-111278843D01*
X102108815Y-111252000D01*
X102243765Y-111225157D01*
X102393659Y-111125000D01*
X102472250Y-111125000D01*
X102631000Y-110966250D01*
X102631000Y-110800690D01*
X102616064Y-110764631D01*
X102643440Y-110627000D01*
X102643440Y-109977000D01*
X102594157Y-109729235D01*
X102453809Y-109519191D01*
X102284408Y-109406000D01*
X102544950Y-109406000D01*
X102560191Y-109428809D01*
X102770235Y-109569157D01*
X103018000Y-109618440D01*
X104078000Y-109618440D01*
X104325765Y-109569157D01*
X104535809Y-109428809D01*
X104648000Y-109260905D01*
X104760191Y-109428809D01*
X104970235Y-109569157D01*
X105218000Y-109618440D01*
X106278000Y-109618440D01*
X106525765Y-109569157D01*
X106582871Y-109531000D01*
X106745995Y-109531000D01*
X106746000Y-109531001D01*
X107042611Y-109472000D01*
X107084675Y-109463633D01*
X107371790Y-109271790D01*
X107722560Y-108921019D01*
X107722560Y-110070000D01*
X107722560Y-110070000D01*
G37*
X107722560Y-110070000D02*
X107771843Y-110317765D01*
X107886928Y-110490000D01*
X107771843Y-110662235D01*
X107729522Y-110875000D01*
X107442000Y-110875000D01*
X107103325Y-110942367D01*
X106816210Y-111134210D01*
X106816208Y-111134213D01*
X106633421Y-111317000D01*
X102300871Y-111317000D01*
X102243765Y-111278843D01*
X102108815Y-111252000D01*
X102243765Y-111225157D01*
X102393659Y-111125000D01*
X102472250Y-111125000D01*
X102631000Y-110966250D01*
X102631000Y-110800690D01*
X102616064Y-110764631D01*
X102643440Y-110627000D01*
X102643440Y-109977000D01*
X102594157Y-109729235D01*
X102453809Y-109519191D01*
X102284408Y-109406000D01*
X102544950Y-109406000D01*
X102560191Y-109428809D01*
X102770235Y-109569157D01*
X103018000Y-109618440D01*
X104078000Y-109618440D01*
X104325765Y-109569157D01*
X104535809Y-109428809D01*
X104648000Y-109260905D01*
X104760191Y-109428809D01*
X104970235Y-109569157D01*
X105218000Y-109618440D01*
X106278000Y-109618440D01*
X106525765Y-109569157D01*
X106582871Y-109531000D01*
X106745995Y-109531000D01*
X106746000Y-109531001D01*
X107042611Y-109472000D01*
X107084675Y-109463633D01*
X107371790Y-109271790D01*
X107722560Y-108921019D01*
X107722560Y-110070000D01*
G36*
X104741750Y-107569000D02*
X104820341Y-107569000D01*
X104970235Y-107669157D01*
X105105185Y-107696000D01*
X104970235Y-107722843D01*
X104820341Y-107823000D01*
X104741750Y-107823000D01*
X104602199Y-107962551D01*
X104535809Y-107863191D01*
X104325765Y-107722843D01*
X104190815Y-107696000D01*
X104325765Y-107669157D01*
X104535809Y-107528809D01*
X104602199Y-107429449D01*
X104741750Y-107569000D01*
X104741750Y-107569000D01*
G37*
X104741750Y-107569000D02*
X104820341Y-107569000D01*
X104970235Y-107669157D01*
X105105185Y-107696000D01*
X104970235Y-107722843D01*
X104820341Y-107823000D01*
X104741750Y-107823000D01*
X104602199Y-107962551D01*
X104535809Y-107863191D01*
X104325765Y-107722843D01*
X104190815Y-107696000D01*
X104325765Y-107669157D01*
X104535809Y-107528809D01*
X104602199Y-107429449D01*
X104741750Y-107569000D01*
G36*
X90758878Y-98164680D02*
X90758838Y-98210167D01*
X90900883Y-98553943D01*
X91163673Y-98817192D01*
X91507201Y-98959838D01*
X91879167Y-98960162D01*
X92179534Y-98836053D01*
X92179673Y-98836192D01*
X92523201Y-98978838D01*
X92890826Y-98979158D01*
X92924383Y-99060371D01*
X92791162Y-99381201D01*
X92791121Y-99428077D01*
X91918599Y-100300599D01*
X91753852Y-100547161D01*
X91696000Y-100838000D01*
X91696000Y-104333198D01*
X88749000Y-107280198D01*
X88749000Y-107219750D01*
X88590250Y-107061000D01*
X87741000Y-107061000D01*
X87741000Y-107081000D01*
X87487000Y-107081000D01*
X87487000Y-107061000D01*
X87467000Y-107061000D01*
X87467000Y-106807000D01*
X87487000Y-106807000D01*
X87487000Y-106787000D01*
X87741000Y-106787000D01*
X87741000Y-106807000D01*
X88590250Y-106807000D01*
X88749000Y-106648250D01*
X88749000Y-106197000D01*
X89086310Y-106197000D01*
X89319699Y-106100327D01*
X89498327Y-105921698D01*
X89595000Y-105688309D01*
X89595000Y-104447750D01*
X89436250Y-104289000D01*
X87887000Y-104289000D01*
X87887000Y-104309000D01*
X87633000Y-104309000D01*
X87633000Y-104289000D01*
X87613000Y-104289000D01*
X87613000Y-104035000D01*
X87633000Y-104035000D01*
X87633000Y-104015000D01*
X87887000Y-104015000D01*
X87887000Y-104035000D01*
X89436250Y-104035000D01*
X89595000Y-103876250D01*
X89595000Y-102635691D01*
X89498327Y-102402302D01*
X89457073Y-102361047D01*
X89558157Y-102209765D01*
X89607440Y-101962000D01*
X89607440Y-99162000D01*
X89558157Y-98914235D01*
X89417809Y-98704191D01*
X89207765Y-98563843D01*
X88960000Y-98514560D01*
X88741636Y-98514560D01*
X88761440Y-98415000D01*
X88761440Y-97165000D01*
X88712157Y-96917235D01*
X88615113Y-96772000D01*
X89366198Y-96772000D01*
X90758878Y-98164680D01*
X90758878Y-98164680D01*
G37*
X90758878Y-98164680D02*
X90758838Y-98210167D01*
X90900883Y-98553943D01*
X91163673Y-98817192D01*
X91507201Y-98959838D01*
X91879167Y-98960162D01*
X92179534Y-98836053D01*
X92179673Y-98836192D01*
X92523201Y-98978838D01*
X92890826Y-98979158D01*
X92924383Y-99060371D01*
X92791162Y-99381201D01*
X92791121Y-99428077D01*
X91918599Y-100300599D01*
X91753852Y-100547161D01*
X91696000Y-100838000D01*
X91696000Y-104333198D01*
X88749000Y-107280198D01*
X88749000Y-107219750D01*
X88590250Y-107061000D01*
X87741000Y-107061000D01*
X87741000Y-107081000D01*
X87487000Y-107081000D01*
X87487000Y-107061000D01*
X87467000Y-107061000D01*
X87467000Y-106807000D01*
X87487000Y-106807000D01*
X87487000Y-106787000D01*
X87741000Y-106787000D01*
X87741000Y-106807000D01*
X88590250Y-106807000D01*
X88749000Y-106648250D01*
X88749000Y-106197000D01*
X89086310Y-106197000D01*
X89319699Y-106100327D01*
X89498327Y-105921698D01*
X89595000Y-105688309D01*
X89595000Y-104447750D01*
X89436250Y-104289000D01*
X87887000Y-104289000D01*
X87887000Y-104309000D01*
X87633000Y-104309000D01*
X87633000Y-104289000D01*
X87613000Y-104289000D01*
X87613000Y-104035000D01*
X87633000Y-104035000D01*
X87633000Y-104015000D01*
X87887000Y-104015000D01*
X87887000Y-104035000D01*
X89436250Y-104035000D01*
X89595000Y-103876250D01*
X89595000Y-102635691D01*
X89498327Y-102402302D01*
X89457073Y-102361047D01*
X89558157Y-102209765D01*
X89607440Y-101962000D01*
X89607440Y-99162000D01*
X89558157Y-98914235D01*
X89417809Y-98704191D01*
X89207765Y-98563843D01*
X88960000Y-98514560D01*
X88741636Y-98514560D01*
X88761440Y-98415000D01*
X88761440Y-97165000D01*
X88712157Y-96917235D01*
X88615113Y-96772000D01*
X89366198Y-96772000D01*
X90758878Y-98164680D01*
G36*
X79375000Y-104791000D02*
X80349250Y-104791000D01*
X80367049Y-104773201D01*
X80503161Y-104864148D01*
X80794000Y-104922000D01*
X83112560Y-104922000D01*
X83112560Y-105562000D01*
X83161843Y-105809765D01*
X83302191Y-106019809D01*
X83512235Y-106160157D01*
X83760000Y-106209440D01*
X84486364Y-106209440D01*
X84466560Y-106309000D01*
X84466560Y-106592602D01*
X84260799Y-106507162D01*
X83888833Y-106506838D01*
X83545057Y-106648883D01*
X83511882Y-106682000D01*
X82350463Y-106682000D01*
X82318327Y-106649808D01*
X81974799Y-106507162D01*
X81602833Y-106506838D01*
X81532000Y-106536106D01*
X81532000Y-106480463D01*
X81564192Y-106448327D01*
X81706838Y-106104799D01*
X81707162Y-105732833D01*
X81565117Y-105389057D01*
X81302327Y-105125808D01*
X80958799Y-104983162D01*
X80586833Y-104982838D01*
X80374728Y-105070478D01*
X80349250Y-105045000D01*
X79375000Y-105045000D01*
X79375000Y-105065000D01*
X79121000Y-105065000D01*
X79121000Y-105045000D01*
X79101000Y-105045000D01*
X79101000Y-104791000D01*
X79121000Y-104791000D01*
X79121000Y-104771000D01*
X79375000Y-104771000D01*
X79375000Y-104791000D01*
X79375000Y-104791000D01*
G37*
X79375000Y-104791000D02*
X80349250Y-104791000D01*
X80367049Y-104773201D01*
X80503161Y-104864148D01*
X80794000Y-104922000D01*
X83112560Y-104922000D01*
X83112560Y-105562000D01*
X83161843Y-105809765D01*
X83302191Y-106019809D01*
X83512235Y-106160157D01*
X83760000Y-106209440D01*
X84486364Y-106209440D01*
X84466560Y-106309000D01*
X84466560Y-106592602D01*
X84260799Y-106507162D01*
X83888833Y-106506838D01*
X83545057Y-106648883D01*
X83511882Y-106682000D01*
X82350463Y-106682000D01*
X82318327Y-106649808D01*
X81974799Y-106507162D01*
X81602833Y-106506838D01*
X81532000Y-106536106D01*
X81532000Y-106480463D01*
X81564192Y-106448327D01*
X81706838Y-106104799D01*
X81707162Y-105732833D01*
X81565117Y-105389057D01*
X81302327Y-105125808D01*
X80958799Y-104983162D01*
X80586833Y-104982838D01*
X80374728Y-105070478D01*
X80349250Y-105045000D01*
X79375000Y-105045000D01*
X79375000Y-105065000D01*
X79121000Y-105065000D01*
X79121000Y-105045000D01*
X79101000Y-105045000D01*
X79101000Y-104791000D01*
X79121000Y-104791000D01*
X79121000Y-104771000D01*
X79375000Y-104771000D01*
X79375000Y-104791000D01*
G36*
X106807000Y-101473000D02*
X106827000Y-101473000D01*
X106827000Y-101727000D01*
X106807000Y-101727000D01*
X106807000Y-102920819D01*
X107036892Y-103041486D01*
X107190000Y-102969582D01*
X107190000Y-103430126D01*
X107151160Y-103437852D01*
X106904599Y-103602599D01*
X106873198Y-103634000D01*
X106514587Y-103634000D01*
X106492157Y-103521235D01*
X106351809Y-103311191D01*
X106141765Y-103170843D01*
X105894000Y-103121560D01*
X104894000Y-103121560D01*
X104646235Y-103170843D01*
X104436191Y-103311191D01*
X104395346Y-103372320D01*
X104253698Y-103230673D01*
X104020309Y-103134000D01*
X103679750Y-103134000D01*
X103521000Y-103292750D01*
X103521000Y-104267000D01*
X103541000Y-104267000D01*
X103541000Y-104521000D01*
X103521000Y-104521000D01*
X103521000Y-104541000D01*
X103267000Y-104541000D01*
X103267000Y-104521000D01*
X103247000Y-104521000D01*
X103247000Y-104267000D01*
X103267000Y-104267000D01*
X103267000Y-103292750D01*
X103108250Y-103134000D01*
X102767691Y-103134000D01*
X102534302Y-103230673D01*
X102355673Y-103409301D01*
X102306092Y-103529000D01*
X102190233Y-103529000D01*
X102280838Y-103310799D01*
X102281162Y-102938833D01*
X102251894Y-102868000D01*
X103632000Y-102868000D01*
X103922839Y-102810148D01*
X104169401Y-102645401D01*
X105195000Y-101619802D01*
X105195000Y-101727002D01*
X105359844Y-101727002D01*
X105238524Y-101956890D01*
X105408355Y-102366924D01*
X105798642Y-102795183D01*
X106323108Y-103041486D01*
X106553000Y-102920819D01*
X106553000Y-101727000D01*
X106533000Y-101727000D01*
X106533000Y-101473000D01*
X106553000Y-101473000D01*
X106553000Y-101453000D01*
X106807000Y-101453000D01*
X106807000Y-101473000D01*
X106807000Y-101473000D01*
G37*
X106807000Y-101473000D02*
X106827000Y-101473000D01*
X106827000Y-101727000D01*
X106807000Y-101727000D01*
X106807000Y-102920819D01*
X107036892Y-103041486D01*
X107190000Y-102969582D01*
X107190000Y-103430126D01*
X107151160Y-103437852D01*
X106904599Y-103602599D01*
X106873198Y-103634000D01*
X106514587Y-103634000D01*
X106492157Y-103521235D01*
X106351809Y-103311191D01*
X106141765Y-103170843D01*
X105894000Y-103121560D01*
X104894000Y-103121560D01*
X104646235Y-103170843D01*
X104436191Y-103311191D01*
X104395346Y-103372320D01*
X104253698Y-103230673D01*
X104020309Y-103134000D01*
X103679750Y-103134000D01*
X103521000Y-103292750D01*
X103521000Y-104267000D01*
X103541000Y-104267000D01*
X103541000Y-104521000D01*
X103521000Y-104521000D01*
X103521000Y-104541000D01*
X103267000Y-104541000D01*
X103267000Y-104521000D01*
X103247000Y-104521000D01*
X103247000Y-104267000D01*
X103267000Y-104267000D01*
X103267000Y-103292750D01*
X103108250Y-103134000D01*
X102767691Y-103134000D01*
X102534302Y-103230673D01*
X102355673Y-103409301D01*
X102306092Y-103529000D01*
X102190233Y-103529000D01*
X102280838Y-103310799D01*
X102281162Y-102938833D01*
X102251894Y-102868000D01*
X103632000Y-102868000D01*
X103922839Y-102810148D01*
X104169401Y-102645401D01*
X105195000Y-101619802D01*
X105195000Y-101727002D01*
X105359844Y-101727002D01*
X105238524Y-101956890D01*
X105408355Y-102366924D01*
X105798642Y-102795183D01*
X106323108Y-103041486D01*
X106553000Y-102920819D01*
X106553000Y-101727000D01*
X106533000Y-101727000D01*
X106533000Y-101473000D01*
X106553000Y-101473000D01*
X106553000Y-101453000D01*
X106807000Y-101453000D01*
X106807000Y-101473000D01*
G36*
X89410000Y-88198802D02*
X89410000Y-90030958D01*
X89408000Y-90030560D01*
X88392000Y-90030560D01*
X88265000Y-90055822D01*
X88138000Y-90030560D01*
X87122000Y-90030560D01*
X87015446Y-90051755D01*
X86994310Y-90043000D01*
X86645750Y-90043000D01*
X86487000Y-90201750D01*
X86487000Y-90615459D01*
X86474560Y-90678000D01*
X86474560Y-91587000D01*
X86245440Y-91587000D01*
X86245440Y-90678000D01*
X86233000Y-90615459D01*
X86233000Y-90201750D01*
X86074250Y-90043000D01*
X85725690Y-90043000D01*
X85704554Y-90051755D01*
X85598000Y-90030560D01*
X84582000Y-90030560D01*
X84455000Y-90055822D01*
X84328000Y-90030560D01*
X83312000Y-90030560D01*
X83185000Y-90055822D01*
X83058000Y-90030560D01*
X82042000Y-90030560D01*
X81915000Y-90055822D01*
X81788000Y-90030560D01*
X80772000Y-90030560D01*
X80645000Y-90055822D01*
X80518000Y-90030560D01*
X79502000Y-90030560D01*
X79395446Y-90051755D01*
X79374310Y-90043000D01*
X79025750Y-90043000D01*
X78867000Y-90201750D01*
X78867000Y-90615459D01*
X78854560Y-90678000D01*
X78854560Y-91587000D01*
X78613000Y-91587000D01*
X78613000Y-91567000D01*
X77755750Y-91567000D01*
X77705776Y-91616974D01*
X76991401Y-90902599D01*
X76744839Y-90737852D01*
X76454000Y-90680000D01*
X74730463Y-90680000D01*
X74698327Y-90647808D01*
X74466853Y-90551691D01*
X77597000Y-90551691D01*
X77597000Y-91154250D01*
X77755750Y-91313000D01*
X78613000Y-91313000D01*
X78613000Y-90201750D01*
X78454250Y-90043000D01*
X78105690Y-90043000D01*
X77872301Y-90139673D01*
X77693673Y-90318302D01*
X77597000Y-90551691D01*
X74466853Y-90551691D01*
X74354799Y-90505162D01*
X73982833Y-90504838D01*
X73639057Y-90646883D01*
X73375808Y-90909673D01*
X73233162Y-91253201D01*
X73232838Y-91625167D01*
X73374883Y-91968943D01*
X73637673Y-92232192D01*
X73981201Y-92374838D01*
X74056741Y-92374904D01*
X73995162Y-92523201D01*
X73994838Y-92895167D01*
X74136883Y-93238943D01*
X74170000Y-93272118D01*
X74170000Y-93726000D01*
X74227852Y-94016839D01*
X74392599Y-94263401D01*
X79218599Y-99089401D01*
X79465160Y-99254148D01*
X79513414Y-99263746D01*
X79756000Y-99312000D01*
X82804000Y-99312000D01*
X83094839Y-99254148D01*
X83125000Y-99233995D01*
X83125000Y-100276250D01*
X83283750Y-100435000D01*
X84833000Y-100435000D01*
X84833000Y-100415000D01*
X85087000Y-100415000D01*
X85087000Y-100435000D01*
X85107000Y-100435000D01*
X85107000Y-100689000D01*
X85087000Y-100689000D01*
X85087000Y-100709000D01*
X84833000Y-100709000D01*
X84833000Y-100689000D01*
X83283750Y-100689000D01*
X83125000Y-100847750D01*
X83125000Y-101602000D01*
X82356802Y-101602000D01*
X82325401Y-101570599D01*
X82078839Y-101405852D01*
X81788000Y-101348000D01*
X80318463Y-101348000D01*
X80286327Y-101315808D01*
X79942799Y-101173162D01*
X79570833Y-101172838D01*
X79227057Y-101314883D01*
X78963808Y-101577673D01*
X78821162Y-101921201D01*
X78820838Y-102293167D01*
X78954383Y-102616371D01*
X78821162Y-102937201D01*
X78820838Y-103309167D01*
X78962883Y-103652943D01*
X79120998Y-103811334D01*
X79120998Y-103941748D01*
X78962250Y-103783000D01*
X78496690Y-103783000D01*
X78263301Y-103879673D01*
X78230000Y-103912974D01*
X78230000Y-103886000D01*
X78172148Y-103595161D01*
X78007401Y-103348599D01*
X77047062Y-102388260D01*
X77065945Y-102360000D01*
X77216000Y-102360000D01*
X77506839Y-102302148D01*
X77753401Y-102137401D01*
X78261401Y-101629401D01*
X78335060Y-101519162D01*
X78426148Y-101382839D01*
X78484000Y-101092000D01*
X78484000Y-100384463D01*
X78516192Y-100352327D01*
X78658838Y-100008799D01*
X78659162Y-99636833D01*
X78517117Y-99293057D01*
X78254327Y-99029808D01*
X77910799Y-98887162D01*
X77538833Y-98886838D01*
X77195057Y-99028883D01*
X77127000Y-99096821D01*
X77127000Y-98861750D01*
X76968250Y-98703000D01*
X75819000Y-98703000D01*
X75819000Y-99552250D01*
X75977750Y-99711000D01*
X76618310Y-99711000D01*
X76789158Y-99640233D01*
X76788838Y-100007167D01*
X76930883Y-100350943D01*
X76964000Y-100384118D01*
X76964000Y-100639429D01*
X76949809Y-100618191D01*
X76739765Y-100477843D01*
X76492000Y-100428560D01*
X74892000Y-100428560D01*
X74644235Y-100477843D01*
X74434191Y-100618191D01*
X74293843Y-100828235D01*
X74244560Y-101076000D01*
X74244560Y-101617758D01*
X72642000Y-100015198D01*
X72642000Y-98861750D01*
X74257000Y-98861750D01*
X74257000Y-99202309D01*
X74353673Y-99435698D01*
X74532301Y-99614327D01*
X74765690Y-99711000D01*
X75406250Y-99711000D01*
X75565000Y-99552250D01*
X75565000Y-98703000D01*
X74415750Y-98703000D01*
X74257000Y-98861750D01*
X72642000Y-98861750D01*
X72642000Y-97949691D01*
X74257000Y-97949691D01*
X74257000Y-98290250D01*
X74415750Y-98449000D01*
X75565000Y-98449000D01*
X75565000Y-97599750D01*
X75819000Y-97599750D01*
X75819000Y-98449000D01*
X76968250Y-98449000D01*
X77127000Y-98290250D01*
X77127000Y-97949691D01*
X77030327Y-97716302D01*
X76851699Y-97537673D01*
X76618310Y-97441000D01*
X75977750Y-97441000D01*
X75819000Y-97599750D01*
X75565000Y-97599750D01*
X75406250Y-97441000D01*
X74765690Y-97441000D01*
X74532301Y-97537673D01*
X74353673Y-97716302D01*
X74257000Y-97949691D01*
X72642000Y-97949691D01*
X72642000Y-87817694D01*
X72725673Y-88019698D01*
X72904301Y-88198327D01*
X73137690Y-88295000D01*
X73628250Y-88295000D01*
X73787000Y-88136250D01*
X73787000Y-87437000D01*
X74041000Y-87437000D01*
X74041000Y-88136250D01*
X74199750Y-88295000D01*
X74690310Y-88295000D01*
X74923699Y-88198327D01*
X74930000Y-88192026D01*
X74936301Y-88198327D01*
X75169690Y-88295000D01*
X75660250Y-88295000D01*
X75819000Y-88136250D01*
X75819000Y-87437000D01*
X76073000Y-87437000D01*
X76073000Y-88136250D01*
X76231750Y-88295000D01*
X76722310Y-88295000D01*
X76955699Y-88198327D01*
X77134327Y-88019698D01*
X77231000Y-87786309D01*
X77231000Y-87595750D01*
X77072250Y-87437000D01*
X76073000Y-87437000D01*
X75819000Y-87437000D01*
X74041000Y-87437000D01*
X73787000Y-87437000D01*
X73767000Y-87437000D01*
X73767000Y-87183000D01*
X73787000Y-87183000D01*
X73787000Y-87163000D01*
X74041000Y-87163000D01*
X74041000Y-87183000D01*
X75819000Y-87183000D01*
X75819000Y-87163000D01*
X76073000Y-87163000D01*
X76073000Y-87183000D01*
X77072250Y-87183000D01*
X77135250Y-87120000D01*
X88331198Y-87120000D01*
X89410000Y-88198802D01*
X89410000Y-88198802D01*
G37*
X89410000Y-88198802D02*
X89410000Y-90030958D01*
X89408000Y-90030560D01*
X88392000Y-90030560D01*
X88265000Y-90055822D01*
X88138000Y-90030560D01*
X87122000Y-90030560D01*
X87015446Y-90051755D01*
X86994310Y-90043000D01*
X86645750Y-90043000D01*
X86487000Y-90201750D01*
X86487000Y-90615459D01*
X86474560Y-90678000D01*
X86474560Y-91587000D01*
X86245440Y-91587000D01*
X86245440Y-90678000D01*
X86233000Y-90615459D01*
X86233000Y-90201750D01*
X86074250Y-90043000D01*
X85725690Y-90043000D01*
X85704554Y-90051755D01*
X85598000Y-90030560D01*
X84582000Y-90030560D01*
X84455000Y-90055822D01*
X84328000Y-90030560D01*
X83312000Y-90030560D01*
X83185000Y-90055822D01*
X83058000Y-90030560D01*
X82042000Y-90030560D01*
X81915000Y-90055822D01*
X81788000Y-90030560D01*
X80772000Y-90030560D01*
X80645000Y-90055822D01*
X80518000Y-90030560D01*
X79502000Y-90030560D01*
X79395446Y-90051755D01*
X79374310Y-90043000D01*
X79025750Y-90043000D01*
X78867000Y-90201750D01*
X78867000Y-90615459D01*
X78854560Y-90678000D01*
X78854560Y-91587000D01*
X78613000Y-91587000D01*
X78613000Y-91567000D01*
X77755750Y-91567000D01*
X77705776Y-91616974D01*
X76991401Y-90902599D01*
X76744839Y-90737852D01*
X76454000Y-90680000D01*
X74730463Y-90680000D01*
X74698327Y-90647808D01*
X74466853Y-90551691D01*
X77597000Y-90551691D01*
X77597000Y-91154250D01*
X77755750Y-91313000D01*
X78613000Y-91313000D01*
X78613000Y-90201750D01*
X78454250Y-90043000D01*
X78105690Y-90043000D01*
X77872301Y-90139673D01*
X77693673Y-90318302D01*
X77597000Y-90551691D01*
X74466853Y-90551691D01*
X74354799Y-90505162D01*
X73982833Y-90504838D01*
X73639057Y-90646883D01*
X73375808Y-90909673D01*
X73233162Y-91253201D01*
X73232838Y-91625167D01*
X73374883Y-91968943D01*
X73637673Y-92232192D01*
X73981201Y-92374838D01*
X74056741Y-92374904D01*
X73995162Y-92523201D01*
X73994838Y-92895167D01*
X74136883Y-93238943D01*
X74170000Y-93272118D01*
X74170000Y-93726000D01*
X74227852Y-94016839D01*
X74392599Y-94263401D01*
X79218599Y-99089401D01*
X79465160Y-99254148D01*
X79513414Y-99263746D01*
X79756000Y-99312000D01*
X82804000Y-99312000D01*
X83094839Y-99254148D01*
X83125000Y-99233995D01*
X83125000Y-100276250D01*
X83283750Y-100435000D01*
X84833000Y-100435000D01*
X84833000Y-100415000D01*
X85087000Y-100415000D01*
X85087000Y-100435000D01*
X85107000Y-100435000D01*
X85107000Y-100689000D01*
X85087000Y-100689000D01*
X85087000Y-100709000D01*
X84833000Y-100709000D01*
X84833000Y-100689000D01*
X83283750Y-100689000D01*
X83125000Y-100847750D01*
X83125000Y-101602000D01*
X82356802Y-101602000D01*
X82325401Y-101570599D01*
X82078839Y-101405852D01*
X81788000Y-101348000D01*
X80318463Y-101348000D01*
X80286327Y-101315808D01*
X79942799Y-101173162D01*
X79570833Y-101172838D01*
X79227057Y-101314883D01*
X78963808Y-101577673D01*
X78821162Y-101921201D01*
X78820838Y-102293167D01*
X78954383Y-102616371D01*
X78821162Y-102937201D01*
X78820838Y-103309167D01*
X78962883Y-103652943D01*
X79120998Y-103811334D01*
X79120998Y-103941748D01*
X78962250Y-103783000D01*
X78496690Y-103783000D01*
X78263301Y-103879673D01*
X78230000Y-103912974D01*
X78230000Y-103886000D01*
X78172148Y-103595161D01*
X78007401Y-103348599D01*
X77047062Y-102388260D01*
X77065945Y-102360000D01*
X77216000Y-102360000D01*
X77506839Y-102302148D01*
X77753401Y-102137401D01*
X78261401Y-101629401D01*
X78335060Y-101519162D01*
X78426148Y-101382839D01*
X78484000Y-101092000D01*
X78484000Y-100384463D01*
X78516192Y-100352327D01*
X78658838Y-100008799D01*
X78659162Y-99636833D01*
X78517117Y-99293057D01*
X78254327Y-99029808D01*
X77910799Y-98887162D01*
X77538833Y-98886838D01*
X77195057Y-99028883D01*
X77127000Y-99096821D01*
X77127000Y-98861750D01*
X76968250Y-98703000D01*
X75819000Y-98703000D01*
X75819000Y-99552250D01*
X75977750Y-99711000D01*
X76618310Y-99711000D01*
X76789158Y-99640233D01*
X76788838Y-100007167D01*
X76930883Y-100350943D01*
X76964000Y-100384118D01*
X76964000Y-100639429D01*
X76949809Y-100618191D01*
X76739765Y-100477843D01*
X76492000Y-100428560D01*
X74892000Y-100428560D01*
X74644235Y-100477843D01*
X74434191Y-100618191D01*
X74293843Y-100828235D01*
X74244560Y-101076000D01*
X74244560Y-101617758D01*
X72642000Y-100015198D01*
X72642000Y-98861750D01*
X74257000Y-98861750D01*
X74257000Y-99202309D01*
X74353673Y-99435698D01*
X74532301Y-99614327D01*
X74765690Y-99711000D01*
X75406250Y-99711000D01*
X75565000Y-99552250D01*
X75565000Y-98703000D01*
X74415750Y-98703000D01*
X74257000Y-98861750D01*
X72642000Y-98861750D01*
X72642000Y-97949691D01*
X74257000Y-97949691D01*
X74257000Y-98290250D01*
X74415750Y-98449000D01*
X75565000Y-98449000D01*
X75565000Y-97599750D01*
X75819000Y-97599750D01*
X75819000Y-98449000D01*
X76968250Y-98449000D01*
X77127000Y-98290250D01*
X77127000Y-97949691D01*
X77030327Y-97716302D01*
X76851699Y-97537673D01*
X76618310Y-97441000D01*
X75977750Y-97441000D01*
X75819000Y-97599750D01*
X75565000Y-97599750D01*
X75406250Y-97441000D01*
X74765690Y-97441000D01*
X74532301Y-97537673D01*
X74353673Y-97716302D01*
X74257000Y-97949691D01*
X72642000Y-97949691D01*
X72642000Y-87817694D01*
X72725673Y-88019698D01*
X72904301Y-88198327D01*
X73137690Y-88295000D01*
X73628250Y-88295000D01*
X73787000Y-88136250D01*
X73787000Y-87437000D01*
X74041000Y-87437000D01*
X74041000Y-88136250D01*
X74199750Y-88295000D01*
X74690310Y-88295000D01*
X74923699Y-88198327D01*
X74930000Y-88192026D01*
X74936301Y-88198327D01*
X75169690Y-88295000D01*
X75660250Y-88295000D01*
X75819000Y-88136250D01*
X75819000Y-87437000D01*
X76073000Y-87437000D01*
X76073000Y-88136250D01*
X76231750Y-88295000D01*
X76722310Y-88295000D01*
X76955699Y-88198327D01*
X77134327Y-88019698D01*
X77231000Y-87786309D01*
X77231000Y-87595750D01*
X77072250Y-87437000D01*
X76073000Y-87437000D01*
X75819000Y-87437000D01*
X74041000Y-87437000D01*
X73787000Y-87437000D01*
X73767000Y-87437000D01*
X73767000Y-87183000D01*
X73787000Y-87183000D01*
X73787000Y-87163000D01*
X74041000Y-87163000D01*
X74041000Y-87183000D01*
X75819000Y-87183000D01*
X75819000Y-87163000D01*
X76073000Y-87163000D01*
X76073000Y-87183000D01*
X77072250Y-87183000D01*
X77135250Y-87120000D01*
X88331198Y-87120000D01*
X89410000Y-88198802D01*
G36*
X85741000Y-97663000D02*
X85761000Y-97663000D01*
X85761000Y-97917000D01*
X85741000Y-97917000D01*
X85741000Y-97937000D01*
X85487000Y-97937000D01*
X85487000Y-97917000D01*
X85467000Y-97917000D01*
X85467000Y-97663000D01*
X85487000Y-97663000D01*
X85487000Y-97643000D01*
X85741000Y-97643000D01*
X85741000Y-97663000D01*
X85741000Y-97663000D01*
G37*
X85741000Y-97663000D02*
X85761000Y-97663000D01*
X85761000Y-97917000D01*
X85741000Y-97917000D01*
X85741000Y-97937000D01*
X85487000Y-97937000D01*
X85487000Y-97917000D01*
X85467000Y-97917000D01*
X85467000Y-97663000D01*
X85487000Y-97663000D01*
X85487000Y-97643000D01*
X85741000Y-97643000D01*
X85741000Y-97663000D01*
G36*
X74057000Y-80645000D02*
X74077000Y-80645000D01*
X74077000Y-80899000D01*
X74057000Y-80899000D01*
X74057000Y-80919000D01*
X73803000Y-80919000D01*
X73803000Y-80899000D01*
X73783000Y-80899000D01*
X73783000Y-80645000D01*
X73803000Y-80645000D01*
X73803000Y-80625000D01*
X74057000Y-80625000D01*
X74057000Y-80645000D01*
X74057000Y-80645000D01*
G37*
X74057000Y-80645000D02*
X74077000Y-80645000D01*
X74077000Y-80899000D01*
X74057000Y-80899000D01*
X74057000Y-80919000D01*
X73803000Y-80919000D01*
X73803000Y-80899000D01*
X73783000Y-80899000D01*
X73783000Y-80645000D01*
X73803000Y-80645000D01*
X73803000Y-80625000D01*
X74057000Y-80625000D01*
X74057000Y-80645000D01*
M02*
