G04 #@! TF.GenerationSoftware,KiCad,Pcbnew,no-vcs-found-7592~57~ubuntu16.04.1*
G04 #@! TF.CreationDate,2017-02-12T17:12:26+02:00*
G04 #@! TF.ProjectId,lora_sensor,6C6F72615F73656E736F722E6B696361,rev?*
G04 #@! TF.FileFunction,Soldermask,Bot*
G04 #@! TF.FilePolarity,Negative*
%FSLAX46Y46*%
G04 Gerber Fmt 4.6, Leading zero omitted, Abs format (unit mm)*
G04 Created by KiCad (PCBNEW no-vcs-found-7592~57~ubuntu16.04.1) date Sun Feb 12 17:12:26 2017*
%MOMM*%
%LPD*%
G01*
G04 APERTURE LIST*
%ADD10C,0.100000*%
%ADD11O,2.100000X2.100000*%
%ADD12R,2.100000X2.100000*%
%ADD13C,6.800000*%
%ADD14R,1.700000X1.100000*%
%ADD15R,1.400000X2.000000*%
%ADD16R,1.650000X1.400000*%
%ADD17R,1.400000X1.650000*%
%ADD18R,2.000000X1.400000*%
%ADD19R,1.100000X1.700000*%
%ADD20C,1.800000*%
%ADD21O,1.800000X1.800000*%
%ADD22R,1.416000X1.924000*%
%ADD23R,1.924000X1.416000*%
%ADD24R,1.620000X1.050000*%
%ADD25R,1.460000X1.050000*%
%ADD26R,2.800000X3.200000*%
%ADD27R,4.900000X1.924000*%
%ADD28R,4.900000X2.400000*%
G04 APERTURE END LIST*
D10*
D11*
X101600000Y-114300000D03*
D12*
X104140000Y-114300000D03*
D13*
X73660000Y-115570000D03*
X73660000Y-74930000D03*
X101600000Y-97790000D03*
D14*
X111760000Y-107000000D03*
X111760000Y-108900000D03*
D15*
X94972000Y-113030000D03*
X91972000Y-113030000D03*
D16*
X106172000Y-93964000D03*
X106172000Y-91964000D03*
D17*
X75930000Y-80772000D03*
X73930000Y-80772000D03*
X98536000Y-108712000D03*
X96536000Y-108712000D03*
D16*
X99314000Y-106664000D03*
X99314000Y-104664000D03*
D17*
X105394000Y-104394000D03*
X103394000Y-104394000D03*
D16*
X101600000Y-106664000D03*
X101600000Y-104664000D03*
D17*
X87614000Y-97790000D03*
X85614000Y-97790000D03*
X85614000Y-106934000D03*
X87614000Y-106934000D03*
D18*
X75692000Y-101576000D03*
X75692000Y-98576000D03*
D16*
X79248000Y-106918000D03*
X79248000Y-104918000D03*
D14*
X75946000Y-82108000D03*
X75946000Y-84008000D03*
X75946000Y-85410000D03*
X75946000Y-87310000D03*
X73914000Y-82108000D03*
X73914000Y-84008000D03*
X73914000Y-85410000D03*
X73914000Y-87310000D03*
X111760000Y-112080000D03*
X111760000Y-113980000D03*
D19*
X96454000Y-110744000D03*
X94554000Y-110744000D03*
D14*
X111760000Y-101920000D03*
X111760000Y-103820000D03*
X111760000Y-96840000D03*
X111760000Y-98740000D03*
D20*
X96520000Y-96520000D03*
D21*
X96520000Y-99060000D03*
D22*
X78740000Y-91440000D03*
X80010000Y-91440000D03*
X81280000Y-91440000D03*
X82550000Y-91440000D03*
X83820000Y-91440000D03*
X85090000Y-91440000D03*
X86360000Y-91440000D03*
X87630000Y-91440000D03*
X88900000Y-91440000D03*
X90170000Y-91440000D03*
X91440000Y-91440000D03*
X92710000Y-91440000D03*
X93980000Y-91440000D03*
X95250000Y-91440000D03*
X96520000Y-91440000D03*
X97790000Y-91440000D03*
X99060000Y-91440000D03*
X100330000Y-91440000D03*
X101600000Y-91440000D03*
X102870000Y-91440000D03*
X102870000Y-73660000D03*
D23*
X104140000Y-86360000D03*
X104140000Y-85090000D03*
X104140000Y-83820000D03*
X104140000Y-82550000D03*
X104140000Y-81280000D03*
X104140000Y-80010000D03*
X104140000Y-78740000D03*
D22*
X101600000Y-73660000D03*
X100330000Y-73660000D03*
X99060000Y-73660000D03*
X97790000Y-73660000D03*
X96520000Y-73660000D03*
X95250000Y-73660000D03*
X93980000Y-73660000D03*
X92710000Y-73660000D03*
X91440000Y-73660000D03*
X90170000Y-73660000D03*
X88900000Y-73660000D03*
X87630000Y-73660000D03*
X86360000Y-73660000D03*
X85090000Y-73660000D03*
X83820000Y-73660000D03*
X82550000Y-73660000D03*
X81280000Y-73660000D03*
X80010000Y-73660000D03*
X78740000Y-73660000D03*
D24*
X101386000Y-110302000D03*
X101386000Y-111252000D03*
X101386000Y-112202000D03*
X98766000Y-112202000D03*
X98766000Y-110302000D03*
D25*
X105748000Y-106746000D03*
X105748000Y-107696000D03*
X105748000Y-108646000D03*
X103548000Y-108646000D03*
X103548000Y-106746000D03*
D11*
X109220000Y-106680000D03*
D12*
X109220000Y-109220000D03*
D11*
X109220000Y-114300000D03*
D12*
X109220000Y-111760000D03*
X109220000Y-104140000D03*
D11*
X109220000Y-101600000D03*
X68580000Y-87630000D03*
X68580000Y-85090000D03*
X68580000Y-82550000D03*
X68580000Y-80010000D03*
X68580000Y-77470000D03*
D12*
X68580000Y-74930000D03*
X109220000Y-99060000D03*
D11*
X109220000Y-96520000D03*
X106680000Y-101600000D03*
X106680000Y-99060000D03*
D12*
X106680000Y-96520000D03*
D26*
X87760000Y-100562000D03*
X87760000Y-104162000D03*
X84960000Y-104162000D03*
X84960000Y-100562000D03*
D27*
X111760000Y-77470000D03*
D28*
X111760000Y-80270000D03*
X111760000Y-74670000D03*
X111760000Y-74670000D03*
X111760000Y-80270000D03*
X111760000Y-92970000D03*
X111760000Y-87370000D03*
X111760000Y-87370000D03*
X111760000Y-92970000D03*
D27*
X111760000Y-90170000D03*
M02*
