G04 #@! TF.GenerationSoftware,KiCad,Pcbnew,no-vcs-found-7592~57~ubuntu16.04.1*
G04 #@! TF.CreationDate,2017-02-12T17:12:26+02:00*
G04 #@! TF.ProjectId,lora_sensor,6C6F72615F73656E736F722E6B696361,rev?*
G04 #@! TF.FileFunction,Copper,L1,Top,Signal*
G04 #@! TF.FilePolarity,Positive*
%FSLAX46Y46*%
G04 Gerber Fmt 4.6, Leading zero omitted, Abs format (unit mm)*
G04 Created by KiCad (PCBNEW no-vcs-found-7592~57~ubuntu16.04.1) date Sun Feb 12 17:12:26 2017*
%MOMM*%
%LPD*%
G01*
G04 APERTURE LIST*
%ADD10C,0.100000*%
%ADD11O,1.700000X1.700000*%
%ADD12R,1.700000X1.700000*%
%ADD13C,6.400000*%
%ADD14R,1.750000X0.450000*%
%ADD15R,2.500000X2.000000*%
%ADD16R,1.000000X1.250000*%
%ADD17R,1.000000X1.600000*%
%ADD18R,1.250000X1.000000*%
%ADD19R,3.500000X1.800000*%
%ADD20R,1.200000X1.200000*%
%ADD21R,0.400000X2.000000*%
%ADD22R,2.100000X1.600000*%
%ADD23R,1.800000X1.900000*%
%ADD24R,0.800000X0.900000*%
%ADD25R,0.700000X1.300000*%
%ADD26R,1.300000X0.700000*%
%ADD27C,1.400000*%
%ADD28O,1.400000X1.400000*%
%ADD29R,0.300000X0.800000*%
%ADD30R,1.060000X0.650000*%
%ADD31R,4.500000X2.000000*%
%ADD32C,0.600000*%
%ADD33C,0.250000*%
%ADD34C,0.500000*%
%ADD35C,0.254000*%
G04 APERTURE END LIST*
D10*
D11*
X101600000Y-114300000D03*
D12*
X104140000Y-114300000D03*
D13*
X73660000Y-115570000D03*
X73660000Y-74930000D03*
X101600000Y-97790000D03*
D14*
X82760000Y-97375000D03*
X82760000Y-98025000D03*
X82760000Y-98675000D03*
X82760000Y-99325000D03*
X82760000Y-99975000D03*
X82760000Y-100625000D03*
X82760000Y-101275000D03*
X82760000Y-101925000D03*
X82760000Y-102575000D03*
X82760000Y-103225000D03*
X82760000Y-103875000D03*
X82760000Y-104525000D03*
X82760000Y-105175000D03*
X82760000Y-105825000D03*
X89960000Y-105825000D03*
X89960000Y-105175000D03*
X89960000Y-104525000D03*
X89960000Y-103875000D03*
X89960000Y-103225000D03*
X89960000Y-102575000D03*
X89960000Y-101925000D03*
X89960000Y-101275000D03*
X89960000Y-100625000D03*
X89960000Y-99975000D03*
X89960000Y-99325000D03*
X89960000Y-98675000D03*
X89960000Y-98025000D03*
X89960000Y-97375000D03*
D15*
X68115000Y-106172000D03*
X76665000Y-106172000D03*
X68115000Y-109982000D03*
X76665000Y-109982000D03*
D16*
X92948000Y-76200000D03*
X90948000Y-76200000D03*
D17*
X101624000Y-110998000D03*
X104624000Y-110998000D03*
D16*
X77994000Y-75184000D03*
X79994000Y-75184000D03*
D18*
X94742000Y-102378000D03*
X94742000Y-104378000D03*
X96774000Y-102378000D03*
X96774000Y-104378000D03*
X100330000Y-78502000D03*
X100330000Y-80502000D03*
D19*
X101306000Y-106680000D03*
X96306000Y-106680000D03*
D20*
X69934000Y-96774000D03*
X67734000Y-96774000D03*
X69934000Y-98806000D03*
X67734000Y-98806000D03*
X69934000Y-100838000D03*
X67734000Y-100838000D03*
X69934000Y-102870000D03*
X67734000Y-102870000D03*
D21*
X85314000Y-114866000D03*
X85964000Y-114866000D03*
X86614000Y-114866000D03*
X87264000Y-114866000D03*
X87914000Y-114866000D03*
D22*
X89714000Y-115316000D03*
X83514000Y-115316000D03*
D23*
X90614000Y-117866000D03*
X82614000Y-117866000D03*
D20*
X95250000Y-116924000D03*
X95250000Y-114724000D03*
D24*
X98110000Y-110982000D03*
X100010000Y-110982000D03*
X99060000Y-108982000D03*
X82870000Y-87868000D03*
X84770000Y-87868000D03*
X83820000Y-85868000D03*
X93030000Y-88884000D03*
X94930000Y-88884000D03*
X93980000Y-86884000D03*
D25*
X73340000Y-93472000D03*
X71440000Y-93472000D03*
X73340000Y-91440000D03*
X71440000Y-91440000D03*
X95316000Y-112776000D03*
X97216000Y-112776000D03*
D26*
X95250000Y-109032000D03*
X95250000Y-110932000D03*
D25*
X79944000Y-79248000D03*
X78044000Y-79248000D03*
X79944000Y-77216000D03*
X78044000Y-77216000D03*
D26*
X79248000Y-108646000D03*
X79248000Y-106746000D03*
X79248000Y-109794000D03*
X79248000Y-111694000D03*
D25*
X74864000Y-96774000D03*
X72964000Y-96774000D03*
X74864000Y-98806000D03*
X72964000Y-98806000D03*
X74864000Y-100838000D03*
X72964000Y-100838000D03*
X74864000Y-102870000D03*
X72964000Y-102870000D03*
X88326000Y-85344000D03*
X86426000Y-85344000D03*
D26*
X86360000Y-89728000D03*
X86360000Y-91628000D03*
X98044000Y-78552000D03*
X98044000Y-80452000D03*
X99060000Y-90490000D03*
X99060000Y-92390000D03*
D27*
X96520000Y-96520000D03*
D28*
X96520000Y-99060000D03*
D20*
X69934000Y-93472000D03*
X67734000Y-93472000D03*
X69934000Y-91440000D03*
X67734000Y-91440000D03*
D29*
X95504000Y-80034000D03*
X95004000Y-80034000D03*
X95004000Y-83034000D03*
X95504000Y-83034000D03*
X96004000Y-83034000D03*
X96004000Y-80034000D03*
D30*
X88054000Y-80838000D03*
X88054000Y-81788000D03*
X88054000Y-82738000D03*
X90254000Y-82738000D03*
X90254000Y-80838000D03*
D11*
X109220000Y-106680000D03*
D12*
X109220000Y-109220000D03*
D11*
X109220000Y-114300000D03*
D12*
X109220000Y-111760000D03*
X109220000Y-104140000D03*
D11*
X109220000Y-101600000D03*
X68580000Y-87630000D03*
X68580000Y-85090000D03*
X68580000Y-82550000D03*
X68580000Y-80010000D03*
X68580000Y-77470000D03*
D12*
X68580000Y-74930000D03*
X109220000Y-99060000D03*
D11*
X109220000Y-96520000D03*
X106680000Y-101600000D03*
X106680000Y-99060000D03*
D12*
X106680000Y-96520000D03*
D31*
X111760000Y-74670000D03*
X111760000Y-80270000D03*
X111760000Y-92970000D03*
X111760000Y-87370000D03*
D32*
X85852000Y-112268000D03*
X88900000Y-106934000D03*
X90170000Y-113030000D03*
X105156000Y-74676000D03*
X112268000Y-95504000D03*
X111760000Y-92970000D03*
X108204000Y-91948000D03*
X106426000Y-90170000D03*
X106426000Y-87376000D03*
X105918000Y-85344000D03*
X109982000Y-85090000D03*
X108715000Y-83817000D03*
X107442000Y-82550000D03*
X105918000Y-82550000D03*
X72644000Y-81280000D03*
X76962000Y-96774000D03*
X107442000Y-81026000D03*
X108966000Y-79502000D03*
X108966000Y-75946000D03*
X107442000Y-77470000D03*
X105664000Y-79248000D03*
X83058000Y-72136000D03*
X109474000Y-72644000D03*
X112268000Y-72644000D03*
X105918000Y-110998000D03*
X97282000Y-72136000D03*
X102870000Y-72136000D03*
X106426000Y-73660000D03*
X106426000Y-76200000D03*
X108966000Y-81788000D03*
X104394000Y-91440000D03*
X80772000Y-101346000D03*
X98806000Y-103124000D03*
X91440000Y-74930000D03*
X91694000Y-103225000D03*
X96012000Y-93218000D03*
X104394000Y-93980000D03*
X92710000Y-74930000D03*
X93218000Y-114554000D03*
X85090000Y-113030000D03*
X79756000Y-102108000D03*
X79756000Y-103124000D03*
X77724000Y-99822000D03*
X101346000Y-103124000D03*
X109220000Y-101600000D03*
X72136000Y-80518000D03*
X82804000Y-108966000D03*
X93218000Y-102378000D03*
X98044000Y-102362000D03*
X91694000Y-97028000D03*
X75692000Y-92202000D03*
X77470000Y-93472000D03*
X74168000Y-91440000D03*
X98806000Y-113284000D03*
X82550000Y-95758000D03*
X76454000Y-92710000D03*
X91694000Y-98025000D03*
X84074000Y-107442000D03*
X81788000Y-107442000D03*
X74930000Y-92710000D03*
X80772000Y-105918000D03*
X93726000Y-99568000D03*
X93726000Y-98552000D03*
X76200000Y-103886000D03*
X84074000Y-95250000D03*
X99060000Y-93472000D03*
X85852000Y-94234000D03*
X84328000Y-94234000D03*
X81026000Y-94234000D03*
X92710000Y-108458000D03*
X93726000Y-107696000D03*
X94996000Y-101346000D03*
X94742000Y-100584000D03*
X92710000Y-98044000D03*
X93472000Y-96012000D03*
D33*
X108966000Y-87122000D02*
X108966000Y-87630000D01*
D34*
X101624000Y-112498000D02*
X100354000Y-112498000D01*
X100076000Y-112220000D02*
X100076000Y-111048000D01*
X100354000Y-112498000D02*
X100076000Y-112220000D01*
X100076000Y-111048000D02*
X100010000Y-110982000D01*
X104140000Y-114300000D02*
X104140000Y-113284000D01*
X101624000Y-112498000D02*
X101624000Y-110998000D01*
X101600000Y-112522000D02*
X101624000Y-112498000D01*
X103378000Y-112522000D02*
X101600000Y-112522000D01*
X104140000Y-113284000D02*
X103378000Y-112522000D01*
D33*
X87914000Y-113538000D02*
X88392000Y-113538000D01*
X88900000Y-109220000D02*
X85852000Y-112268000D01*
X88900000Y-106934000D02*
X88900000Y-109220000D01*
X87914000Y-114866000D02*
X87914000Y-113538000D01*
X87264000Y-113650000D02*
X87376000Y-113538000D01*
X87264000Y-114866000D02*
X87264000Y-113650000D01*
X89662000Y-113538000D02*
X90170000Y-113030000D01*
X87376000Y-113538000D02*
X87914000Y-113538000D01*
X88392000Y-113538000D02*
X89662000Y-113538000D01*
X105410000Y-96266000D02*
X105410000Y-92456000D01*
X106680000Y-101600000D02*
X105410000Y-100330000D01*
X105410000Y-100330000D02*
X105410000Y-96266000D01*
X105410000Y-92456000D02*
X104394000Y-91440000D01*
X105156000Y-74676000D02*
X106426000Y-74676000D01*
X104394000Y-91440000D02*
X104394000Y-89408000D01*
X104394000Y-89408000D02*
X106426000Y-87376000D01*
X112268000Y-114300000D02*
X110236000Y-116332000D01*
X106680000Y-116332000D02*
X110236000Y-116332000D01*
X112268000Y-95504000D02*
X112268000Y-114300000D01*
X106426000Y-85852000D02*
X105918000Y-85344000D01*
X111760000Y-92970000D02*
X109226000Y-92970000D01*
X109226000Y-92970000D02*
X108204000Y-91948000D01*
X106426000Y-83312000D02*
X106426000Y-82550000D01*
X106426000Y-85852000D02*
X106426000Y-83312000D01*
X106426000Y-90170000D02*
X106426000Y-87376000D01*
X106426000Y-87376000D02*
X106426000Y-85852000D01*
X108204000Y-91948000D02*
X106426000Y-90170000D01*
X108715000Y-83817000D02*
X108712000Y-83820000D01*
X111760000Y-87370000D02*
X111760000Y-85344000D01*
X111760000Y-85344000D02*
X110236000Y-85344000D01*
X110236000Y-85344000D02*
X109982000Y-85090000D01*
X109982000Y-85090000D02*
X108712000Y-83820000D01*
X107442000Y-82550000D02*
X106426000Y-82550000D01*
X108712000Y-83820000D02*
X107442000Y-82550000D01*
X79994000Y-75184000D02*
X79994000Y-73168000D01*
X79994000Y-73168000D02*
X81026000Y-72136000D01*
X68115000Y-109982000D02*
X68115000Y-106172000D01*
X68115000Y-106172000D02*
X68115000Y-104691000D01*
X67734000Y-103802000D02*
X67734000Y-102870000D01*
X67734000Y-104310000D02*
X67734000Y-103802000D01*
X68115000Y-104691000D02*
X67734000Y-104310000D01*
X72644000Y-81280000D02*
X69850000Y-81280000D01*
X69850000Y-81280000D02*
X68580000Y-80010000D01*
X76962000Y-98552000D02*
X76962000Y-96774000D01*
X80772000Y-101346000D02*
X78232000Y-101346000D01*
X76962000Y-100076000D02*
X76962000Y-98552000D01*
X78232000Y-101346000D02*
X76962000Y-100076000D01*
X76962000Y-96774000D02*
X76962000Y-98044000D01*
X81026000Y-72136000D02*
X83058000Y-72136000D01*
X112014000Y-74670000D02*
X108966000Y-74670000D01*
X112014000Y-80270000D02*
X108966000Y-80270000D01*
X112014000Y-83052000D02*
X108966000Y-83052000D01*
X112014000Y-83052000D02*
X112014000Y-80270000D01*
X112014000Y-72644000D02*
X112268000Y-72644000D01*
X112014000Y-72644000D02*
X109474000Y-72644000D01*
X108966000Y-78994000D02*
X108966000Y-79502000D01*
X108966000Y-75946000D02*
X108966000Y-78994000D01*
X108966000Y-79502000D02*
X108966000Y-80270000D01*
X108966000Y-74930000D02*
X108966000Y-75946000D01*
X108966000Y-73152000D02*
X109474000Y-72644000D01*
X108966000Y-74930000D02*
X108966000Y-74670000D01*
X108966000Y-74670000D02*
X108966000Y-73152000D01*
X67734000Y-90848000D02*
X66972000Y-90086000D01*
X66972000Y-90086000D02*
X66802000Y-89916000D01*
X66802000Y-89916000D02*
X66802000Y-81026000D01*
X66802000Y-81026000D02*
X67818000Y-80010000D01*
X67734000Y-90848000D02*
X67734000Y-93472000D01*
X67734000Y-93472000D02*
X67734000Y-96774000D01*
X67734000Y-96774000D02*
X67734000Y-98806000D01*
X67734000Y-98806000D02*
X67734000Y-100838000D01*
X67734000Y-100838000D02*
X67734000Y-102870000D01*
X104624000Y-110998000D02*
X105918000Y-110998000D01*
X106680000Y-111760000D02*
X106680000Y-116332000D01*
X105918000Y-110998000D02*
X106680000Y-111760000D01*
X101600000Y-115316000D02*
X101600000Y-114300000D01*
X102616000Y-116332000D02*
X101600000Y-115316000D01*
X106680000Y-116332000D02*
X102616000Y-116332000D01*
X95250000Y-110932000D02*
X95184000Y-110998000D01*
X109474000Y-72644000D02*
X106680000Y-72644000D01*
X106426000Y-72898000D02*
X106426000Y-73660000D01*
X106680000Y-72644000D02*
X106426000Y-72898000D01*
X106426000Y-81788000D02*
X106680000Y-81788000D01*
X106680000Y-81788000D02*
X107188000Y-81788000D01*
X107188000Y-81788000D02*
X107442000Y-81534000D01*
X106426000Y-80502000D02*
X106426000Y-81788000D01*
X106426000Y-81788000D02*
X106426000Y-82550000D01*
X106426000Y-74676000D02*
X106426000Y-76200000D01*
X106426000Y-76200000D02*
X106426000Y-78740000D01*
X106426000Y-78740000D02*
X106426000Y-80502000D01*
X106426000Y-73660000D02*
X106426000Y-74676000D01*
X108966000Y-81788000D02*
X108966000Y-83052000D01*
X108966000Y-80502000D02*
X108966000Y-81788000D01*
X108966000Y-83052000D02*
X108966000Y-83306000D01*
X89154000Y-82042000D02*
X89154000Y-78740000D01*
X90170000Y-77724000D02*
X91440000Y-77724000D01*
X89154000Y-78740000D02*
X90170000Y-77724000D01*
X95504000Y-80034000D02*
X95504000Y-78740000D01*
X95504000Y-78740000D02*
X94488000Y-77724000D01*
X94488000Y-77724000D02*
X91440000Y-77724000D01*
X90948000Y-77486000D02*
X90948000Y-76200000D01*
X91440000Y-77724000D02*
X91186000Y-77724000D01*
X91186000Y-77724000D02*
X90948000Y-77486000D01*
X88054000Y-81788000D02*
X88900000Y-81788000D01*
X87696000Y-91628000D02*
X86360000Y-91628000D01*
X87884000Y-91440000D02*
X87696000Y-91628000D01*
X87884000Y-89154000D02*
X87884000Y-91440000D01*
X87376000Y-88646000D02*
X87884000Y-89154000D01*
X87376000Y-84328000D02*
X87376000Y-88646000D01*
X87884000Y-83820000D02*
X87376000Y-84328000D01*
X88646000Y-83820000D02*
X87884000Y-83820000D01*
X89154000Y-83312000D02*
X88646000Y-83820000D01*
X89154000Y-82042000D02*
X89154000Y-83312000D01*
X88900000Y-81788000D02*
X89154000Y-82042000D01*
X100330000Y-80502000D02*
X106426000Y-80502000D01*
X106426000Y-80502000D02*
X108966000Y-80502000D01*
X98044000Y-80452000D02*
X100280000Y-80452000D01*
X100280000Y-80452000D02*
X100330000Y-80502000D01*
X108966000Y-80270000D02*
X108966000Y-80502000D01*
X82760000Y-101925000D02*
X81351000Y-101925000D01*
X81351000Y-101925000D02*
X80772000Y-101346000D01*
X96774000Y-104378000D02*
X97552000Y-104378000D01*
X98044000Y-103886000D02*
X97552000Y-104378000D01*
X98044000Y-103886000D02*
X98806000Y-103124000D01*
X94742000Y-104378000D02*
X96774000Y-104378000D01*
X93726000Y-104378000D02*
X93710000Y-104378000D01*
X94742000Y-104378000D02*
X93726000Y-104378000D01*
X91694000Y-103225000D02*
X89960000Y-103225000D01*
X97536000Y-81534000D02*
X98044000Y-81534000D01*
X95504000Y-81280000D02*
X95758000Y-81534000D01*
X95758000Y-81534000D02*
X97536000Y-81534000D01*
X95504000Y-80034000D02*
X95504000Y-81280000D01*
X100330000Y-81280000D02*
X100330000Y-80502000D01*
X100076000Y-81534000D02*
X100330000Y-81280000D01*
X98044000Y-81534000D02*
X100076000Y-81534000D01*
X67818000Y-80010000D02*
X68580000Y-80010000D01*
X91440000Y-74930000D02*
X90948000Y-75422000D01*
X90948000Y-75422000D02*
X90948000Y-76200000D01*
X93218000Y-103886000D02*
X92557000Y-103225000D01*
X92557000Y-103225000D02*
X91694000Y-103225000D01*
X93710000Y-104378000D02*
X93218000Y-103886000D01*
X99568000Y-94234000D02*
X100076000Y-93726000D01*
X97028000Y-94234000D02*
X99568000Y-94234000D01*
X96012000Y-93218000D02*
X97028000Y-94234000D01*
X104140000Y-93726000D02*
X100076000Y-93726000D01*
X104394000Y-93980000D02*
X104140000Y-93726000D01*
X92948000Y-75168000D02*
X92948000Y-76200000D01*
X92710000Y-74930000D02*
X92948000Y-75168000D01*
X95250000Y-116924000D02*
X93556000Y-116924000D01*
X93218000Y-116586000D02*
X93218000Y-114554000D01*
X93556000Y-116924000D02*
X93218000Y-116586000D01*
X85314000Y-114866000D02*
X85314000Y-113254000D01*
X85314000Y-113254000D02*
X85090000Y-113030000D01*
X82760000Y-102575000D02*
X80223000Y-102575000D01*
X80223000Y-102575000D02*
X79756000Y-102108000D01*
X82760000Y-103225000D02*
X79857000Y-103225000D01*
X79857000Y-103225000D02*
X79756000Y-103124000D01*
X78044000Y-77216000D02*
X78044000Y-75234000D01*
X78044000Y-75234000D02*
X77994000Y-75184000D01*
X78044000Y-79248000D02*
X78044000Y-77216000D01*
X78044000Y-79248000D02*
X71120000Y-79248000D01*
X70104000Y-76454000D02*
X70104000Y-78232000D01*
X70104000Y-78232000D02*
X71120000Y-79248000D01*
X70104000Y-76454000D02*
X68580000Y-74930000D01*
X82760000Y-100625000D02*
X78527000Y-100625000D01*
X78527000Y-100625000D02*
X77724000Y-99822000D01*
X82760000Y-100625000D02*
X82719000Y-100584000D01*
X94930000Y-90866000D02*
X94930000Y-94168000D01*
X94930000Y-88884000D02*
X94930000Y-90866000D01*
X97282000Y-94996000D02*
X97790000Y-95504000D01*
X95758000Y-94996000D02*
X97282000Y-94996000D01*
X94930000Y-94168000D02*
X95758000Y-94996000D01*
X79248000Y-80518000D02*
X79756000Y-80518000D01*
X75184000Y-80518000D02*
X78740000Y-80518000D01*
X72136000Y-80518000D02*
X75184000Y-80518000D01*
X78740000Y-80518000D02*
X79248000Y-80518000D01*
X79944000Y-80330000D02*
X79944000Y-79248000D01*
X79756000Y-80518000D02*
X79944000Y-80330000D01*
X101346000Y-103124000D02*
X101346000Y-102870000D01*
X97790000Y-99314000D02*
X97790000Y-95504000D01*
X101346000Y-102870000D02*
X97790000Y-99314000D01*
X102362000Y-103124000D02*
X101346000Y-103124000D01*
X104902000Y-103124000D02*
X107696000Y-103124000D01*
X104902000Y-103124000D02*
X102362000Y-103124000D01*
X107696000Y-103124000D02*
X109220000Y-101600000D01*
X79248000Y-108646000D02*
X79248000Y-109794000D01*
X82804000Y-108966000D02*
X79568000Y-108966000D01*
X79568000Y-108966000D02*
X79248000Y-108646000D01*
X82804000Y-108966000D02*
X82760000Y-108966000D01*
X82760000Y-108966000D02*
X82760000Y-107144000D01*
X96774000Y-102378000D02*
X98028000Y-102378000D01*
X98028000Y-102378000D02*
X98044000Y-102362000D01*
X96774000Y-102378000D02*
X97552000Y-102378000D01*
X94742000Y-102378000D02*
X96774000Y-102378000D01*
X92456000Y-102575000D02*
X92751000Y-102575000D01*
X92751000Y-102575000D02*
X92948000Y-102378000D01*
X92948000Y-102378000D02*
X93218000Y-102378000D01*
X93218000Y-102378000D02*
X94742000Y-102378000D01*
X82760000Y-105825000D02*
X82760000Y-106934000D01*
X82760000Y-106934000D02*
X82760000Y-107144000D01*
X89960000Y-102575000D02*
X92456000Y-102575000D01*
X92456000Y-102575000D02*
X92497000Y-102575000D01*
X82760000Y-99975000D02*
X79655000Y-99975000D01*
X96004000Y-74668000D02*
X94488000Y-73152000D01*
X94488000Y-73152000D02*
X88900000Y-73152000D01*
X88900000Y-73152000D02*
X76962000Y-85090000D01*
X76962000Y-85090000D02*
X76962000Y-91694000D01*
X76962000Y-91694000D02*
X78486000Y-93218000D01*
X78486000Y-93218000D02*
X78486000Y-98806000D01*
X96004000Y-74668000D02*
X96004000Y-78994000D01*
X79655000Y-99975000D02*
X78486000Y-98806000D01*
X96004000Y-79256000D02*
X96004000Y-78994000D01*
X96004000Y-78994000D02*
X96004000Y-78986000D01*
X98044000Y-78552000D02*
X96708000Y-78552000D01*
X96708000Y-78552000D02*
X96004000Y-79256000D01*
X100330000Y-78502000D02*
X98094000Y-78502000D01*
X98094000Y-78502000D02*
X98044000Y-78552000D01*
X96004000Y-79256000D02*
X96004000Y-80034000D01*
X71374000Y-98806000D02*
X72964000Y-98806000D01*
X69934000Y-98806000D02*
X71374000Y-98806000D01*
X71374000Y-98806000D02*
X71440000Y-98806000D01*
X72964000Y-100838000D02*
X71440000Y-100838000D01*
X71440000Y-100838000D02*
X69934000Y-100838000D01*
X71374000Y-102870000D02*
X72964000Y-102870000D01*
X69934000Y-102870000D02*
X71374000Y-102870000D01*
X71374000Y-102870000D02*
X71440000Y-102870000D01*
X91347000Y-97375000D02*
X91694000Y-97028000D01*
X89960000Y-97375000D02*
X91347000Y-97375000D01*
X68580000Y-82550000D02*
X72390000Y-82550000D01*
X72390000Y-82550000D02*
X75692000Y-85852000D01*
X75692000Y-92202000D02*
X75692000Y-85852000D01*
X76454000Y-93472000D02*
X77470000Y-93472000D01*
X75438000Y-93472000D02*
X76454000Y-93472000D01*
X75692000Y-93472000D02*
X75438000Y-93472000D01*
X75438000Y-93472000D02*
X73340000Y-93472000D01*
X69934000Y-93472000D02*
X71440000Y-93472000D01*
X74168000Y-91440000D02*
X73340000Y-91440000D01*
X69934000Y-91440000D02*
X71440000Y-91440000D01*
X98298000Y-112776000D02*
X97216000Y-112776000D01*
X98806000Y-113284000D02*
X98298000Y-112776000D01*
X91440000Y-93726000D02*
X91440000Y-95504000D01*
X88326000Y-85344000D02*
X88900000Y-85344000D01*
X91440000Y-87884000D02*
X91440000Y-93726000D01*
X88900000Y-85344000D02*
X91440000Y-87884000D01*
X94234000Y-97790000D02*
X95250000Y-98806000D01*
X93726000Y-97790000D02*
X94234000Y-97790000D01*
X91440000Y-95504000D02*
X93726000Y-97790000D01*
X101306000Y-106680000D02*
X101306000Y-104100000D01*
X97536000Y-100330000D02*
X101306000Y-104100000D01*
X96012000Y-100330000D02*
X97536000Y-100330000D01*
X95250000Y-99568000D02*
X96012000Y-100330000D01*
X95250000Y-98806000D02*
X95250000Y-99568000D01*
D34*
X101306000Y-106680000D02*
X101346000Y-106720000D01*
X101346000Y-106720000D02*
X101346000Y-108982000D01*
X99060000Y-108982000D02*
X101346000Y-108982000D01*
X101346000Y-108982000D02*
X108982000Y-108982000D01*
X108982000Y-108982000D02*
X109220000Y-109220000D01*
D33*
X79944000Y-77216000D02*
X80518000Y-77216000D01*
X82550000Y-95758000D02*
X82760000Y-95968000D01*
X82760000Y-95968000D02*
X82760000Y-97375000D01*
X76454000Y-92710000D02*
X76454000Y-84836000D01*
X76454000Y-84836000D02*
X81026000Y-80264000D01*
X81534000Y-79756000D02*
X81026000Y-80264000D01*
X81534000Y-78232000D02*
X81534000Y-79756000D01*
X80518000Y-77216000D02*
X81534000Y-78232000D01*
X85598000Y-105918000D02*
X84074000Y-107442000D01*
X88138000Y-100584000D02*
X85598000Y-103124000D01*
X88138000Y-98298000D02*
X88138000Y-100584000D01*
X88411000Y-98025000D02*
X88138000Y-98298000D01*
X89960000Y-98025000D02*
X88411000Y-98025000D01*
X85598000Y-103124000D02*
X85598000Y-105918000D01*
X81092000Y-106746000D02*
X79248000Y-106746000D01*
X81788000Y-107442000D02*
X81092000Y-106746000D01*
X79248000Y-106746000D02*
X79248000Y-106426000D01*
X79248000Y-106426000D02*
X78994000Y-106172000D01*
X78994000Y-106172000D02*
X76665000Y-106172000D01*
X71882000Y-85090000D02*
X68580000Y-85090000D01*
X89960000Y-98025000D02*
X91694000Y-98025000D01*
X91694000Y-98025000D02*
X91713000Y-98025000D01*
X74930000Y-88138000D02*
X74930000Y-92710000D01*
X71882000Y-85090000D02*
X74930000Y-88138000D01*
X79248000Y-111694000D02*
X85156000Y-111694000D01*
X88321000Y-101925000D02*
X89960000Y-101925000D01*
X87884000Y-102362000D02*
X88321000Y-101925000D01*
X87884000Y-108966000D02*
X87884000Y-102362000D01*
X85156000Y-111694000D02*
X87884000Y-108966000D01*
X76665000Y-109982000D02*
X76665000Y-111209000D01*
X77150000Y-111694000D02*
X79248000Y-111694000D01*
X76665000Y-111209000D02*
X77150000Y-111694000D01*
X79502000Y-103875000D02*
X79491000Y-103875000D01*
X79491000Y-103875000D02*
X76531998Y-100915998D01*
X75946000Y-96774000D02*
X74864000Y-96774000D01*
X76531998Y-97359998D02*
X75946000Y-96774000D01*
X76531998Y-100915998D02*
X76531998Y-97359998D01*
X82760000Y-103875000D02*
X79502000Y-103875000D01*
X82760000Y-104525000D02*
X79379000Y-104525000D01*
X75692000Y-98806000D02*
X74864000Y-98806000D01*
X76101996Y-99215996D02*
X75692000Y-98806000D01*
X76101996Y-101247996D02*
X76101996Y-99215996D01*
X79379000Y-104525000D02*
X76101996Y-101247996D01*
X92355000Y-99975000D02*
X93319000Y-99975000D01*
X89960000Y-99975000D02*
X92355000Y-99975000D01*
X93319000Y-99975000D02*
X93726000Y-99568000D01*
X80010000Y-105918000D02*
X80772000Y-105918000D01*
X80010000Y-105918000D02*
X74930000Y-100838000D01*
X74864000Y-100838000D02*
X74930000Y-100838000D01*
X92953000Y-99325000D02*
X93726000Y-98552000D01*
X89960000Y-99325000D02*
X92953000Y-99325000D01*
X74864000Y-102870000D02*
X75946000Y-102870000D01*
X76200000Y-103124000D02*
X75946000Y-102870000D01*
X76200000Y-103886000D02*
X76200000Y-103124000D01*
X82760000Y-98025000D02*
X80499000Y-98025000D01*
X83058000Y-93218000D02*
X83058000Y-92710000D01*
X83058000Y-92710000D02*
X83058000Y-91440000D01*
X84770000Y-89728000D02*
X84770000Y-87868000D01*
X83058000Y-91440000D02*
X84770000Y-89728000D01*
X83058000Y-93726000D02*
X83058000Y-93218000D01*
X80010000Y-96774000D02*
X83058000Y-93726000D01*
X80010000Y-97536000D02*
X80010000Y-96774000D01*
X80499000Y-98025000D02*
X80010000Y-97536000D01*
X84770000Y-87868000D02*
X85582000Y-87868000D01*
X86360000Y-88646000D02*
X86360000Y-89728000D01*
X85582000Y-87868000D02*
X86360000Y-88646000D01*
X84770000Y-87868000D02*
X85360000Y-87868000D01*
X84770000Y-87868000D02*
X84852000Y-87868000D01*
X99060000Y-90490000D02*
X99060000Y-88392000D01*
X96266000Y-85598000D02*
X93980000Y-85598000D01*
X99060000Y-88392000D02*
X96266000Y-85598000D01*
X93980000Y-86884000D02*
X93980000Y-85598000D01*
X93218000Y-84836000D02*
X91186000Y-82804000D01*
X91186000Y-82804000D02*
X90320000Y-82804000D01*
X90320000Y-82804000D02*
X90254000Y-82738000D01*
X93980000Y-85598000D02*
X93218000Y-84836000D01*
X95004000Y-79002000D02*
X94742000Y-78740000D01*
X95004000Y-79002000D02*
X95004000Y-80034000D01*
X93472000Y-78740000D02*
X94742000Y-78740000D01*
X93218000Y-78994000D02*
X93472000Y-78740000D01*
X93218000Y-84836000D02*
X93218000Y-78994000D01*
X96004000Y-83034000D02*
X96004000Y-83812000D01*
X95742000Y-84074000D02*
X95504000Y-84074000D01*
X96004000Y-83812000D02*
X95742000Y-84074000D01*
X95504000Y-84074000D02*
X95504000Y-83034000D01*
X93980000Y-85598000D02*
X95504000Y-84074000D01*
X84459000Y-98675000D02*
X85090000Y-98044000D01*
X85090000Y-98044000D02*
X85090000Y-96266000D01*
X85090000Y-96266000D02*
X84074000Y-95250000D01*
X84459000Y-98675000D02*
X82760000Y-98675000D01*
X99060000Y-93472000D02*
X99060000Y-92390000D01*
X81026000Y-84074000D02*
X78994000Y-86106000D01*
X88054000Y-82738000D02*
X82362000Y-82738000D01*
X82362000Y-82738000D02*
X81026000Y-84074000D01*
X80021000Y-99325000D02*
X82760000Y-99325000D01*
X78994000Y-98298000D02*
X80021000Y-99325000D01*
X78994000Y-86106000D02*
X78994000Y-98298000D01*
X85852000Y-97282000D02*
X85852000Y-95758000D01*
X85852000Y-100076000D02*
X84653000Y-101275000D01*
X85852000Y-97282000D02*
X85852000Y-100076000D01*
X82760000Y-101275000D02*
X84653000Y-101275000D01*
X85852000Y-95758000D02*
X85852000Y-94234000D01*
X81026000Y-88646000D02*
X81788000Y-87884000D01*
X82550000Y-87884000D02*
X81788000Y-87884000D01*
X87630000Y-96012000D02*
X87630000Y-94996000D01*
X87630000Y-97028000D02*
X87630000Y-96012000D01*
X84055000Y-105175000D02*
X85090000Y-104140000D01*
X85090000Y-104140000D02*
X85090000Y-102616000D01*
X85090000Y-102616000D02*
X87630000Y-100076000D01*
X87630000Y-100076000D02*
X87630000Y-97028000D01*
X84055000Y-105175000D02*
X82760000Y-105175000D01*
X81026000Y-93472000D02*
X81026000Y-92456000D01*
X85090000Y-93472000D02*
X84328000Y-94234000D01*
X86106000Y-93472000D02*
X85090000Y-93472000D01*
X87630000Y-94996000D02*
X86106000Y-93472000D01*
X81026000Y-92456000D02*
X81026000Y-88646000D01*
X81026000Y-94234000D02*
X81026000Y-93472000D01*
X82550000Y-87884000D02*
X82870000Y-87868000D01*
X82870000Y-87868000D02*
X82870000Y-87950000D01*
X91694000Y-106172000D02*
X91694000Y-107886000D01*
X91694000Y-107886000D02*
X85964000Y-113616000D01*
X85964000Y-113616000D02*
X85964000Y-114866000D01*
X91347000Y-105825000D02*
X89960000Y-105825000D01*
X91694000Y-106172000D02*
X91347000Y-105825000D01*
X86614000Y-114866000D02*
X86614000Y-113616000D01*
X91459000Y-105175000D02*
X89960000Y-105175000D01*
X86614000Y-113616000D02*
X92202000Y-108028000D01*
X92202000Y-108028000D02*
X92202000Y-105918000D01*
X92202000Y-105918000D02*
X91459000Y-105175000D01*
X92710000Y-108458000D02*
X92964000Y-108204000D01*
X92964000Y-108204000D02*
X92964000Y-105664000D01*
X92964000Y-105664000D02*
X91825000Y-104525000D01*
X89960000Y-104525000D02*
X91825000Y-104525000D01*
X93726000Y-105410000D02*
X93726000Y-107696000D01*
X89960000Y-103875000D02*
X92191000Y-103875000D01*
X92191000Y-103875000D02*
X93218000Y-104902000D01*
X93218000Y-104902000D02*
X93726000Y-105410000D01*
X94996000Y-101275000D02*
X94925000Y-101275000D01*
X94925000Y-101275000D02*
X94996000Y-101346000D01*
X93726000Y-101275000D02*
X94996000Y-101275000D01*
X94996000Y-101275000D02*
X95067000Y-101275000D01*
X89960000Y-101275000D02*
X93726000Y-101275000D01*
X93726000Y-101275000D02*
X93797000Y-101275000D01*
X94193000Y-100625000D02*
X94701000Y-100625000D01*
X89960000Y-100625000D02*
X93685000Y-100625000D01*
X93685000Y-100625000D02*
X94193000Y-100625000D01*
X94701000Y-100625000D02*
X94742000Y-100584000D01*
X93030000Y-93472000D02*
X93030000Y-95570000D01*
X92079000Y-98675000D02*
X92710000Y-98044000D01*
X92079000Y-98675000D02*
X89960000Y-98675000D01*
X93030000Y-95570000D02*
X93472000Y-96012000D01*
X93030000Y-93538000D02*
X93030000Y-93472000D01*
X93030000Y-93472000D02*
X93030000Y-92390000D01*
X93030000Y-89850000D02*
X93030000Y-92390000D01*
X93030000Y-89662000D02*
X93030000Y-89850000D01*
X93030000Y-89662000D02*
X93030000Y-88884000D01*
X98110000Y-110982000D02*
X97044000Y-110982000D01*
X96306000Y-110244000D02*
X96306000Y-106680000D01*
X97044000Y-110982000D02*
X96306000Y-110244000D01*
X95250000Y-109032000D02*
X95250000Y-108458000D01*
X96306000Y-107656000D02*
X96306000Y-106680000D01*
X95758000Y-108204000D02*
X96306000Y-107656000D01*
X95504000Y-108204000D02*
X95758000Y-108204000D01*
X95250000Y-108458000D02*
X95504000Y-108204000D01*
X72964000Y-96774000D02*
X71440000Y-96774000D01*
X71440000Y-96774000D02*
X69934000Y-96774000D01*
X95316000Y-112776000D02*
X95316000Y-114658000D01*
X95316000Y-114658000D02*
X95250000Y-114724000D01*
X83820000Y-85868000D02*
X84820000Y-85868000D01*
X85344000Y-85344000D02*
X86426000Y-85344000D01*
X84820000Y-85868000D02*
X85344000Y-85344000D01*
X83820000Y-85868000D02*
X83820000Y-85852000D01*
X83820000Y-85868000D02*
X83820000Y-85598000D01*
D35*
G36*
X113665000Y-73035000D02*
X112045750Y-73035000D01*
X111887000Y-73193750D01*
X111887000Y-74543000D01*
X111907000Y-74543000D01*
X111907000Y-74797000D01*
X111887000Y-74797000D01*
X111887000Y-76146250D01*
X112045750Y-76305000D01*
X113665000Y-76305000D01*
X113665000Y-78635000D01*
X112045750Y-78635000D01*
X111887000Y-78793750D01*
X111887000Y-80143000D01*
X111907000Y-80143000D01*
X111907000Y-80397000D01*
X111887000Y-80397000D01*
X111887000Y-81746250D01*
X112045750Y-81905000D01*
X113665000Y-81905000D01*
X113665000Y-85735000D01*
X112045750Y-85735000D01*
X111887000Y-85893750D01*
X111887000Y-87243000D01*
X111907000Y-87243000D01*
X111907000Y-87497000D01*
X111887000Y-87497000D01*
X111887000Y-88846250D01*
X112045750Y-89005000D01*
X113665000Y-89005000D01*
X113665000Y-91335000D01*
X112045750Y-91335000D01*
X111887000Y-91493750D01*
X111887000Y-92843000D01*
X111907000Y-92843000D01*
X111907000Y-93097000D01*
X111887000Y-93097000D01*
X111887000Y-94446250D01*
X112045750Y-94605000D01*
X113665000Y-94605000D01*
X113665000Y-118745000D01*
X92161440Y-118745000D01*
X92161440Y-116916000D01*
X92112157Y-116668235D01*
X91971809Y-116458191D01*
X91761765Y-116317843D01*
X91514000Y-116268560D01*
X91381094Y-116268560D01*
X91411440Y-116116000D01*
X91411440Y-114516000D01*
X91362157Y-114268235D01*
X91221809Y-114058191D01*
X91011765Y-113917843D01*
X90764000Y-113868560D01*
X88749000Y-113868560D01*
X88749000Y-113739690D01*
X88652327Y-113506301D01*
X88473698Y-113327673D01*
X88240309Y-113231000D01*
X88172750Y-113231000D01*
X88041002Y-113362748D01*
X88041002Y-113263800D01*
X92117196Y-109187606D01*
X92179673Y-109250192D01*
X92523201Y-109392838D01*
X92895167Y-109393162D01*
X93238943Y-109251117D01*
X93502192Y-108988327D01*
X93644838Y-108644799D01*
X93644850Y-108630930D01*
X93911167Y-108631162D01*
X93967284Y-108607975D01*
X93952560Y-108682000D01*
X93952560Y-109382000D01*
X94001843Y-109629765D01*
X94142191Y-109839809D01*
X94352235Y-109980157D01*
X94380209Y-109985721D01*
X94240301Y-110043673D01*
X94061673Y-110222302D01*
X93965000Y-110455691D01*
X93965000Y-110646250D01*
X94123750Y-110805000D01*
X95123000Y-110805000D01*
X95123000Y-110785000D01*
X95377000Y-110785000D01*
X95377000Y-110805000D01*
X95397000Y-110805000D01*
X95397000Y-111059000D01*
X95377000Y-111059000D01*
X95377000Y-111079000D01*
X95123000Y-111079000D01*
X95123000Y-111059000D01*
X94123750Y-111059000D01*
X93965000Y-111217750D01*
X93965000Y-111408309D01*
X94061673Y-111641698D01*
X94240301Y-111820327D01*
X94370501Y-111874258D01*
X94367843Y-111878235D01*
X94318560Y-112126000D01*
X94318560Y-113426000D01*
X94345906Y-113563481D01*
X94192191Y-113666191D01*
X94051843Y-113876235D01*
X94018626Y-114043230D01*
X94011117Y-114025057D01*
X93748327Y-113761808D01*
X93404799Y-113619162D01*
X93032833Y-113618838D01*
X92689057Y-113760883D01*
X92425808Y-114023673D01*
X92283162Y-114367201D01*
X92282838Y-114739167D01*
X92424883Y-115082943D01*
X92458000Y-115116118D01*
X92458000Y-116586000D01*
X92515852Y-116876839D01*
X92680599Y-117123401D01*
X93018599Y-117461401D01*
X93265160Y-117626148D01*
X93556000Y-117684000D01*
X94034386Y-117684000D01*
X94051843Y-117771765D01*
X94192191Y-117981809D01*
X94402235Y-118122157D01*
X94650000Y-118171440D01*
X95850000Y-118171440D01*
X96097765Y-118122157D01*
X96307809Y-117981809D01*
X96448157Y-117771765D01*
X96497440Y-117524000D01*
X96497440Y-116324000D01*
X96448157Y-116076235D01*
X96307809Y-115866191D01*
X96244666Y-115824000D01*
X96307809Y-115781809D01*
X96448157Y-115571765D01*
X96497440Y-115324000D01*
X96497440Y-114656892D01*
X100158514Y-114656892D01*
X100404817Y-115181358D01*
X100833076Y-115571645D01*
X101243110Y-115741476D01*
X101473000Y-115620155D01*
X101473000Y-114427000D01*
X100279181Y-114427000D01*
X100158514Y-114656892D01*
X96497440Y-114656892D01*
X96497440Y-114124000D01*
X96456020Y-113915768D01*
X96618235Y-114024157D01*
X96866000Y-114073440D01*
X97566000Y-114073440D01*
X97813765Y-114024157D01*
X98023809Y-113883809D01*
X98047793Y-113847914D01*
X98275673Y-114076192D01*
X98619201Y-114218838D01*
X98991167Y-114219162D01*
X99334943Y-114077117D01*
X99598192Y-113814327D01*
X99740838Y-113470799D01*
X99741133Y-113132425D01*
X99928233Y-113257440D01*
X100015325Y-113315633D01*
X100354000Y-113383000D01*
X100443927Y-113383000D01*
X100404817Y-113418642D01*
X100158514Y-113943108D01*
X100279181Y-114173000D01*
X101473000Y-114173000D01*
X101473000Y-114153000D01*
X101727000Y-114153000D01*
X101727000Y-114173000D01*
X101747000Y-114173000D01*
X101747000Y-114427000D01*
X101727000Y-114427000D01*
X101727000Y-115620155D01*
X101956890Y-115741476D01*
X102366924Y-115571645D01*
X102671261Y-115294292D01*
X102691843Y-115397765D01*
X102832191Y-115607809D01*
X103042235Y-115748157D01*
X103290000Y-115797440D01*
X104990000Y-115797440D01*
X105237765Y-115748157D01*
X105447809Y-115607809D01*
X105588157Y-115397765D01*
X105637440Y-115150000D01*
X105637440Y-113450000D01*
X105588157Y-113202235D01*
X105447809Y-112992191D01*
X105237765Y-112851843D01*
X104990000Y-112802560D01*
X104862241Y-112802560D01*
X104765790Y-112658210D01*
X104765787Y-112658208D01*
X104439415Y-112331835D01*
X104497000Y-112274250D01*
X104497000Y-111125000D01*
X104751000Y-111125000D01*
X104751000Y-112274250D01*
X104909750Y-112433000D01*
X105250309Y-112433000D01*
X105483698Y-112336327D01*
X105662327Y-112157699D01*
X105759000Y-111924310D01*
X105759000Y-111283750D01*
X105600250Y-111125000D01*
X104751000Y-111125000D01*
X104497000Y-111125000D01*
X103647750Y-111125000D01*
X103489000Y-111283750D01*
X103489000Y-111659079D01*
X103378000Y-111636999D01*
X103377995Y-111637000D01*
X102771440Y-111637000D01*
X102771440Y-110198000D01*
X102722157Y-109950235D01*
X102666541Y-109867000D01*
X103573785Y-109867000D01*
X103489000Y-110071690D01*
X103489000Y-110712250D01*
X103647750Y-110871000D01*
X104497000Y-110871000D01*
X104497000Y-110851000D01*
X104751000Y-110851000D01*
X104751000Y-110871000D01*
X105600250Y-110871000D01*
X105759000Y-110712250D01*
X105759000Y-110071690D01*
X105674215Y-109867000D01*
X107722560Y-109867000D01*
X107722560Y-110070000D01*
X107771843Y-110317765D01*
X107886928Y-110490000D01*
X107771843Y-110662235D01*
X107722560Y-110910000D01*
X107722560Y-112610000D01*
X107771843Y-112857765D01*
X107912191Y-113067809D01*
X108122235Y-113208157D01*
X108184777Y-113220597D01*
X108140853Y-113249946D01*
X107818946Y-113731715D01*
X107705907Y-114300000D01*
X107818946Y-114868285D01*
X108140853Y-115350054D01*
X108622622Y-115671961D01*
X109190907Y-115785000D01*
X109249093Y-115785000D01*
X109817378Y-115671961D01*
X110299147Y-115350054D01*
X110621054Y-114868285D01*
X110734093Y-114300000D01*
X110621054Y-113731715D01*
X110299147Y-113249946D01*
X110255223Y-113220597D01*
X110317765Y-113208157D01*
X110527809Y-113067809D01*
X110668157Y-112857765D01*
X110717440Y-112610000D01*
X110717440Y-110910000D01*
X110668157Y-110662235D01*
X110553072Y-110490000D01*
X110668157Y-110317765D01*
X110717440Y-110070000D01*
X110717440Y-108370000D01*
X110668157Y-108122235D01*
X110527809Y-107912191D01*
X110317765Y-107771843D01*
X110255223Y-107759403D01*
X110299147Y-107730054D01*
X110621054Y-107248285D01*
X110734093Y-106680000D01*
X110621054Y-106111715D01*
X110299147Y-105629946D01*
X110255223Y-105600597D01*
X110317765Y-105588157D01*
X110527809Y-105447809D01*
X110668157Y-105237765D01*
X110717440Y-104990000D01*
X110717440Y-103290000D01*
X110668157Y-103042235D01*
X110527809Y-102832191D01*
X110317765Y-102691843D01*
X110255223Y-102679403D01*
X110299147Y-102650054D01*
X110621054Y-102168285D01*
X110734093Y-101600000D01*
X110621054Y-101031715D01*
X110299147Y-100549946D01*
X110255223Y-100520597D01*
X110317765Y-100508157D01*
X110527809Y-100367809D01*
X110668157Y-100157765D01*
X110717440Y-99910000D01*
X110717440Y-98210000D01*
X110668157Y-97962235D01*
X110527809Y-97752191D01*
X110317765Y-97611843D01*
X110255223Y-97599403D01*
X110299147Y-97570054D01*
X110621054Y-97088285D01*
X110734093Y-96520000D01*
X110621054Y-95951715D01*
X110299147Y-95469946D01*
X109817378Y-95148039D01*
X109249093Y-95035000D01*
X109190907Y-95035000D01*
X108622622Y-95148039D01*
X108140853Y-95469946D01*
X108138383Y-95473643D01*
X108128157Y-95422235D01*
X107987809Y-95212191D01*
X107777765Y-95071843D01*
X107530000Y-95022560D01*
X105830000Y-95022560D01*
X105582235Y-95071843D01*
X105372191Y-95212191D01*
X105231843Y-95422235D01*
X105182560Y-95670000D01*
X105182560Y-96417960D01*
X104853050Y-95620485D01*
X104107169Y-94873301D01*
X104207201Y-94914838D01*
X104579167Y-94915162D01*
X104922943Y-94773117D01*
X105186192Y-94510327D01*
X105328838Y-94166799D01*
X105329162Y-93794833D01*
X105187117Y-93451057D01*
X104992151Y-93255750D01*
X108875000Y-93255750D01*
X108875000Y-94096309D01*
X108971673Y-94329698D01*
X109150301Y-94508327D01*
X109383690Y-94605000D01*
X111474250Y-94605000D01*
X111633000Y-94446250D01*
X111633000Y-93097000D01*
X109033750Y-93097000D01*
X108875000Y-93255750D01*
X104992151Y-93255750D01*
X104924327Y-93187808D01*
X104580799Y-93045162D01*
X104462578Y-93045059D01*
X104430839Y-93023852D01*
X104140000Y-92966000D01*
X100312486Y-92966000D01*
X100357440Y-92740000D01*
X100357440Y-92040000D01*
X100318393Y-91843691D01*
X108875000Y-91843691D01*
X108875000Y-92684250D01*
X109033750Y-92843000D01*
X111633000Y-92843000D01*
X111633000Y-91493750D01*
X111474250Y-91335000D01*
X109383690Y-91335000D01*
X109150301Y-91431673D01*
X108971673Y-91610302D01*
X108875000Y-91843691D01*
X100318393Y-91843691D01*
X100308157Y-91792235D01*
X100167809Y-91582191D01*
X99957765Y-91441843D01*
X99948500Y-91440000D01*
X99957765Y-91438157D01*
X100167809Y-91297809D01*
X100308157Y-91087765D01*
X100357440Y-90840000D01*
X100357440Y-90140000D01*
X100308157Y-89892235D01*
X100167809Y-89682191D01*
X99957765Y-89541843D01*
X99820000Y-89514440D01*
X99820000Y-88392000D01*
X99762148Y-88101161D01*
X99597401Y-87854599D01*
X98864802Y-87122000D01*
X108206000Y-87122000D01*
X108206000Y-87630000D01*
X108263852Y-87920839D01*
X108428599Y-88167401D01*
X108675161Y-88332148D01*
X108875000Y-88371899D01*
X108875000Y-88496309D01*
X108971673Y-88729698D01*
X109150301Y-88908327D01*
X109383690Y-89005000D01*
X111474250Y-89005000D01*
X111633000Y-88846250D01*
X111633000Y-87497000D01*
X111613000Y-87497000D01*
X111613000Y-87243000D01*
X111633000Y-87243000D01*
X111633000Y-85893750D01*
X111474250Y-85735000D01*
X109383690Y-85735000D01*
X109150301Y-85831673D01*
X108971673Y-86010302D01*
X108875000Y-86243691D01*
X108875000Y-86380101D01*
X108675161Y-86419852D01*
X108428599Y-86584599D01*
X108263852Y-86831161D01*
X108206000Y-87122000D01*
X98864802Y-87122000D01*
X96803401Y-85060599D01*
X96556839Y-84895852D01*
X96266000Y-84838000D01*
X95814802Y-84838000D01*
X95837872Y-84814930D01*
X96032839Y-84776148D01*
X96279401Y-84611401D01*
X96541401Y-84349401D01*
X96706148Y-84102839D01*
X96764000Y-83812000D01*
X96764000Y-83622226D01*
X96801440Y-83434000D01*
X96801440Y-82634000D01*
X96752157Y-82386235D01*
X96611809Y-82176191D01*
X96401765Y-82035843D01*
X96154000Y-81986560D01*
X95854000Y-81986560D01*
X95754000Y-82006451D01*
X95654000Y-81986560D01*
X95354000Y-81986560D01*
X95254000Y-82006451D01*
X95154000Y-81986560D01*
X94854000Y-81986560D01*
X94606235Y-82035843D01*
X94396191Y-82176191D01*
X94255843Y-82386235D01*
X94206560Y-82634000D01*
X94206560Y-83434000D01*
X94255843Y-83681765D01*
X94396191Y-83891809D01*
X94525192Y-83978006D01*
X93980000Y-84523198D01*
X93978000Y-84521198D01*
X93978000Y-79500000D01*
X94233214Y-79500000D01*
X94206560Y-79634000D01*
X94206560Y-80434000D01*
X94255843Y-80681765D01*
X94396191Y-80891809D01*
X94606235Y-81032157D01*
X94854000Y-81081440D01*
X95154000Y-81081440D01*
X95224073Y-81067502D01*
X95227690Y-81069000D01*
X95270250Y-81069000D01*
X95283586Y-81055664D01*
X95401765Y-81032157D01*
X95504000Y-80963845D01*
X95606235Y-81032157D01*
X95724414Y-81055664D01*
X95737750Y-81069000D01*
X95780310Y-81069000D01*
X95783927Y-81067502D01*
X95854000Y-81081440D01*
X96154000Y-81081440D01*
X96401765Y-81032157D01*
X96611809Y-80891809D01*
X96752157Y-80681765D01*
X96772598Y-80579002D01*
X96917748Y-80579002D01*
X96759000Y-80737750D01*
X96759000Y-80928309D01*
X96855673Y-81161698D01*
X97034301Y-81340327D01*
X97267690Y-81437000D01*
X97758250Y-81437000D01*
X97917000Y-81278250D01*
X97917000Y-80579000D01*
X98171000Y-80579000D01*
X98171000Y-81278250D01*
X98329750Y-81437000D01*
X98820310Y-81437000D01*
X99053699Y-81340327D01*
X99127324Y-81266701D01*
X99166673Y-81361698D01*
X99345301Y-81540327D01*
X99578690Y-81637000D01*
X100044250Y-81637000D01*
X100203000Y-81478250D01*
X100203000Y-80629000D01*
X100457000Y-80629000D01*
X100457000Y-81478250D01*
X100615750Y-81637000D01*
X101081310Y-81637000D01*
X101314699Y-81540327D01*
X101493327Y-81361698D01*
X101590000Y-81128309D01*
X101590000Y-80787750D01*
X101431250Y-80629000D01*
X100457000Y-80629000D01*
X100203000Y-80629000D01*
X99228750Y-80629000D01*
X99224500Y-80633250D01*
X99170250Y-80579000D01*
X98171000Y-80579000D01*
X97917000Y-80579000D01*
X97897000Y-80579000D01*
X97897000Y-80555750D01*
X108875000Y-80555750D01*
X108875000Y-81396309D01*
X108971673Y-81629698D01*
X109150301Y-81808327D01*
X109383690Y-81905000D01*
X111474250Y-81905000D01*
X111633000Y-81746250D01*
X111633000Y-80397000D01*
X109033750Y-80397000D01*
X108875000Y-80555750D01*
X97897000Y-80555750D01*
X97897000Y-80325000D01*
X97917000Y-80325000D01*
X97917000Y-80305000D01*
X98171000Y-80305000D01*
X98171000Y-80325000D01*
X99170250Y-80325000D01*
X99174500Y-80320750D01*
X99228750Y-80375000D01*
X100203000Y-80375000D01*
X100203000Y-80355000D01*
X100457000Y-80355000D01*
X100457000Y-80375000D01*
X101431250Y-80375000D01*
X101590000Y-80216250D01*
X101590000Y-79875691D01*
X101493327Y-79642302D01*
X101351680Y-79500654D01*
X101412809Y-79459809D01*
X101553157Y-79249765D01*
X101574256Y-79143691D01*
X108875000Y-79143691D01*
X108875000Y-79984250D01*
X109033750Y-80143000D01*
X111633000Y-80143000D01*
X111633000Y-78793750D01*
X111474250Y-78635000D01*
X109383690Y-78635000D01*
X109150301Y-78731673D01*
X108971673Y-78910302D01*
X108875000Y-79143691D01*
X101574256Y-79143691D01*
X101602440Y-79002000D01*
X101602440Y-78002000D01*
X101553157Y-77754235D01*
X101412809Y-77544191D01*
X101202765Y-77403843D01*
X100955000Y-77354560D01*
X99705000Y-77354560D01*
X99457235Y-77403843D01*
X99247191Y-77544191D01*
X99125362Y-77726520D01*
X98941765Y-77603843D01*
X98694000Y-77554560D01*
X97394000Y-77554560D01*
X97146235Y-77603843D01*
X96936191Y-77744191D01*
X96904246Y-77792000D01*
X96764000Y-77792000D01*
X96764000Y-74955750D01*
X108875000Y-74955750D01*
X108875000Y-75796309D01*
X108971673Y-76029698D01*
X109150301Y-76208327D01*
X109383690Y-76305000D01*
X111474250Y-76305000D01*
X111633000Y-76146250D01*
X111633000Y-74797000D01*
X109033750Y-74797000D01*
X108875000Y-74955750D01*
X96764000Y-74955750D01*
X96764000Y-74668000D01*
X96706148Y-74377161D01*
X96541401Y-74130599D01*
X95954493Y-73543691D01*
X108875000Y-73543691D01*
X108875000Y-74384250D01*
X109033750Y-74543000D01*
X111633000Y-74543000D01*
X111633000Y-73193750D01*
X111474250Y-73035000D01*
X109383690Y-73035000D01*
X109150301Y-73131673D01*
X108971673Y-73310302D01*
X108875000Y-73543691D01*
X95954493Y-73543691D01*
X95025401Y-72614599D01*
X94778839Y-72449852D01*
X94488000Y-72392000D01*
X88900000Y-72392000D01*
X88609161Y-72449852D01*
X88362599Y-72614598D01*
X82294000Y-78683198D01*
X82294000Y-78232000D01*
X82236148Y-77941161D01*
X82071401Y-77694599D01*
X81055401Y-76678599D01*
X80941440Y-76602453D01*
X80941440Y-76566000D01*
X80892157Y-76318235D01*
X80888405Y-76312620D01*
X81032327Y-76168699D01*
X81129000Y-75935310D01*
X81129000Y-75469750D01*
X80970250Y-75311000D01*
X80121000Y-75311000D01*
X80121000Y-75331000D01*
X79867000Y-75331000D01*
X79867000Y-75311000D01*
X79847000Y-75311000D01*
X79847000Y-75057000D01*
X79867000Y-75057000D01*
X79867000Y-74082750D01*
X80121000Y-74082750D01*
X80121000Y-75057000D01*
X80970250Y-75057000D01*
X81129000Y-74898250D01*
X81129000Y-74432690D01*
X81032327Y-74199301D01*
X80853698Y-74020673D01*
X80620309Y-73924000D01*
X80279750Y-73924000D01*
X80121000Y-74082750D01*
X79867000Y-74082750D01*
X79708250Y-73924000D01*
X79367691Y-73924000D01*
X79134302Y-74020673D01*
X78992654Y-74162320D01*
X78951809Y-74101191D01*
X78741765Y-73960843D01*
X78494000Y-73911560D01*
X77494000Y-73911560D01*
X77396665Y-73930921D01*
X76913050Y-72760485D01*
X75909318Y-71755000D01*
X113665000Y-71755000D01*
X113665000Y-73035000D01*
X113665000Y-73035000D01*
G37*
X113665000Y-73035000D02*
X112045750Y-73035000D01*
X111887000Y-73193750D01*
X111887000Y-74543000D01*
X111907000Y-74543000D01*
X111907000Y-74797000D01*
X111887000Y-74797000D01*
X111887000Y-76146250D01*
X112045750Y-76305000D01*
X113665000Y-76305000D01*
X113665000Y-78635000D01*
X112045750Y-78635000D01*
X111887000Y-78793750D01*
X111887000Y-80143000D01*
X111907000Y-80143000D01*
X111907000Y-80397000D01*
X111887000Y-80397000D01*
X111887000Y-81746250D01*
X112045750Y-81905000D01*
X113665000Y-81905000D01*
X113665000Y-85735000D01*
X112045750Y-85735000D01*
X111887000Y-85893750D01*
X111887000Y-87243000D01*
X111907000Y-87243000D01*
X111907000Y-87497000D01*
X111887000Y-87497000D01*
X111887000Y-88846250D01*
X112045750Y-89005000D01*
X113665000Y-89005000D01*
X113665000Y-91335000D01*
X112045750Y-91335000D01*
X111887000Y-91493750D01*
X111887000Y-92843000D01*
X111907000Y-92843000D01*
X111907000Y-93097000D01*
X111887000Y-93097000D01*
X111887000Y-94446250D01*
X112045750Y-94605000D01*
X113665000Y-94605000D01*
X113665000Y-118745000D01*
X92161440Y-118745000D01*
X92161440Y-116916000D01*
X92112157Y-116668235D01*
X91971809Y-116458191D01*
X91761765Y-116317843D01*
X91514000Y-116268560D01*
X91381094Y-116268560D01*
X91411440Y-116116000D01*
X91411440Y-114516000D01*
X91362157Y-114268235D01*
X91221809Y-114058191D01*
X91011765Y-113917843D01*
X90764000Y-113868560D01*
X88749000Y-113868560D01*
X88749000Y-113739690D01*
X88652327Y-113506301D01*
X88473698Y-113327673D01*
X88240309Y-113231000D01*
X88172750Y-113231000D01*
X88041002Y-113362748D01*
X88041002Y-113263800D01*
X92117196Y-109187606D01*
X92179673Y-109250192D01*
X92523201Y-109392838D01*
X92895167Y-109393162D01*
X93238943Y-109251117D01*
X93502192Y-108988327D01*
X93644838Y-108644799D01*
X93644850Y-108630930D01*
X93911167Y-108631162D01*
X93967284Y-108607975D01*
X93952560Y-108682000D01*
X93952560Y-109382000D01*
X94001843Y-109629765D01*
X94142191Y-109839809D01*
X94352235Y-109980157D01*
X94380209Y-109985721D01*
X94240301Y-110043673D01*
X94061673Y-110222302D01*
X93965000Y-110455691D01*
X93965000Y-110646250D01*
X94123750Y-110805000D01*
X95123000Y-110805000D01*
X95123000Y-110785000D01*
X95377000Y-110785000D01*
X95377000Y-110805000D01*
X95397000Y-110805000D01*
X95397000Y-111059000D01*
X95377000Y-111059000D01*
X95377000Y-111079000D01*
X95123000Y-111079000D01*
X95123000Y-111059000D01*
X94123750Y-111059000D01*
X93965000Y-111217750D01*
X93965000Y-111408309D01*
X94061673Y-111641698D01*
X94240301Y-111820327D01*
X94370501Y-111874258D01*
X94367843Y-111878235D01*
X94318560Y-112126000D01*
X94318560Y-113426000D01*
X94345906Y-113563481D01*
X94192191Y-113666191D01*
X94051843Y-113876235D01*
X94018626Y-114043230D01*
X94011117Y-114025057D01*
X93748327Y-113761808D01*
X93404799Y-113619162D01*
X93032833Y-113618838D01*
X92689057Y-113760883D01*
X92425808Y-114023673D01*
X92283162Y-114367201D01*
X92282838Y-114739167D01*
X92424883Y-115082943D01*
X92458000Y-115116118D01*
X92458000Y-116586000D01*
X92515852Y-116876839D01*
X92680599Y-117123401D01*
X93018599Y-117461401D01*
X93265160Y-117626148D01*
X93556000Y-117684000D01*
X94034386Y-117684000D01*
X94051843Y-117771765D01*
X94192191Y-117981809D01*
X94402235Y-118122157D01*
X94650000Y-118171440D01*
X95850000Y-118171440D01*
X96097765Y-118122157D01*
X96307809Y-117981809D01*
X96448157Y-117771765D01*
X96497440Y-117524000D01*
X96497440Y-116324000D01*
X96448157Y-116076235D01*
X96307809Y-115866191D01*
X96244666Y-115824000D01*
X96307809Y-115781809D01*
X96448157Y-115571765D01*
X96497440Y-115324000D01*
X96497440Y-114656892D01*
X100158514Y-114656892D01*
X100404817Y-115181358D01*
X100833076Y-115571645D01*
X101243110Y-115741476D01*
X101473000Y-115620155D01*
X101473000Y-114427000D01*
X100279181Y-114427000D01*
X100158514Y-114656892D01*
X96497440Y-114656892D01*
X96497440Y-114124000D01*
X96456020Y-113915768D01*
X96618235Y-114024157D01*
X96866000Y-114073440D01*
X97566000Y-114073440D01*
X97813765Y-114024157D01*
X98023809Y-113883809D01*
X98047793Y-113847914D01*
X98275673Y-114076192D01*
X98619201Y-114218838D01*
X98991167Y-114219162D01*
X99334943Y-114077117D01*
X99598192Y-113814327D01*
X99740838Y-113470799D01*
X99741133Y-113132425D01*
X99928233Y-113257440D01*
X100015325Y-113315633D01*
X100354000Y-113383000D01*
X100443927Y-113383000D01*
X100404817Y-113418642D01*
X100158514Y-113943108D01*
X100279181Y-114173000D01*
X101473000Y-114173000D01*
X101473000Y-114153000D01*
X101727000Y-114153000D01*
X101727000Y-114173000D01*
X101747000Y-114173000D01*
X101747000Y-114427000D01*
X101727000Y-114427000D01*
X101727000Y-115620155D01*
X101956890Y-115741476D01*
X102366924Y-115571645D01*
X102671261Y-115294292D01*
X102691843Y-115397765D01*
X102832191Y-115607809D01*
X103042235Y-115748157D01*
X103290000Y-115797440D01*
X104990000Y-115797440D01*
X105237765Y-115748157D01*
X105447809Y-115607809D01*
X105588157Y-115397765D01*
X105637440Y-115150000D01*
X105637440Y-113450000D01*
X105588157Y-113202235D01*
X105447809Y-112992191D01*
X105237765Y-112851843D01*
X104990000Y-112802560D01*
X104862241Y-112802560D01*
X104765790Y-112658210D01*
X104765787Y-112658208D01*
X104439415Y-112331835D01*
X104497000Y-112274250D01*
X104497000Y-111125000D01*
X104751000Y-111125000D01*
X104751000Y-112274250D01*
X104909750Y-112433000D01*
X105250309Y-112433000D01*
X105483698Y-112336327D01*
X105662327Y-112157699D01*
X105759000Y-111924310D01*
X105759000Y-111283750D01*
X105600250Y-111125000D01*
X104751000Y-111125000D01*
X104497000Y-111125000D01*
X103647750Y-111125000D01*
X103489000Y-111283750D01*
X103489000Y-111659079D01*
X103378000Y-111636999D01*
X103377995Y-111637000D01*
X102771440Y-111637000D01*
X102771440Y-110198000D01*
X102722157Y-109950235D01*
X102666541Y-109867000D01*
X103573785Y-109867000D01*
X103489000Y-110071690D01*
X103489000Y-110712250D01*
X103647750Y-110871000D01*
X104497000Y-110871000D01*
X104497000Y-110851000D01*
X104751000Y-110851000D01*
X104751000Y-110871000D01*
X105600250Y-110871000D01*
X105759000Y-110712250D01*
X105759000Y-110071690D01*
X105674215Y-109867000D01*
X107722560Y-109867000D01*
X107722560Y-110070000D01*
X107771843Y-110317765D01*
X107886928Y-110490000D01*
X107771843Y-110662235D01*
X107722560Y-110910000D01*
X107722560Y-112610000D01*
X107771843Y-112857765D01*
X107912191Y-113067809D01*
X108122235Y-113208157D01*
X108184777Y-113220597D01*
X108140853Y-113249946D01*
X107818946Y-113731715D01*
X107705907Y-114300000D01*
X107818946Y-114868285D01*
X108140853Y-115350054D01*
X108622622Y-115671961D01*
X109190907Y-115785000D01*
X109249093Y-115785000D01*
X109817378Y-115671961D01*
X110299147Y-115350054D01*
X110621054Y-114868285D01*
X110734093Y-114300000D01*
X110621054Y-113731715D01*
X110299147Y-113249946D01*
X110255223Y-113220597D01*
X110317765Y-113208157D01*
X110527809Y-113067809D01*
X110668157Y-112857765D01*
X110717440Y-112610000D01*
X110717440Y-110910000D01*
X110668157Y-110662235D01*
X110553072Y-110490000D01*
X110668157Y-110317765D01*
X110717440Y-110070000D01*
X110717440Y-108370000D01*
X110668157Y-108122235D01*
X110527809Y-107912191D01*
X110317765Y-107771843D01*
X110255223Y-107759403D01*
X110299147Y-107730054D01*
X110621054Y-107248285D01*
X110734093Y-106680000D01*
X110621054Y-106111715D01*
X110299147Y-105629946D01*
X110255223Y-105600597D01*
X110317765Y-105588157D01*
X110527809Y-105447809D01*
X110668157Y-105237765D01*
X110717440Y-104990000D01*
X110717440Y-103290000D01*
X110668157Y-103042235D01*
X110527809Y-102832191D01*
X110317765Y-102691843D01*
X110255223Y-102679403D01*
X110299147Y-102650054D01*
X110621054Y-102168285D01*
X110734093Y-101600000D01*
X110621054Y-101031715D01*
X110299147Y-100549946D01*
X110255223Y-100520597D01*
X110317765Y-100508157D01*
X110527809Y-100367809D01*
X110668157Y-100157765D01*
X110717440Y-99910000D01*
X110717440Y-98210000D01*
X110668157Y-97962235D01*
X110527809Y-97752191D01*
X110317765Y-97611843D01*
X110255223Y-97599403D01*
X110299147Y-97570054D01*
X110621054Y-97088285D01*
X110734093Y-96520000D01*
X110621054Y-95951715D01*
X110299147Y-95469946D01*
X109817378Y-95148039D01*
X109249093Y-95035000D01*
X109190907Y-95035000D01*
X108622622Y-95148039D01*
X108140853Y-95469946D01*
X108138383Y-95473643D01*
X108128157Y-95422235D01*
X107987809Y-95212191D01*
X107777765Y-95071843D01*
X107530000Y-95022560D01*
X105830000Y-95022560D01*
X105582235Y-95071843D01*
X105372191Y-95212191D01*
X105231843Y-95422235D01*
X105182560Y-95670000D01*
X105182560Y-96417960D01*
X104853050Y-95620485D01*
X104107169Y-94873301D01*
X104207201Y-94914838D01*
X104579167Y-94915162D01*
X104922943Y-94773117D01*
X105186192Y-94510327D01*
X105328838Y-94166799D01*
X105329162Y-93794833D01*
X105187117Y-93451057D01*
X104992151Y-93255750D01*
X108875000Y-93255750D01*
X108875000Y-94096309D01*
X108971673Y-94329698D01*
X109150301Y-94508327D01*
X109383690Y-94605000D01*
X111474250Y-94605000D01*
X111633000Y-94446250D01*
X111633000Y-93097000D01*
X109033750Y-93097000D01*
X108875000Y-93255750D01*
X104992151Y-93255750D01*
X104924327Y-93187808D01*
X104580799Y-93045162D01*
X104462578Y-93045059D01*
X104430839Y-93023852D01*
X104140000Y-92966000D01*
X100312486Y-92966000D01*
X100357440Y-92740000D01*
X100357440Y-92040000D01*
X100318393Y-91843691D01*
X108875000Y-91843691D01*
X108875000Y-92684250D01*
X109033750Y-92843000D01*
X111633000Y-92843000D01*
X111633000Y-91493750D01*
X111474250Y-91335000D01*
X109383690Y-91335000D01*
X109150301Y-91431673D01*
X108971673Y-91610302D01*
X108875000Y-91843691D01*
X100318393Y-91843691D01*
X100308157Y-91792235D01*
X100167809Y-91582191D01*
X99957765Y-91441843D01*
X99948500Y-91440000D01*
X99957765Y-91438157D01*
X100167809Y-91297809D01*
X100308157Y-91087765D01*
X100357440Y-90840000D01*
X100357440Y-90140000D01*
X100308157Y-89892235D01*
X100167809Y-89682191D01*
X99957765Y-89541843D01*
X99820000Y-89514440D01*
X99820000Y-88392000D01*
X99762148Y-88101161D01*
X99597401Y-87854599D01*
X98864802Y-87122000D01*
X108206000Y-87122000D01*
X108206000Y-87630000D01*
X108263852Y-87920839D01*
X108428599Y-88167401D01*
X108675161Y-88332148D01*
X108875000Y-88371899D01*
X108875000Y-88496309D01*
X108971673Y-88729698D01*
X109150301Y-88908327D01*
X109383690Y-89005000D01*
X111474250Y-89005000D01*
X111633000Y-88846250D01*
X111633000Y-87497000D01*
X111613000Y-87497000D01*
X111613000Y-87243000D01*
X111633000Y-87243000D01*
X111633000Y-85893750D01*
X111474250Y-85735000D01*
X109383690Y-85735000D01*
X109150301Y-85831673D01*
X108971673Y-86010302D01*
X108875000Y-86243691D01*
X108875000Y-86380101D01*
X108675161Y-86419852D01*
X108428599Y-86584599D01*
X108263852Y-86831161D01*
X108206000Y-87122000D01*
X98864802Y-87122000D01*
X96803401Y-85060599D01*
X96556839Y-84895852D01*
X96266000Y-84838000D01*
X95814802Y-84838000D01*
X95837872Y-84814930D01*
X96032839Y-84776148D01*
X96279401Y-84611401D01*
X96541401Y-84349401D01*
X96706148Y-84102839D01*
X96764000Y-83812000D01*
X96764000Y-83622226D01*
X96801440Y-83434000D01*
X96801440Y-82634000D01*
X96752157Y-82386235D01*
X96611809Y-82176191D01*
X96401765Y-82035843D01*
X96154000Y-81986560D01*
X95854000Y-81986560D01*
X95754000Y-82006451D01*
X95654000Y-81986560D01*
X95354000Y-81986560D01*
X95254000Y-82006451D01*
X95154000Y-81986560D01*
X94854000Y-81986560D01*
X94606235Y-82035843D01*
X94396191Y-82176191D01*
X94255843Y-82386235D01*
X94206560Y-82634000D01*
X94206560Y-83434000D01*
X94255843Y-83681765D01*
X94396191Y-83891809D01*
X94525192Y-83978006D01*
X93980000Y-84523198D01*
X93978000Y-84521198D01*
X93978000Y-79500000D01*
X94233214Y-79500000D01*
X94206560Y-79634000D01*
X94206560Y-80434000D01*
X94255843Y-80681765D01*
X94396191Y-80891809D01*
X94606235Y-81032157D01*
X94854000Y-81081440D01*
X95154000Y-81081440D01*
X95224073Y-81067502D01*
X95227690Y-81069000D01*
X95270250Y-81069000D01*
X95283586Y-81055664D01*
X95401765Y-81032157D01*
X95504000Y-80963845D01*
X95606235Y-81032157D01*
X95724414Y-81055664D01*
X95737750Y-81069000D01*
X95780310Y-81069000D01*
X95783927Y-81067502D01*
X95854000Y-81081440D01*
X96154000Y-81081440D01*
X96401765Y-81032157D01*
X96611809Y-80891809D01*
X96752157Y-80681765D01*
X96772598Y-80579002D01*
X96917748Y-80579002D01*
X96759000Y-80737750D01*
X96759000Y-80928309D01*
X96855673Y-81161698D01*
X97034301Y-81340327D01*
X97267690Y-81437000D01*
X97758250Y-81437000D01*
X97917000Y-81278250D01*
X97917000Y-80579000D01*
X98171000Y-80579000D01*
X98171000Y-81278250D01*
X98329750Y-81437000D01*
X98820310Y-81437000D01*
X99053699Y-81340327D01*
X99127324Y-81266701D01*
X99166673Y-81361698D01*
X99345301Y-81540327D01*
X99578690Y-81637000D01*
X100044250Y-81637000D01*
X100203000Y-81478250D01*
X100203000Y-80629000D01*
X100457000Y-80629000D01*
X100457000Y-81478250D01*
X100615750Y-81637000D01*
X101081310Y-81637000D01*
X101314699Y-81540327D01*
X101493327Y-81361698D01*
X101590000Y-81128309D01*
X101590000Y-80787750D01*
X101431250Y-80629000D01*
X100457000Y-80629000D01*
X100203000Y-80629000D01*
X99228750Y-80629000D01*
X99224500Y-80633250D01*
X99170250Y-80579000D01*
X98171000Y-80579000D01*
X97917000Y-80579000D01*
X97897000Y-80579000D01*
X97897000Y-80555750D01*
X108875000Y-80555750D01*
X108875000Y-81396309D01*
X108971673Y-81629698D01*
X109150301Y-81808327D01*
X109383690Y-81905000D01*
X111474250Y-81905000D01*
X111633000Y-81746250D01*
X111633000Y-80397000D01*
X109033750Y-80397000D01*
X108875000Y-80555750D01*
X97897000Y-80555750D01*
X97897000Y-80325000D01*
X97917000Y-80325000D01*
X97917000Y-80305000D01*
X98171000Y-80305000D01*
X98171000Y-80325000D01*
X99170250Y-80325000D01*
X99174500Y-80320750D01*
X99228750Y-80375000D01*
X100203000Y-80375000D01*
X100203000Y-80355000D01*
X100457000Y-80355000D01*
X100457000Y-80375000D01*
X101431250Y-80375000D01*
X101590000Y-80216250D01*
X101590000Y-79875691D01*
X101493327Y-79642302D01*
X101351680Y-79500654D01*
X101412809Y-79459809D01*
X101553157Y-79249765D01*
X101574256Y-79143691D01*
X108875000Y-79143691D01*
X108875000Y-79984250D01*
X109033750Y-80143000D01*
X111633000Y-80143000D01*
X111633000Y-78793750D01*
X111474250Y-78635000D01*
X109383690Y-78635000D01*
X109150301Y-78731673D01*
X108971673Y-78910302D01*
X108875000Y-79143691D01*
X101574256Y-79143691D01*
X101602440Y-79002000D01*
X101602440Y-78002000D01*
X101553157Y-77754235D01*
X101412809Y-77544191D01*
X101202765Y-77403843D01*
X100955000Y-77354560D01*
X99705000Y-77354560D01*
X99457235Y-77403843D01*
X99247191Y-77544191D01*
X99125362Y-77726520D01*
X98941765Y-77603843D01*
X98694000Y-77554560D01*
X97394000Y-77554560D01*
X97146235Y-77603843D01*
X96936191Y-77744191D01*
X96904246Y-77792000D01*
X96764000Y-77792000D01*
X96764000Y-74955750D01*
X108875000Y-74955750D01*
X108875000Y-75796309D01*
X108971673Y-76029698D01*
X109150301Y-76208327D01*
X109383690Y-76305000D01*
X111474250Y-76305000D01*
X111633000Y-76146250D01*
X111633000Y-74797000D01*
X109033750Y-74797000D01*
X108875000Y-74955750D01*
X96764000Y-74955750D01*
X96764000Y-74668000D01*
X96706148Y-74377161D01*
X96541401Y-74130599D01*
X95954493Y-73543691D01*
X108875000Y-73543691D01*
X108875000Y-74384250D01*
X109033750Y-74543000D01*
X111633000Y-74543000D01*
X111633000Y-73193750D01*
X111474250Y-73035000D01*
X109383690Y-73035000D01*
X109150301Y-73131673D01*
X108971673Y-73310302D01*
X108875000Y-73543691D01*
X95954493Y-73543691D01*
X95025401Y-72614599D01*
X94778839Y-72449852D01*
X94488000Y-72392000D01*
X88900000Y-72392000D01*
X88609161Y-72449852D01*
X88362599Y-72614598D01*
X82294000Y-78683198D01*
X82294000Y-78232000D01*
X82236148Y-77941161D01*
X82071401Y-77694599D01*
X81055401Y-76678599D01*
X80941440Y-76602453D01*
X80941440Y-76566000D01*
X80892157Y-76318235D01*
X80888405Y-76312620D01*
X81032327Y-76168699D01*
X81129000Y-75935310D01*
X81129000Y-75469750D01*
X80970250Y-75311000D01*
X80121000Y-75311000D01*
X80121000Y-75331000D01*
X79867000Y-75331000D01*
X79867000Y-75311000D01*
X79847000Y-75311000D01*
X79847000Y-75057000D01*
X79867000Y-75057000D01*
X79867000Y-74082750D01*
X80121000Y-74082750D01*
X80121000Y-75057000D01*
X80970250Y-75057000D01*
X81129000Y-74898250D01*
X81129000Y-74432690D01*
X81032327Y-74199301D01*
X80853698Y-74020673D01*
X80620309Y-73924000D01*
X80279750Y-73924000D01*
X80121000Y-74082750D01*
X79867000Y-74082750D01*
X79708250Y-73924000D01*
X79367691Y-73924000D01*
X79134302Y-74020673D01*
X78992654Y-74162320D01*
X78951809Y-74101191D01*
X78741765Y-73960843D01*
X78494000Y-73911560D01*
X77494000Y-73911560D01*
X77396665Y-73930921D01*
X76913050Y-72760485D01*
X75909318Y-71755000D01*
X113665000Y-71755000D01*
X113665000Y-73035000D01*
G36*
X70410741Y-72754811D02*
X69988191Y-73772423D01*
X69887809Y-73622191D01*
X69677765Y-73481843D01*
X69430000Y-73432560D01*
X67730000Y-73432560D01*
X67482235Y-73481843D01*
X67272191Y-73622191D01*
X67131843Y-73832235D01*
X67082560Y-74080000D01*
X67082560Y-75780000D01*
X67131843Y-76027765D01*
X67272191Y-76237809D01*
X67482235Y-76378157D01*
X67544777Y-76390597D01*
X67500853Y-76419946D01*
X67178946Y-76901715D01*
X67065907Y-77470000D01*
X67178946Y-78038285D01*
X67500853Y-78520054D01*
X67841553Y-78747702D01*
X67698642Y-78814817D01*
X67308355Y-79243076D01*
X67138524Y-79653110D01*
X67259845Y-79883000D01*
X68453000Y-79883000D01*
X68453000Y-79863000D01*
X68707000Y-79863000D01*
X68707000Y-79883000D01*
X69900155Y-79883000D01*
X70021476Y-79653110D01*
X69851645Y-79243076D01*
X69461358Y-78814817D01*
X69318447Y-78747702D01*
X69479981Y-78639768D01*
X69566599Y-78769401D01*
X70582599Y-79785401D01*
X70829161Y-79950148D01*
X71120000Y-80008000D01*
X71335367Y-80008000D01*
X71201162Y-80331201D01*
X71200838Y-80703167D01*
X71342883Y-81046943D01*
X71605673Y-81310192D01*
X71949201Y-81452838D01*
X72321167Y-81453162D01*
X72664943Y-81311117D01*
X72698118Y-81278000D01*
X78937198Y-81278000D01*
X75916599Y-84298599D01*
X75751852Y-84545161D01*
X75703424Y-84788622D01*
X72927401Y-82012599D01*
X72680839Y-81847852D01*
X72390000Y-81790000D01*
X69852954Y-81790000D01*
X69659147Y-81499946D01*
X69318447Y-81272298D01*
X69461358Y-81205183D01*
X69851645Y-80776924D01*
X70021476Y-80366890D01*
X69900155Y-80137000D01*
X68707000Y-80137000D01*
X68707000Y-80157000D01*
X68453000Y-80157000D01*
X68453000Y-80137000D01*
X67259845Y-80137000D01*
X67138524Y-80366890D01*
X67308355Y-80776924D01*
X67698642Y-81205183D01*
X67841553Y-81272298D01*
X67500853Y-81499946D01*
X67178946Y-81981715D01*
X67065907Y-82550000D01*
X67178946Y-83118285D01*
X67500853Y-83600054D01*
X67830026Y-83820000D01*
X67500853Y-84039946D01*
X67178946Y-84521715D01*
X67065907Y-85090000D01*
X67178946Y-85658285D01*
X67500853Y-86140054D01*
X67830026Y-86360000D01*
X67500853Y-86579946D01*
X67178946Y-87061715D01*
X67065907Y-87630000D01*
X67178946Y-88198285D01*
X67500853Y-88680054D01*
X67982622Y-89001961D01*
X68550907Y-89115000D01*
X68609093Y-89115000D01*
X69177378Y-89001961D01*
X69659147Y-88680054D01*
X69981054Y-88198285D01*
X70094093Y-87630000D01*
X69981054Y-87061715D01*
X69659147Y-86579946D01*
X69329974Y-86360000D01*
X69659147Y-86140054D01*
X69852954Y-85850000D01*
X71567198Y-85850000D01*
X74170000Y-88452802D01*
X74170000Y-90365402D01*
X74147809Y-90332191D01*
X73937765Y-90191843D01*
X73690000Y-90142560D01*
X72990000Y-90142560D01*
X72742235Y-90191843D01*
X72532191Y-90332191D01*
X72391843Y-90542235D01*
X72390000Y-90551500D01*
X72388157Y-90542235D01*
X72247809Y-90332191D01*
X72037765Y-90191843D01*
X71790000Y-90142560D01*
X71090000Y-90142560D01*
X70842235Y-90191843D01*
X70770699Y-90239642D01*
X70534000Y-90192560D01*
X69334000Y-90192560D01*
X69086235Y-90241843D01*
X68876191Y-90382191D01*
X68835346Y-90443320D01*
X68693698Y-90301673D01*
X68460309Y-90205000D01*
X68019750Y-90205000D01*
X67861000Y-90363750D01*
X67861000Y-91313000D01*
X67881000Y-91313000D01*
X67881000Y-91567000D01*
X67861000Y-91567000D01*
X67861000Y-93345000D01*
X67881000Y-93345000D01*
X67881000Y-93599000D01*
X67861000Y-93599000D01*
X67861000Y-94548250D01*
X68019750Y-94707000D01*
X68460309Y-94707000D01*
X68693698Y-94610327D01*
X68835346Y-94468680D01*
X68876191Y-94529809D01*
X69086235Y-94670157D01*
X69334000Y-94719440D01*
X70534000Y-94719440D01*
X70770699Y-94672358D01*
X70842235Y-94720157D01*
X71090000Y-94769440D01*
X71790000Y-94769440D01*
X72037765Y-94720157D01*
X72247809Y-94579809D01*
X72388157Y-94369765D01*
X72390000Y-94360500D01*
X72391843Y-94369765D01*
X72532191Y-94579809D01*
X72742235Y-94720157D01*
X72990000Y-94769440D01*
X73690000Y-94769440D01*
X73937765Y-94720157D01*
X74147809Y-94579809D01*
X74288157Y-94369765D01*
X74315560Y-94232000D01*
X76907537Y-94232000D01*
X76939673Y-94264192D01*
X77283201Y-94406838D01*
X77655167Y-94407162D01*
X77726000Y-94377894D01*
X77726000Y-98806000D01*
X77742115Y-98887015D01*
X77538833Y-98886838D01*
X77291998Y-98988828D01*
X77291998Y-97359998D01*
X77270635Y-97252599D01*
X77234146Y-97069158D01*
X77069399Y-96822597D01*
X76483401Y-96236599D01*
X76236839Y-96071852D01*
X75946000Y-96014000D01*
X75839560Y-96014000D01*
X75812157Y-95876235D01*
X75671809Y-95666191D01*
X75461765Y-95525843D01*
X75214000Y-95476560D01*
X74514000Y-95476560D01*
X74266235Y-95525843D01*
X74056191Y-95666191D01*
X73915843Y-95876235D01*
X73914000Y-95885500D01*
X73912157Y-95876235D01*
X73771809Y-95666191D01*
X73561765Y-95525843D01*
X73314000Y-95476560D01*
X72614000Y-95476560D01*
X72366235Y-95525843D01*
X72156191Y-95666191D01*
X72015843Y-95876235D01*
X71988440Y-96014000D01*
X71149614Y-96014000D01*
X71132157Y-95926235D01*
X70991809Y-95716191D01*
X70781765Y-95575843D01*
X70534000Y-95526560D01*
X69334000Y-95526560D01*
X69086235Y-95575843D01*
X68876191Y-95716191D01*
X68835346Y-95777320D01*
X68693698Y-95635673D01*
X68460309Y-95539000D01*
X68019750Y-95539000D01*
X67861000Y-95697750D01*
X67861000Y-96647000D01*
X67881000Y-96647000D01*
X67881000Y-96901000D01*
X67861000Y-96901000D01*
X67861000Y-98679000D01*
X67881000Y-98679000D01*
X67881000Y-98933000D01*
X67861000Y-98933000D01*
X67861000Y-100711000D01*
X67881000Y-100711000D01*
X67881000Y-100965000D01*
X67861000Y-100965000D01*
X67861000Y-102743000D01*
X67881000Y-102743000D01*
X67881000Y-102997000D01*
X67861000Y-102997000D01*
X67861000Y-103946250D01*
X68019750Y-104105000D01*
X68460309Y-104105000D01*
X68693698Y-104008327D01*
X68835346Y-103866680D01*
X68876191Y-103927809D01*
X69086235Y-104068157D01*
X69334000Y-104117440D01*
X70534000Y-104117440D01*
X70781765Y-104068157D01*
X70991809Y-103927809D01*
X71132157Y-103717765D01*
X71149614Y-103630000D01*
X71988440Y-103630000D01*
X72015843Y-103767765D01*
X72156191Y-103977809D01*
X72366235Y-104118157D01*
X72614000Y-104167440D01*
X73314000Y-104167440D01*
X73561765Y-104118157D01*
X73771809Y-103977809D01*
X73912157Y-103767765D01*
X73914000Y-103758500D01*
X73915843Y-103767765D01*
X74056191Y-103977809D01*
X74266235Y-104118157D01*
X74514000Y-104167440D01*
X75214000Y-104167440D01*
X75297735Y-104150784D01*
X75406883Y-104414943D01*
X75516309Y-104524560D01*
X75415000Y-104524560D01*
X75167235Y-104573843D01*
X74957191Y-104714191D01*
X74816843Y-104924235D01*
X74767560Y-105172000D01*
X74767560Y-107172000D01*
X74816843Y-107419765D01*
X74957191Y-107629809D01*
X75167235Y-107770157D01*
X75415000Y-107819440D01*
X77915000Y-107819440D01*
X78162765Y-107770157D01*
X78313371Y-107669525D01*
X78350235Y-107694157D01*
X78359500Y-107696000D01*
X78350235Y-107697843D01*
X78140191Y-107838191D01*
X77999843Y-108048235D01*
X77950560Y-108296000D01*
X77950560Y-108341633D01*
X77915000Y-108334560D01*
X75415000Y-108334560D01*
X75167235Y-108383843D01*
X74957191Y-108524191D01*
X74816843Y-108734235D01*
X74767560Y-108982000D01*
X74767560Y-110982000D01*
X74816843Y-111229765D01*
X74957191Y-111439809D01*
X75167235Y-111580157D01*
X75415000Y-111629440D01*
X76049448Y-111629440D01*
X76127599Y-111746401D01*
X76612599Y-112231401D01*
X76859161Y-112396148D01*
X77150000Y-112454000D01*
X78108246Y-112454000D01*
X78140191Y-112501809D01*
X78350235Y-112642157D01*
X78598000Y-112691440D01*
X79898000Y-112691440D01*
X80145765Y-112642157D01*
X80355809Y-112501809D01*
X80387754Y-112454000D01*
X84343561Y-112454000D01*
X84297808Y-112499673D01*
X84155162Y-112843201D01*
X84154838Y-113215167D01*
X84296883Y-113558943D01*
X84489297Y-113751693D01*
X84466560Y-113866000D01*
X84466560Y-113868560D01*
X82464000Y-113868560D01*
X82216235Y-113917843D01*
X82006191Y-114058191D01*
X81865843Y-114268235D01*
X81816560Y-114516000D01*
X81816560Y-116116000D01*
X81846906Y-116268560D01*
X81714000Y-116268560D01*
X81466235Y-116317843D01*
X81256191Y-116458191D01*
X81115843Y-116668235D01*
X81066560Y-116916000D01*
X81066560Y-118745000D01*
X75907701Y-118745000D01*
X76909259Y-117745189D01*
X77494333Y-116336175D01*
X77495664Y-114810518D01*
X76913050Y-113400485D01*
X75835189Y-112320741D01*
X74426175Y-111735667D01*
X72900518Y-111734336D01*
X71490485Y-112316950D01*
X70410741Y-113394811D01*
X69825667Y-114803825D01*
X69824336Y-116329482D01*
X70406950Y-117739515D01*
X71410682Y-118745000D01*
X66675000Y-118745000D01*
X66675000Y-111590618D01*
X66738691Y-111617000D01*
X67829250Y-111617000D01*
X67988000Y-111458250D01*
X67988000Y-110109000D01*
X68242000Y-110109000D01*
X68242000Y-111458250D01*
X68400750Y-111617000D01*
X69491309Y-111617000D01*
X69724698Y-111520327D01*
X69903327Y-111341699D01*
X70000000Y-111108310D01*
X70000000Y-110267750D01*
X69841250Y-110109000D01*
X68242000Y-110109000D01*
X67988000Y-110109000D01*
X67968000Y-110109000D01*
X67968000Y-109855000D01*
X67988000Y-109855000D01*
X67988000Y-108505750D01*
X68242000Y-108505750D01*
X68242000Y-109855000D01*
X69841250Y-109855000D01*
X70000000Y-109696250D01*
X70000000Y-108855690D01*
X69903327Y-108622301D01*
X69724698Y-108443673D01*
X69491309Y-108347000D01*
X68400750Y-108347000D01*
X68242000Y-108505750D01*
X67988000Y-108505750D01*
X67829250Y-108347000D01*
X66738691Y-108347000D01*
X66675000Y-108373382D01*
X66675000Y-107780618D01*
X66738691Y-107807000D01*
X67829250Y-107807000D01*
X67988000Y-107648250D01*
X67988000Y-106299000D01*
X68242000Y-106299000D01*
X68242000Y-107648250D01*
X68400750Y-107807000D01*
X69491309Y-107807000D01*
X69724698Y-107710327D01*
X69903327Y-107531699D01*
X70000000Y-107298310D01*
X70000000Y-106457750D01*
X69841250Y-106299000D01*
X68242000Y-106299000D01*
X67988000Y-106299000D01*
X67968000Y-106299000D01*
X67968000Y-106045000D01*
X67988000Y-106045000D01*
X67988000Y-104695750D01*
X68242000Y-104695750D01*
X68242000Y-106045000D01*
X69841250Y-106045000D01*
X70000000Y-105886250D01*
X70000000Y-105045690D01*
X69903327Y-104812301D01*
X69724698Y-104633673D01*
X69491309Y-104537000D01*
X68400750Y-104537000D01*
X68242000Y-104695750D01*
X67988000Y-104695750D01*
X67829250Y-104537000D01*
X66738691Y-104537000D01*
X66675000Y-104563382D01*
X66675000Y-103909026D01*
X66774302Y-104008327D01*
X67007691Y-104105000D01*
X67448250Y-104105000D01*
X67607000Y-103946250D01*
X67607000Y-102997000D01*
X67587000Y-102997000D01*
X67587000Y-102743000D01*
X67607000Y-102743000D01*
X67607000Y-100965000D01*
X67587000Y-100965000D01*
X67587000Y-100711000D01*
X67607000Y-100711000D01*
X67607000Y-98933000D01*
X67587000Y-98933000D01*
X67587000Y-98679000D01*
X67607000Y-98679000D01*
X67607000Y-96901000D01*
X67587000Y-96901000D01*
X67587000Y-96647000D01*
X67607000Y-96647000D01*
X67607000Y-95697750D01*
X67448250Y-95539000D01*
X67007691Y-95539000D01*
X66774302Y-95635673D01*
X66675000Y-95734974D01*
X66675000Y-94511026D01*
X66774302Y-94610327D01*
X67007691Y-94707000D01*
X67448250Y-94707000D01*
X67607000Y-94548250D01*
X67607000Y-93599000D01*
X67587000Y-93599000D01*
X67587000Y-93345000D01*
X67607000Y-93345000D01*
X67607000Y-91567000D01*
X67587000Y-91567000D01*
X67587000Y-91313000D01*
X67607000Y-91313000D01*
X67607000Y-90363750D01*
X67448250Y-90205000D01*
X67007691Y-90205000D01*
X66774302Y-90301673D01*
X66675000Y-90400974D01*
X66675000Y-71755000D01*
X71412299Y-71755000D01*
X70410741Y-72754811D01*
X70410741Y-72754811D01*
G37*
X70410741Y-72754811D02*
X69988191Y-73772423D01*
X69887809Y-73622191D01*
X69677765Y-73481843D01*
X69430000Y-73432560D01*
X67730000Y-73432560D01*
X67482235Y-73481843D01*
X67272191Y-73622191D01*
X67131843Y-73832235D01*
X67082560Y-74080000D01*
X67082560Y-75780000D01*
X67131843Y-76027765D01*
X67272191Y-76237809D01*
X67482235Y-76378157D01*
X67544777Y-76390597D01*
X67500853Y-76419946D01*
X67178946Y-76901715D01*
X67065907Y-77470000D01*
X67178946Y-78038285D01*
X67500853Y-78520054D01*
X67841553Y-78747702D01*
X67698642Y-78814817D01*
X67308355Y-79243076D01*
X67138524Y-79653110D01*
X67259845Y-79883000D01*
X68453000Y-79883000D01*
X68453000Y-79863000D01*
X68707000Y-79863000D01*
X68707000Y-79883000D01*
X69900155Y-79883000D01*
X70021476Y-79653110D01*
X69851645Y-79243076D01*
X69461358Y-78814817D01*
X69318447Y-78747702D01*
X69479981Y-78639768D01*
X69566599Y-78769401D01*
X70582599Y-79785401D01*
X70829161Y-79950148D01*
X71120000Y-80008000D01*
X71335367Y-80008000D01*
X71201162Y-80331201D01*
X71200838Y-80703167D01*
X71342883Y-81046943D01*
X71605673Y-81310192D01*
X71949201Y-81452838D01*
X72321167Y-81453162D01*
X72664943Y-81311117D01*
X72698118Y-81278000D01*
X78937198Y-81278000D01*
X75916599Y-84298599D01*
X75751852Y-84545161D01*
X75703424Y-84788622D01*
X72927401Y-82012599D01*
X72680839Y-81847852D01*
X72390000Y-81790000D01*
X69852954Y-81790000D01*
X69659147Y-81499946D01*
X69318447Y-81272298D01*
X69461358Y-81205183D01*
X69851645Y-80776924D01*
X70021476Y-80366890D01*
X69900155Y-80137000D01*
X68707000Y-80137000D01*
X68707000Y-80157000D01*
X68453000Y-80157000D01*
X68453000Y-80137000D01*
X67259845Y-80137000D01*
X67138524Y-80366890D01*
X67308355Y-80776924D01*
X67698642Y-81205183D01*
X67841553Y-81272298D01*
X67500853Y-81499946D01*
X67178946Y-81981715D01*
X67065907Y-82550000D01*
X67178946Y-83118285D01*
X67500853Y-83600054D01*
X67830026Y-83820000D01*
X67500853Y-84039946D01*
X67178946Y-84521715D01*
X67065907Y-85090000D01*
X67178946Y-85658285D01*
X67500853Y-86140054D01*
X67830026Y-86360000D01*
X67500853Y-86579946D01*
X67178946Y-87061715D01*
X67065907Y-87630000D01*
X67178946Y-88198285D01*
X67500853Y-88680054D01*
X67982622Y-89001961D01*
X68550907Y-89115000D01*
X68609093Y-89115000D01*
X69177378Y-89001961D01*
X69659147Y-88680054D01*
X69981054Y-88198285D01*
X70094093Y-87630000D01*
X69981054Y-87061715D01*
X69659147Y-86579946D01*
X69329974Y-86360000D01*
X69659147Y-86140054D01*
X69852954Y-85850000D01*
X71567198Y-85850000D01*
X74170000Y-88452802D01*
X74170000Y-90365402D01*
X74147809Y-90332191D01*
X73937765Y-90191843D01*
X73690000Y-90142560D01*
X72990000Y-90142560D01*
X72742235Y-90191843D01*
X72532191Y-90332191D01*
X72391843Y-90542235D01*
X72390000Y-90551500D01*
X72388157Y-90542235D01*
X72247809Y-90332191D01*
X72037765Y-90191843D01*
X71790000Y-90142560D01*
X71090000Y-90142560D01*
X70842235Y-90191843D01*
X70770699Y-90239642D01*
X70534000Y-90192560D01*
X69334000Y-90192560D01*
X69086235Y-90241843D01*
X68876191Y-90382191D01*
X68835346Y-90443320D01*
X68693698Y-90301673D01*
X68460309Y-90205000D01*
X68019750Y-90205000D01*
X67861000Y-90363750D01*
X67861000Y-91313000D01*
X67881000Y-91313000D01*
X67881000Y-91567000D01*
X67861000Y-91567000D01*
X67861000Y-93345000D01*
X67881000Y-93345000D01*
X67881000Y-93599000D01*
X67861000Y-93599000D01*
X67861000Y-94548250D01*
X68019750Y-94707000D01*
X68460309Y-94707000D01*
X68693698Y-94610327D01*
X68835346Y-94468680D01*
X68876191Y-94529809D01*
X69086235Y-94670157D01*
X69334000Y-94719440D01*
X70534000Y-94719440D01*
X70770699Y-94672358D01*
X70842235Y-94720157D01*
X71090000Y-94769440D01*
X71790000Y-94769440D01*
X72037765Y-94720157D01*
X72247809Y-94579809D01*
X72388157Y-94369765D01*
X72390000Y-94360500D01*
X72391843Y-94369765D01*
X72532191Y-94579809D01*
X72742235Y-94720157D01*
X72990000Y-94769440D01*
X73690000Y-94769440D01*
X73937765Y-94720157D01*
X74147809Y-94579809D01*
X74288157Y-94369765D01*
X74315560Y-94232000D01*
X76907537Y-94232000D01*
X76939673Y-94264192D01*
X77283201Y-94406838D01*
X77655167Y-94407162D01*
X77726000Y-94377894D01*
X77726000Y-98806000D01*
X77742115Y-98887015D01*
X77538833Y-98886838D01*
X77291998Y-98988828D01*
X77291998Y-97359998D01*
X77270635Y-97252599D01*
X77234146Y-97069158D01*
X77069399Y-96822597D01*
X76483401Y-96236599D01*
X76236839Y-96071852D01*
X75946000Y-96014000D01*
X75839560Y-96014000D01*
X75812157Y-95876235D01*
X75671809Y-95666191D01*
X75461765Y-95525843D01*
X75214000Y-95476560D01*
X74514000Y-95476560D01*
X74266235Y-95525843D01*
X74056191Y-95666191D01*
X73915843Y-95876235D01*
X73914000Y-95885500D01*
X73912157Y-95876235D01*
X73771809Y-95666191D01*
X73561765Y-95525843D01*
X73314000Y-95476560D01*
X72614000Y-95476560D01*
X72366235Y-95525843D01*
X72156191Y-95666191D01*
X72015843Y-95876235D01*
X71988440Y-96014000D01*
X71149614Y-96014000D01*
X71132157Y-95926235D01*
X70991809Y-95716191D01*
X70781765Y-95575843D01*
X70534000Y-95526560D01*
X69334000Y-95526560D01*
X69086235Y-95575843D01*
X68876191Y-95716191D01*
X68835346Y-95777320D01*
X68693698Y-95635673D01*
X68460309Y-95539000D01*
X68019750Y-95539000D01*
X67861000Y-95697750D01*
X67861000Y-96647000D01*
X67881000Y-96647000D01*
X67881000Y-96901000D01*
X67861000Y-96901000D01*
X67861000Y-98679000D01*
X67881000Y-98679000D01*
X67881000Y-98933000D01*
X67861000Y-98933000D01*
X67861000Y-100711000D01*
X67881000Y-100711000D01*
X67881000Y-100965000D01*
X67861000Y-100965000D01*
X67861000Y-102743000D01*
X67881000Y-102743000D01*
X67881000Y-102997000D01*
X67861000Y-102997000D01*
X67861000Y-103946250D01*
X68019750Y-104105000D01*
X68460309Y-104105000D01*
X68693698Y-104008327D01*
X68835346Y-103866680D01*
X68876191Y-103927809D01*
X69086235Y-104068157D01*
X69334000Y-104117440D01*
X70534000Y-104117440D01*
X70781765Y-104068157D01*
X70991809Y-103927809D01*
X71132157Y-103717765D01*
X71149614Y-103630000D01*
X71988440Y-103630000D01*
X72015843Y-103767765D01*
X72156191Y-103977809D01*
X72366235Y-104118157D01*
X72614000Y-104167440D01*
X73314000Y-104167440D01*
X73561765Y-104118157D01*
X73771809Y-103977809D01*
X73912157Y-103767765D01*
X73914000Y-103758500D01*
X73915843Y-103767765D01*
X74056191Y-103977809D01*
X74266235Y-104118157D01*
X74514000Y-104167440D01*
X75214000Y-104167440D01*
X75297735Y-104150784D01*
X75406883Y-104414943D01*
X75516309Y-104524560D01*
X75415000Y-104524560D01*
X75167235Y-104573843D01*
X74957191Y-104714191D01*
X74816843Y-104924235D01*
X74767560Y-105172000D01*
X74767560Y-107172000D01*
X74816843Y-107419765D01*
X74957191Y-107629809D01*
X75167235Y-107770157D01*
X75415000Y-107819440D01*
X77915000Y-107819440D01*
X78162765Y-107770157D01*
X78313371Y-107669525D01*
X78350235Y-107694157D01*
X78359500Y-107696000D01*
X78350235Y-107697843D01*
X78140191Y-107838191D01*
X77999843Y-108048235D01*
X77950560Y-108296000D01*
X77950560Y-108341633D01*
X77915000Y-108334560D01*
X75415000Y-108334560D01*
X75167235Y-108383843D01*
X74957191Y-108524191D01*
X74816843Y-108734235D01*
X74767560Y-108982000D01*
X74767560Y-110982000D01*
X74816843Y-111229765D01*
X74957191Y-111439809D01*
X75167235Y-111580157D01*
X75415000Y-111629440D01*
X76049448Y-111629440D01*
X76127599Y-111746401D01*
X76612599Y-112231401D01*
X76859161Y-112396148D01*
X77150000Y-112454000D01*
X78108246Y-112454000D01*
X78140191Y-112501809D01*
X78350235Y-112642157D01*
X78598000Y-112691440D01*
X79898000Y-112691440D01*
X80145765Y-112642157D01*
X80355809Y-112501809D01*
X80387754Y-112454000D01*
X84343561Y-112454000D01*
X84297808Y-112499673D01*
X84155162Y-112843201D01*
X84154838Y-113215167D01*
X84296883Y-113558943D01*
X84489297Y-113751693D01*
X84466560Y-113866000D01*
X84466560Y-113868560D01*
X82464000Y-113868560D01*
X82216235Y-113917843D01*
X82006191Y-114058191D01*
X81865843Y-114268235D01*
X81816560Y-114516000D01*
X81816560Y-116116000D01*
X81846906Y-116268560D01*
X81714000Y-116268560D01*
X81466235Y-116317843D01*
X81256191Y-116458191D01*
X81115843Y-116668235D01*
X81066560Y-116916000D01*
X81066560Y-118745000D01*
X75907701Y-118745000D01*
X76909259Y-117745189D01*
X77494333Y-116336175D01*
X77495664Y-114810518D01*
X76913050Y-113400485D01*
X75835189Y-112320741D01*
X74426175Y-111735667D01*
X72900518Y-111734336D01*
X71490485Y-112316950D01*
X70410741Y-113394811D01*
X69825667Y-114803825D01*
X69824336Y-116329482D01*
X70406950Y-117739515D01*
X71410682Y-118745000D01*
X66675000Y-118745000D01*
X66675000Y-111590618D01*
X66738691Y-111617000D01*
X67829250Y-111617000D01*
X67988000Y-111458250D01*
X67988000Y-110109000D01*
X68242000Y-110109000D01*
X68242000Y-111458250D01*
X68400750Y-111617000D01*
X69491309Y-111617000D01*
X69724698Y-111520327D01*
X69903327Y-111341699D01*
X70000000Y-111108310D01*
X70000000Y-110267750D01*
X69841250Y-110109000D01*
X68242000Y-110109000D01*
X67988000Y-110109000D01*
X67968000Y-110109000D01*
X67968000Y-109855000D01*
X67988000Y-109855000D01*
X67988000Y-108505750D01*
X68242000Y-108505750D01*
X68242000Y-109855000D01*
X69841250Y-109855000D01*
X70000000Y-109696250D01*
X70000000Y-108855690D01*
X69903327Y-108622301D01*
X69724698Y-108443673D01*
X69491309Y-108347000D01*
X68400750Y-108347000D01*
X68242000Y-108505750D01*
X67988000Y-108505750D01*
X67829250Y-108347000D01*
X66738691Y-108347000D01*
X66675000Y-108373382D01*
X66675000Y-107780618D01*
X66738691Y-107807000D01*
X67829250Y-107807000D01*
X67988000Y-107648250D01*
X67988000Y-106299000D01*
X68242000Y-106299000D01*
X68242000Y-107648250D01*
X68400750Y-107807000D01*
X69491309Y-107807000D01*
X69724698Y-107710327D01*
X69903327Y-107531699D01*
X70000000Y-107298310D01*
X70000000Y-106457750D01*
X69841250Y-106299000D01*
X68242000Y-106299000D01*
X67988000Y-106299000D01*
X67968000Y-106299000D01*
X67968000Y-106045000D01*
X67988000Y-106045000D01*
X67988000Y-104695750D01*
X68242000Y-104695750D01*
X68242000Y-106045000D01*
X69841250Y-106045000D01*
X70000000Y-105886250D01*
X70000000Y-105045690D01*
X69903327Y-104812301D01*
X69724698Y-104633673D01*
X69491309Y-104537000D01*
X68400750Y-104537000D01*
X68242000Y-104695750D01*
X67988000Y-104695750D01*
X67829250Y-104537000D01*
X66738691Y-104537000D01*
X66675000Y-104563382D01*
X66675000Y-103909026D01*
X66774302Y-104008327D01*
X67007691Y-104105000D01*
X67448250Y-104105000D01*
X67607000Y-103946250D01*
X67607000Y-102997000D01*
X67587000Y-102997000D01*
X67587000Y-102743000D01*
X67607000Y-102743000D01*
X67607000Y-100965000D01*
X67587000Y-100965000D01*
X67587000Y-100711000D01*
X67607000Y-100711000D01*
X67607000Y-98933000D01*
X67587000Y-98933000D01*
X67587000Y-98679000D01*
X67607000Y-98679000D01*
X67607000Y-96901000D01*
X67587000Y-96901000D01*
X67587000Y-96647000D01*
X67607000Y-96647000D01*
X67607000Y-95697750D01*
X67448250Y-95539000D01*
X67007691Y-95539000D01*
X66774302Y-95635673D01*
X66675000Y-95734974D01*
X66675000Y-94511026D01*
X66774302Y-94610327D01*
X67007691Y-94707000D01*
X67448250Y-94707000D01*
X67607000Y-94548250D01*
X67607000Y-93599000D01*
X67587000Y-93599000D01*
X67587000Y-93345000D01*
X67607000Y-93345000D01*
X67607000Y-91567000D01*
X67587000Y-91567000D01*
X67587000Y-91313000D01*
X67607000Y-91313000D01*
X67607000Y-90363750D01*
X67448250Y-90205000D01*
X67007691Y-90205000D01*
X66774302Y-90301673D01*
X66675000Y-90400974D01*
X66675000Y-71755000D01*
X71412299Y-71755000D01*
X70410741Y-72754811D01*
G36*
X88837235Y-106648157D02*
X89085000Y-106697440D01*
X90835000Y-106697440D01*
X90934000Y-106677748D01*
X90934000Y-107571198D01*
X85918502Y-112586696D01*
X85883117Y-112501057D01*
X85645729Y-112263254D01*
X85693401Y-112231401D01*
X88421401Y-109503401D01*
X88586148Y-109256839D01*
X88644000Y-108966000D01*
X88644000Y-106519041D01*
X88837235Y-106648157D01*
X88837235Y-106648157D01*
G37*
X88837235Y-106648157D02*
X89085000Y-106697440D01*
X90835000Y-106697440D01*
X90934000Y-106677748D01*
X90934000Y-107571198D01*
X85918502Y-112586696D01*
X85883117Y-112501057D01*
X85645729Y-112263254D01*
X85693401Y-112231401D01*
X88421401Y-109503401D01*
X88586148Y-109256839D01*
X88644000Y-108966000D01*
X88644000Y-106519041D01*
X88837235Y-106648157D01*
G36*
X100546000Y-104414802D02*
X100546000Y-105132560D01*
X99556000Y-105132560D01*
X99308235Y-105181843D01*
X99098191Y-105322191D01*
X98957843Y-105532235D01*
X98908560Y-105780000D01*
X98908560Y-107580000D01*
X98957843Y-107827765D01*
X98995792Y-107884560D01*
X98660000Y-107884560D01*
X98609495Y-107894606D01*
X98654157Y-107827765D01*
X98703440Y-107580000D01*
X98703440Y-105780000D01*
X98654157Y-105532235D01*
X98513809Y-105322191D01*
X98303765Y-105181843D01*
X98056000Y-105132560D01*
X97980877Y-105132560D01*
X98034000Y-105004309D01*
X98034000Y-104663750D01*
X97875250Y-104505000D01*
X96901000Y-104505000D01*
X96901000Y-104525000D01*
X96647000Y-104525000D01*
X96647000Y-104505000D01*
X94869000Y-104505000D01*
X94869000Y-104525000D01*
X94615000Y-104525000D01*
X94615000Y-104505000D01*
X94595000Y-104505000D01*
X94595000Y-104251000D01*
X94615000Y-104251000D01*
X94615000Y-104231000D01*
X94869000Y-104231000D01*
X94869000Y-104251000D01*
X96647000Y-104251000D01*
X96647000Y-104231000D01*
X96901000Y-104231000D01*
X96901000Y-104251000D01*
X97875250Y-104251000D01*
X98034000Y-104092250D01*
X98034000Y-103751691D01*
X97937327Y-103518302D01*
X97795680Y-103376654D01*
X97856809Y-103335809D01*
X97882834Y-103296860D01*
X98229167Y-103297162D01*
X98572943Y-103155117D01*
X98836192Y-102892327D01*
X98891156Y-102759958D01*
X100546000Y-104414802D01*
X100546000Y-104414802D01*
G37*
X100546000Y-104414802D02*
X100546000Y-105132560D01*
X99556000Y-105132560D01*
X99308235Y-105181843D01*
X99098191Y-105322191D01*
X98957843Y-105532235D01*
X98908560Y-105780000D01*
X98908560Y-107580000D01*
X98957843Y-107827765D01*
X98995792Y-107884560D01*
X98660000Y-107884560D01*
X98609495Y-107894606D01*
X98654157Y-107827765D01*
X98703440Y-107580000D01*
X98703440Y-105780000D01*
X98654157Y-105532235D01*
X98513809Y-105322191D01*
X98303765Y-105181843D01*
X98056000Y-105132560D01*
X97980877Y-105132560D01*
X98034000Y-105004309D01*
X98034000Y-104663750D01*
X97875250Y-104505000D01*
X96901000Y-104505000D01*
X96901000Y-104525000D01*
X96647000Y-104525000D01*
X96647000Y-104505000D01*
X94869000Y-104505000D01*
X94869000Y-104525000D01*
X94615000Y-104525000D01*
X94615000Y-104505000D01*
X94595000Y-104505000D01*
X94595000Y-104251000D01*
X94615000Y-104251000D01*
X94615000Y-104231000D01*
X94869000Y-104231000D01*
X94869000Y-104251000D01*
X96647000Y-104251000D01*
X96647000Y-104231000D01*
X96901000Y-104231000D01*
X96901000Y-104251000D01*
X97875250Y-104251000D01*
X98034000Y-104092250D01*
X98034000Y-103751691D01*
X97937327Y-103518302D01*
X97795680Y-103376654D01*
X97856809Y-103335809D01*
X97882834Y-103296860D01*
X98229167Y-103297162D01*
X98572943Y-103155117D01*
X98836192Y-102892327D01*
X98891156Y-102759958D01*
X100546000Y-104414802D01*
G36*
X105278946Y-99628285D02*
X105600853Y-100110054D01*
X105941553Y-100337702D01*
X105798642Y-100404817D01*
X105408355Y-100833076D01*
X105238524Y-101243110D01*
X105359845Y-101473000D01*
X106553000Y-101473000D01*
X106553000Y-101453000D01*
X106807000Y-101453000D01*
X106807000Y-101473000D01*
X106827000Y-101473000D01*
X106827000Y-101727000D01*
X106807000Y-101727000D01*
X106807000Y-101747000D01*
X106553000Y-101747000D01*
X106553000Y-101727000D01*
X105359845Y-101727000D01*
X105238524Y-101956890D01*
X105407144Y-102364000D01*
X101908463Y-102364000D01*
X101896123Y-102351638D01*
X101883401Y-102332599D01*
X101175433Y-101624631D01*
X102359482Y-101625664D01*
X103769515Y-101043050D01*
X104849259Y-99965189D01*
X105185087Y-99156425D01*
X105278946Y-99628285D01*
X105278946Y-99628285D01*
G37*
X105278946Y-99628285D02*
X105600853Y-100110054D01*
X105941553Y-100337702D01*
X105798642Y-100404817D01*
X105408355Y-100833076D01*
X105238524Y-101243110D01*
X105359845Y-101473000D01*
X106553000Y-101473000D01*
X106553000Y-101453000D01*
X106807000Y-101453000D01*
X106807000Y-101473000D01*
X106827000Y-101473000D01*
X106827000Y-101727000D01*
X106807000Y-101727000D01*
X106807000Y-101747000D01*
X106553000Y-101747000D01*
X106553000Y-101727000D01*
X105359845Y-101727000D01*
X105238524Y-101956890D01*
X105407144Y-102364000D01*
X101908463Y-102364000D01*
X101896123Y-102351638D01*
X101883401Y-102332599D01*
X101175433Y-101624631D01*
X102359482Y-101625664D01*
X103769515Y-101043050D01*
X104849259Y-99965189D01*
X105185087Y-99156425D01*
X105278946Y-99628285D01*
G36*
X77537201Y-100756838D02*
X77584076Y-100756879D01*
X77989598Y-101162401D01*
X78110389Y-101243110D01*
X78236161Y-101327148D01*
X78527000Y-101385000D01*
X79156818Y-101385000D01*
X78963808Y-101577673D01*
X78821162Y-101921201D01*
X78820980Y-102130178D01*
X77384043Y-100693241D01*
X77537201Y-100756838D01*
X77537201Y-100756838D01*
G37*
X77537201Y-100756838D02*
X77584076Y-100756879D01*
X77989598Y-101162401D01*
X78110389Y-101243110D01*
X78236161Y-101327148D01*
X78527000Y-101385000D01*
X79156818Y-101385000D01*
X78963808Y-101577673D01*
X78821162Y-101921201D01*
X78820980Y-102130178D01*
X77384043Y-100693241D01*
X77537201Y-100756838D01*
G36*
X96647000Y-98933000D02*
X96667000Y-98933000D01*
X96667000Y-99187000D01*
X96647000Y-99187000D01*
X96647000Y-99207000D01*
X96393000Y-99207000D01*
X96393000Y-99187000D01*
X96373000Y-99187000D01*
X96373000Y-98933000D01*
X96393000Y-98933000D01*
X96393000Y-98913000D01*
X96647000Y-98913000D01*
X96647000Y-98933000D01*
X96647000Y-98933000D01*
G37*
X96647000Y-98933000D02*
X96667000Y-98933000D01*
X96667000Y-99187000D01*
X96647000Y-99187000D01*
X96647000Y-99207000D01*
X96393000Y-99207000D01*
X96393000Y-99187000D01*
X96373000Y-99187000D01*
X96373000Y-98933000D01*
X96393000Y-98933000D01*
X96393000Y-98913000D01*
X96647000Y-98913000D01*
X96647000Y-98933000D01*
G36*
X87377843Y-86241765D02*
X87518191Y-86451809D01*
X87728235Y-86592157D01*
X87976000Y-86641440D01*
X88676000Y-86641440D01*
X88923765Y-86592157D01*
X89013437Y-86532239D01*
X90680000Y-88198802D01*
X90680000Y-95504000D01*
X90737852Y-95794839D01*
X90902599Y-96041401D01*
X91130539Y-96269341D01*
X90901808Y-96497673D01*
X90894837Y-96514462D01*
X90835000Y-96502560D01*
X89085000Y-96502560D01*
X88837235Y-96551843D01*
X88627191Y-96692191D01*
X88486843Y-96902235D01*
X88437560Y-97150000D01*
X88437560Y-97265000D01*
X88411000Y-97265000D01*
X88390000Y-97269177D01*
X88390000Y-94996000D01*
X88332148Y-94705161D01*
X88332148Y-94705160D01*
X88167401Y-94458599D01*
X86643401Y-92934599D01*
X86396839Y-92769852D01*
X86106000Y-92712000D01*
X85090000Y-92712000D01*
X84799161Y-92769852D01*
X84552599Y-92934599D01*
X84188320Y-93298878D01*
X84142833Y-93298838D01*
X83818000Y-93433056D01*
X83818000Y-91913750D01*
X85075000Y-91913750D01*
X85075000Y-92104309D01*
X85171673Y-92337698D01*
X85350301Y-92516327D01*
X85583690Y-92613000D01*
X86074250Y-92613000D01*
X86233000Y-92454250D01*
X86233000Y-91755000D01*
X86487000Y-91755000D01*
X86487000Y-92454250D01*
X86645750Y-92613000D01*
X87136310Y-92613000D01*
X87369699Y-92516327D01*
X87548327Y-92337698D01*
X87645000Y-92104309D01*
X87645000Y-91913750D01*
X87486250Y-91755000D01*
X86487000Y-91755000D01*
X86233000Y-91755000D01*
X85233750Y-91755000D01*
X85075000Y-91913750D01*
X83818000Y-91913750D01*
X83818000Y-91754802D01*
X85165994Y-90406808D01*
X85252191Y-90535809D01*
X85462235Y-90676157D01*
X85490209Y-90681721D01*
X85350301Y-90739673D01*
X85171673Y-90918302D01*
X85075000Y-91151691D01*
X85075000Y-91342250D01*
X85233750Y-91501000D01*
X86233000Y-91501000D01*
X86233000Y-91481000D01*
X86487000Y-91481000D01*
X86487000Y-91501000D01*
X87486250Y-91501000D01*
X87645000Y-91342250D01*
X87645000Y-91151691D01*
X87548327Y-90918302D01*
X87369699Y-90739673D01*
X87229791Y-90681721D01*
X87257765Y-90676157D01*
X87467809Y-90535809D01*
X87608157Y-90325765D01*
X87657440Y-90078000D01*
X87657440Y-89378000D01*
X87608157Y-89130235D01*
X87467809Y-88920191D01*
X87257765Y-88779843D01*
X87120000Y-88752440D01*
X87120000Y-88646000D01*
X87062148Y-88355161D01*
X86897401Y-88108599D01*
X86119401Y-87330599D01*
X85872839Y-87165852D01*
X85748733Y-87141166D01*
X85627809Y-86960191D01*
X85417765Y-86819843D01*
X85170000Y-86770560D01*
X84681316Y-86770560D01*
X84776573Y-86628000D01*
X84820000Y-86628000D01*
X85110839Y-86570148D01*
X85357401Y-86405401D01*
X85495144Y-86267658D01*
X85618191Y-86451809D01*
X85828235Y-86592157D01*
X86076000Y-86641440D01*
X86776000Y-86641440D01*
X87023765Y-86592157D01*
X87233809Y-86451809D01*
X87374157Y-86241765D01*
X87376000Y-86232500D01*
X87377843Y-86241765D01*
X87377843Y-86241765D01*
G37*
X87377843Y-86241765D02*
X87518191Y-86451809D01*
X87728235Y-86592157D01*
X87976000Y-86641440D01*
X88676000Y-86641440D01*
X88923765Y-86592157D01*
X89013437Y-86532239D01*
X90680000Y-88198802D01*
X90680000Y-95504000D01*
X90737852Y-95794839D01*
X90902599Y-96041401D01*
X91130539Y-96269341D01*
X90901808Y-96497673D01*
X90894837Y-96514462D01*
X90835000Y-96502560D01*
X89085000Y-96502560D01*
X88837235Y-96551843D01*
X88627191Y-96692191D01*
X88486843Y-96902235D01*
X88437560Y-97150000D01*
X88437560Y-97265000D01*
X88411000Y-97265000D01*
X88390000Y-97269177D01*
X88390000Y-94996000D01*
X88332148Y-94705161D01*
X88332148Y-94705160D01*
X88167401Y-94458599D01*
X86643401Y-92934599D01*
X86396839Y-92769852D01*
X86106000Y-92712000D01*
X85090000Y-92712000D01*
X84799161Y-92769852D01*
X84552599Y-92934599D01*
X84188320Y-93298878D01*
X84142833Y-93298838D01*
X83818000Y-93433056D01*
X83818000Y-91913750D01*
X85075000Y-91913750D01*
X85075000Y-92104309D01*
X85171673Y-92337698D01*
X85350301Y-92516327D01*
X85583690Y-92613000D01*
X86074250Y-92613000D01*
X86233000Y-92454250D01*
X86233000Y-91755000D01*
X86487000Y-91755000D01*
X86487000Y-92454250D01*
X86645750Y-92613000D01*
X87136310Y-92613000D01*
X87369699Y-92516327D01*
X87548327Y-92337698D01*
X87645000Y-92104309D01*
X87645000Y-91913750D01*
X87486250Y-91755000D01*
X86487000Y-91755000D01*
X86233000Y-91755000D01*
X85233750Y-91755000D01*
X85075000Y-91913750D01*
X83818000Y-91913750D01*
X83818000Y-91754802D01*
X85165994Y-90406808D01*
X85252191Y-90535809D01*
X85462235Y-90676157D01*
X85490209Y-90681721D01*
X85350301Y-90739673D01*
X85171673Y-90918302D01*
X85075000Y-91151691D01*
X85075000Y-91342250D01*
X85233750Y-91501000D01*
X86233000Y-91501000D01*
X86233000Y-91481000D01*
X86487000Y-91481000D01*
X86487000Y-91501000D01*
X87486250Y-91501000D01*
X87645000Y-91342250D01*
X87645000Y-91151691D01*
X87548327Y-90918302D01*
X87369699Y-90739673D01*
X87229791Y-90681721D01*
X87257765Y-90676157D01*
X87467809Y-90535809D01*
X87608157Y-90325765D01*
X87657440Y-90078000D01*
X87657440Y-89378000D01*
X87608157Y-89130235D01*
X87467809Y-88920191D01*
X87257765Y-88779843D01*
X87120000Y-88752440D01*
X87120000Y-88646000D01*
X87062148Y-88355161D01*
X86897401Y-88108599D01*
X86119401Y-87330599D01*
X85872839Y-87165852D01*
X85748733Y-87141166D01*
X85627809Y-86960191D01*
X85417765Y-86819843D01*
X85170000Y-86770560D01*
X84681316Y-86770560D01*
X84776573Y-86628000D01*
X84820000Y-86628000D01*
X85110839Y-86570148D01*
X85357401Y-86405401D01*
X85495144Y-86267658D01*
X85618191Y-86451809D01*
X85828235Y-86592157D01*
X86076000Y-86641440D01*
X86776000Y-86641440D01*
X87023765Y-86592157D01*
X87233809Y-86451809D01*
X87374157Y-86241765D01*
X87376000Y-86232500D01*
X87377843Y-86241765D01*
G36*
X89266191Y-83520809D02*
X89476235Y-83661157D01*
X89724000Y-83710440D01*
X90784000Y-83710440D01*
X90978875Y-83671677D01*
X93218822Y-85911624D01*
X93122191Y-85976191D01*
X92981843Y-86186235D01*
X92932560Y-86434000D01*
X92932560Y-87334000D01*
X92981843Y-87581765D01*
X93118684Y-87786560D01*
X92630000Y-87786560D01*
X92382235Y-87835843D01*
X92200000Y-87957609D01*
X92200000Y-87884000D01*
X92142148Y-87593161D01*
X92142148Y-87593160D01*
X91977401Y-87346599D01*
X89437401Y-84806599D01*
X89323440Y-84730453D01*
X89323440Y-84694000D01*
X89274157Y-84446235D01*
X89133809Y-84236191D01*
X88923765Y-84095843D01*
X88676000Y-84046560D01*
X87976000Y-84046560D01*
X87728235Y-84095843D01*
X87518191Y-84236191D01*
X87377843Y-84446235D01*
X87376000Y-84455500D01*
X87374157Y-84446235D01*
X87233809Y-84236191D01*
X87023765Y-84095843D01*
X86776000Y-84046560D01*
X86076000Y-84046560D01*
X85828235Y-84095843D01*
X85618191Y-84236191D01*
X85477843Y-84446235D01*
X85450440Y-84584000D01*
X85344000Y-84584000D01*
X85053161Y-84641852D01*
X84806599Y-84806599D01*
X84662941Y-84950257D01*
X84467765Y-84819843D01*
X84220000Y-84770560D01*
X83420000Y-84770560D01*
X83172235Y-84819843D01*
X82962191Y-84960191D01*
X82821843Y-85170235D01*
X82772560Y-85418000D01*
X82772560Y-86318000D01*
X82821843Y-86565765D01*
X82958684Y-86770560D01*
X82470000Y-86770560D01*
X82222235Y-86819843D01*
X82012191Y-86960191D01*
X81902736Y-87124000D01*
X81788000Y-87124000D01*
X81497161Y-87181852D01*
X81250599Y-87346599D01*
X80488599Y-88108599D01*
X80323852Y-88355161D01*
X80266000Y-88646000D01*
X80266000Y-93671537D01*
X80233808Y-93703673D01*
X80091162Y-94047201D01*
X80090838Y-94419167D01*
X80232883Y-94762943D01*
X80495673Y-95026192D01*
X80628042Y-95081156D01*
X79754000Y-95955198D01*
X79754000Y-86420802D01*
X82676802Y-83498000D01*
X87050950Y-83498000D01*
X87066191Y-83520809D01*
X87276235Y-83661157D01*
X87524000Y-83710440D01*
X88584000Y-83710440D01*
X88831765Y-83661157D01*
X89041809Y-83520809D01*
X89154000Y-83352905D01*
X89266191Y-83520809D01*
X89266191Y-83520809D01*
G37*
X89266191Y-83520809D02*
X89476235Y-83661157D01*
X89724000Y-83710440D01*
X90784000Y-83710440D01*
X90978875Y-83671677D01*
X93218822Y-85911624D01*
X93122191Y-85976191D01*
X92981843Y-86186235D01*
X92932560Y-86434000D01*
X92932560Y-87334000D01*
X92981843Y-87581765D01*
X93118684Y-87786560D01*
X92630000Y-87786560D01*
X92382235Y-87835843D01*
X92200000Y-87957609D01*
X92200000Y-87884000D01*
X92142148Y-87593161D01*
X92142148Y-87593160D01*
X91977401Y-87346599D01*
X89437401Y-84806599D01*
X89323440Y-84730453D01*
X89323440Y-84694000D01*
X89274157Y-84446235D01*
X89133809Y-84236191D01*
X88923765Y-84095843D01*
X88676000Y-84046560D01*
X87976000Y-84046560D01*
X87728235Y-84095843D01*
X87518191Y-84236191D01*
X87377843Y-84446235D01*
X87376000Y-84455500D01*
X87374157Y-84446235D01*
X87233809Y-84236191D01*
X87023765Y-84095843D01*
X86776000Y-84046560D01*
X86076000Y-84046560D01*
X85828235Y-84095843D01*
X85618191Y-84236191D01*
X85477843Y-84446235D01*
X85450440Y-84584000D01*
X85344000Y-84584000D01*
X85053161Y-84641852D01*
X84806599Y-84806599D01*
X84662941Y-84950257D01*
X84467765Y-84819843D01*
X84220000Y-84770560D01*
X83420000Y-84770560D01*
X83172235Y-84819843D01*
X82962191Y-84960191D01*
X82821843Y-85170235D01*
X82772560Y-85418000D01*
X82772560Y-86318000D01*
X82821843Y-86565765D01*
X82958684Y-86770560D01*
X82470000Y-86770560D01*
X82222235Y-86819843D01*
X82012191Y-86960191D01*
X81902736Y-87124000D01*
X81788000Y-87124000D01*
X81497161Y-87181852D01*
X81250599Y-87346599D01*
X80488599Y-88108599D01*
X80323852Y-88355161D01*
X80266000Y-88646000D01*
X80266000Y-93671537D01*
X80233808Y-93703673D01*
X80091162Y-94047201D01*
X80090838Y-94419167D01*
X80232883Y-94762943D01*
X80495673Y-95026192D01*
X80628042Y-95081156D01*
X79754000Y-95955198D01*
X79754000Y-86420802D01*
X82676802Y-83498000D01*
X87050950Y-83498000D01*
X87066191Y-83520809D01*
X87276235Y-83661157D01*
X87524000Y-83710440D01*
X88584000Y-83710440D01*
X88831765Y-83661157D01*
X89041809Y-83520809D01*
X89154000Y-83352905D01*
X89266191Y-83520809D01*
G36*
X95244000Y-74982802D02*
X95244000Y-78178945D01*
X95032839Y-78037852D01*
X94742000Y-77980000D01*
X93472000Y-77980000D01*
X93181160Y-78037852D01*
X92934599Y-78202599D01*
X92680599Y-78456599D01*
X92515852Y-78703161D01*
X92458000Y-78994000D01*
X92458000Y-83001198D01*
X91723401Y-82266599D01*
X91476839Y-82101852D01*
X91318800Y-82070416D01*
X91241809Y-81955191D01*
X91031765Y-81814843D01*
X90896815Y-81788000D01*
X91031765Y-81761157D01*
X91241809Y-81620809D01*
X91382157Y-81410765D01*
X91431440Y-81163000D01*
X91431440Y-80513000D01*
X91382157Y-80265235D01*
X91241809Y-80055191D01*
X91031765Y-79914843D01*
X90784000Y-79865560D01*
X89724000Y-79865560D01*
X89476235Y-79914843D01*
X89266191Y-80055191D01*
X89154000Y-80223095D01*
X89041809Y-80055191D01*
X88831765Y-79914843D01*
X88584000Y-79865560D01*
X87524000Y-79865560D01*
X87276235Y-79914843D01*
X87066191Y-80055191D01*
X86925843Y-80265235D01*
X86876560Y-80513000D01*
X86876560Y-81163000D01*
X86903936Y-81300631D01*
X86889000Y-81336690D01*
X86889000Y-81502250D01*
X87047750Y-81661000D01*
X87126341Y-81661000D01*
X87276235Y-81761157D01*
X87411185Y-81788000D01*
X87276235Y-81814843D01*
X87126341Y-81915000D01*
X87047750Y-81915000D01*
X86984750Y-81978000D01*
X82362000Y-81978000D01*
X82071160Y-82035852D01*
X81824599Y-82200599D01*
X78456599Y-85568599D01*
X78291852Y-85815161D01*
X78234000Y-86106000D01*
X78234000Y-91891198D01*
X77722000Y-91379198D01*
X77722000Y-85404802D01*
X86641052Y-76485750D01*
X89813000Y-76485750D01*
X89813000Y-76951310D01*
X89909673Y-77184699D01*
X90088302Y-77363327D01*
X90321691Y-77460000D01*
X90662250Y-77460000D01*
X90821000Y-77301250D01*
X90821000Y-76327000D01*
X89971750Y-76327000D01*
X89813000Y-76485750D01*
X86641052Y-76485750D01*
X87678112Y-75448690D01*
X89813000Y-75448690D01*
X89813000Y-75914250D01*
X89971750Y-76073000D01*
X90821000Y-76073000D01*
X90821000Y-75098750D01*
X91075000Y-75098750D01*
X91075000Y-76073000D01*
X91095000Y-76073000D01*
X91095000Y-76327000D01*
X91075000Y-76327000D01*
X91075000Y-77301250D01*
X91233750Y-77460000D01*
X91574309Y-77460000D01*
X91807698Y-77363327D01*
X91949346Y-77221680D01*
X91990191Y-77282809D01*
X92200235Y-77423157D01*
X92448000Y-77472440D01*
X93448000Y-77472440D01*
X93695765Y-77423157D01*
X93905809Y-77282809D01*
X94046157Y-77072765D01*
X94095440Y-76825000D01*
X94095440Y-75575000D01*
X94046157Y-75327235D01*
X93905809Y-75117191D01*
X93695765Y-74976843D01*
X93668914Y-74971502D01*
X93650148Y-74877161D01*
X93645053Y-74869536D01*
X93645162Y-74744833D01*
X93503117Y-74401057D01*
X93240327Y-74137808D01*
X92896799Y-73995162D01*
X92524833Y-73994838D01*
X92181057Y-74136883D01*
X91917808Y-74399673D01*
X91775162Y-74743201D01*
X91774918Y-75023095D01*
X91574309Y-74940000D01*
X91233750Y-74940000D01*
X91075000Y-75098750D01*
X90821000Y-75098750D01*
X90662250Y-74940000D01*
X90321691Y-74940000D01*
X90088302Y-75036673D01*
X89909673Y-75215301D01*
X89813000Y-75448690D01*
X87678112Y-75448690D01*
X89214803Y-73912000D01*
X94173198Y-73912000D01*
X95244000Y-74982802D01*
X95244000Y-74982802D01*
G37*
X95244000Y-74982802D02*
X95244000Y-78178945D01*
X95032839Y-78037852D01*
X94742000Y-77980000D01*
X93472000Y-77980000D01*
X93181160Y-78037852D01*
X92934599Y-78202599D01*
X92680599Y-78456599D01*
X92515852Y-78703161D01*
X92458000Y-78994000D01*
X92458000Y-83001198D01*
X91723401Y-82266599D01*
X91476839Y-82101852D01*
X91318800Y-82070416D01*
X91241809Y-81955191D01*
X91031765Y-81814843D01*
X90896815Y-81788000D01*
X91031765Y-81761157D01*
X91241809Y-81620809D01*
X91382157Y-81410765D01*
X91431440Y-81163000D01*
X91431440Y-80513000D01*
X91382157Y-80265235D01*
X91241809Y-80055191D01*
X91031765Y-79914843D01*
X90784000Y-79865560D01*
X89724000Y-79865560D01*
X89476235Y-79914843D01*
X89266191Y-80055191D01*
X89154000Y-80223095D01*
X89041809Y-80055191D01*
X88831765Y-79914843D01*
X88584000Y-79865560D01*
X87524000Y-79865560D01*
X87276235Y-79914843D01*
X87066191Y-80055191D01*
X86925843Y-80265235D01*
X86876560Y-80513000D01*
X86876560Y-81163000D01*
X86903936Y-81300631D01*
X86889000Y-81336690D01*
X86889000Y-81502250D01*
X87047750Y-81661000D01*
X87126341Y-81661000D01*
X87276235Y-81761157D01*
X87411185Y-81788000D01*
X87276235Y-81814843D01*
X87126341Y-81915000D01*
X87047750Y-81915000D01*
X86984750Y-81978000D01*
X82362000Y-81978000D01*
X82071160Y-82035852D01*
X81824599Y-82200599D01*
X78456599Y-85568599D01*
X78291852Y-85815161D01*
X78234000Y-86106000D01*
X78234000Y-91891198D01*
X77722000Y-91379198D01*
X77722000Y-85404802D01*
X86641052Y-76485750D01*
X89813000Y-76485750D01*
X89813000Y-76951310D01*
X89909673Y-77184699D01*
X90088302Y-77363327D01*
X90321691Y-77460000D01*
X90662250Y-77460000D01*
X90821000Y-77301250D01*
X90821000Y-76327000D01*
X89971750Y-76327000D01*
X89813000Y-76485750D01*
X86641052Y-76485750D01*
X87678112Y-75448690D01*
X89813000Y-75448690D01*
X89813000Y-75914250D01*
X89971750Y-76073000D01*
X90821000Y-76073000D01*
X90821000Y-75098750D01*
X91075000Y-75098750D01*
X91075000Y-76073000D01*
X91095000Y-76073000D01*
X91095000Y-76327000D01*
X91075000Y-76327000D01*
X91075000Y-77301250D01*
X91233750Y-77460000D01*
X91574309Y-77460000D01*
X91807698Y-77363327D01*
X91949346Y-77221680D01*
X91990191Y-77282809D01*
X92200235Y-77423157D01*
X92448000Y-77472440D01*
X93448000Y-77472440D01*
X93695765Y-77423157D01*
X93905809Y-77282809D01*
X94046157Y-77072765D01*
X94095440Y-76825000D01*
X94095440Y-75575000D01*
X94046157Y-75327235D01*
X93905809Y-75117191D01*
X93695765Y-74976843D01*
X93668914Y-74971502D01*
X93650148Y-74877161D01*
X93645053Y-74869536D01*
X93645162Y-74744833D01*
X93503117Y-74401057D01*
X93240327Y-74137808D01*
X92896799Y-73995162D01*
X92524833Y-73994838D01*
X92181057Y-74136883D01*
X91917808Y-74399673D01*
X91775162Y-74743201D01*
X91774918Y-75023095D01*
X91574309Y-74940000D01*
X91233750Y-74940000D01*
X91075000Y-75098750D01*
X90821000Y-75098750D01*
X90662250Y-74940000D01*
X90321691Y-74940000D01*
X90088302Y-75036673D01*
X89909673Y-75215301D01*
X89813000Y-75448690D01*
X87678112Y-75448690D01*
X89214803Y-73912000D01*
X94173198Y-73912000D01*
X95244000Y-74982802D01*
G36*
X89266191Y-81620809D02*
X89476235Y-81761157D01*
X89611185Y-81788000D01*
X89476235Y-81814843D01*
X89266191Y-81955191D01*
X89199801Y-82054551D01*
X89060250Y-81915000D01*
X88981659Y-81915000D01*
X88831765Y-81814843D01*
X88696815Y-81788000D01*
X88831765Y-81761157D01*
X88981659Y-81661000D01*
X89060250Y-81661000D01*
X89199801Y-81521449D01*
X89266191Y-81620809D01*
X89266191Y-81620809D01*
G37*
X89266191Y-81620809D02*
X89476235Y-81761157D01*
X89611185Y-81788000D01*
X89476235Y-81814843D01*
X89266191Y-81955191D01*
X89199801Y-82054551D01*
X89060250Y-81915000D01*
X88981659Y-81915000D01*
X88831765Y-81814843D01*
X88696815Y-81788000D01*
X88831765Y-81761157D01*
X88981659Y-81661000D01*
X89060250Y-81661000D01*
X89199801Y-81521449D01*
X89266191Y-81620809D01*
M02*
