M48
;DRILL file {KiCad no-vcs-found-7592~57~ubuntu16.04.1} date Sun Feb 12 17:12:29 2017
;FORMAT={-:-/ absolute / inch / decimal}
FMAT,2
INCH,TZ
T1C0.016
T2C0.028
T3C0.039
T4C0.126
%
G90
G05
M72
T1
X2.84Y-3.17
X2.86Y-3.2
X2.92Y-3.6
X2.95Y-3.65
X2.98Y-3.63
X3.Y-4.09
X3.01Y-3.65
X3.03Y-3.81
X3.05Y-3.68
X3.06Y-3.93
X3.14Y-4.02
X3.14Y-4.06
X3.18Y-3.99
X3.18Y-4.17
X3.19Y-3.71
X3.22Y-4.23
X3.25Y-3.77
X3.26Y-4.29
X3.27Y-2.84
X3.31Y-3.75
X3.31Y-4.23
X3.32Y-3.71
X3.35Y-4.45
X3.38Y-3.71
X3.38Y-4.42
X3.5Y-4.21
X3.55Y-4.45
X3.6Y-2.95
X3.61Y-3.82
X3.61Y-3.8593
X3.61Y-4.064
X3.65Y-2.95
X3.65Y-3.86
X3.65Y-4.27
X3.67Y-4.0306
X3.67Y-4.51
X3.68Y-3.78
X3.69Y-3.88
X3.69Y-3.92
X3.69Y-4.24
X3.73Y-3.96
X3.74Y-3.99
X3.78Y-3.67
X3.83Y-2.84
X3.86Y-4.03
X3.89Y-4.06
X3.89Y-4.46
X3.9Y-3.68
X3.99Y-4.06
X4.05Y-2.84
X4.11Y-3.6
X4.11Y-3.7
X4.14Y-2.94
X4.16Y-3.12
X4.17Y-3.25
X4.17Y-3.36
X4.17Y-4.37
X4.19Y-2.9
X4.19Y-3.
X4.19Y-3.44
X4.19Y-3.55
X4.23Y-3.05
X4.23Y-3.19
X4.23Y-3.25
X4.26Y-3.62
X4.2801Y-3.2999
X4.29Y-2.99
X4.29Y-3.13
X4.29Y-3.22
X4.3Y-4.
X4.31Y-2.86
X4.33Y-3.35
X4.4Y-3.6602
X4.42Y-2.86
X4.42Y-3.76
T2
X3.8Y-3.8
X3.8Y-3.9
T3
X2.7Y-2.95
X2.7Y-3.05
X2.7Y-3.15
X2.7Y-3.25
X2.7Y-3.35
X2.7Y-3.45
X4.Y-4.5
X4.1Y-4.5
X4.2Y-3.8
X4.2Y-3.9
X4.2Y-4.
X4.3Y-3.8
X4.3Y-3.9
X4.3Y-4.
X4.3Y-4.1
X4.3Y-4.2
X4.3Y-4.3
X4.3Y-4.4
X4.3Y-4.5
T4
X2.9Y-2.95
X2.9Y-4.55
X4.Y-3.85
T0
M30
