M48
;DRILL file {KiCad no-vcs-found-7592~57~ubuntu16.04.1} date Mon Feb 13 18:41:17 2017
;FORMAT={-:-/ absolute / inch / decimal}
FMAT,2
INCH,TZ
T1C0.016
T2C0.028
T3C0.039
T4C0.059
T5C0.126
%
G90
G05
M72
T1
X5.125Y-3.745
X5.145Y-3.775
X5.205Y-4.175
X5.235Y-4.225
X5.265Y-4.205
X5.285Y-4.665
X5.295Y-4.225
X5.315Y-4.385
X5.335Y-4.255
X5.345Y-4.505
X5.425Y-4.595
X5.425Y-4.635
X5.465Y-4.565
X5.465Y-4.745
X5.475Y-4.285
X5.505Y-4.805
X5.535Y-4.345
X5.545Y-4.865
X5.555Y-3.415
X5.595Y-4.325
X5.595Y-4.805
X5.605Y-4.285
X5.635Y-5.025
X5.665Y-4.285
X5.665Y-4.995
X5.785Y-4.785
X5.835Y-5.025
X5.885Y-3.525
X5.895Y-4.395
X5.895Y-4.4343
X5.895Y-4.639
X5.935Y-3.525
X5.935Y-4.435
X5.935Y-4.845
X5.955Y-4.6056
X5.955Y-5.085
X5.965Y-4.355
X5.975Y-4.455
X5.975Y-4.495
X5.975Y-4.815
X6.015Y-4.535
X6.025Y-4.565
X6.065Y-4.245
X6.115Y-3.415
X6.145Y-4.605
X6.175Y-4.635
X6.175Y-5.035
X6.185Y-4.255
X6.275Y-4.635
X6.335Y-3.415
X6.395Y-4.175
X6.395Y-4.275
X6.425Y-3.515
X6.445Y-3.695
X6.455Y-3.825
X6.455Y-3.935
X6.455Y-4.945
X6.475Y-3.475
X6.475Y-3.575
X6.475Y-4.015
X6.475Y-4.125
X6.515Y-3.625
X6.515Y-3.765
X6.515Y-3.825
X6.545Y-4.195
X6.5651Y-3.8749
X6.575Y-3.565
X6.575Y-3.705
X6.575Y-3.795
X6.585Y-4.575
X6.595Y-3.435
X6.615Y-3.925
X6.685Y-4.2352
X6.705Y-3.435
X6.705Y-4.335
T2
X6.085Y-4.375
X6.085Y-4.475
T3
X4.985Y-3.525
X4.985Y-3.625
X4.985Y-3.725
X4.985Y-3.825
X4.985Y-3.925
X4.985Y-4.025
X6.285Y-5.075
X6.385Y-5.075
X6.485Y-4.375
X6.485Y-4.475
X6.485Y-4.575
X6.585Y-4.375
X6.585Y-4.475
X6.585Y-4.575
X6.585Y-4.675
X6.585Y-4.775
X6.585Y-4.875
X6.585Y-4.975
X6.585Y-5.075
T4
X5.405Y-5.105
T5
X5.185Y-3.525
X5.185Y-5.125
X6.285Y-4.425
T0
M30
